<?xml version="1.0" encoding="iso-8859-1"?>
<!DOCTYPE svg PUBLIC "-//W3C//DTD SVG 20000303 Stylable//EN"   "http://www.w3.org/TR/2000/03/WD-SVG-20000303/DTD/svg-20000303-stylable.dtd">
<!-- Generator: Adobe Illustrator 9.0, SVG Export Plug-In  -->
<svg  width="200.954pt" height="200.954pt" viewBox="0 0 200.954 200.954" xml:space="preserve">
	<g id="Layer_x0020_1" style="fill-rule:nonzero;clip-rule:nonzero;stroke:#000000;stroke-miterlimit:4;">
		<path style="stroke:none;" d="M0,100.477c0,55.403,45.074,100.478,100.477,100.478c55.403,0,100.477-45.074,100.477-100.478C200.954,45.074,155.88,0,100.477,0C45.074,0,0,45.074,0,100.477z"/>
		<radialGradient id="aigrd1" cx="70.8823" cy="63.2881" r="125.1047" fx="70.8823" fy="63.2881" gradientUnits="userSpaceOnUse">
			<stop  offset="0" style="stop-color:#FED182"/>
			<stop  offset="0.2809" style="stop-color:#FFB310"/>
			<stop  offset="1" style="stop-color:#996E04"/>
		</radialGradient>
		<path style="fill-rule:evenodd;clip-rule:evenodd;fill:url(#aigrd1);stroke:none;" d="M185.192,99.477c0,47.339-38.377,85.716-85.715,85.716c-47.339,0-85.715-38.377-85.715-85.716s38.376-85.715,85.715-85.715c47.338,0,85.715,38.376,85.715,85.715z"/>
		<path style="fill-rule:evenodd;clip-rule:evenodd;fill:#FFFFFF;stroke:none;" d="M154.805,134.001l-21.537-21.537c3.488-6.888,5.467-14.664,5.467-22.898c0-28.048-22.818-50.867-50.867-50.867c-28.048,0-50.866,22.819-50.866,50.867
			c0,28.047,22.818,50.866,50.866,50.866c10.748,0,20.72-3.359,28.942-9.07l20.317,20.317c4.882,4.882,12.796,4.882,17.678,0s4.882-12.796,0-17.678z M62.001,89.566c0-14.263,11.604-25.867,25.866-25.867c14.263,0,25.867,11.604,25.867,25.867
			c0,14.262-11.604,25.866-25.867,25.866c-14.263,0-25.866-11.604-25.866-25.866z"/>
		<path style="fill-rule:evenodd;clip-rule:evenodd;stroke:none;" d="M152.805,132.001l-21.537-21.537c3.488-6.888,5.467-14.664,5.467-22.898c0-28.048-22.818-50.867-50.867-50.867c-28.048,0-50.866,22.819-50.866,50.867c0,28.047,22.818,50.866,50.866,50.866
			c10.748,0,20.72-3.359,28.942-9.07l20.317,20.317c4.882,4.882,12.796,4.882,17.678,0s4.882-12.796,0-17.678z M60.001,87.566c0-14.263,11.604-25.867,25.866-25.867c14.263,0,25.867,11.604,25.867,25.867c0,14.262-11.604,25.866-25.867,25.866
			c-14.263,0-25.866-11.604-25.866-25.866z"/>
		<radialGradient id="aigrd2" cx="71.835" cy="61.2534" r="115.0812" fx="71.835" fy="61.2534" gradientUnits="userSpaceOnUse">
			<stop  offset="0" style="stop-color:#FFFFFF"/>
			<stop  offset="1" style="stop-color:#F0E1BD"/>
		</radialGradient>
		<path style="fill-rule:evenodd;clip-rule:evenodd;fill:url(#aigrd2);stroke:none;" d="M153.805,133.001l-21.537-21.537c3.488-6.888,5.467-14.664,5.467-22.898c0-28.048-22.818-50.867-50.867-50.867c-28.048,0-50.866,22.819-50.866,50.867
			c0,28.047,22.818,50.866,50.866,50.866c10.748,0,20.72-3.359,28.942-9.07l20.317,20.317c4.882,4.882,12.796,4.882,17.678,0s4.882-12.796,0-17.678z M61.001,88.566c0-14.263,11.604-25.867,25.866-25.867c14.263,0,25.867,11.604,25.867,25.867
			c0,14.262-11.604,25.866-25.867,25.866c-14.263,0-25.866-11.604-25.866-25.866z"/>
	</g>
</svg>
