<?xml version="1.0" encoding="iso-8859-1"?>
<!DOCTYPE svg PUBLIC "-//W3C//DTD SVG 20000303 Stylable//EN"   "http://www.w3.org/TR/2000/03/WD-SVG-20000303/DTD/svg-20000303-stylable.dtd">
<!-- Generator: Adobe Illustrator 9.0, SVG Export Plug-In  -->
<svg  width="461.733pt" height="400.769pt" viewBox="0 0 461.733 400.769" xml:space="preserve">
	<g id="Layer_x0020_1" style="fill-rule:nonzero;clip-rule:nonzero;stroke:#000000;stroke-miterlimit:4;">
		<path style="opacity:0.25;stroke:none;" d="M444.299,235.774c14.467,3.437,27.146,25.008,6.922,38.699L245.168,397.881l-78.9-235.186l278.031,73.078z"/>
		<path style="stroke:none;" d="M167.64,138.112h0c0,0-0.306,0.117-0.589,0.225c-0.702,0.454-146.738,84.467-146.738,84.467l-0.288,0.127c-10.234,6.46-18.832,16.035-19.91,29.947c-0.139,1.789-0.177,3.643-0.116,5.511l0.008,0.246l2.351,40.476
			c0.66,13.996,9.189,19.916,14.215,22.203c0,0,0.293,0.133,0.436,0.199c0.234,0.09,201.063,77.021,201.063,77.021c12.898,4.792,27.699,2.232,36.791-6.381l143.324-109.816c8.973-8.105,9.602-16.203,9.807-18.864l0.115-1.709l2.496-32.213
			c0.332-4.289,0.951-12.272-1.359-19.892c-3.057-10.072-9.971-16.525-20.549-19.18l-189.811-53.617c-8.264-2.077-16.864-4.238-31.247,1.25z"/>
		<linearGradient id="aigrd1" gradientUnits="userSpaceOnUse" x1="17.6094" y1="232.2329" x2="382.1128" y2="232.2329" gradientTransform="matrix(0.997 0.0773 -0.0773 0.997 21.1243 -15.3674)">
			<stop  offset="0" style="stop-color:#CFCFCF"/>
			<stop  offset="1" style="stop-color:#EAEAEA"/>
		</linearGradient>
		<path style="fill:url(#aigrd1);stroke:none;" d="M196.228,151.407c-8.222-2.576-18.403-3.245-22.79-1.767c-4.385,1.479-141.212,79.988-148.727,84.828c-7.215,4.647-8.896,12.866,0.644,16.23c9.54,3.364,187.61,60.835,195.428,63.007
			c7.818,2.173,19.881,2.239,24.113-1.14c4.232-3.378,136.664-96.024,140.891-99.642c4.225-3.617-3.488-9.909-10.072-11.766c-6.588-1.857-171.266-47.175-179.487-49.751z"/>
		<linearGradient id="aigrd2" gradientUnits="userSpaceOnUse" x1="32.1533" y1="315.2563" x2="221.7637" y2="328.913" gradientTransform="matrix(0.997 0.0773 -0.0773 0.997 21.1243 -15.3674)">
			<stop  offset="0" style="stop-color:#F8F8F8"/>
			<stop  offset="1" style="stop-color:#B5B5B5"/>
		</linearGradient>
		<path style="fill:url(#aigrd2);stroke:none;" d="M12.635,258.184c-0.438-6.61,4.473-10.365,9.148-8.939s195.686,64.652,202.997,68.868c7.314,4.217,11.277,6.728,10.84,12.379c-0.439,5.651-2.902,37.44-3.277,42.255c-0.373,4.814-4.504,10.448-11.893,8.63
			c-21.086-5.188-198.052-75.644-198.052-75.644c-5.778-2.232-7.371-5.488-7.438-12.207l-2.324-35.342z"/>
		<linearGradient id="aigrd3" gradientUnits="userSpaceOnUse" x1="257.5708" y1="350.4897" x2="377.9395" y2="208.7836" gradientTransform="matrix(0.997 0.0773 -0.0773 0.997 21.1243 -15.3674)">
			<stop  offset="0" style="stop-color:#9F9F9F"/>
			<stop  offset="1" style="stop-color:#828282"/>
		</linearGradient>
		<path style="fill:url(#aigrd3);stroke:none;" d="M240.61,378.356c-3.482,2.98-9.98-0.67-9.457-7.419c0.523-6.748,2.818-36.343,3.275-42.255c0.459-5.912,3.094-10.871,7.314-14.239c4.219-3.367,137.533-96.071,142.689-100.484c5.154-4.413,7.643,3.484,7.279,8.186
			c-0.365,4.701-2.498,32.217-2.809,36.225s-0.867,6.688-4.971,10.171c-4.104,3.483-139.842,106.836-143.322,109.815z"/>
		<g style="fill:#FFFFFF;stroke:none;">
			<path d="M229.358,312.672c-12.008-0.931-207.474-66.385-209.126-66.926s-0.079-7.375,4.48-11.278c-12.576,8.144-12.1,22.682-12.1,22.682s1.586-6.46,7.576-7.44c24.102,8.35,193.115,66.897,199.66,69.074c7.047,2.344,9.637,10.496,9.502,17.271l2.473,39.192
				l4.213-38.922c0.482-6.216,3.283-18.215,10.602-23.038c3.635-2.395,90.607-65.217,122.719-88.419c-33.055,23.741-125.314,88.943-139.998,87.805z"/>
			<path d="M369.356,224.867c7.34-5.273,11.775-8.511,11.775-8.511s-4.473,3.233-11.775,8.511z"/>
		</g>
		<path style="fill:#848484;stroke:none;" d="M239.182,379.17c-4.348,3.721-7.197,4.467-16.393,2.542c6.189-1.906,9.033-6.466,9.033-6.466s1.754,3.947,7.359,3.924z"/>
		<g>
			<g>
				<path style="stroke:none;" d="M59.1,275.225l-0.721,13.979l-34.263-13.396l0.252-12.734l34.732,12.15z"/>
				<path style="fill:#2A2A26;stroke:none;" d="M58.34,275.017l-0.643,12.518l-30.796-12.009l0.221-11.403l31.217,10.895z"/>
				<path style="fill:#535445;stroke:none;" d="M57.581,274.808l-0.564,11.057l-27.329-10.623l0.191-10.073l27.702,9.638z"/>
				<path style="fill:#7B7D5B;stroke:none;" d="M56.822,274.599l-0.486,9.597l-23.862-9.237l0.161-8.742l24.188,8.383z"/>
				<path style="fill:#A3A76A;stroke:none;" d="M56.063,274.391l-0.408,8.135l-20.396-7.851l0.13-7.411l20.673,7.127z"/>
				<path style="fill:#C9CF71;stroke:none;" d="M55.304,274.182l-0.33,6.674l-16.928-6.464l0.1-6.081l17.158,5.871z"/>
				<path style="fill:#F0F970;stroke:none;" d="M54.544,273.973l-0.251,5.213l-13.461-5.078l0.069-4.75l13.643,4.615z"/>
			</g>
		</g>
		<path style="fill:#545454;stroke:none;" d="M377.208,201.648c7.932,3.354,10.916,8.619,7.225,12.311c4.287-2.713,7.316,7.225,7.316,7.225c0.6-5.807,0.492-15.615-14.541-19.536z"/>
		<path style="opacity:0.35;stroke:none;" d="M332.616,223.992c0,30.449-62.106,55.135-138.72,55.135c-76.612,0-138.719-24.686-138.719-55.135c0-30.452,62.107-55.137,138.719-55.137c76.613,0,138.72,24.685,138.72,55.137z"/>
		<path style="stroke:none;" d="M73.93,59.925c-27.313,23.23-42.354,54.442-42.354,87.886c0,33.445,15.041,64.656,42.354,87.886c26.38,22.437,61.282,34.794,98.277,34.794c36.996,0,71.898-12.357,98.276-34.794c27.313-23.23,42.354-54.442,42.354-87.886
			c0-33.443-15.04-64.655-42.354-87.886c-26.378-22.437-61.28-34.794-98.276-34.794c-36.995,0-71.897,12.357-98.277,34.794z M141.835,147.811c0-12.34,13.908-22.765,30.371-22.765c16.462,0,30.371,10.425,30.371,22.765s-13.909,22.767-30.371,22.767
			c-16.463,0-30.371-10.426-30.371-22.767z"/>
		<linearGradient id="aigrd4" gradientUnits="userSpaceOnUse" x1="143.5664" y1="72.0771" x2="195.1375" y2="208.852">
			<stop  offset="0" style="stop-color:#F7F9DA"/>
			<stop  offset="1" style="stop-color:#B0AF8F"/>
		</linearGradient>
		<path style="fill:url(#aigrd4);stroke:none;" d="M79.412,66.028c-25.155,21.396-39.009,50.002-39.009,80.548c0,30.545,13.854,59.151,39.009,80.547c24.702,21.01,57.461,32.582,92.243,32.582c34.784,0,67.542-11.572,92.245-32.582
			c25.154-21.396,39.009-50.002,39.009-80.547c0-30.546-13.854-59.152-39.009-80.548c-24.702-21.01-57.461-32.582-92.245-32.582c-34.782,0-67.542,11.572-92.243,32.582z M136.611,146.576c0-15.614,15.721-28.317,35.044-28.317c19.325,0,35.046,12.703,35.046,28.317
			c0,15.613-15.722,28.316-35.046,28.316c-19.324,0-35.044-12.703-35.044-28.316z"/>
		<linearGradient id="aigrd5" gradientUnits="userSpaceOnUse" x1="194.8618" y1="273.0562" x2="147.059" y2="19.982">
			<stop  offset="0" style="stop-color:#F1F2C9"/>
			<stop  offset="0.4944" style="stop-color:#B1B576"/>
			<stop  offset="0.5225" style="stop-color:#F7FAE2"/>
			<stop  offset="1" style="stop-color:#C4C4A3"/>
		</linearGradient>
		<path style="fill:url(#aigrd5);stroke:none;" d="M170.554,37.42c-69.446,0-125.744,47.883-125.744,106.952s56.297,106.953,125.744,106.953c69.447,0,125.745-47.884,125.745-106.953S240,37.42,170.554,37.42z M171.655,181.069
			c-22.397,0-40.554-15.443-40.554-34.494c0-19.05,18.157-34.493,40.554-34.493s40.553,15.443,40.553,34.493c0,19.051-18.156,34.494-40.553,34.494z"/>
		<linearGradient id="aigrd6" gradientUnits="userSpaceOnUse" x1="158.1172" y1="109.3398" x2="183.1295" y2="175.6764">
			<stop  offset="0" style="stop-color:#F8F8F4"/>
			<stop  offset="1" style="stop-color:#E3E0B8"/>
		</linearGradient>
		<path style="fill:url(#aigrd6);stroke:none;" d="M171.741,90.977c-36.51,0-66.108,24.397-66.108,54.495c0,30.096,29.598,54.494,66.108,54.494s66.107-24.398,66.107-54.494c0-30.097-29.598-54.495-66.107-54.495z M171.741,174.357
			c-20.722,0-37.52-12.933-37.52-28.885c0-15.953,16.798-28.885,37.52-28.885c20.724,0,37.521,12.933,37.521,28.885c0,15.952-16.798,28.885-37.521,28.885z"/>
		<path style="fill:#AFAFAF;stroke:none;" d="M196.395,126.539c-20.64-14.859-46.691-3.039-52.408,2.677c-5.717,5.717-9.206,17.259-3.718,29.945c-10.753-15.595-5.225-26.743,0.848-32.815c11.336-11.337,39.432-15.653,55.278,0.193z"/>
		<path style="fill:#FFFFFF;stroke:none;" d="M147.824,167.22c20.639,14.859,46.004,3.59,52.407-4.269c5.108-6.267,8.663-15.667,3.175-28.353c10.754,15.594,3.509,26.372-1.621,31.5c-7.596,7.598-34.287,17.337-53.961,1.123z"/>
		<path style="fill:none;stroke:none;" d="M368.025,299.609H4.213V0h363.812v299.609z"/>
		<linearGradient id="aigrd7" gradientUnits="userSpaceOnUse" x1="118.6895" y1="328.2437" x2="121.4199" y2="320.1831">
			<stop  offset="0" style="stop-color:#FFFFFF"/>
			<stop  offset="1" style="stop-color:#000000"/>
		</linearGradient>
		<path style="opacity:0.5;fill:url(#aigrd7);stroke:none;" d="M217.173,351.445v6.561L24.581,285.567l192.592,65.878z"/>
		<path style="opacity:0.83;fill:#FFFFFF;stroke:none;" d="M217.173,358.005l-3.526,3.652L24.581,285.567l192.592,72.438z"/>
	</g>
</svg>
