<?xml version="1.0" encoding="iso-8859-1"?>
<!DOCTYPE svg PUBLIC "-//W3C//DTD SVG 20000303 Stylable//EN"   "http://www.w3.org/TR/2000/03/WD-SVG-20000303/DTD/svg-20000303-stylable.dtd">
<!-- Generator: Adobe Illustrator 9.0, SVG Export Plug-In  -->
<svg  width="520.621pt" height="428.746pt" viewBox="0 0 520.621 428.746" xml:space="preserve">
	<g id="Layer_x0020_1" style="fill-rule:nonzero;clip-rule:nonzero;stroke:#000000;stroke-miterlimit:4;">
		<path style="opacity:0.35;stroke:none;" d="M469.951,320.535c0,43.575-88.875,78.9-198.51,78.9c-109.634,0-198.51-35.325-198.51-78.9s88.876-78.899,198.51-78.899c109.635,0,198.51,35.324,198.51,78.899z"/>
		<path style="stroke:none;" d="M99.766,85.754c-39.083,33.242-60.608,77.907-60.608,125.766c0,47.859,21.525,92.523,60.608,125.767c37.75,32.107,87.695,49.791,140.636,49.791c52.941,0,102.887-17.684,140.635-49.791c39.086-33.243,60.609-77.908,60.609-125.767
			s-21.523-92.522-60.609-125.766c-37.748-32.109-87.693-49.792-140.635-49.792c-52.941,0-102.886,17.683-140.636,49.792z M196.941,211.52c0-17.659,19.903-32.578,43.461-32.578s43.461,14.919,43.461,32.578s-19.902,32.578-43.461,32.578
			s-43.461-14.919-43.461-32.578z"/>
		<linearGradient id="aigrd1" gradientUnits="userSpaceOnUse" x1="199.417" y1="103.144" x2="273.216" y2="298.8709">
			<stop  offset="0" style="stop-color:#FFFFFF"/>
			<stop  offset="1" style="stop-color:#9B9B9B"/>
		</linearGradient>
		<path style="fill:url(#aigrd1);stroke:none;" d="M107.611,94.487c-35.998,30.618-55.823,71.553-55.823,115.265c0,43.711,19.825,84.646,55.823,115.265c35.349,30.066,82.229,46.625,132.002,46.625c49.775,0,96.654-16.559,132.002-46.625
			c35.998-30.618,55.824-71.553,55.824-115.265s-19.826-84.646-55.824-115.265c-35.348-30.066-82.227-46.625-132.002-46.625c-49.773,0-96.653,16.559-132.002,46.625z M189.464,209.752c0-22.344,22.497-40.521,50.149-40.521s50.15,18.178,50.15,40.521
			s-22.498,40.521-50.15,40.521s-50.149-18.178-50.149-40.521z"/>
		<linearGradient id="aigrd2" gradientUnits="userSpaceOnUse" x1="272.8223" y1="390.7559" x2="204.4141" y2="28.5946">
			<stop  offset="0" style="stop-color:#FFFFFF"/>
			<stop  offset="0.4944" style="stop-color:#858585"/>
			<stop  offset="0.5225" style="stop-color:#FFFFFF"/>
			<stop  offset="1" style="stop-color:#C2C2C2"/>
		</linearGradient>
		<path style="fill:url(#aigrd2);stroke:none;" d="M238.037,53.548c-99.378,0-179.941,68.523-179.941,153.05c0,84.528,80.563,153.051,179.941,153.051c99.379,0,179.942-68.522,179.942-153.051c0-84.526-80.563-153.05-179.942-153.05z M239.613,259.112
			c-32.051,0-58.033-22.099-58.033-49.36c0-27.261,25.982-49.36,58.033-49.36s58.033,22.1,58.033,49.36c0,27.262-25.982,49.36-58.033,49.36z"/>
		<linearGradient id="aigrd3" gradientUnits="userSpaceOnUse" x1="221.3687" y1="146.9468" x2="258.4326" y2="270.4937">
			<stop  offset="0" style="stop-color:#FFFFFF"/>
			<stop  offset="1" style="stop-color:#C2C2C2"/>
		</linearGradient>
		<path style="opacity:0.79;fill:url(#aigrd3);stroke:none;" d="M239.736,130.189c-52.248,0-94.602,34.914-94.602,77.983c0,43.068,42.354,77.982,94.602,77.982c52.246,0,94.602-34.914,94.602-77.982c0-43.069-42.355-77.983-94.602-77.983z M239.736,249.507
			c-29.654,0-53.693-18.506-53.693-41.334c0-22.829,24.039-41.335,53.693-41.335s53.693,18.506,53.693,41.335c0,22.828-24.039,41.334-53.693,41.334z"/>
		<path style="fill:#AFAFAF;stroke:none;" d="M275.016,181.079c-29.535-21.264-66.815-4.35-74.996,3.831s-13.173,24.698-5.32,42.852c-15.389-22.316-7.477-38.27,1.213-46.959c16.223-16.223,56.428-22.4,79.104,0.276z"/>
		<path style="fill:#FFFFFF;stroke:none;" d="M205.51,239.295c29.535,21.264,65.832,5.137,74.996-6.109c7.309-8.969,12.396-22.421,4.543-40.573c15.389,22.315,5.021,37.737-2.318,45.076c-10.871,10.872-49.066,24.808-77.22,1.606z"/>
		<path style="fill:none;stroke:none;" d="M520.621,428.746H0V0h520.621v428.746z"/>
		<path style="stroke:none;" d="M236.186,55.804c-4.089,1.278-6.253,4.175-7.293,5.567c0,0-0.15,0.202-0.153,0.205l-1.579,1.909c0,0-0.83,0.974-0.831,0.975l-12.717,15.117l-3.497,4.131c-2.981,3.51-6.063,7.14-9.029,10.866c0,0-0.669,0.877-1.253,1.643
			c-0.808-2.558-1.625-5.122-2.527-7.682l-2.033-5.628c-1.457-3.981-2.832-7.741-3.986-11.543l-0.464-1.571c-0.592-2.032-1.263-4.336-2.281-6.686l0.038,0.088l-0.045-0.112c-2.411-6.228-7.033-7.61-9.58-7.881l-2.958-0.049c0,0-0.332,0.014-0.335,0.014
			c-0.021,0-119.785,0-119.785,0s0,5,0,10c-4.855-1.194-9.71-2.388-9.71-2.388l-3.564,14.46l-0.168,0.574c-0.385,1.273-0.966,3.198-0.966,5.508c0,0,0.356,0.816,0.474,1.083c-1.053,1.394-1.787,3.073-2.059,4.972c0,0,0.123-0.628,0.122-0.624
			c0,0-1.02,4.23-1.02,4.23l-6.921,28.939c0,0-2.323,9.755-2.323,9.756l-0.7,2.989l-1.488,6.15l-0.242,0.809c-0.454,1.461-1.14,3.67-1.14,6.257v10h34.556l16.821,0.042l2.618,0.01c7.293,0.027,13.741-0.425,19.71-1.381c13.081-2.096,24.945-6.268,35.265-12.399
			c9.977-5.927,17.546-12.683,22.616-20.155c0.129,0.364,7.544,21.318,7.544,21.318l1.896,5.433c1.492,4.306,3.035,8.759,4.742,13.157l0.094,0.24c0,0,1.243,3.422,1.244,3.424c0,0,0.321,1.219,0.323,1.229c1.122,5.271,5.612,8.664,10.928,8.25l-0.557,0.02
			l6.643-1.625c0,0,0.855-1.543,1.645-2.965c0-0.001,0.637-0.742,0.637-0.742c2.685-3.26,5.548-6.385,8.58-9.692c0,0,3.807-4.181,3.808-4.181l13.679-15.423l7.216-8.178l8.215-9.288c0,0,1.362-1.535,3.315-3.737c-0.725,3.047-1.412,5.941-1.412,5.941
			c0,0-2.271,9.584-2.271,9.586l-0.588,2.275c-0.626,2.335-1.335,4.981-1.601,7.949l-0.975,10.892h40.489l4.976,0.017c11.339,0.059,23.064,0.117,34.905-2.442c6.546-1.416,12.943-3.457,19.014-6.065c6.729-2.893,12.582-6.61,17.42-9.865
			c10.611-7.139,18.569-17.619,21.833-28.752c1.98-6.753,2.119-13.664,0.401-19.982c-1.742-6.412-5.526-12.584-10.941-17.85c-8.488-8.251-20.329-13.742-35.194-16.321c-3.091-0.537-6.372-0.948-9.755-1.224c-2.912-0.236-5.668-0.224-8.333-0.211
			c0,0-2.144,0.005-2.145,0.005l-19.736-0.023h-19.709l-5.75,0.04c-4.264,0.045-8.292,0.088-12.283-0.087l-0.945-0.052c-2.323-0.14-5.505-0.33-8.92,0.737z M87.977,73.552c-4.245-0.459,4.04,0,0,0z M63.411,100.318c0,0,3.385,0,6.009,0
			C68.598,103.79,63,127.426,63,127.426s-1.823,7.868-2.422,10.456c-0.174,0-6.114,0-11.75,0c0.182-0.777,0.367-1.567,0.367-1.567l2.325-9.763c0,0,4.569-19.106,6.274-26.233c2.719,0,5.618,0,5.618,0z M87.128,112.329c0,0,4.015-16.95,4.435-18.723
			c2.276,0.047,4.518,0.136,6.69,0.371c2.138,0.231,12.831,1.67,13.43,7.272c0.035,0.325,0.052,0.649,0.052,0.972c0,5.287-4.522,10.239-8.969,12.728c-1.461,0.818-3.188,1.47-5.334,2.197c-2.979,1.01-5.374,1.648-7.539,2.007c-1.45,0.241-2.955,0.376-4.492,0.469
			c0.805-3.4,1.728-7.293,1.728-7.293z M135.865,75.167c0,0,4.966,0,6.99,0c0,2.626,0,7.891,0,7.891c0,3.26,0.804,5.849,1.473,8.002c0.438,1.413,0.726,2.958,0.904,4.863c0.099,1.059,0.148,2.092,0.148,3.097c0,3.451-0.583,6.578-1.74,9.327
			c-2.755,6.54-9.227,12.976-18.715,18.612c-4.494,2.67-9.436,4.827-14.708,6.552c0.773-0.365,1.542-0.675,2.318-1.109c11.921-6.673,19.2-18.272,19.2-30.188c0-1.029-0.054-2.061-0.165-3.091c-1.284-12.004-10.365-20.669-24.706-23.956c13.405,0,29.001,0,29.001,0z
			 M206.791,120.001l2.77-3.602l1.85-2.347l2.321-3.08c0,0,3.003-3.944,3.003-3.944c2.767-3.476,5.745-6.982,8.625-10.373l3.561-4.208l12.709-15.107l0.713-0.836c0,0,0.621-0.758,1.225-1.493c0.113,0.007,1.608,0.088,1.608,0.088
			c2.559,0.112,5.104,0.146,7.617,0.146c-2.454,1.383-4.011,3.315-4.81,4.328c0,0-0.22,0.276-0.234,0.294c-0.062,0.069-10.07,11.269-10.07,11.269l-18.273,20.593l-8.198,9.27l-7.256,8.224l-13.535,15.261c0,0-2.182,2.395-3.051,3.35
			c-0.422-1.206-0.842-2.393-1.271-3.633l-1.94-5.559l-13.341-37.699l-2.907-8.131c0,0-3.128-8.724-3.227-8.998c-0.022-0.075-0.063-0.221-0.063-0.221c-1.231-4.346-3.206-6.901-5.288-8.427c5.918,0,9.959,0,12.227,0c0.022,0.075,0.594,2.006,0.594,2.007
			c1.316,4.337,2.854,8.54,4.341,12.604l1.953,5.405c2.031,5.764,3.823,11.805,5.556,17.647c0.6,2.022,1.176,4.181,1.333,6.256c0.416,5.615,5.057,10.014,10.565,10.014l6.765-0.737c0,0,2.822-6.275,2.822-6.276c0.283-0.563,0.699-1.226,1.308-2.084z
			 M255.753,131.799l4.604-19.366l1.791-7.825l0.751-3.331c0,0,0.104-0.431,0.247-1.012c1.733,0.023,4.005,0.054,4.005,0.054s4.092,0,7.755,0c-0.428,1.802-0.86,3.628-0.86,3.628l-0.774,3.305l-1.044,4.382c-1.249,5.231-2.541,10.64-3.665,16.07
			c0,0-1.544,7.58-2.072,10.178c-3.347,0-6.231,0-12.179,0c0.668-2.817,1.441-6.083,1.441-6.083z M291.681,116.281c0,0,1.054-4.428,1.055-4.429l0.786-3.357l1.542-6.501l0.532-2.101c0.505-1.959,1.021-4.17,1.426-6.483c4.37,0.158,8.548,0.616,12.461,1.724
			c3.339,0.944,5.582,2.122,6.669,3.5c0.717,0.909,1.104,2.177,1.104,3.599c0,0.107-0.002,0.216-0.007,0.325c-0.188,4.642-3.47,9.205-8.78,12.207c-1.749,0.989-3.753,1.857-5.953,2.58c-2.889,0.948-5.395,1.574-7.448,1.863c-1.354,0.189-2.755,0.283-4.163,0.366
			c0.261-1.097,0.519-2.207,0.777-3.291z M318.313,132.173c11.376-6.432,18.449-17.201,18.92-28.805c0.015-0.376,0.022-0.752,0.022-1.127c0-5.91-1.896-11.55-5.398-15.992c-3.806-4.826-9.344-8.215-16.929-10.36c-0.771-0.218-1.54-0.35-2.311-0.534
			c2.695,0.226,5.297,0.55,7.726,0.972c10.824,1.877,19.125,5.564,24.672,10.956c2.849,2.77,4.778,5.796,5.583,8.755c0.33,1.216,0.495,2.509,0.495,3.851c0,1.696-0.264,3.469-0.788,5.259c-1.973,6.727-7.004,13.209-13.806,17.785
			c-4.071,2.739-8.937,5.842-14.153,8.083c-2.215,0.953-4.501,1.781-6.815,2.542c0.938-0.454,1.901-0.887,2.782-1.384z"/>
		<path style="fill:#FFFFFF;stroke:none;" d="M53.876,64.167c26.663,0,53.326,0,79.989,0c13.269,0,26.538,0,39.807,0c0.745,0,1.488-0.099,2.232-0.02c0.882,0.094,1.147,1.207,1.459,1.928c1.004,2.317,1.623,4.783,2.355,7.194c1.803,5.939,4.094,11.739,6.157,17.59
			c2.109,5.987,3.907,12.044,5.711,18.126c0.82,2.762,1.503,5.491,1.719,8.362c0.027,0.363,0.344,0.752,0.593,0.752c0.185-0.517,0.408-1.02,0.654-1.509c0.595-1.181,1.317-2.293,2.081-3.37c1.528-2.158,3.242-4.174,4.855-6.268c1.825-2.371,3.559-4.808,5.423-7.15
			c4-5.026,8.224-9.873,12.356-14.789c4.236-5.038,8.474-10.077,12.713-15.113c0.916-1.088,1.874-2.154,2.732-3.288c0.666-0.879,1.353-1.918,2.457-2.264c2.015-0.629,4.372-0.33,6.444-0.239c6.139,0.27,12.326,0.057,18.471,0.057c6.57,0,13.14,0,19.709,0
			c6.57,0,13.14,0.005,19.709,0.023c3.23,0.009,6.474-0.088,9.695,0.174c2.966,0.242,5.923,0.601,8.854,1.109c10.831,1.879,21.918,5.847,29.934,13.639c3.772,3.667,6.871,8.183,8.262,13.301c1.298,4.774,1.038,9.824-0.347,14.547
			c-2.794,9.53-9.661,17.78-17.819,23.269c-5.068,3.41-10.16,6.557-15.786,8.975c-5.53,2.377-11.297,4.207-17.18,5.479c-12.417,2.686-25.143,2.2-37.767,2.2c-9.852,0-19.703,0-29.555,0c0.267-2.98,1.273-5.911,1.96-8.815c0.756-3.192,1.512-6.385,2.27-9.578
			c1.533-6.457,3.07-12.913,4.605-19.37c0.875-3.68,1.682-7.37,2.519-11.058c0.398-1.754,0.808-3.507,1.285-5.242c0.256-0.928,0.461-2.273,1.101-3.038c0.319-0.381,1.063-0.428,1.513-0.48c1.002-0.115,2.019-0.108,3.025-0.089c2.362,0.045,4.716,0.106,7.08,0.106
			c6.759,0,13.519,0,20.278,0c-0.41,3.159-1.325,6.213-2.08,9.299c-0.808,3.305-1.564,6.624-2.347,9.935c-1.588,6.718-3.249,13.419-4.648,20.179c6.06,0,12.109,0.218,18.101-0.623c3.06-0.429,6.24-1.3,9.177-2.264c2.684-0.881,5.299-1.986,7.759-3.377
			c7.493-4.236,13.489-11.614,13.85-20.506c0.153-3.767-0.886-7.539-3.236-10.52c-2.907-3.687-7.384-5.682-11.799-6.931c-11.029-3.121-22.931-1.975-34.244-1.933c-3.282,0.012-6.564,0.027-9.847,0.041c-1.576,0.007-3.152,0.014-4.729,0.021
			c-1.616,0.007-3.425-0.213-5.019,0.056c-1.344,0.228-2.275,1.843-3.129,2.798c-1.152,1.29-2.305,2.581-3.457,3.871c-2.216,2.48-4.433,4.96-6.65,7.439c-8.858,9.902-17.63,19.882-26.44,29.827c-6.949,7.844-13.833,15.753-20.843,23.542
			c-4.241,4.713-8.644,9.311-12.674,14.208c-0.393,0.478-0.967,1.028-1.189,1.62c-0.008,0.021-0.015,0.045-0.015,0.066c-0.439,0-0.487,0.135-0.59-0.352c-0.148-0.701-0.333-1.394-0.543-2.078c-0.452-1.476-1.018-2.913-1.576-4.352
			c-2.343-6.035-4.373-12.205-6.534-18.308c-4.449-12.565-8.892-25.133-13.341-37.7c-1.373-3.878-2.772-7.747-4.16-11.62c-0.671-1.873-1.342-3.746-2.013-5.618c-0.36-1.004-0.869-3.984-2.358-3.984c0,1.77,0.499,3.349,1.024,5.04c0.702,2.264,1.088,4.53,1.309,6.894
			c0.546,5.84-0.042,11.801-2.333,17.238c-4.259,10.108-13.605,17.851-22.823,23.327c-9.708,5.768-20.617,9.34-31.74,11.121c-6.005,0.963-12.015,1.279-18.091,1.256c-6.492-0.023-12.984-0.052-19.476-0.052c-6.601,0-13.202,0-19.802,0c-1.584,0-3.169,0-4.753,0
			c0-1.485,0.679-3.094,1.055-4.53c0.813-3.1,1.499-6.238,2.242-9.356c3.073-12.891,6.127-25.785,9.238-38.667c0.341-1.413,0.682-2.826,1.022-4.239c0.125-0.521-0.013-0.771,0.583-0.771c0.397,0,0.794,0,1.191,0c0.794,0,1.588,0,2.382,0c3.176,0,6.353,0,9.529,0
			c6.218,0,12.436,0,18.654,0c-3.112,13.137-6.223,26.275-9.335,39.413c6.277,0,12.608,0.315,18.799-0.712c3.096-0.513,6.143-1.394,9.115-2.402c2.412-0.818,4.778-1.694,7.006-2.941c8.267-4.627,15.034-13.603,13.977-23.489
			c-1.174-10.982-12.794-15.122-22.296-16.151c-5.75-0.623-11.552-0.469-17.325-0.459c-6.601,0.011-13.201,0-19.802,0c-2.518,0-5.036,0-7.554,0c-0.53,0-1.061,0-1.591,0c-0.431,0-1.591,0.218-1.591-0.256c0-1.186,0.559-2.535,0.843-3.688
			c1.188-4.822,2.379-9.643,3.565-14.465"/>
	</g>
</svg>
