<?xml version="1.0" encoding="iso-8859-1"?>
<!DOCTYPE svg PUBLIC "-//W3C//DTD SVG 20000303 Stylable//EN"   "http://www.w3.org/TR/2000/03/WD-SVG-20000303/DTD/svg-20000303-stylable.dtd">
<!-- Generator: Adobe Illustrator 9.0, SVG Export Plug-In  -->
<svg  width="507.946pt" height="507.946pt" viewBox="0 0 507.946 507.946" xml:space="preserve">
	<g id="Layer_x0020_1" style="fill-rule:nonzero;clip-rule:nonzero;stroke:#000000;stroke-miterlimit:4;">
		<path style="stroke:none;" d="M134.757,263.776c0,66.739,54.298,121.04,121.039,121.04c66.739,0,121.039-54.301,121.039-121.04c0-66.741-54.3-121.039-121.039-121.039c-66.741,0-121.039,54.298-121.039,121.039z"/>
		<radialGradient id="aigrd1" cx="218.9404" cy="219.7715" r="150.7063" fx="218.9404" fy="219.7715" gradientUnits="userSpaceOnUse">
			<stop  offset="0" style="stop-color:#FED182"/>
			<stop  offset="0.2809" style="stop-color:#FFB310"/>
			<stop  offset="1" style="stop-color:#996E04"/>
		</radialGradient>
		<path style="fill-rule:evenodd;clip-rule:evenodd;fill:url(#aigrd1);stroke:none;" d="M356.643,263.366c0,57.027-46.23,103.257-103.256,103.257c-57.027,0-103.256-46.229-103.256-103.257c0-57.027,46.229-103.256,103.256-103.256
			c57.025,0,103.256,46.229,103.256,103.256z"/>
		<path style="fill:none;stroke:none;" d="M420.177,420.177H87.77V87.77h332.407v332.407z"/>
	</g>
	<g id="Layer_x0020_2" style="fill-rule:nonzero;clip-rule:nonzero;stroke:#000000;stroke-miterlimit:4;">
		<path style="opacity:0.7;fill:#FFFFFF;stroke:none;" d="M305.753,281.376c0,0-18.858-18.856-27.854-27.851c7.943-7.944,21.152-21.153,21.152-21.153c1.913-1.913,2.929-4.471,2.929-7.073c0-1.289-0.249-2.588-0.762-3.825c-1.548-3.736-5.193-6.173-9.238-6.173
			l-76.863,0c-5.523,0-10,4.477-10,10v76.867c0,4.045,2.437,7.691,6.173,9.239c3.737,1.548,8.039,0.691,10.898-2.169c0,0,13.208-13.211,21.152-21.155c8.996,8.996,27.852,27.854,27.852,27.854c1.875,1.876,4.419,2.93,7.071,2.93s5.195-1.054,7.071-2.929l20.42-20.42
			c1.875-1.876,2.929-4.419,2.929-7.071s-1.054-5.196-2.93-7.071z"/>
		<path style="fill:none;stroke:none;" d="M507.946,507.946H0V0h507.946v507.946z"/>
	</g>
</svg>
