<?xml version="1.0" encoding="iso-8859-1"?>
<!-- Generator: Adobe Illustrator 9.0, SVG Export Plug-In  -->
<!DOCTYPE svg PUBLIC "-//W3C//DTD SVG 20000303 Stylable//EN"   "http://www.w3.org/TR/2000/03/WD-SVG-20000303/DTD/svg-20000303-stylable.dtd" [
	<!ENTITY st0 "fill:url(#aigrd1);stroke:none;">
	<!ENTITY st1 "fill:#919187;stroke:none;">
	<!ENTITY st2 "fill:url(#aigrd6);stroke:none;">
	<!ENTITY st3 "fill:url(#aigrd3);stroke:none;">
	<!ENTITY st4 "fill:#808078;stroke:none;">
	<!ENTITY st5 "fill:#C1C2B4;stroke:none;">
	<!ENTITY st6 "fill:#F1F2E1;stroke:none;">
	<!ENTITY st7 "fill:url(#aigrd5);stroke:none;">
	<!ENTITY st8 "fill:url(#aigrd2);stroke:none;">
	<!ENTITY st9 "fill:none;stroke:none;">
	<!ENTITY st10 "fill-rule:nonzero;clip-rule:nonzero;stroke:#000000;stroke-miterlimit:4;">
	<!ENTITY st11 "stroke:none;">
	<!ENTITY st12 "fill:url(#aigrd4);stroke:none;">
]>
<svg  width="611.112pt" height="414.72pt" viewBox="0 0 611.112 414.72" xml:space="preserve">
	<g id="Layer_x0020_1" style="&st10;">
		<path style="&st11;" d="M257.271,363.772c0,22.412,23.289,39.969,53.021,39.969c29.731,0,53.02-17.557,53.02-39.969s-23.289-39.969-53.02-39.969c-29.731,0-53.021,17.557-53.021,39.969z"/>
		<path style="&st11;" d="M114.824,352.858v32.207H516.66v-40.207c0,0-170.494,0-184.279,0c0-14.459,0-189.528,0-189.528h-40.208c0,0,0,175.069,0,189.528c-13.576,0-177.349,0-177.349,0v8z"/>
		<linearGradient id="aigrd1" gradientUnits="userSpaceOnUse" x1="316.4722" y1="353.6089" x2="316.4722" y2="378.6089">
			<stop  offset="0" style="stop-color:#C2C4B5"/>
			<stop  offset="0.1851" style="stop-color:#E1E1D1"/>
			<stop  offset="0.3146" style="stop-color:#F1F2E1"/>
			<stop  offset="1" style="stop-color:#83867B"/>
		</linearGradient>
		<path style="&st0;" d="M510.154,353.653v24.207H122.791v-24.207h387.363z"/>
		<linearGradient id="aigrd2" gradientUnits="userSpaceOnUse" x1="299.0742" y1="260.8794" x2="323.1489" y2="260.8794">
			<stop  offset="0" style="stop-color:#C2C4B5"/>
			<stop  offset="0.1851" style="stop-color:#E1E1D1"/>
			<stop  offset="0.3146" style="stop-color:#F1F2E1"/>
			<stop  offset="1" style="stop-color:#83867B"/>
		</linearGradient>
		<path style="&st8;" d="M323.611,353.524c0,5.814-24.208,5.143-24.208,0V164.125h24.208v189.398z"/>
		<radialGradient id="aigrd3" cx="300.0005" cy="355.4614" r="44.2601" fx="300.0005" fy="355.4614" gradientUnits="userSpaceOnUse">
			<stop  offset="0" style="stop-color:#F1F2E1"/>
			<stop  offset="1" style="stop-color:#83867B"/>
		</radialGradient>
		<path style="&st3;" d="M352.312,362.772c0,16.553-19.26,29.969-43.02,29.969c-23.76,0-43.021-13.416-43.021-29.969c0-16.551,19.261-29.969,43.021-29.969c23.76,0,43.02,13.418,43.02,29.969z"/>
	</g>
	<g id="Layer_x0020_2" style="&st10;">
		<path style="&st11;" d="M384.59,20.543c-8.782,2.51-16.246,7.1-22.246,10.789c-5.952,3.66-11.091,6.819-15.057,6.819c-2.84-0.014-15.605-2.89-24.049-4.792c-32.217-7.26-76.333-17.2-101.387-7.588c-10.542,4.044-21.694,16.581-33.969,38.012
			c-5-0.896-10.85-1.943-10.85-1.943c-46.546-7.939-54.652-6.047-61.021-2.509c-7.039,3.91-11.364,11.291-12.856,21.938c-4.247,30.327,15.762,128.85,37.138,150.228c14.538,14.535,100.33,43.661,136.54,55.508c32.132,10.518,62.394,19.529,85.213,25.377
			c38.837,9.951,49.86,9.49,57.581,4.996c6.62-3.852,47.149-33.967,75.987-126.298c4.62-14.794,16.433-58.388,16.433-83.296c0-5.364-0.56-9.865-1.878-13.032c-6.863-16.494-21.104-19.631-29.611-21.505c-1.874-0.414-4.491-1.006-5.688-1.541
			c-0.183-1.168-0.322-3.261-0.38-4.176c-0.468-7.381-1.25-19.735-12.311-30.792c-18.212-18.215-58.117-21.758-77.59-16.195z"/>
		<path style="&st11;" d="M384.084,29.368c-7.633,2.182-14.249,6.25-20.086,9.837c-7.074,4.35-13.182,8.105-19.599,8.105c-3.745,0-15.039-2.544-25.957-5.005c-31.133-7.015-73.771-16.623-96.373-7.951c-24.634,9.45-54.032,84.99-59.675,100.037
			c-11.262,30.027-23.214,68.599-16.206,81.839c1.67,3.156,6.753,12.755,77.243,36.672c43.126,14.632,91.278,27.744,128.807,35.078c61.615,12.037,77.902,5.742,84.797-0.037c21.263-17.838,38.8-69.57,47.362-98.819c0.885-3.026,21.622-74.326,14.87-90.557
			c-5.129-12.325-15.728-14.66-23.466-16.365c-4.362-0.962-8.132-1.792-10.335-3.994c-1.868-1.869-2.176-4.131-2.525-9.648c-0.44-6.949-1.044-16.464-9.785-25.204c-15.216-15.215-51.82-18.917-69.073-13.988z"/>
		<linearGradient id="aigrd4" gradientUnits="userSpaceOnUse" x1="357.603" y1="58.5088" x2="293.9357" y2="229.0479">
			<stop  offset="0" style="stop-color:#989C80"/>
			<stop  offset="1" style="stop-color:#000000"/>
		</linearGradient>
		<path style="&st12;" d="M219.972,42.456c-27.044,10.375-81.194,151.061-71.32,169.713c9.875,18.656,248.36,93.654,277.599,69.126c33.126-27.791,65.909-164.707,59.798-179.396c-5.935-14.264-22.595-8.229-31.923-17.555c-9.324-9.327-0.24-22.783-12.311-34.853
			s-45.193-16.169-60.551-11.78c-15.361,4.39-26.71,18.276-42.071,18.276s-90.161-24.681-119.222-13.532z"/>
		<path style="&st5;" d="M149.915,208.342c2.847-46.36,43.673-153.27,68.072-165.887c24.4-12.618,107.709,13.532,121.207,13.532s23.975-13.249,42.071-18.276c18.097-5.027,49.22,0.449,60.551,11.78c9.575,9.577,5.915,28,10.352,32.439
			c4.44,4.44,26.418,10.72,31.042,15.345c0,0-25.917-7.047-32.628-13.756c-6.712-6.711-5.471-21.757-10.962-27.248c-5.488-5.49-49.501-15.044-61.202-9.962c-11.7,5.082-21.348,17.689-37.617,20.536c-16.267,2.846-93.126-24.4-116.713-10.573
			c-23.587,13.827-74.172,152.071-74.172,152.071z"/>
		<path style="&st4;" d="M479.067,93.685c11.803,9.92-13.013,123.626-47.013,181.655c37.254-51.521,55.28-153.364,55.28-166.719c0-3.118-2.095-11.642-8.268-14.936z"/>
		<path style="&st11;" d="M117.336,67.396c-6.83,3.794-8.07,12.649-8.478,15.558c-4.232,30.216,16.825,125.028,34.681,142.884c14.216,14.216,120.976,49.434,133.102,53.399c31.959,10.459,62.029,19.415,84.668,25.217c39.214,10.051,46.729,8.428,51.064,5.906
			c4.396-2.561,7.342-7.535,9.552-16.131c8.982-34.964,4.745-136.463-6.478-155.148c-2.767-4.602-9.312-10.608-52.277-23.707c-24.94-7.604-58.639-16.428-94.891-24.847c-34.997-8.128-68.947-15.108-95.597-19.654c-47.136-8.04-52.078-5.294-55.348-3.478z"/>
		<linearGradient id="aigrd5" gradientUnits="userSpaceOnUse" x1="275.3589" y1="183.1309" x2="324.4667" y2="309.0255">
			<stop  offset="0" style="stop-color:#DEDFCE"/>
			<stop  offset="1" style="stop-color:#C2C4B5"/>
		</linearGradient>
		<path style="&st7;" d="M404.538,301.124c15.531-9.035,11.324-140.453,0-159.309S133.507,64.676,118.08,73.246c-15.428,8.571,11.268,127.866,28.125,144.722c16.858,16.856,242.805,92.192,258.333,83.155z"/>
		<linearGradient id="aigrd6" gradientUnits="userSpaceOnUse" x1="213.6899" y1="137.6465" x2="237.6466" y2="222.7334">
			<stop  offset="0" style="stop-color:#DEDFCE"/>
			<stop  offset="1" style="stop-color:#FFFFFF"/>
		</linearGradient>
		<path style="&st2;" d="M219.075,249.702c-48.209-106.15,116.638-28.229,81.892-143.218c0,0-173.662-42.463-182.887-33.237c-14.785,14.785,8.894,118.291,27.015,143.18c7.491,10.287,73.98,33.275,73.98,33.275z"/>
		<path style="&st6;" d="M149.301,220.07c-14.497-22.693-39.805-119.507-20.994-131.083c28.063-17.27,243.667,37.667,243.667,37.667c-20.263-6.876-229.021-65.374-253.895-53.407c-15.081,7.255,10.145,134.55,31.221,146.824z"/>
		<path style="&st1;" d="M405.127,142.735c9.287,12.082,15.877,148.689-0.658,158.057c-16.53,9.369-184.416-51.219-184.416-51.219s165.991,57.572,180.65,45.355c14.663-12.213,13.199-89.413,4.424-152.193z"/>
		<path style="&st9;" d="M0,414.72h611.112V0H0v414.72z"/>
	</g>
</svg>
