<?xml version="1.0" encoding="iso-8859-1"?>
<!DOCTYPE svg PUBLIC "-//W3C//DTD SVG 20000303 Stylable//EN"   "http://www.w3.org/TR/2000/03/WD-SVG-20000303/DTD/svg-20000303-stylable.dtd">
<!-- Generator: Adobe Illustrator 9.0, SVG Export Plug-In  -->
<svg  width="282.773pt" height="194.049pt" viewBox="0 0 282.773 194.049" xml:space="preserve">
	<g id="Layer_x0020_2" style="fill-rule:nonzero;clip-rule:nonzero;stroke:#000000;stroke-miterlimit:4;">
		<path style="stroke:none;" d="M190.663,5.936c-5.061,1.446-9.362,4.091-12.819,6.217c-3.429,2.109-6.391,3.93-8.675,3.93c-1.638-0.008-8.992-1.666-13.857-2.762C136.747,9.138,111.326,3.41,96.89,8.948c-6.075,2.331-12.5,9.554-19.573,21.903
			c-2.881-0.516-6.252-1.12-6.252-1.12c-26.821-4.575-31.491-3.485-35.162-1.446c-4.056,2.253-6.548,6.506-7.408,12.641c-2.447,17.475,9.083,74.245,21.4,86.563c8.377,8.377,57.812,25.158,78.677,31.986c18.515,6.059,35.952,11.252,49.101,14.621
			c22.379,5.734,28.731,5.469,33.181,2.881c3.813-2.221,27.168-19.574,43.785-72.777c2.662-8.524,9.468-33.643,9.468-47.996c0-3.091-0.322-5.685-1.082-7.509c-3.955-9.504-12.159-11.312-17.062-12.392c-1.08-0.238-2.589-0.58-3.278-0.888
			c-0.104-0.673-0.185-1.879-0.218-2.406c-0.27-4.253-0.722-11.372-7.094-17.743C224.877,4.772,201.883,2.73,190.663,5.936z"/>
		<path style="opacity:0.35;stroke:none;" d="M197.302,189.346c-19.362,3.051-140.636-33.053-150.459-43.861c-9.823-10.803,43.331-26.141,68.718-28.363c25.388-2.225,148.77,18.648,161.874,32.678c13.104,14.027-60.771,36.494-80.133,39.547z"/>
		<path style="stroke:none;" d="M190.372,11.021c-4.399,1.257-8.212,3.601-11.574,5.668c-4.076,2.506-7.597,4.67-11.294,4.67c-2.158,0-8.665-1.466-14.957-2.884c-17.939-4.042-42.507-9.578-55.531-4.582C82.821,19.339,65.881,62.867,62.63,71.537
			c-6.489,17.302-13.376,39.529-9.338,47.158c0.962,1.816,3.891,7.35,44.509,21.131c24.85,8.43,52.596,15.986,74.221,20.211c35.505,6.938,44.89,3.311,48.861-0.021c12.253-10.279,22.358-40.088,27.291-56.941c0.511-1.744,12.46-42.827,8.568-52.18
			c-2.955-7.102-9.063-8.447-13.521-9.43c-2.514-0.554-4.686-1.033-5.954-2.301c-1.077-1.077-1.255-2.38-1.456-5.56c-0.254-4.004-0.602-9.487-5.639-14.523c-8.767-8.767-29.858-10.9-39.8-8.06z"/>
		<linearGradient id="aigrd1" gradientUnits="userSpaceOnUse" x1="174.9414" y1="27.749" x2="138.2552" y2="126.0165">
			<stop  offset="0" style="stop-color:#989C80"/>
			<stop  offset="1" style="stop-color:#000000"/>
		</linearGradient>
		<path style="fill:url(#aigrd1);stroke:none;" d="M95.807,18.563c-15.583,5.978-46.786,87.045-41.096,97.793c5.69,10.748,143.11,53.965,159.958,39.83c19.087-16.012,37.979-94.906,34.457-103.371c-3.42-8.219-13.021-4.742-18.395-10.116s-0.14-13.128-7.095-20.083
			c-6.954-6.955-26.04-9.317-34.891-6.788c-8.852,2.529-15.391,10.531-24.242,10.531s-51.952-14.222-68.697-7.797z"/>
		<path style="fill:#C1C2B4;stroke:none;" d="M55.438,114.148c1.641-26.712,25.165-88.316,39.225-95.586c14.06-7.271,62.063,7.797,69.841,7.797s13.814-7.634,24.242-10.531c10.428-2.896,28.362,0.259,34.891,6.788c5.519,5.519,3.408,16.134,5.966,18.692
			c2.559,2.559,15.222,6.177,17.887,8.842c0,0-14.935-4.061-18.801-7.927c-3.867-3.867-3.152-12.537-6.316-15.701c-3.163-3.164-28.523-8.669-35.267-5.74c-6.742,2.928-12.301,10.193-21.675,11.833s-53.662-14.06-67.253-6.092s-42.739,87.625-42.739,87.625z"/>
		<path style="fill:#808078;stroke:none;" d="M245.103,48.082c6.801,5.716-7.498,71.237-27.091,104.672c21.467-29.688,31.854-88.37,31.854-96.066c0-1.796-1.207-6.708-4.764-8.606z"/>
		<path style="stroke:none;" d="M36.666,32.934c-3.936,2.186-4.65,7.289-4.885,8.965c-2.438,17.411,9.695,72.044,19.984,82.333c8.191,8.191,69.708,28.482,76.696,30.77c18.416,6.027,35.742,11.188,48.787,14.529c22.597,5.791,26.926,4.857,29.424,3.402
			c2.534-1.475,4.231-4.34,5.504-9.295c5.176-20.146,2.734-78.631-3.732-89.398c-1.593-2.652-5.365-6.112-30.122-13.66c-14.372-4.381-33.79-9.466-54.678-14.317c-20.166-4.684-39.729-8.706-55.084-11.325c-27.161-4.633-30.008-3.051-31.893-2.004z"/>
		<linearGradient id="aigrd2" gradientUnits="userSpaceOnUse" x1="127.7222" y1="99.623" x2="156.0192" y2="172.1664">
			<stop  offset="0" style="stop-color:#DEDFCE"/>
			<stop  offset="1" style="stop-color:#C2C4B5"/>
		</linearGradient>
		<path style="fill:url(#aigrd2);stroke:none;" d="M202.157,167.613c8.948-5.207,6.525-80.933,0-91.798C195.631,64.95,45.984,31.366,37.094,36.305s6.493,73.678,16.207,83.393c9.714,9.713,139.908,53.123,148.856,47.916z"/>
		<linearGradient id="aigrd3" gradientUnits="userSpaceOnUse" x1="92.187" y1="73.4141" x2="105.9914" y2="122.4433">
			<stop  offset="0" style="stop-color:#DEDFCE"/>
			<stop  offset="1" style="stop-color:#FFFFFF"/>
		</linearGradient>
		<path style="fill:url(#aigrd3);stroke:none;" d="M95.29,137.982c-27.779-61.167,67.208-16.268,47.188-82.526c0,0-100.067-24.468-105.383-19.152c-8.519,8.519,5.125,68.162,15.566,82.502c4.316,5.93,42.629,19.176,42.629,19.176z"/>
		<path style="fill:#F1F2E1;stroke:none;" d="M55.084,120.908c-8.353-13.078-22.936-68.863-12.097-75.534c16.17-9.951,140.406,21.704,140.406,21.704C171.717,63.116,51.427,29.409,37.094,36.305c-8.69,4.181,5.846,77.529,17.99,84.604z"/>
		<path style="fill:#919187;stroke:none;" d="M202.497,76.345c5.351,6.962,9.147,85.676-0.379,91.075S95.854,137.908,95.854,137.908s95.646,33.172,104.095,26.135c8.448-7.039,7.604-51.521,2.549-87.698z"/>
		<path style="fill:none;stroke:none;" d="M0,191.898h282.773V0H0v191.898z"/>
	</g>
	<g id="Layer_x0020_1" style="fill-rule:nonzero;clip-rule:nonzero;stroke:#000000;stroke-miterlimit:4;">
		<path style="stroke:none;" d="M1.122,126.754c0,37.105,30.188,67.295,67.295,67.295c37.106,0,67.295-30.189,67.295-67.295c0-37.106-30.189-67.295-67.295-67.295c-37.106,0-67.295,30.188-67.295,67.295z"/>
		<radialGradient id="aigrd4" cx="47.9263" cy="101.1768" r="83.7891" fx="47.9263" fy="101.1768" gradientUnits="userSpaceOnUse">
			<stop  offset="0" style="stop-color:#FED182"/>
			<stop  offset="0.2809" style="stop-color:#FFB310"/>
			<stop  offset="1" style="stop-color:#996E04"/>
		</radialGradient>
		<path style="fill-rule:evenodd;clip-rule:evenodd;fill:url(#aigrd4);stroke:none;" d="M124.486,125.414c0,31.705-25.703,57.408-57.408,57.408c-31.706,0-57.408-25.703-57.408-57.408c0-31.706,25.702-57.408,57.408-57.408c31.705,0,57.408,25.702,57.408,57.408z"/>
		<path style="opacity:0.75;fill-rule:evenodd;clip-rule:evenodd;fill:#FFFFFF;stroke:none;" d="M105.976,114.104l-10.313-7.685V92.165H82.306v4.303l-12.101-9.017c-2.368-1.764-5.613-1.764-7.98,0l-35.771,26.653c-2.308,1.721-3.254,4.726-2.349,7.457
			c0.906,2.732,3.46,4.577,6.338,4.577c0,0,1.846,0,3.317,0c0,8.47,0,26.112,0,26.112c0,3.688,2.99,6.679,6.678,6.679h51.729c3.688,0,6.678-2.99,6.678-6.679c0,0,0-17.643,0-26.112c1.367,0,3.141,0,3.141,0c2.879,0,5.433-1.845,6.339-4.577
			c0.23-0.69,0.341-1.399,0.341-2.101c0-2.069-0.965-4.071-2.69-5.356z"/>
	</g>
</svg>
