<?xml version="1.0" encoding="iso-8859-1"?>
<!-- Generator: Adobe Illustrator 9.0, SVG Export Plug-In  -->
<!DOCTYPE svg PUBLIC "-//W3C//DTD SVG 20000303 Stylable//EN"   "http://www.w3.org/TR/2000/03/WD-SVG-20000303/DTD/svg-20000303-stylable.dtd" [
	<!ENTITY st0 "fill:url(#aigrd1);stroke:none;">
	<!ENTITY st1 "fill:#8C8C8C;">
	<!ENTITY st2 "fill:#BBBBBA;">
	<!ENTITY st3 "fill:url(#aigrd3);stroke:none;">
	<!ENTITY st4 "opacity:0.35;fill-rule:evenodd;clip-rule:evenodd;stroke:none;">
	<!ENTITY st5 "fill-rule:evenodd;clip-rule:evenodd;">
	<!ENTITY st6 "fill:#FFFFFF;stroke:none;">
	<!ENTITY st7 "fill:#FFFFFF;">
	<!ENTITY st8 "fill-rule:evenodd;clip-rule:evenodd;fill:url(#aigrd5);">
	<!ENTITY st9 "fill-rule:evenodd;clip-rule:evenodd;fill:url(#aigrd6);">
	<!ENTITY st10 "fill-rule:evenodd;clip-rule:evenodd;fill:url(#aigrd7);">
	<!ENTITY st11 "fill-rule:evenodd;clip-rule:evenodd;fill:url(#aigrd8);">
	<!ENTITY st12 "fill:#9F9F9F;">
	<!ENTITY st13 "fill:url(#aigrd2);stroke:none;">
	<!ENTITY st14 "fill:#BEBEBE;stroke:none;">
	<!ENTITY st15 "fill:#000000;">
	<!ENTITY st16 "fill-rule:evenodd;clip-rule:evenodd;stroke:none;">
	<!ENTITY st17 "fill-rule:nonzero;clip-rule:nonzero;stroke:#000000;stroke-miterlimit:4;">
	<!ENTITY st18 "stroke:none;">
	<!ENTITY st19 "fill:#0C0B0B;">
	<!ENTITY st20 "fill:url(#aigrd4);stroke:none;">
]>
<svg  width="220.668pt" height="200.326pt" viewBox="0 0 220.668 200.326" xml:space="preserve">
	<g id="Layer_x0020_1" style="&st17;">
		<path style="&st4;" d="M144.101,148.11c-39.971,6.803-70.495,23.355-68.177,36.975c2.317,13.617,36.599,19.145,76.567,12.342c39.972-6.803,70.495-23.355,68.177-36.975s-36.597-19.145-76.567-12.342z"/>
		<path style="&st18;" d="M22,0C9.869,0,0,9.869,0,22v129.791c0,12.131,9.869,22,22,22h115.802c12.131,0,22-9.869,22-22V22c0-12.131-9.869-22-22-22H22z"/>
		<linearGradient id="aigrd1" gradientUnits="userSpaceOnUse" x1="38.9502" y1="17.4941" x2="120.6726" y2="159.4595">
			<stop  offset="0" style="stop-color:#F0F0F0"/>
			<stop  offset="1" style="stop-color:#D6D6D6"/>
		</linearGradient>
		<path style="&st0;" d="M148.802,151.791c0,6.627-5.373,12-12,12H21c-6.627,0-12-5.373-12-12V22c0-6.627,5.373-12,12-12h115.802c6.627,0,12,5.373,12,12v129.791z"/>
		<g>
			<radialGradient id="aigrd2" cx="20.8921" cy="114.5674" r="5.257" fx="20.8921" fy="114.5674" gradientUnits="userSpaceOnUse">
				<stop  offset="0" style="stop-color:#F0F0F0"/>
				<stop  offset="1" style="stop-color:#474747"/>
			</radialGradient>
			<path style="&st13;" d="M23.428,113.07c0,1.973-1.6,3.572-3.573,3.572c-1.974,0-3.573-1.6-3.573-3.572c0-1.974,1.6-3.573,3.573-3.573c1.973,0,3.573,1.6,3.573,3.573z"/>
			<radialGradient id="aigrd3" cx="20.8921" cy="64.5679" r="5.257" fx="20.8921" fy="64.5679" gradientUnits="userSpaceOnUse">
				<stop  offset="0" style="stop-color:#F0F0F0"/>
				<stop  offset="1" style="stop-color:#474747"/>
			</radialGradient>
			<path style="&st3;" d="M23.428,63.07c0,1.973-1.6,3.573-3.573,3.573c-1.974,0-3.573-1.6-3.573-3.573c0-1.974,1.6-3.573,3.573-3.573c1.973,0,3.573,1.6,3.573,3.573z"/>
		</g>
		<path style="&st6;" d="M31.679,163.711h-1.613V12.642h1.613v151.069z"/>
		<linearGradient id="aigrd4" gradientUnits="userSpaceOnUse" x1="30.1484" y1="16.8438" x2="28.3645" y2="158.226">
			<stop  offset="0" style="stop-color:#EDEDED"/>
			<stop  offset="1" style="stop-color:#CACACA"/>
		</linearGradient>
		<path style="&st20;" d="M30.054,163.711h-1.613V12.642h1.613v151.069z"/>
		<path style="&st6;" d="M14.393,26.155l-2.618,133.308c-1.902-1.901-2.662-6.036-2.662-6.036L8.952,21.509c0,0-0.159-3.403,2.963-7.335c3.16-3.98,8.421-4.22,8.421-4.22l118.165,0.168l-113.615,5.54c-4.588,0-7.045,2.273-8.048,3.467
			c-0.812,0.967-2.392,4.104-2.445,7.026z"/>
		<path style="&st14;" d="M143.945,147.664l2.617-133.308c1.902,1.9,2.662,6.035,2.662,6.035l0.161,131.918c0,0,0.159,3.402-2.963,7.335c-3.159,3.98-8.421,4.22-8.421,4.22l-118.166-0.168l113.616-5.54c4.588,0,7.045-2.273,8.048-3.467
			c0.812-0.967,2.392-4.104,2.445-7.025z"/>
		<path style="&st16;" d="M46.074,119.348c0,37.768,30.625,68.387,68.401,68.387c37.776,0,68.401-30.619,68.401-68.387c0-37.766-30.625-68.385-68.401-68.385c-37.775,0-68.401,30.619-68.401,68.385 M33.482,119.348c0-44.723,36.262-80.978,80.993-80.978
			c44.733,0,80.995,36.255,80.995,80.978s-36.262,80.979-80.995,80.979c-44.731,0-80.993-36.256-80.993-80.979z"/>
	</g>
	<g id="Layer_x0020_2" style="&st17;">
		<g style="&st18;">
			<g>
				<g>
					<path d="M33.116,118.423c0-44.833,36.349-81.175,81.191-81.175c44.844,0,81.195,36.342,81.195,81.175c0,44.83-36.352,81.171-81.195,81.171c-44.842,0-81.191-36.341-81.191-81.171z"/>
					<radialGradient id="aigrd5" cx="92.3843" cy="92.5908" r="95.2707" fx="92.3843" fy="92.5908" gradientUnits="userSpaceOnUse">
						<stop  offset="0" style="stop-color:#F9FAE9"/>
						<stop  offset="0.5056" style="stop-color:#F5C417"/>
						<stop  offset="0.6035" style="stop-color:#EEB817"/>
						<stop  offset="0.7662" style="stop-color:#DB9714"/>
						<stop  offset="0.9726" style="stop-color:#BD6810"/>
						<stop  offset="1" style="stop-color:#B9620F"/>
					</radialGradient>
					<path style="&st8;" d="M38.292,118.655c0,41.975,34.032,75.998,76.015,75.998c41.981,0,76.016-34.023,76.016-75.998c0-41.968-34.034-75.993-76.016-75.993c-41.983,0-76.015,34.025-76.015,75.993z"/>
					<path style="&st19;" d="M111.767,120.193v0.159h0.056v-0.159h-0.056z"/>
					<path style="&st5;" d="M45.148,118.438c0,38.182,30.962,69.138,69.159,69.138c38.193,0,69.155-30.956,69.155-69.138c0-38.19-30.962-69.145-69.155-69.145c-38.197,0-69.159,30.955-69.159,69.145 M32.416,118.438c0-45.22,36.664-81.875,81.891-81.875
						c45.231,0,81.893,36.655,81.893,81.875c0,45.216-36.661,81.871-81.893,81.871c-45.228,0-81.891-36.655-81.891-81.871z"/>
					<linearGradient id="aigrd6" gradientUnits="userSpaceOnUse" x1="52.0742" y1="111.7012" x2="81.5417" y2="63.7077">
						<stop  offset="0" style="stop-color:#F9B311"/>
						<stop  offset="0.1115" style="stop-color:#F9C032"/>
						<stop  offset="0.2906" style="stop-color:#FAD26A"/>
						<stop  offset="0.4633" style="stop-color:#FCE39D"/>
						<stop  offset="0.6249" style="stop-color:#FDEFC5"/>
						<stop  offset="0.7729" style="stop-color:#FFF8E5"/>
						<stop  offset="0.9027" style="stop-color:#FFFDF8"/>
						<stop  offset="1" style="stop-color:#FFFFFF"/>
					</linearGradient>
					<path style="&st9;" d="M78.889,65.143c-11.636,7.58-25.159,25.711-26.358,46.839c3.431-0.638,5.396-4.576,9.691-4.426c2.14-9.467,3.082-21.106,23.284-42.413c-1.365-1.567-5.271,0.383-6.618,0z"/>
					<linearGradient id="aigrd7" gradientUnits="userSpaceOnUse" x1="107.126" y1="201.2695" x2="193.2204" y2="149.7737">
						<stop  offset="0" style="stop-color:#0C0B0B"/>
						<stop  offset="1" style="stop-color:#251F20"/>
					</linearGradient>
					<path style="&st10;" d="M188.626,141.101c-10.226,35.295-44.552,60.579-86.398,54.045l1.576-2.171c40.954,2.473,70.624-20.149,82.399-51.545l2.423-0.329z"/>
					<radialGradient id="aigrd8" cx="37.1792" cy="102.9521" r="54.6396" fx="37.1792" fy="102.9521" gradientUnits="userSpaceOnUse">
						<stop  offset="0" style="stop-color:#0C0B0B"/>
						<stop  offset="1" style="stop-color:#554C4D"/>
					</radialGradient>
					<path style="&st11;" d="M65.249,56.08c-11.636,7.58-25.13,26.589-28.069,46.872c3.427-0.638,0.317-7.51,4.61-7.36c2.137-9.465,2.161-16.391,22.363-37.702c0-0.371,2.443-1.425,1.096-1.81z"/>
				</g>
			</g>
			<g>
				<g>
					<g style="&st12;">
						<path style="&st7;" d="M88.512,125.017l53.352,33.978l34.087-53.846l-53.338-33.976l-34.101,53.844z"/>
						<path style="&st15;" d="M120.853,70.058L85.64,125.66l56.867,36.215l36.32-57.368l-56.856-36.214l-1.118,1.765z M123.256,74.054c3.185,2.027,46.658,29.718,49.824,31.734c-2.011,3.175-29.839,47.136-31.86,50.328c-3.184-2.029-46.666-29.721-49.836-31.74
							c2.013-3.172,29.851-47.132,31.873-50.322z"/>
						<path d="M175.951,105.148l-5.668,8.908l-53.374-33.932l5.704-8.953l53.338,33.976z"/>
						<path style="&st15;" d="M120.856,70.053l-6.824,10.712l56.89,36.169l7.906-12.426l-56.853-36.214l-1.119,1.758z M123.25,74.05c3.177,2.022,46.649,29.715,49.826,31.736c-1.087,1.707-2.348,3.686-3.434,5.396c-3.178-2.02-46.675-29.675-49.855-31.695
							c1.095-1.719,2.371-3.722,3.463-5.437z"/>
						<path d="M152.36,102.332l-27.933,44.36"/>
						<path style="&st15;" d="M122.664,145.583l3.526,2.222l27.935-44.364l-3.529-2.219l-27.932,44.361z"/>
						<path d="M134.405,91.672l-27.945,44.358"/>
						<path style="&st15;" d="M104.695,134.92l3.527,2.223l27.945-44.36l-3.526-2.22l-27.946,44.358z"/>
						<path d="M156.233,105.764"/>
						<path d="M138.612,133.118"/>
						<path d="M111.52,88.58"/>
						<path d="M164.974,122.395"/>
						<path d="M162.594,127.431l-53.952-33.566"/>
						<path style="&st15;" d="M107.541,95.633l53.952,33.57l2.202-3.543l-53.951-33.564l-2.203,3.537z"/>
						<path d="M152.055,142.175l-53.942-33.565"/>
						<path style="&st15;" d="M97.012,110.379l53.943,33.568l2.202-3.54l-53.943-33.568l-2.202,3.54z"/>
						<path d="M111.747,115.876"/>
						<path d="M129.339,88.768"/>
					</g>
					<g style="&st2;">
						<path style="&st7;" d="M95.671,74.601c-0.827,0.394-1.576,0.998-2.119,1.821c-1.579,2.401-0.914,5.625,1.485,7.204c2.396,1.579,5.621,0.917,7.2-1.484c0.542-0.823,0.802-1.749,0.837-2.667l18.926,12.465c-0.885,0.39-1.678,1.023-2.25,1.891
							c-1.579,2.398-0.914,5.622,1.484,7.199c2.396,1.581,5.62,0.919,7.199-1.483c0.572-0.867,0.843-1.844,0.852-2.813l9.058,5.965l-23.638,35.901L63.181,104.67l23.635-35.9l8.855,5.831z"/>
						<path style="&st15;" d="M85.075,67.623l-24.78,37.641l55.007,36.222l25.929-39.381l-13.999-9.22l-0.029,3.83c-0.006,0.605-0.18,1.188-0.508,1.685c-0.457,0.697-1.158,1.172-1.972,1.338c-0.813,0.169-1.646,0.011-2.34-0.448
							c-0.697-0.46-1.172-1.159-1.339-1.973c-0.17-0.815-0.01-1.646,0.448-2.342c0.324-0.492,0.792-0.885,1.351-1.132l3.495-1.543l-25.205-16.601l-0.14,3.695c-0.023,0.599-0.189,1.138-0.496,1.602c-0.944,1.435-2.88,1.833-4.314,0.89
							c-1.435-0.945-1.834-2.881-0.89-4.317c0.305-0.462,0.734-0.829,1.274-1.086l3.333-1.59l-13.678-9.01l-1.147,1.74z M87.411,71.655c1.505,0.992,2.911,1.92,4.767,3.143c-0.125,0.158-0.255,0.311-0.366,0.479c-0.811,1.231-1.197,2.621-1.197,3.995
							c0,2.371,1.153,4.699,3.277,6.096c3.352,2.208,7.877,1.276,10.088-2.079c0.11-0.168,0.2-0.35,0.297-0.528c3.081,2.028,11.044,7.274,14.181,9.341c-0.153,0.188-0.312,0.375-0.446,0.582c-0.794,1.203-1.202,2.582-1.202,3.99c0,0.492,0.05,0.989,0.152,1.486
							c0.394,1.904,1.505,3.542,3.13,4.611c1.623,1.07,3.566,1.442,5.474,1.051c1.905-0.393,3.543-1.503,4.612-3.129c0.136-0.207,0.245-0.426,0.358-0.643c1.916,1.262,3.396,2.234,4.923,3.241c-1.969,2.991-19.377,29.43-21.346,32.421
							c-3.137-2.067-44.909-29.573-48.044-31.637c1.969-2.991,19.373-29.427,21.343-32.42z"/>
						<g>
							<path style="&st7;" d="M123.353,111.759l-19.464-12.816"/>
							<path style="&st1;" d="M124.497,110.023l-2.29,3.476l-19.465-12.818l2.286-3.475l19.469,12.817z"/>
						</g>
						<g>
							<path d="M118.456,119.432L80.462,94.417"/>
							<path d="M119.604,117.694l-2.291,3.476L79.321,96.151l2.286-3.473l37.997,25.016z"/>
						</g>
						<g>
							<path d="M114.666,125.187l-37.99-25.017"/>
							<path d="M115.809,123.449l-2.286,3.471l-37.992-25.015l2.287-3.474l37.991,25.018z"/>
						</g>
					</g>
					<g style="&st7;">
						<path d="M57.565,143.936l53.333,33.971l23.568-36.988l-53.334-33.98l-23.568,36.998z"/>
						<path style="&st15;" d="M79.375,105.818l-24.688,38.753l56.849,36.212l25.809-40.502L80.494,104.06l-1.119,1.759z M81.771,109.814c3.175,2.024,46.644,29.718,49.819,31.744c-1.932,3.028-19.398,30.44-21.329,33.47c-3.174-2.022-46.644-29.711-49.818-31.732
							c1.93-3.029,19.397-30.448,21.328-33.481z"/>
						<path d="M77.908,111.995l12.265,36.318l40.601-1.599"/>
						<path style="&st15;" d="M75.935,112.662l12.763,37.793l42.159-1.662l-0.165-4.161c0,0-36.161,1.425-39.043,1.538c-0.917-2.719-11.766-34.841-11.766-34.841l-3.948,1.333z"/>
						<path d="M110.899,177.906l-8.625-30.071"/>
						<path style="&st15;" d="M100.271,148.411l8.625,30.07l4.008-1.151l-8.627-30.066l-4.006,1.147z"/>
						<path d="M57.565,143.936l28.648-7.349"/>
						<path style="&st15;" d="M57.047,141.914l1.036,4.039l28.649-7.349l-1.035-4.036l-28.65,7.346z"/>
					</g>
				</g>
			</g>
		</g>
		<path style="&st18;" d="M75.342,124.218l0.248,0.002l0.006-0.732l-0.248-0.002l-0.007,0.732z"/>
	</g>
</svg>
