<?xml version="1.0" encoding="iso-8859-1"?>
<!DOCTYPE svg PUBLIC "-//W3C//DTD SVG 20000303 Stylable//EN"   "http://www.w3.org/TR/2000/03/WD-SVG-20000303/DTD/svg-20000303-stylable.dtd">
<!-- Generator: Adobe Illustrator 9.0, SVG Export Plug-In  -->
<svg  width="161.988pt" height="161.956pt" viewBox="0 0 161.988 161.956" xml:space="preserve">
	<g id="Layer_x0020_1" style="fill-rule:nonzero;clip-rule:nonzero;stroke:#000000;stroke-miterlimit:4;">
		<radialGradient id="aigrd1" cx="97.5947" cy="110.9019" r="100.5961" fx="97.5947" fy="110.9019" gradientUnits="userSpaceOnUse">
			<stop  offset="0" style="stop-color:#FED182"/>
			<stop  offset="0.2809" style="stop-color:#FFB310"/>
			<stop  offset="1" style="stop-color:#996E04"/>
		</radialGradient>
		<path style="fill-rule:evenodd;clip-rule:evenodd;fill:url(#aigrd1);stroke:none;" d="M5.815,81.194c0,41.516,33.659,75.168,75.178,75.168c41.525,0,75.182-33.652,75.182-75.168c0-41.51-33.656-75.165-75.182-75.165c-41.519,0-75.178,33.655-75.178,75.165z"/>
		<path style="stroke:none;" d="M69.622,73.655l0.209,0.002l0.006-0.619l-0.21-0.002l-0.005,0.619z"/>
		<path style="fill-rule:evenodd;clip-rule:evenodd;stroke:none;" d="M12.592,80.977c0,37.768,30.625,68.387,68.401,68.387c37.777,0,68.402-30.619,68.402-68.387c0-37.766-30.625-68.385-68.402-68.385c-37.775,0-68.401,30.619-68.401,68.385 M0,80.977
			C0,36.255,36.262,0,80.993,0c44.734,0,80.995,36.255,80.995,80.977c0,44.723-36.261,80.979-80.995,80.979C36.262,161.956,0,125.7,0,80.977z"/>
		<linearGradient id="aigrd2" gradientUnits="userSpaceOnUse" x1="131.6895" y1="128.5649" x2="77.1761" y2="77.2343">
			<stop  offset="0" style="stop-color:#D9CEA3"/>
			<stop  offset="1" style="stop-color:#000000"/>
		</linearGradient>
		<path style="fill-rule:evenodd;clip-rule:evenodd;fill:url(#aigrd2);stroke:none;" d="M129.219,32.341c12.614,12.406,20.443,29.669,20.443,48.761c0,37.771-30.624,68.385-68.402,68.385c-19.1,0-36.369-7.824-48.782-20.443
			c12.347,12.137,29.28,19.625,47.959,19.625c37.781,0,68.403-30.621,68.403-68.387c0-18.671-7.484-35.601-19.622-47.94z"/>
		<g style="fill-rule:evenodd;clip-rule:evenodd;stroke:none;">
			<path d="M79.504,80.76l-22.207,53.227l3.677,1.533c0,0,19.451-46.619,21.234-50.891c3.729,2.732,44.135,32.344,44.135,32.344l2.356-3.213L80.479,78.424l-0.975,2.336z"/>
			<path d="M72.01,23.26l7.738,61.553l50.564-30.486l-2.059-3.412c0,0-40.629,24.498-45.315,27.324c-0.688-5.465-6.976-55.477-6.976-55.477L72.01,23.26z"/>
			<path d="M30.125,71.481l50.759,11.982l0.917-3.877l-50.76-11.984l-0.916,3.878z"/>
			<path d="M33.241,69.092l-1.027,1.027l29.745,57.844l58.289-17.918V57.864L76.17,42.214L45.123,73.262l23.523,38.904l38.348-11.836V65.864l-29.298-10.59L59.787,76.926L74.646,98.2l19.509-7.367V73.741L80.64,67.361l-1.701,3.602c0,0,9.35,4.414,11.232,5.303
				c0,1.883,0,9.773,0,11.811c-1.991,0.752-11.816,4.465-14.033,5.303c-1.433-2.053-9.944-14.238-11.347-16.25c1.604-1.941,12.697-15.351,14.188-17.155c2.26,0.817,21.777,7.87,24.031,8.686c0,2.43,0,26.184,0,28.734c-2.479,0.762-29.948,9.24-32.564,10.045
				c-1.438-2.377-18.857-31.184-20.298-33.568c1.978-1.979,25.454-25.455,27.061-27.061c2.165,0.769,36.643,13.011,39.053,13.868c0,2.572,0,43.736,0,46.423c-2.592,0.797-49.355,15.17-52.284,16.074c-1.41-2.74-25.657-49.896-26.891-52.293
				c1.952-1.953,39.221-39.22,39.221-39.22l-2.817-2.818L33.241,69.092z"/>
		</g>
		<linearGradient id="aigrd3" gradientUnits="userSpaceOnUse" x1="29.9307" y1="99.1353" x2="82.5609" y2="13.4168">
			<stop  offset="0" style="stop-color:#DDCB6B"/>
			<stop  offset="0.1875" style="stop-color:#E3D37E"/>
			<stop  offset="0.5649" style="stop-color:#EFE6B2"/>
			<stop  offset="1" style="stop-color:#FFFFFF"/>
		</linearGradient>
		<path style="opacity:0.75;fill-rule:evenodd;clip-rule:evenodd;fill:url(#aigrd3);stroke:none;" d="M19.176,81.452c2.221,33.107,7.161-8.1,21.389-22.325C74.132,25.559,127.24,33.841,97.41,21.604c-45.963-13.32-80.342,28.4-78.234,59.848z"/>
		<path style="opacity:0.3;fill-rule:evenodd;clip-rule:evenodd;fill:#FFFFFF;stroke:none;" d="M36.384,112.858c-10.775-23.795,18.116,16.313,45.638,3.85c27.522-12.463,43.25-72.778,54.028-48.984c10.772,23.792-2.804,53.185-30.323,65.648
			c-27.521,12.463-58.568,3.277-69.343-20.514z"/>
	</g>
</svg>
