<?xml version="1.0" encoding="iso-8859-1"?>
<!-- Generator: Adobe Illustrator 9.0, SVG Export Plug-In  -->
<!DOCTYPE svg PUBLIC "-//W3C//DTD SVG 20000303 Stylable//EN"   "http://www.w3.org/TR/2000/03/WD-SVG-20000303/DTD/svg-20000303-stylable.dtd" [
	<!ENTITY st0 "fill:url(#aigrd6);">
	<!ENTITY st1 "fill:url(#aigrd7);">
	<!ENTITY st2 "fill:url(#aigrd8);">
	<!ENTITY st3 "fill:url(#aigrd9);">
	<!ENTITY st4 "fill:url(#aigrd1);stroke:none;">
	<!ENTITY st5 "fill:#000000;stroke:none;">
	<!ENTITY st6 "opacity:0.3;fill-rule:evenodd;clip-rule:evenodd;fill:#FFFFFF;stroke:none;">
	<!ENTITY st7 "opacity:0.15;">
	<!ENTITY st8 "fill:url(#aigrd10);">
	<!ENTITY st9 "fill:url(#aigrd3);stroke:none;">
	<!ENTITY st10 "fill-rule:nonzero;clip-rule:nonzero;fill:#FFFFFF;stroke:#000000;stroke-miterlimit:4;">
	<!ENTITY st11 "fill:#2A2A2A;">
	<!ENTITY st12 "opacity:0.35;fill-rule:evenodd;clip-rule:evenodd;stroke:none;">
	<!ENTITY st13 "fill:#FFFFFF;stroke:none;">
	<!ENTITY st14 "opacity:0.68;fill:#000000;">
	<!ENTITY st15 "fill:url(#aigrd2);stroke:none;">
	<!ENTITY st16 "fill-rule:evenodd;clip-rule:evenodd;fill:url(#aigrd5);stroke:none;">
	<!ENTITY st17 "fill:#BEBEBE;stroke:none;">
	<!ENTITY st18 "fill:#000000;">
	<!ENTITY st19 "opacity:0.75;fill-rule:evenodd;clip-rule:evenodd;fill:url(#aigrd11);stroke:none;">
	<!ENTITY st20 "fill-rule:evenodd;clip-rule:evenodd;stroke:none;">
	<!ENTITY st21 "fill-rule:nonzero;clip-rule:nonzero;stroke:#000000;stroke-miterlimit:4;">
	<!ENTITY st22 "stroke:none;">
	<!ENTITY st23 "fill:url(#aigrd4);stroke:none;">
]>
<svg  width="221.421pt" height="200.777pt" viewBox="0 0 221.421 200.777" xml:space="preserve">
	<g id="Layer_x0020_1" style="&st10;">
		<path style="&st5;" d="M22,0C9.869,0,0,9.869,0,22v129.791c0,12.131,9.869,22,22,22h115.802c12.131,0,22-9.869,22-22V22c0-12.131-9.869-22-22-22H22z"/>
		<linearGradient id="aigrd1" gradientUnits="userSpaceOnUse" x1="38.9502" y1="17.4941" x2="120.6726" y2="159.4595">
			<stop  offset="0" style="stop-color:#F0F0F0"/>
			<stop  offset="1" style="stop-color:#D6D6D6"/>
		</linearGradient>
		<path style="&st4;" d="M148.802,151.791c0,6.627-5.373,12-12,12H21c-6.627,0-12-5.373-12-12V22c0-6.627,5.373-12,12-12h115.802c6.627,0,12,5.373,12,12v129.791z"/>
		<g>
			<radialGradient id="aigrd2" cx="20.8921" cy="114.5674" r="5.257" fx="20.8921" fy="114.5674" gradientUnits="userSpaceOnUse">
				<stop  offset="0" style="stop-color:#F0F0F0"/>
				<stop  offset="1" style="stop-color:#474747"/>
			</radialGradient>
			<path style="&st15;" d="M23.428,113.07c0,1.973-1.6,3.572-3.573,3.572c-1.974,0-3.573-1.6-3.573-3.572c0-1.974,1.6-3.573,3.573-3.573c1.973,0,3.573,1.6,3.573,3.573z"/>
			<radialGradient id="aigrd3" cx="20.8921" cy="64.5679" r="5.257" fx="20.8921" fy="64.5679" gradientUnits="userSpaceOnUse">
				<stop  offset="0" style="stop-color:#F0F0F0"/>
				<stop  offset="1" style="stop-color:#474747"/>
			</radialGradient>
			<path style="&st9;" d="M23.428,63.07c0,1.973-1.6,3.573-3.573,3.573c-1.974,0-3.573-1.6-3.573-3.573c0-1.974,1.6-3.573,3.573-3.573c1.973,0,3.573,1.6,3.573,3.573z"/>
		</g>
		<path style="&st22;" d="M31.679,163.711h-1.613V12.642h1.613v151.069z"/>
		<linearGradient id="aigrd4" gradientUnits="userSpaceOnUse" x1="30.1484" y1="16.8438" x2="28.3645" y2="158.226">
			<stop  offset="0" style="stop-color:#EDEDED"/>
			<stop  offset="1" style="stop-color:#CACACA"/>
		</linearGradient>
		<path style="&st23;" d="M30.054,163.711h-1.613V12.642h1.613v151.069z"/>
		<path style="&st22;" d="M14.393,26.155l-2.618,133.308c-1.902-1.901-2.662-6.036-2.662-6.036L8.952,21.509c0,0-0.159-3.403,2.963-7.335c3.16-3.98,8.421-4.22,8.421-4.22l118.165,0.168l-113.615,5.54c-4.588,0-7.045,2.273-8.048,3.467
			c-0.812,0.967-2.392,4.104-2.445,7.026z"/>
		<path style="&st17;" d="M143.945,147.664l2.617-133.308c1.902,1.9,2.662,6.035,2.662,6.035l0.161,131.918c0,0,0.159,3.402-2.963,7.335c-3.159,3.98-8.421,4.22-8.421,4.22l-118.166-0.168l113.616-5.54c4.588,0,7.045-2.273,8.048-3.467
			c0.812-0.967,2.392-4.104,2.445-7.025z"/>
	</g>
	<g id="Layer_x0020_2" style="&st21;">
		<path style="&st12;" d="M144.853,148.604c-39.971,6.803-70.495,23.355-68.176,36.975c2.317,13.617,36.599,19.145,76.568,12.342c39.972-6.803,70.494-23.355,68.177-36.975c-2.318-13.618-36.597-19.144-76.568-12.342z"/>
		<radialGradient id="aigrd5" cx="131.6343" cy="149.6953" r="100.5961" fx="131.6343" fy="149.6953" gradientUnits="userSpaceOnUse">
			<stop  offset="0" style="stop-color:#FED182"/>
			<stop  offset="0.2809" style="stop-color:#FFB310"/>
			<stop  offset="1" style="stop-color:#996E04"/>
		</radialGradient>
		<path style="&st16;" d="M39.855,119.987c0,41.516,33.659,75.168,75.178,75.168c41.525,0,75.182-33.652,75.182-75.168c0-41.51-33.656-75.165-75.182-75.165c-41.519,0-75.178,33.655-75.178,75.165z"/>
		<g style="&st13;">
			<path style="&st18;" d="M96.246,74.331c-16.89,6.667-27.645,21.464-27.645,36.025c0,2.078,0.292,4.14,0.744,6.186c-6.929,3.647-11.456,10.389-11.456,17.952c0,11.476,10.418,20.813,23.222,20.813c4.615,0,8.941-1.312,12.674-3.516
				c8.249,6.71,20.688,10.753,34.217,10.753c24.846,0,44.306-13.026,44.306-29.657c0-7.136-3.88-13.853-10.495-19.128c-0.145-6.491-5.444-11.669-13.184-13.635c-0.133-3.226-0.704-6.399-1.878-9.375c-6.85-17.343-29.504-24.708-50.505-16.419z"/>
			<radialGradient id="aigrd6" cx="126.2974" cy="89.0513" r="73.3355" fx="126.2974" fy="89.0513" gradientUnits="userSpaceOnUse">
				<stop  offset="0" style="stop-color:#8E7B5F"/>
				<stop  offset="0.0041" style="stop-color:#8C7A5E"/>
				<stop  offset="0.0645" style="stop-color:#7B664D"/>
				<stop  offset="0.1316" style="stop-color:#6B5540"/>
				<stop  offset="0.2087" style="stop-color:#5F4935"/>
				<stop  offset="0.2987" style="stop-color:#553F2E"/>
				<stop  offset="0.4101" style="stop-color:#4D3929"/>
				<stop  offset="0.5663" style="stop-color:#4A3626"/>
				<stop  offset="1" style="stop-color:#483526"/>
			</radialGradient>
			<path style="&st0;" d="M142.082,106.173c-0.065,0-0.128,0.001-0.196,0.001c0.854-4.295,0.566-8.661-1.052-12.768c-5.486-13.896-24.162-19.538-41.723-12.608c-17.556,6.932-27.341,23.812-21.857,37.707c0.324,0.818,0.693,1.606,1.106,2.369
				c-7.588,1.248-13.321,6.945-13.321,13.79c0,7.755,7.364,14.043,16.451,14.043c9.086,0,16.452-6.288,16.452-14.043c0-0.357-0.02-0.709-0.051-1.056c6.565,1.064,13.917,0.333,21.081-2.497c6.159-2.431,11.359-6.085,15.285-10.408
				c2.198,0.952,4.899,1.519,7.824,1.519c7.388,0,13.376-3.593,13.376-8.026c0-4.432-5.988-8.022-13.376-8.022z"/>
			<radialGradient id="aigrd7" cx="133.7007" cy="70.7515" r="15.0703" fx="133.7007" fy="70.7515" gradientTransform="matrix(1.1762 0 0 1.2111 -25.831 17.563)" gradientUnits="userSpaceOnUse">
				<stop  offset="0" style="stop-color:#FFFFFF"/>
				<stop  offset="1" style="stop-color:#E9E9E9"/>
			</radialGradient>
			<path style="&st1;" d="M116.115,118.71c0,0-19.861-6.904-12.97-16.127c6.892-9.22,16.638,3.932,20.677,2.793c4.041-1.137,3.623-11.406,9.932-8.735c6.307,2.668-1.065,15.591-1.065,15.591"/>
			<path style="&st7;" d="M69.674,137.381c0,0,0.179-7.848,6.242-11.06c6.064-3.21,12.84,2.143,12.84,2.143l0.359,3.033c0,0-4.28-4.64-10.523-2.854c-6.242,1.783-8.918,8.738-8.918,8.738z"/>
			<path style="&st7;" d="M83.347,138.792c0,0-4.1-0.38-5.56-3.671c-1.458-3.291,1.588-6.64,1.588-6.64l1.6-0.076c0,0-2.582,2.071-1.875,5.401c0.703,3.332,4.248,4.985,4.248,4.985z"/>
			<radialGradient id="aigrd8" cx="112.2046" cy="121.3594" r="55.4731" fx="112.2046" fy="121.3594" gradientUnits="userSpaceOnUse">
				<stop  offset="0" style="stop-color:#F9F4D9"/>
				<stop  offset="1" style="stop-color:#D3B259"/>
			</radialGradient>
			<path style="&st2;" d="M165.918,133.058c0,12.639-16.806,22.887-37.537,22.887c-20.729,0-37.536-10.248-37.536-22.887c0-12.644,16.807-22.891,37.536-22.891c20.731,0,37.537,10.247,37.537,22.891z"/>
			<radialGradient id="aigrd9" cx="109.7114" cy="109.6074" r="1.343" fx="109.7114" fy="109.6074" gradientUnits="userSpaceOnUse">
				<stop  offset="0" style="stop-color:#FFFFFF"/>
				<stop  offset="1" style="stop-color:#000000"/>
			</radialGradient>
			<path style="&st3;" d="M112.952,110.263c0,1.145-0.927,2.068-2.066,2.068c-1.144,0-2.07-0.924-2.07-2.068c0-1.141,0.926-2.066,2.07-2.066c1.14,0,2.066,0.926,2.066,2.066z"/>
			<radialGradient id="aigrd10" cx="126.1997" cy="107.3242" r="1.2668" fx="126.1997" fy="107.3242" gradientUnits="userSpaceOnUse">
				<stop  offset="0" style="stop-color:#FFFFFF"/>
				<stop  offset="1" style="stop-color:#000000"/>
			</radialGradient>
			<path style="&st8;" d="M129.253,107.945c0,1.079-0.872,1.951-1.948,1.951s-1.95-0.872-1.95-1.951c0-1.078,0.874-1.954,1.95-1.954s1.948,0.876,1.948,1.954z"/>
			<path style="&st11;" d="M96.749,135.609c9.142,13.556,66.655,12.325,65.116-2.978c4.519,14.072-56.798,25.265-65.116,2.978z"/>
			<path style="&st14;" d="M147.171,125.737c0,0-1.849-4.314-6.471-3.493c-4.62,0.821-1.408,2.503,0,2.364c1.036-0.1,0.795-2.29,2.6-1.69c2.156,0.718,2.332,1.073,3.871,2.819z"/>
			<path style="&st14;" d="M149.133,125.6c0,0-2.711-1.187-1.855-3.533c0.853-2.35,1.74-0.597,1.553,0.125c-0.138,0.53-1.56,0.288-1.289,1.254c0.327,1.155,0.547,1.264,1.592,2.154z"/>
		</g>
		<path style="&st20;" d="M46.632,119.771c0,37.768,30.625,68.387,68.4,68.387c37.777,0,68.402-30.619,68.402-68.387c0-37.766-30.625-68.385-68.402-68.385c-37.775,0-68.4,30.619-68.4,68.385 M34.04,119.771c0-44.722,36.262-80.977,80.993-80.977
			c44.734,0,80.996,36.255,80.996,80.977c0,44.723-36.262,80.979-80.996,80.979c-44.73,0-80.993-36.256-80.993-80.979z"/>
		<linearGradient id="aigrd11" gradientUnits="userSpaceOnUse" x1="63.9707" y1="137.9287" x2="116.6011" y2="52.2101">
			<stop  offset="0" style="stop-color:#DDCB6B"/>
			<stop  offset="0.1875" style="stop-color:#E3D37E"/>
			<stop  offset="0.5649" style="stop-color:#EFE6B2"/>
			<stop  offset="1" style="stop-color:#FFFFFF"/>
		</linearGradient>
		<path style="&st19;" d="M53.216,120.245c2.221,33.107,7.161-8.1,21.389-22.324c33.567-33.569,86.676-25.286,56.846-37.523c-45.963-13.32-80.342,28.4-78.234,59.848z"/>
		<path style="&st6;" d="M70.424,151.651c-10.775-23.795,18.116,16.313,45.638,3.85c27.521-12.463,43.25-72.778,54.027-48.984c10.773,23.793-2.803,53.186-30.322,65.648c-27.521,12.463-58.568,3.277-69.343-20.514z"/>
	</g>
</svg>
