<?xml version="1.0" encoding="iso-8859-1"?>
<!-- Generator: Adobe Illustrator 9.0, SVG Export Plug-In  -->
<!DOCTYPE svg PUBLIC "-//W3C//DTD SVG 20000303 Stylable//EN"   "http://www.w3.org/TR/2000/03/WD-SVG-20000303/DTD/svg-20000303-stylable.dtd" [
	<!ENTITY st0 "fill:url(#aigrd1);stroke:none;">
	<!ENTITY st1 "fill:#000000;stroke:none;">
	<!ENTITY st2 "opacity:0.35;fill:#000000;stroke:none;">
	<!ENTITY st3 "fill:url(#aigrd6);stroke:none;">
	<!ENTITY st4 "opacity:0.58;stroke:none;">
	<!ENTITY st5 "fill:url(#aigrd3);stroke:none;">
	<!ENTITY st6 "fill-rule:nonzero;clip-rule:nonzero;fill:#FFFFFF;stroke:#000000;stroke-miterlimit:4;">
	<!ENTITY st7 "fill:url(#aigrd8);stroke:none;">
	<!ENTITY st8 "fill:url(#aigrd5);stroke:none;">
	<!ENTITY st9 "opacity:0.74;stroke:none;">
	<!ENTITY st10 "opacity:0.48;stroke:none;">
	<!ENTITY st11 "fill:url(#aigrd2);stroke:none;">
	<!ENTITY st12 "fill:#BEBEBE;stroke:none;">
	<!ENTITY st13 "fill:url(#aigrd7);stroke:none;">
	<!ENTITY st14 "stroke:none;">
	<!ENTITY st15 "fill:url(#aigrd4);stroke:none;">
]>
<svg  width="207.901pt" height="179.886pt" viewBox="0 0 207.901 179.886" xml:space="preserve">
	<g id="Layer_x0020_1" style="&st6;">
		<path style="&st2;" d="M145.325,178.648c-14.998,2.891-125.285,0.938-133.222-7.219c-7.936-8.152,47.936-44.455,67.648-46.859s116.353,10.576,126.931,21.154c10.576,10.578-46.359,30.035-61.357,32.924z"/>
		<path style="&st1;" d="M22,0C9.869,0,0,9.869,0,22v129.791c0,12.131,9.869,22,22,22h115.801c12.131,0,22-9.869,22-22V22c0-12.131-9.869-22-22-22H22z"/>
		<linearGradient id="aigrd1" gradientUnits="userSpaceOnUse" x1="38.9502" y1="17.4941" x2="120.6717" y2="159.458">
			<stop  offset="0" style="stop-color:#F0F0F0"/>
			<stop  offset="1" style="stop-color:#D6D6D6"/>
		</linearGradient>
		<path style="&st0;" d="M148.801,151.791c0,6.627-5.373,12-12,12H21c-6.628,0-12-5.373-12-12V22c0-6.627,5.372-12,12-12h115.801c6.627,0,12,5.373,12,12v129.791z"/>
		<g>
			<radialGradient id="aigrd2" cx="20.8916" cy="114.5669" r="5.2576" fx="20.8916" fy="114.5669" gradientUnits="userSpaceOnUse">
				<stop  offset="0" style="stop-color:#F0F0F0"/>
				<stop  offset="1" style="stop-color:#474747"/>
			</radialGradient>
			<path style="&st11;" d="M23.428,113.07c0,1.973-1.6,3.572-3.573,3.572c-1.973,0-3.572-1.6-3.572-3.572s1.6-3.572,3.572-3.572c1.974,0,3.573,1.6,3.573,3.572z"/>
			<radialGradient id="aigrd3" cx="20.8916" cy="64.5674" r="5.2581" fx="20.8916" fy="64.5674" gradientUnits="userSpaceOnUse">
				<stop  offset="0" style="stop-color:#F0F0F0"/>
				<stop  offset="1" style="stop-color:#474747"/>
			</radialGradient>
			<path style="&st5;" d="M23.428,63.07c0,1.973-1.6,3.573-3.573,3.573c-1.973,0-3.572-1.6-3.572-3.573c0-1.974,1.6-3.573,3.572-3.573c1.974,0,3.573,1.6,3.573,3.573z"/>
		</g>
		<path style="&st14;" d="M31.679,163.71h-1.613V12.642h1.613V163.71z"/>
		<linearGradient id="aigrd4" gradientUnits="userSpaceOnUse" x1="30.1475" y1="16.8438" x2="28.3635" y2="158.2261">
			<stop  offset="0" style="stop-color:#EDEDED"/>
			<stop  offset="1" style="stop-color:#CACACA"/>
		</linearGradient>
		<path style="&st15;" d="M30.054,163.71H28.44V12.642h1.613V163.71z"/>
		<path style="&st14;" d="M14.394,26.155l-2.618,133.308c-1.901-1.9-2.661-6.035-2.661-6.035L8.952,21.509c0,0-0.158-3.403,2.963-7.335c3.16-3.98,8.422-4.22,8.422-4.22L138.5,10.122l-113.615,5.54c-4.588,0-7.045,2.273-8.047,3.467
			c-0.812,0.967-2.393,4.104-2.445,7.026z"/>
		<path style="&st12;" d="M143.944,147.664l2.617-133.307c1.902,1.9,2.662,6.035,2.662,6.035l0.162,131.918c0,0,0.158,3.402-2.963,7.334c-3.16,3.98-8.422,4.221-8.422,4.221l-118.166-0.168l113.617-5.541c4.588,0,7.045-2.273,8.047-3.467
			c0.812-0.967,2.393-4.104,2.445-7.025z"/>
	</g>
	<g id="Layer_x0020_2" style="&st6;">
		<path style="&st1;" d="M39.224,98.192l-0.002,1.061c-0.026,7.878-0.08,24.27,10.872,35.258c7.101,7.125,17.564,10.737,31.1,10.737c14.628,0,25.602-4.647,32.749-13.707c6.218-1.018,27.909-5.744,27.909-22.164c0-2.169-0.404-4.451-1.204-6.777l-0.296-0.861
			l-0.644-0.644c-2.705-2.706-11.58-4.248-16.717-4.933c-1.723-12.717-19.444-22.409-41.797-22.409c-23.534,0-41.969,10.735-41.969,24.439z M121.65,114.204c0.608,0.028,1.198,0.058,1.761,0.089c-0.604,0.257-1.246,0.511-1.937,0.765
			c0.064-0.28,0.114-0.57,0.176-0.854z"/>
		<linearGradient id="aigrd5" gradientUnits="userSpaceOnUse" x1="105.9604" y1="124.397" x2="58.9973" y2="93.9705">
			<stop  offset="0" style="stop-color:#959595"/>
			<stop  offset="1" style="stop-color:#FFFFFF"/>
		</linearGradient>
		<path style="&st8;" d="M118.457,97.521c0,11.324-0.662,43.122-38.035,43.122c-39.358,0-38.035-31.798-38.035-43.122c0-11.326,17.029-20.506,38.035-20.506s38.035,9.181,38.035,20.506z"/>
		<linearGradient id="aigrd6" gradientUnits="userSpaceOnUse" x1="48.2695" y1="97.5034" x2="111.8413" y2="97.5034">
			<stop  offset="0" style="stop-color:#959595"/>
			<stop  offset="1" style="stop-color:#FFFFFF"/>
		</linearGradient>
		<path style="&st3;" d="M111.841,97.503c0,9.498-14.231,17.198-31.786,17.198c-17.555,0-31.786-7.7-31.786-17.198c0-9.499,14.231-17.199,31.786-17.199c17.555,0,31.786,7.701,31.786,17.199z"/>
		<radialGradient id="aigrd7" cx="70.8276" cy="88.9033" r="19.6694" fx="70.8276" fy="88.9033" gradientUnits="userSpaceOnUse">
			<stop  offset="0" style="stop-color:#787816"/>
			<stop  offset="1" style="stop-color:#000000"/>
		</radialGradient>
		<path style="&st13;" d="M109.857,100.81c0,7.306-13.327,13.229-29.766,13.229c-16.439,0-29.766-5.924-29.766-13.229s13.327-13.229,29.766-13.229c16.439,0,29.766,5.924,29.766,13.229z"/>
		<linearGradient id="aigrd8" gradientUnits="userSpaceOnUse" x1="113.1274" y1="123.6772" x2="133.7702" y2="98.905">
			<stop  offset="0" style="stop-color:#959595"/>
			<stop  offset="1" style="stop-color:#FFFFFF"/>
		</linearGradient>
		<path style="&st7;" d="M118.45,98.993c0,0,15.28,1.786,17.706,4.211c6.963,20.28-25.049,23.989-25.049,23.989l3.765-6.973c0,0,19.621-4.46,14.341-9.846c-0.534-0.546-11.578-0.91-11.578-0.91c-1.443-1.443-0.351-9.306,0.815-10.472z"/>
		<path style="&st10;" d="M118.881,106.7c0,0,12.355,1.359,13.222,2.225c1.999,2.001-0.618,5.438-0.618,5.438s5.128-4.511,2.163-7.477c-1.607-1.606-14.767-0.186-14.767-0.186z"/>
		<path style="&st4;" d="M82.565,18.25c0,14.734-24.983,21.14-24.983,32.03s33.952,7.194,33.952,14.093c0,6.899-15.374,13.23-15.374,31.389c0-15.325,33.952-19.218,33.952-30.749s-35.233-7.047-35.233-16.656s7.687-16.655,7.687-30.108z"/>
		<path style="&st9;" d="M115.401,124.769c4.855-0.884,12.144-4.059,16.139-7.241c-1.627,3.917-12.828,7.241-16.139,7.241z"/>
		<path style="&st9;" d="M44.307,103.665c1.92,5.39,7.659,10.199,15.337,13.349c2.433,0.998-0.106,19.383,13.848,21.818c-3.51-8.04-1.311-18.446,1.152-18.222c11.354,1.042,23.969-1.331,34.424-9.083c-23.587,13.242-57.209,5.896-64.762-7.862z"/>
	</g>
</svg>
