<?xml version="1.0" encoding="iso-8859-1"?>
<!-- Generator: Adobe Illustrator 9.0, SVG Export Plug-In  -->
<!DOCTYPE svg PUBLIC "-//W3C//DTD SVG 20000303 Stylable//EN"   "http://www.w3.org/TR/2000/03/WD-SVG-20000303/DTD/svg-20000303-stylable.dtd" [
	<!ENTITY st0 "fill:url(#aigrd1);stroke:none;">
	<!ENTITY st1 "fill:#000000;stroke:none;">
	<!ENTITY st2 "opacity:0.35;fill:#000000;stroke:none;">
	<!ENTITY st3 "fill:url(#aigrd3);stroke:none;">
	<!ENTITY st4 "fill:#F0F83F;">
	<!ENTITY st5 "fill-rule:nonzero;clip-rule:nonzero;fill:#FFFFFF;stroke:#000000;stroke-miterlimit:4;">
	<!ENTITY st6 "fill:url(#aigrd2);stroke:none;">
	<!ENTITY st7 "fill:#BEBEBE;stroke:none;">
	<!ENTITY st8 "fill-rule:nonzero;clip-rule:nonzero;stroke:#000000;stroke-miterlimit:4;">
	<!ENTITY st9 "stroke:none;">
	<!ENTITY st10 "fill:url(#aigrd4);stroke:none;">
]>
<svg  width="207.901pt" height="179.888pt" viewBox="0 0 207.901 179.888" xml:space="preserve">
	<g id="Layer_x0020_1" style="&st5;">
		<path style="&st2;" d="M145.325,178.648c-14.998,2.891-125.286,0.938-133.223-7.219c-7.936-8.152,47.936-44.456,67.649-46.86c19.712-2.404,116.353,10.577,126.931,21.155c10.576,10.578-46.359,30.035-61.357,32.924z"/>
		<path style="&st1;" d="M22,0C9.869,0,0,9.869,0,22v129.791c0,12.131,9.869,22,22,22h115.801c12.131,0,22-9.869,22-22V22c0-12.131-9.869-22-22-22H22z"/>
		<linearGradient id="aigrd1" gradientUnits="userSpaceOnUse" x1="38.9502" y1="17.4946" x2="120.6717" y2="159.4585">
			<stop  offset="0" style="stop-color:#F0F0F0"/>
			<stop  offset="1" style="stop-color:#D6D6D6"/>
		</linearGradient>
		<path style="&st0;" d="M148.801,151.791c0,6.627-5.373,12-12,12H21c-6.628,0-12-5.373-12-12V22c0-6.627,5.372-12,12-12h115.801c6.627,0,12,5.373,12,12v129.791z"/>
		<g>
			<radialGradient id="aigrd2" cx="20.8916" cy="114.5674" r="5.2576" fx="20.8916" fy="114.5674" gradientUnits="userSpaceOnUse">
				<stop  offset="0" style="stop-color:#F0F0F0"/>
				<stop  offset="1" style="stop-color:#474747"/>
			</radialGradient>
			<path style="&st6;" d="M23.428,113.07c0,1.973-1.6,3.572-3.573,3.572s-3.573-1.6-3.573-3.572c0-1.974,1.6-3.573,3.573-3.573s3.573,1.6,3.573,3.573z"/>
			<radialGradient id="aigrd3" cx="20.8916" cy="64.5684" r="5.2576" fx="20.8916" fy="64.5684" gradientUnits="userSpaceOnUse">
				<stop  offset="0" style="stop-color:#F0F0F0"/>
				<stop  offset="1" style="stop-color:#474747"/>
			</radialGradient>
			<path style="&st3;" d="M23.428,63.07c0,1.974-1.6,3.573-3.573,3.573s-3.573-1.6-3.573-3.573s1.6-3.573,3.573-3.573s3.573,1.6,3.573,3.573z"/>
		</g>
		<path style="&st9;" d="M31.679,163.71h-1.613V12.642h1.613V163.71z"/>
		<linearGradient id="aigrd4" gradientUnits="userSpaceOnUse" x1="30.1475" y1="16.8428" x2="28.3635" y2="158.2246">
			<stop  offset="0" style="stop-color:#EDEDED"/>
			<stop  offset="1" style="stop-color:#CACACA"/>
		</linearGradient>
		<path style="&st10;" d="M30.054,163.71H28.44V12.642h1.613V163.71z"/>
		<path style="&st9;" d="M14.393,26.155l-2.617,133.308c-1.902-1.9-2.662-6.035-2.662-6.035L8.951,21.509c0,0-0.158-3.403,2.963-7.335c3.16-3.98,8.422-4.22,8.422-4.22L138.5,10.122l-113.615,5.54c-4.589,0-7.046,2.273-8.048,3.467
			c-0.812,0.967-2.393,4.104-2.445,7.026z"/>
		<path style="&st7;" d="M143.944,147.664l2.617-133.307c1.902,1.9,2.662,6.035,2.662,6.035l0.162,131.918c0,0,0.158,3.402-2.963,7.334c-3.16,3.98-8.422,4.221-8.422,4.221l-118.166-0.168l113.617-5.541c4.588,0,7.045-2.273,8.047-3.467
			c0.812-0.967,2.393-4.104,2.445-7.025z"/>
	</g>
	<g id="Layer_x0020_2" style="&st8;">
		<path style="&st4;" d="M114.36,101.031l5.644,11.435l12.62,1.834l-9.133,8.901l2.156,12.569l-11.287-5.935l-11.287,5.935l2.154-12.569l-9.131-8.901l12.619-1.834l5.645-11.435z"/>
		<path style="&st4;" d="M58.359,101.031l5.644,11.435l12.62,1.834l-9.132,8.901l2.156,12.569l-11.288-5.935l-11.287,5.935l2.155-12.569l-9.131-8.901l12.62-1.834l5.644-11.435z"/>
		<path style="&st4;" d="M114.36,31.031l5.644,11.435l12.62,1.834l-9.133,8.901l2.156,12.569l-11.287-5.935l-11.287,5.935l2.154-12.569L96.096,44.3l12.619-1.834l5.645-11.435z"/>
		<path style="&st4;" d="M58.359,31.031l5.644,11.435l12.62,1.834l-9.132,8.901l2.156,12.569l-11.288-5.935l-11.287,5.935l2.155-12.569L40.096,44.3l12.62-1.834l5.644-11.435z"/>
	</g>
</svg>
