<?xml version="1.0" encoding="iso-8859-1"?>
<!-- Generator: Adobe Illustrator 9.0, SVG Export Plug-In  -->
<!DOCTYPE svg PUBLIC "-//W3C//DTD SVG 20000303 Stylable//EN"   "http://www.w3.org/TR/2000/03/WD-SVG-20000303/DTD/svg-20000303-stylable.dtd" [
	<!ENTITY st0 "fill:url(#aigrd1);stroke:none;">
	<!ENTITY st1 "fill:#000000;stroke:none;">
	<!ENTITY st2 "fill:none;stroke:#709550;stroke-width:2;">
	<!ENTITY st3 "opacity:0.35;fill:#000000;stroke:none;">
	<!ENTITY st4 "fill:url(#aigrd6);stroke:none;">
	<!ENTITY st5 "fill:url(#aigrd3);stroke:none;">
	<!ENTITY st6 "opacity:0.5;fill:#FFFFFF;stroke:none;">
	<!ENTITY st7 "fill-rule:nonzero;clip-rule:nonzero;fill:#FFFFFF;stroke:#000000;stroke-miterlimit:4;">
	<!ENTITY st8 "fill:url(#aigrd5);stroke:none;">
	<!ENTITY st9 "fill-rule:nonzero;clip-rule:nonzero;fill:#669966;stroke:#000000;stroke-miterlimit:4;">
	<!ENTITY st10 "fill:url(#aigrd2);stroke:none;">
	<!ENTITY st11 "fill:#BEBEBE;stroke:none;">
	<!ENTITY st12 "stroke:none;">
	<!ENTITY st13 "opacity:0.5;fill:#000000;stroke:none;">
	<!ENTITY st14 "fill:url(#aigrd4);stroke:none;">
]>
<svg  width="207.901pt" height="179.887pt" viewBox="0 0 207.901 179.887" xml:space="preserve">
	<g id="Layer_x0020_1" style="&st7;">
		<path style="&st3;" d="M145.326,178.648c-14.998,2.891-125.286,0.938-133.223-7.219c-7.936-8.153,47.936-44.456,67.649-46.86c19.713-2.404,116.354,10.577,126.931,21.155s-46.359,30.034-61.356,32.924z"/>
		<path style="&st1;" d="M22,0C9.869,0,0,9.869,0,22v129.791c0,12.131,9.869,22,22,22h115.802c12.131,0,22-9.869,22-22V22c0-12.131-9.869-22-22-22H22z"/>
		<linearGradient id="aigrd1" gradientUnits="userSpaceOnUse" x1="38.9502" y1="17.4937" x2="120.6726" y2="159.459">
			<stop  offset="0" style="stop-color:#F0F0F0"/>
			<stop  offset="1" style="stop-color:#D6D6D6"/>
		</linearGradient>
		<path style="&st0;" d="M148.802,151.791c0,6.627-5.373,12-12,12H21c-6.627,0-12-5.373-12-12V22c0-6.627,5.373-12,12-12h115.802c6.627,0,12,5.373,12,12v129.791z"/>
		<g>
			<radialGradient id="aigrd2" cx="20.8921" cy="114.5684" r="5.256" fx="20.8921" fy="114.5684" gradientUnits="userSpaceOnUse">
				<stop  offset="0" style="stop-color:#F0F0F0"/>
				<stop  offset="1" style="stop-color:#474747"/>
			</radialGradient>
			<path style="&st10;" d="M23.428,113.07c0,1.973-1.6,3.572-3.573,3.572c-1.974,0-3.573-1.6-3.573-3.572c0-1.974,1.6-3.573,3.573-3.573c1.973,0,3.573,1.6,3.573,3.573z"/>
			<radialGradient id="aigrd3" cx="20.8921" cy="64.5679" r="5.257" fx="20.8921" fy="64.5679" gradientUnits="userSpaceOnUse">
				<stop  offset="0" style="stop-color:#F0F0F0"/>
				<stop  offset="1" style="stop-color:#474747"/>
			</radialGradient>
			<path style="&st5;" d="M23.428,63.07c0,1.973-1.6,3.573-3.573,3.573c-1.974,0-3.573-1.6-3.573-3.573c0-1.974,1.6-3.573,3.573-3.573c1.973,0,3.573,1.6,3.573,3.573z"/>
		</g>
		<path style="&st12;" d="M31.679,163.711h-1.613V12.642h1.613v151.069z"/>
		<linearGradient id="aigrd4" gradientUnits="userSpaceOnUse" x1="30.1484" y1="16.8438" x2="28.3645" y2="158.2265">
			<stop  offset="0" style="stop-color:#EDEDED"/>
			<stop  offset="1" style="stop-color:#CACACA"/>
		</linearGradient>
		<path style="&st14;" d="M30.054,163.711h-1.613V12.642h1.613v151.069z"/>
		<path style="&st12;" d="M14.393,26.155l-2.618,133.308c-1.902-1.901-2.662-6.036-2.662-6.036L8.952,21.509c0,0-0.159-3.403,2.963-7.335c3.16-3.98,8.421-4.22,8.421-4.22l118.165,0.168l-113.615,5.54c-4.588,0-7.045,2.273-8.048,3.467
			c-0.812,0.967-2.392,4.104-2.445,7.026z"/>
		<path style="&st11;" d="M143.945,147.664l2.617-133.308c1.902,1.9,2.662,6.035,2.662,6.035l0.161,131.918c0,0,0.159,3.402-2.963,7.335c-3.159,3.98-8.421,4.22-8.421,4.22l-118.166-0.168l113.616-5.54c4.588,0,7.045-2.273,8.048-3.467
			c0.812-0.967,2.392-4.104,2.445-7.025z"/>
	</g>
	<g id="Layer_x0020_2" style="&st9;">
		<path style="&st1;" d="M136.706,72.562L45.819,54.577l-10.651,53.821l94.319,18.664l10.649-53.821l-3.431-0.679z"/>
		<linearGradient id="aigrd5" gradientUnits="userSpaceOnUse" x1="70.7388" y1="70.7598" x2="110.264" y2="114.2377" gradientTransform="matrix(0.981 0.1941 -0.1941 0.981 17.9576 -15.6142)">
			<stop  offset="0" style="stop-color:#EEEFDF"/>
			<stop  offset="1" style="stop-color:#CAE9C0"/>
		</linearGradient>
		<path style="&st8;" d="M126.735,122.951l-87.456-17.306l9.292-46.958l87.456,17.307l-9.292,46.957z"/>
		<path style="&st2;" d="M123.364,117.361l-79.27-15.686l7.332-37.052l79.271,15.687l-7.332,37.05z"/>
		<path style="&st12;" d="M45.032,96.937l79.271,15.686l-0.938,4.739l-79.27-15.686l0.938-4.739z"/>
		<path style="&st12;" d="M102.904,94.062c-2.025,10.231-10.61,17.152-19.175,15.456c-8.566-1.694-13.869-11.362-11.843-21.595c2.024-10.23,10.609-17.15,19.175-15.455c8.565,1.694,13.868,11.362,11.843,21.594z"/>
		<path style="&st12;" d="M64.045,86.821c-0.565,2.854-3.337,4.71-6.193,4.146c-2.855-0.565-4.711-3.337-4.146-6.192c0.564-2.856,3.337-4.712,6.192-4.147c2.856,0.565,4.711,3.337,4.147,6.193z"/>
		<path style="&st12;" d="M107.72,90.09l14.647,2.898l-3.174,6.982l-9.908-1.96l-1.565-7.921z"/>
		<path style="&st1;" d="M124.427,89.368l-17.663-3.496l0.938-4.739l17.665,3.496l-0.939,4.739z"/>
		<path style="&st1;" d="M119.469,107.637l-15.079-2.984l0.426-2.153l15.079,2.983l-0.426,2.154z"/>
		<path style="&st13;" d="M91.195,75.18l-1.838,10.101l3.031,5.732l-2.979,1.995l3.064,8.524l-3.847,2.463c3.125,0.619,10.622-3.896,12.037-11.049c1.15-5.815-2.213-16.331-9.468-17.767z"/>
		<path style="&st6;" d="M88.49,76.992c0,0-8.944,6.354-9.632,9.831c-0.688,3.479-1.29,6.521-1.29,6.521l-4.348-0.86c-1.045,5.279,4.192,10.043,7.742,11.563c3.55,1.518,11.263,2.228,11.263,2.228l-3.599-2.279l3.847-2.463l-3.064-8.524l2.979-1.995l-3.031-5.732
			l-0.867-8.289z"/>
		<path style="&st12;" d="M52.498,73.928l19.563,3.871l0.773-3.905L53.27,70.022l-0.772,3.905z"/>
		<path style="&st12;" d="M48.602,93.613l17.532,3.469l0.426-2.152l-17.532-3.471l-0.426,2.154z"/>
	</g>
	<g id="Layer_x0020_3" style="&st9;">
		<path style="&st1;" d="M129.579,55.533h-92.65v54.865h96.147V55.533h-3.497z"/>
		<linearGradient id="aigrd6" gradientUnits="userSpaceOnUse" x1="66.71" y1="62.8442" x2="106.2352" y2="106.3222">
			<stop  offset="0" style="stop-color:#EEEFDF"/>
			<stop  offset="1" style="stop-color:#CAE9C0"/>
		</linearGradient>
		<path style="&st4;" d="M129.579,106.9H40.426v-47.87h89.153v47.87z"/>
		<path style="&st2;" d="M125.186,102.07H44.379v-37.77h80.807v37.77z"/>
		<path style="&st12;" d="M44.379,97.239h80.807v4.831H44.379v-4.831z"/>
		<path style="&st12;" d="M100.592,83.185c0,10.43-7.079,18.885-15.81,18.885c-8.731,0-15.81-8.455-15.81-18.885c0-10.429,7.079-18.884,15.81-18.884c8.731,0,15.81,8.455,15.81,18.884z"/>
		<path style="&st12;" d="M61.066,83.625c0,2.91-2.359,5.269-5.27,5.269c-2.91,0-5.269-2.359-5.269-5.269c0-2.911,2.359-5.271,5.269-5.271c2.911,0,5.27,2.36,5.27,5.271z"/>
		<path style="&st12;" d="M104.545,78.354h14.932l-1.757,7.466H107.62l-3.074-7.466z"/>
		<path style="&st1;" d="M120.795,74.402h-18.006v-4.831h18.006v4.831z"/>
		<path style="&st1;" d="M119.477,93.286h-15.371V91.09h15.371v2.196z"/>
		<path style="&st13;" d="M85.441,66.936l0.158,10.265l4.086,5.034l-2.536,2.536l4.661,7.768l-3.294,3.164c3.186,0,9.663-5.885,9.663-13.175c0-5.929-5.341-15.591-12.737-15.591z"/>
		<path style="&st6;" d="M83.14,69.238c0,0-7.541,7.969-7.541,11.515c0,3.545,0,6.647,0,6.647h-4.432c0,5.382,6.062,9.038,9.839,9.84c3.777,0.801,11.482,0,11.482,0l-3.973-1.537l3.294-3.164l-4.661-7.768l2.536-2.536l-4.086-5.034l-2.459-7.963z"/>
		<path style="&st12;" d="M47.236,73.219h19.942v-3.981H47.236v3.981z"/>
		<path style="&st12;" d="M47.236,93.286h17.872V91.09H47.236v2.196z"/>
	</g>
</svg>
