<?xml version="1.0" encoding="iso-8859-1"?>
<!-- Generator: Adobe Illustrator 9.0, SVG Export Plug-In  -->
<!DOCTYPE svg PUBLIC "-//W3C//DTD SVG 20000303 Stylable//EN"   "http://www.w3.org/TR/2000/03/WD-SVG-20000303/DTD/svg-20000303-stylable.dtd" [
	<!ENTITY st0 "fill:url(#aigrd1);stroke:none;">
	<!ENTITY st1 "opacity:0.2;stroke:none;">
	<!ENTITY st2 "fill:#1D0E82;">
	<!ENTITY st3 "fill:url(#aigrd3);stroke:none;">
	<!ENTITY st4 "opacity:0.35;stroke:none;">
	<!ENTITY st5 "fill:#F91215;">
	<!ENTITY st6 "fill:#C7C61C;">
	<!ENTITY st7 "fill:#FFFFFF;stroke:none;">
	<!ENTITY st8 "opacity:0.2;">
	<!ENTITY st9 "fill:url(#aigrd2);stroke:none;">
	<!ENTITY st10 "fill:#BEBEBE;stroke:none;">
	<!ENTITY st11 "fill-rule:nonzero;clip-rule:nonzero;stroke:#000000;stroke-miterlimit:4;">
	<!ENTITY st12 "stroke:none;">
	<!ENTITY st13 "fill:url(#aigrd4);stroke:none;">
]>
<svg  width="209.892pt" height="180.409pt" viewBox="0 0 209.892 180.409" xml:space="preserve">
	<g id="Layer_x0020_1" style="&st11;">
		<path style="&st4;" d="M147.315,179.171c-14.998,2.891-125.285,0.938-133.222-7.219c-7.936-8.154,47.936-44.457,67.648-46.861s116.353,10.578,126.931,21.156c10.576,10.578-46.359,30.033-61.357,32.924z"/>
		<path style="&st12;" d="M22,0C9.869,0,0,9.869,0,22v129.79c0,12.131,9.869,22,22,22h115.802c12.131,0,22-9.869,22-22V22c0-12.131-9.869-22-22-22H22z"/>
		<linearGradient id="aigrd1" gradientUnits="userSpaceOnUse" x1="38.9497" y1="17.4932" x2="120.6721" y2="159.4585">
			<stop  offset="0" style="stop-color:#F0F0F0"/>
			<stop  offset="1" style="stop-color:#D6D6D6"/>
		</linearGradient>
		<path style="&st0;" d="M148.802,151.79c0,6.627-5.373,12-12,12H21c-6.627,0-12-5.373-12-12V22c0-6.627,5.373-12,12-12h115.802c6.627,0,12,5.373,12,12v129.79z"/>
		<g>
			<radialGradient id="aigrd2" cx="20.8916" cy="114.5664" r="5.2576" fx="20.8916" fy="114.5664" gradientUnits="userSpaceOnUse">
				<stop  offset="0" style="stop-color:#F0F0F0"/>
				<stop  offset="1" style="stop-color:#474747"/>
			</radialGradient>
			<path style="&st9;" d="M23.428,113.069c0,1.973-1.6,3.572-3.573,3.572c-1.974,0-3.573-1.6-3.573-3.572c0-1.975,1.6-3.574,3.573-3.574c1.973,0,3.573,1.6,3.573,3.574z"/>
			<radialGradient id="aigrd3" cx="20.8916" cy="64.5679" r="5.2576" fx="20.8916" fy="64.5679" gradientUnits="userSpaceOnUse">
				<stop  offset="0" style="stop-color:#F0F0F0"/>
				<stop  offset="1" style="stop-color:#474747"/>
			</radialGradient>
			<path style="&st3;" d="M23.428,63.07c0,1.973-1.6,3.573-3.573,3.573c-1.974,0-3.573-1.6-3.573-3.573c0-1.974,1.6-3.573,3.573-3.573c1.973,0,3.573,1.6,3.573,3.573z"/>
		</g>
		<path style="&st7;" d="M31.679,163.71h-1.613V12.642h1.613V163.71z"/>
		<linearGradient id="aigrd4" gradientUnits="userSpaceOnUse" x1="30.1484" y1="16.8433" x2="28.3645" y2="158.2247">
			<stop  offset="0" style="stop-color:#EDEDED"/>
			<stop  offset="1" style="stop-color:#CACACA"/>
		</linearGradient>
		<path style="&st13;" d="M30.054,163.71h-1.613V12.642h1.613V163.71z"/>
		<path style="&st7;" d="M14.393,26.155l-2.618,133.307c-1.902-1.902-2.662-6.037-2.662-6.037L8.952,21.509c0,0-0.159-3.403,2.963-7.335c3.16-3.98,8.421-4.22,8.421-4.22l118.165,0.168l-113.615,5.54c-4.588,0-7.045,2.273-8.048,3.467
			c-0.812,0.967-2.392,4.104-2.445,7.026z"/>
		<path style="&st10;" d="M143.944,147.663l2.617-133.307c1.902,1.9,2.662,6.035,2.662,6.035l0.162,131.916c0,0,0.158,3.402-2.963,7.336c-3.16,3.98-8.422,4.219-8.422,4.219l-118.166-0.168l113.617-5.539c4.588,0,7.045-2.273,8.047-3.467
			c0.812-0.967,2.393-4.105,2.445-7.025z"/>
		<path style="&st1;" d="M134.292,56.454h-40.78V29.854h40.78v26.599z"/>
		<path style="&st1;" d="M84.293,56.454H43.512V29.854h40.781v26.599z"/>
		<path style="&st1;" d="M134.292,148.606h-40.78v-38.752h40.78v38.752z"/>
		<path style="&st1;" d="M84.293,148.606H43.512v-38.752h40.781v38.752z"/>
	</g>
	<g id="Layer_x0020_2" style="&st11;">
		<g style="&st12;">
			<path style="&st8;" d="M78.415,78.441l9.758,1.648l0.397,5.893l11.058-3.958l9.709,1.641l-20.282,6.636l-6.635,6.13l-8.775-1.482l6.636-6.129l-1.866-10.377z"/>
			<path style="&st8;" d="M57.961,86.553l12.214-3.684l-4.519,11.247l19.12-5.768L83.29,92.05l-31.334,9.451l6.005-14.948z"/>
			<path style="&st2;" d="M40.714,73.743l9.269-3.684l7.876,19.817l14.511-5.768l2.591,6.52l-23.78,9.452L40.714,73.743z"/>
			<path style="&st6;" d="M68.69,63.545l10.661,3.068l3.62,10.965l8.892-7.365l10.607,3.053L85.817,85.614l-3.283,11.407l-9.585-2.758l3.282-11.407L68.69,63.545z"/>
			<path style="&st8;" d="M114.763,79.458l10.482,0.444l-0.729,5.159l11.407-4.707l10.351,0.439l-19.207,7.364l0.218,8.698l-10.679-0.452l0.328-5.399l-12.448,4.885L93.874,95.44l20.969-7.893l-0.08-8.09z"/>
			<path style="&st5;" d="M94.79,66.713l10.979,0.784l5.031,9.102l6.153-8.303l10.841,0.774l-10.987,12.991l9.93,15.347l-11.185-0.799l-5.699-9.525l-6.995,8.619l-11.115-0.793L103.9,80.985L94.79,66.713z"/>
		</g>
	</g>
</svg>
