<?xml version="1.0" encoding="iso-8859-1"?>
<!-- Generator: Adobe Illustrator 9.0, SVG Export Plug-In  -->
<!DOCTYPE svg PUBLIC "-//W3C//DTD SVG 20000303 Stylable//EN"   "http://www.w3.org/TR/2000/03/WD-SVG-20000303/DTD/svg-20000303-stylable.dtd" [
	<!ENTITY st0 "fill-rule:evenodd;clip-rule:evenodd;fill:url(#aigrd7);stroke:none;">
	<!ENTITY st1 "fill:url(#aigrd1);stroke:none;">
	<!ENTITY st2 "fill:#000000;stroke:none;">
	<!ENTITY st3 "opacity:0.3;fill-rule:evenodd;clip-rule:evenodd;fill:#FFFFFF;stroke:none;">
	<!ENTITY st4 "opacity:0.35;fill:#000000;stroke:none;">
	<!ENTITY st5 "fill:url(#aigrd3);stroke:none;">
	<!ENTITY st6 "opacity:0.71;fill-rule:evenodd;clip-rule:evenodd;fill:url(#aigrd9);stroke:none;">
	<!ENTITY st7 "fill-rule:evenodd;clip-rule:evenodd;fill:url(#aigrd6);stroke:none;">
	<!ENTITY st8 "fill-rule:nonzero;clip-rule:nonzero;fill:#FFFFFF;stroke:#000000;stroke-miterlimit:4;">
	<!ENTITY st9 "fill-rule:evenodd;clip-rule:evenodd;fill:url(#aigrd8);stroke:none;">
	<!ENTITY st10 "fill:url(#aigrd2);stroke:none;">
	<!ENTITY st11 "fill-rule:evenodd;clip-rule:evenodd;fill:url(#aigrd5);stroke:none;">
	<!ENTITY st12 "fill:#BEBEBE;stroke:none;">
	<!ENTITY st13 "fill:none;stroke-width:0.1279;stroke-miterlimit:3.8637;">
	<!ENTITY st14 "fill-rule:evenodd;clip-rule:evenodd;stroke:none;">
	<!ENTITY st15 "fill-rule:nonzero;clip-rule:nonzero;stroke:#000000;stroke-miterlimit:4;">
	<!ENTITY st16 "stroke:none;">
	<!ENTITY st17 "fill:url(#aigrd4);stroke:none;">
]>
<svg  width="207.901pt" height="179.886pt" viewBox="0 0 207.901 179.886" xml:space="preserve">
	<g id="Layer_x0020_1" style="&st8;">
		<path style="&st4;" d="M145.325,178.648c-14.998,2.891-125.286,0.938-133.223-7.219c-7.936-8.152,47.936-44.455,67.649-46.859c19.713-2.404,116.353,10.576,126.931,21.154c10.576,10.578-46.359,30.035-61.357,32.924z"/>
		<path style="&st2;" d="M22,0C9.869,0,0,9.869,0,22v129.791c0,12.131,9.869,22,22,22h115.802c12.131,0,22-9.869,22-22V22c0-12.131-9.869-22-22-22H22z"/>
		<linearGradient id="aigrd1" gradientUnits="userSpaceOnUse" x1="38.9507" y1="17.4941" x2="120.6722" y2="159.458">
			<stop  offset="0" style="stop-color:#F0F0F0"/>
			<stop  offset="1" style="stop-color:#D6D6D6"/>
		</linearGradient>
		<path style="&st1;" d="M148.802,151.791c0,6.627-5.373,12-12,12H21c-6.627,0-12-5.373-12-12V22c0-6.627,5.373-12,12-12h115.802c6.627,0,12,5.373,12,12v129.791z"/>
		<g>
			<radialGradient id="aigrd2" cx="20.8916" cy="114.5669" r="5.2576" fx="20.8916" fy="114.5669" gradientUnits="userSpaceOnUse">
				<stop  offset="0" style="stop-color:#F0F0F0"/>
				<stop  offset="1" style="stop-color:#474747"/>
			</radialGradient>
			<path style="&st10;" d="M23.428,113.07c0,1.973-1.6,3.572-3.573,3.572c-1.974,0-3.573-1.6-3.573-3.572s1.6-3.572,3.573-3.572c1.973,0,3.573,1.6,3.573,3.572z"/>
			<radialGradient id="aigrd3" cx="20.8916" cy="64.5674" r="5.2581" fx="20.8916" fy="64.5674" gradientUnits="userSpaceOnUse">
				<stop  offset="0" style="stop-color:#F0F0F0"/>
				<stop  offset="1" style="stop-color:#474747"/>
			</radialGradient>
			<path style="&st5;" d="M23.428,63.07c0,1.973-1.6,3.573-3.573,3.573c-1.974,0-3.573-1.6-3.573-3.573c0-1.974,1.6-3.573,3.573-3.573c1.973,0,3.573,1.6,3.573,3.573z"/>
		</g>
		<path style="&st16;" d="M31.679,163.71h-1.613V12.642h1.613V163.71z"/>
		<linearGradient id="aigrd4" gradientUnits="userSpaceOnUse" x1="30.1479" y1="16.8438" x2="28.364" y2="158.2261">
			<stop  offset="0" style="stop-color:#EDEDED"/>
			<stop  offset="1" style="stop-color:#CACACA"/>
		</linearGradient>
		<path style="&st17;" d="M30.054,163.71h-1.613V12.642h1.613V163.71z"/>
		<path style="&st16;" d="M14.393,26.155l-2.618,133.308c-1.902-1.9-2.662-6.035-2.662-6.035L8.952,21.509c0,0-0.159-3.403,2.963-7.335c3.16-3.98,8.421-4.22,8.421-4.22l118.165,0.168l-113.615,5.54c-4.588,0-7.045,2.273-8.048,3.467
			c-0.812,0.967-2.392,4.104-2.445,7.026z"/>
		<path style="&st12;" d="M143.944,147.664l2.617-133.307c1.902,1.9,2.662,6.035,2.662,6.035l0.162,131.918c0,0,0.158,3.402-2.963,7.334c-3.16,3.98-8.422,4.221-8.422,4.221l-118.166-0.168l113.617-5.541c4.588,0,7.045-2.273,8.047-3.467
			c0.812-0.967,2.393-4.104,2.445-7.025z"/>
	</g>
	<g id="Layer_x0020_3" style="&st15;">
		<radialGradient id="aigrd5" cx="96.3936" cy="105.854" r="56.3642" fx="96.3936" fy="105.854" gradientUnits="userSpaceOnUse">
			<stop  offset="0" style="stop-color:#FED182"/>
			<stop  offset="0.2809" style="stop-color:#FFB310"/>
			<stop  offset="1" style="stop-color:#996E04"/>
		</radialGradient>
		<path style="&st11;" d="M44.97,89.209c0,23.261,18.858,42.117,42.122,42.117c23.266,0,42.124-18.855,42.124-42.117c0-23.259-18.857-42.115-42.124-42.115c-23.264,0-42.122,18.856-42.122,42.115z"/>
		<path style="&st13;" d="M85.701,90.062L85.7,90.146"/>
		<path style="&st14;" d="M48.768,89.088c0,21.162,17.158,38.318,38.324,38.318c21.167,0,38.325-17.156,38.325-38.318c0-21.161-17.158-38.316-38.325-38.316c-21.166,0-38.324,17.155-38.324,38.316 M41.712,89.088c0-25.058,20.317-45.372,45.38-45.372
			c25.065,0,45.381,20.314,45.381,45.372c0,25.058-20.316,45.373-45.381,45.373c-25.063,0-45.38-20.314-45.38-45.373z"/>
		<linearGradient id="aigrd6" gradientUnits="userSpaceOnUse" x1="83.1138" y1="134.9907" x2="130.8229" y2="106.4543">
			<stop  offset="0" style="stop-color:#1A1719"/>
			<stop  offset="1" style="stop-color:#666666"/>
		</linearGradient>
		<path style="&st7;" d="M128.276,101.648c-5.666,19.561-24.69,33.572-47.878,29.947l0.877-1.201c22.693,1.371,39.136-11.166,45.658-28.562l1.344-0.184z"/>
		<linearGradient id="aigrd7" gradientUnits="userSpaceOnUse" x1="115.4971" y1="115.7505" x2="84.9539" y2="86.9905">
			<stop  offset="0" style="stop-color:#D9CEA3"/>
			<stop  offset="1" style="stop-color:#000000"/>
		</linearGradient>
		<path style="&st0;" d="M114.112,61.837c7.068,6.951,11.455,16.624,11.455,27.321c0,21.162-17.159,38.316-38.326,38.316c-10.701,0-20.378-4.385-27.332-11.455c6.918,6.801,16.405,10.996,26.871,10.996c21.169,0,38.326-17.156,38.326-38.318
			c0-10.462-4.193-19.947-10.994-26.86z"/>
		<g style="&st16;">
			<path d="M60.743,86.478c-0.418-1.668,0.405-3.488,3.149-3.488c2.744,0,6.151,5.523,4.447,7.227c-2.029,2.029-7.178-2.071-7.596-3.739z"/>
			<path d="M65.164,72.108c-2.097,0.854-1.894,5.462-0.254,7.531c1.311,1.653,3.459,2.924,4.859,1.523c1.4-1.401,1.34-3.648,0.477-4.924c-0.863-1.276-2.985-4.982-5.082-4.131z"/>
			<path d="M71.12,63.056c-3.041,1.887-1.137,8.653,1.508,10.086c1.299,0.703,5.034,0.248,5.322-1.985c0.714-5.562-3.79-9.987-6.83-8.101z"/>
			<path d="M84.064,58.37c-4.657,0.557-4.325,7.644-4.043,9.367c0.281,1.722,1.941,5.676,6.981,4.849c3.588-0.589,4.31-3.978,3.971-6.512c-0.339-2.535-2.252-8.261-6.909-7.704z"/>
			<path d="M74.057,81.957c-2.004,2.856-3.018,5.741-3.018,9.451c0,4.447,3.335,14.295,5.798,17.789c2.462,3.494,9.769,9.689,17.71,8.102c7.941-1.59,12.945-14.969,12.468-19.697c-0.342-3.387-5.429-4.996-7.661-4.996c-3.098,0-7.03,2.615-6.276,4.719
				c0.755,2.105,4.482,2.846,3.852,4.566c-1.282,3.502-9.646,2.424-11.658-0.008c-1.053-1.27-2.637-6.424-0.016-9.045c2.62-2.621,6.158-2.744,7.545-4.129c1.582-1.583,3.833-6.086,1.191-10.166c-3.809-5.88-15.674-2.658-19.935,3.415z"/>
		</g>
		<radialGradient id="aigrd8" cx="44.3545" cy="80.5063" r="30.2787" fx="44.3545" fy="80.5063" gradientUnits="userSpaceOnUse">
			<stop  offset="0" style="stop-color:#1A1719"/>
			<stop  offset="1" style="stop-color:#7F7F7F"/>
		</radialGradient>
		<path style="&st9;" d="M59.909,54.534c-6.45,4.198-13.928,14.731-15.555,25.973c1.899-0.354,0.173-4.162,2.553-4.076c1.186-5.248,1.199-9.088,12.393-20.896c0-0.207,1.354-0.789,0.61-1.001z"/>
		<linearGradient id="aigrd9" gradientUnits="userSpaceOnUse" x1="58.4814" y1="99.2612" x2="87.97" y2="51.2334">
			<stop  offset="0" style="stop-color:#DDCB6B"/>
			<stop  offset="0.1875" style="stop-color:#E3D37E"/>
			<stop  offset="0.5649" style="stop-color:#EFE6B2"/>
			<stop  offset="1" style="stop-color:#FFFFFF"/>
		</linearGradient>
		<path style="&st6;" d="M52.457,89.354c1.244,18.55,4.012-4.537,11.983-12.509c18.809-18.808,48.565-14.167,31.852-21.023c-25.755-7.463-45.017,15.912-43.834,33.532z"/>
		<path style="&st3;" d="M62.098,106.951c-6.038-13.332,10.151,9.141,25.571,2.156c15.421-6.982,24.233-40.778,30.272-27.446c6.037,13.331-1.57,29.799-16.991,36.782c-15.42,6.984-32.814,1.838-38.852-11.492z"/>
	</g>
</svg>
