<?xml version="1.0" encoding="iso-8859-1"?>
<!-- Generator: Adobe Illustrator 9.0, SVG Export Plug-In  -->
<!DOCTYPE svg PUBLIC "-//W3C//DTD SVG 20000303 Stylable//EN"   "http://www.w3.org/TR/2000/03/WD-SVG-20000303/DTD/svg-20000303-stylable.dtd" [
	<!ENTITY st0 "fill-rule:nonzero;clip-rule:nonzero;fill:#E6E6E6;stroke:#000000;stroke-miterlimit:4;">
	<!ENTITY st1 "fill:url(#aigrd1);stroke:none;">
	<!ENTITY st2 "opacity:0.6833;fill:#F7FCB7;stroke:none;">
	<!ENTITY st3 "fill:#000000;stroke:none;">
	<!ENTITY st4 "fill:url(#aigrd11);stroke:none;">
	<!ENTITY st5 "fill:url(#aigrd9);stroke:none;">
	<!ENTITY st6 "fill:url(#aigrd6);stroke:none;">
	<!ENTITY st7 "opacity:0.525;fill:#F4FA95;stroke:none;">
	<!ENTITY st8 "opacity:0.3667;fill:#F0F972;stroke:none;">
	<!ENTITY st9 "opacity:0.8417;fill:#FBFDDB;stroke:none;">
	<!ENTITY st10 "fill:url(#aigrd3);stroke:none;">
	<!ENTITY st11 "opacity:0.35;stroke:none;">
	<!ENTITY st12 "fill:url(#aigrd13);stroke:none;">
	<!ENTITY st13 "opacity:0.3;stroke:none;">
	<!ENTITY st14 "fill:#545454;stroke:none;">
	<!ENTITY st15 "fill:url(#aigrd10);stroke:none;">
	<!ENTITY st16 "fill:url(#aigrd8);stroke:none;">
	<!ENTITY st17 "fill:#FFFFFF;stroke:none;">
	<!ENTITY st18 "fill:#3B3B3B;stroke:none;">
	<!ENTITY st19 "fill:url(#aigrd5);stroke:none;">
	<!ENTITY st20 "fill:url(#aigrd2);stroke:none;">
	<!ENTITY st21 "fill:#BEBEBE;stroke:none;">
	<!ENTITY st22 "fill:#454545;stroke:none;">
	<!ENTITY st23 "opacity:0.2083;fill:#ECF751;stroke:none;">
	<!ENTITY st24 "fill:url(#aigrd12);stroke:none;">
	<!ENTITY st25 "opacity:0.05;fill:#E8F52F;stroke:none;">
	<!ENTITY st26 "fill:#515151;stroke:none;">
	<!ENTITY st27 "fill:#9F9F9F;stroke:none;">
	<!ENTITY st28 "fill-rule:nonzero;clip-rule:nonzero;stroke:#000000;stroke-miterlimit:4;">
	<!ENTITY st29 "fill:url(#aigrd7);stroke:none;">
	<!ENTITY st30 "stroke:none;">
	<!ENTITY st31 "fill:#FCFCFC;stroke:none;">
	<!ENTITY st32 "opacity:0.1;stroke:none;">
	<!ENTITY st33 "fill:url(#aigrd4);stroke:none;">
]>
<svg  width="244.564pt" height="247.569pt" viewBox="0 0 244.564 247.569" xml:space="preserve">
	<g id="Layer_x0020_2" style="&st28;">
		<path style="&st11;" d="M243.345,213.406c-3.98-3.981-20.156-8.304-39.832-12.017c-0.213-0.489-0.537-0.964-0.994-1.421c-10.576-10.578-107.217-23.559-126.93-21.154c-19.714,2.404-75.585,38.707-67.649,46.859c2.999,3.081,20.608,5.276,42.166,6.661
			c-2.122,2.928-2.768,5.31-1.34,6.776c7.937,8.156,118.226,10.109,133.224,7.219c14.996-2.889,71.934-22.346,61.355-32.924z"/>
		<path style="&st30;" d="M22,54.562c-12.131,0-22,9.869-22,22v129.792c0,12.131,9.869,22,22,22h115.802c12.131,0,22-9.869,22-22V76.562c0-12.131-9.869-22-22-22H22z"/>
		<linearGradient id="aigrd1" gradientUnits="userSpaceOnUse" x1="38.9502" y1="72.0562" x2="120.6726" y2="214.0215">
			<stop  offset="0" style="stop-color:#F0F0F0"/>
			<stop  offset="1" style="stop-color:#D6D6D6"/>
		</linearGradient>
		<path style="&st1;" d="M148.802,206.354c0,6.627-5.373,12-12,12H21c-6.627,0-12-5.373-12-12V76.562c0-6.627,5.373-12,12-12h115.802c6.627,0,12,5.373,12,12v129.792z"/>
		<g>
			<radialGradient id="aigrd2" cx="20.8921" cy="169.1299" r="5.257" fx="20.8921" fy="169.1299" gradientUnits="userSpaceOnUse">
				<stop  offset="0" style="stop-color:#F0F0F0"/>
				<stop  offset="1" style="stop-color:#474747"/>
			</radialGradient>
			<path style="&st20;" d="M23.428,167.633c0,1.973-1.6,3.572-3.573,3.572c-1.974,0-3.573-1.6-3.573-3.572c0-1.975,1.6-3.574,3.573-3.574c1.973,0,3.573,1.6,3.573,3.574z"/>
			<radialGradient id="aigrd3" cx="20.8921" cy="119.1294" r="5.2575" fx="20.8921" fy="119.1294" gradientUnits="userSpaceOnUse">
				<stop  offset="0" style="stop-color:#F0F0F0"/>
				<stop  offset="1" style="stop-color:#474747"/>
			</radialGradient>
			<path style="&st10;" d="M23.428,117.632c0,1.973-1.6,3.573-3.573,3.573c-1.974,0-3.573-1.6-3.573-3.573c0-1.974,1.6-3.573,3.573-3.573c1.973,0,3.573,1.6,3.573,3.573z"/>
		</g>
		<path style="&st17;" d="M31.679,218.273h-1.613V67.204h1.613v151.07z"/>
		<linearGradient id="aigrd4" gradientUnits="userSpaceOnUse" x1="30.1479" y1="71.4053" x2="28.364" y2="212.7885">
			<stop  offset="0" style="stop-color:#EDEDED"/>
			<stop  offset="1" style="stop-color:#CACACA"/>
		</linearGradient>
		<path style="&st33;" d="M30.054,218.273h-1.613V67.204h1.613v151.07z"/>
		<path style="&st17;" d="M14.393,80.717l-2.618,133.309c-1.902-1.902-2.662-6.037-2.662-6.037L8.952,76.071c0,0-0.159-3.403,2.963-7.335c3.16-3.98,8.421-4.22,8.421-4.22l118.165,0.168l-113.615,5.54c-4.588,0-7.045,2.273-8.048,3.467
			c-0.812,0.967-2.392,4.104-2.445,7.026z"/>
		<path style="&st21;" d="M143.945,202.227l2.617-133.308c1.902,1.9,2.662,6.035,2.662,6.035l0.162,131.917c0,0,0.158,3.402-2.963,7.336c-3.16,3.98-8.422,4.219-8.422,4.219l-118.166-0.168l113.617-5.539c4.588,0,7.045-2.273,8.047-3.467
			c0.812-0.967,2.393-4.105,2.445-7.025z"/>
		<path style="&st32;" d="M54.112,95.436c0,0,85.59-3.377,98.03-8.942v13.093l-98.03-4.151"/>
		<path style="&st30;" d="M57.413,95.11c-9.323,0-16.908,7.584-16.908,16.907v113.287c0,9.322,7.584,16.908,16.908,16.908h120.364c9.322,0,16.906-7.586,16.906-16.908V112.018c0-9.323-7.584-16.907-16.906-16.907H57.413z"/>
		<linearGradient id="aigrd5" gradientUnits="userSpaceOnUse" x1="81.9565" y1="106.751" x2="154.8571" y2="233.3913">
			<stop  offset="0" style="stop-color:#D2D2D2"/>
			<stop  offset="1" style="stop-color:#EDEDED"/>
		</linearGradient>
		<path style="&st19;" d="M186.226,222.566c0,6.273-5.086,11.357-11.359,11.357H60.321c-6.272,0-11.357-5.084-11.357-11.357V114.755c0-6.272,5.084-11.357,11.357-11.357h114.546c6.273,0,11.359,5.085,11.359,11.357v107.812z"/>
		<linearGradient id="aigrd6" gradientUnits="userSpaceOnUse" x1="118.7666" y1="210.9297" x2="118.9222" y2="180.5946">
			<stop  offset="0" style="stop-color:#163069"/>
			<stop  offset="1" style="stop-color:#83A1CB"/>
		</linearGradient>
		<path style="&st6;" d="M176.125,207.979H61.838v-77.842h114.287v77.842z"/>
		<path style="&st31;" d="M53.513,116.884l-2.208,112.452c-1.604-1.604-2.245-5.092-2.245-5.092l-0.136-111.279c0,0-0.134-2.87,2.5-6.188c2.666-3.358,7.104-3.56,7.104-3.56l99.678,0.142l-95.84,4.673c-3.871,0-5.943,1.918-6.789,2.925
			c-0.685,0.815-2.018,3.462-2.062,5.926z"/>
		<path style="&st21;" d="M181.55,219.852l2.4-111.911c1.592,1.592,2.189,5.431,2.189,5.431l-0.031,110.373c0,0,0.133,2.85-2.482,6.146c-2.648,3.336-7.484,3.963-7.484,3.963l-98.934,0.07l95.549-5.281c3.844,0,5.904-1.904,6.742-2.904
			c0.682-0.809,2.006-3.439,2.051-5.887z"/>
		<path style="&st21;" d="M176.125,130.137l2.639-2.699L59.101,127.17l0.156,83.759l2.581-2.951v-77.842h114.287z"/>
		<path style="&st17;" d="M59.257,210.93l119.506-0.27v-83.223l-2.639,2.699v77.842H61.838l-2.581,2.951z"/>
		<linearGradient id="aigrd7" gradientUnits="userSpaceOnUse" x1="118.9834" y1="188.6099" x2="118.9834" y2="120.1666">
			<stop  offset="0" style="stop-color:#D0D6E5"/>
			<stop  offset="1" style="stop-color:#093A80"/>
		</linearGradient>
		<path style="&st29;" d="M62.836,131.135H175.13v47.339H62.836v-47.339z"/>
		<g>
			<g>
				<path style="&st25;" d="M105.001,152.479c0,8.771-7.11,15.879-15.881,15.879c-8.769,0-15.879-7.107-15.879-15.879c0-8.769,7.11-15.878,15.879-15.878c8.771,0,15.881,7.109,15.881,15.878z"/>
				<path style="&st23;" d="M103.494,152.479c0,7.939-6.436,14.372-14.374,14.372c-7.937,0-14.372-6.433-14.372-14.372c0-7.937,6.435-14.371,14.372-14.371c7.938,0,14.374,6.435,14.374,14.371z"/>
				<path style="&st8;" d="M101.987,152.479c0,7.106-5.761,12.864-12.867,12.864c-7.104,0-12.864-5.758-12.864-12.864c0-7.104,5.76-12.864,12.864-12.864c7.105,0,12.867,5.76,12.867,12.864z"/>
				<path style="&st7;" d="M100.48,152.479c0,6.273-5.087,11.357-11.36,11.357c-6.272,0-11.357-5.084-11.357-11.357c0-6.272,5.085-11.357,11.357-11.357c6.273,0,11.36,5.085,11.36,11.357z"/>
				<path style="&st2;" d="M98.973,152.479c0,5.44-4.413,9.851-9.853,9.851c-5.44,0-9.85-4.41-9.85-9.851c0-5.44,4.41-9.85,9.85-9.85c5.44,0,9.853,4.41,9.853,9.85z"/>
				<path style="&st9;" d="M97.466,152.479c0,4.608-3.738,8.343-8.346,8.343c-4.607,0-8.342-3.734-8.342-8.343c0-4.608,3.735-8.343,8.342-8.343c4.608,0,8.346,3.735,8.346,8.343z"/>
				<path style="&st17;" d="M95.959,152.479c0,3.775-3.063,6.836-6.839,6.836s-6.835-3.061-6.835-6.836s3.06-6.836,6.835-6.836s6.839,3.061,6.839,6.836z"/>
			</g>
		</g>
		<path style="&st13;" d="M127.087,184.914h28.598l5.443,1.67h-9.291c0,0,9.357,0.934,14.002,6.463c4.645,5.527-5.654,11.949-5.654,11.949s-0.012-0.049-0.031-0.137c-0.303-1.24-2.744-10.711-7.516-14.418c-3.354-3.232-7.357-3.857-7.357-3.857h-18.033l-0.161-1.67z
			"/>
		<path style="&st13;" d="M145.693,187.348h-16.506l30.416,17.004l-13.91-17.004z"/>
		<path style="&st26;" d="M127.087,185.191h28.598l4.371-2.914h-9.289c0,0,8.756-1.635,9.848-11.287c1.092-9.655-13.33-20.867-13.33-20.867s0.02,0.082,0.055,0.236c0.494,2.167,4.139,18.704,1.748,25.177c-1.275,5.646-4.879,6.74-4.879,6.74h-18.033l0.911,2.914z"/>
		<path style="&st26;" d="M144.128,180.939h-16.506l19.493-29.689l-2.986,29.689z"/>
		<path style="&st30;" d="M61.838,130.137v77.842h114.287v-77.842H61.838z M173.753,205.564H64.208v-73.013h109.545v73.013z"/>
	</g>
	<g id="Layer_x0020_3" style="&st0;">
		<path style="&st3;" d="M52.379,95.492c4.879,17.304,27.438,19.858,45.564,21.914c8.543,0.968,19.176,2.172,21.84,4.834c7.104,7.104-0.832,22.307-0.916,22.457l-6.598,12.165l13.066-4.533c11.416-3.973,43.867-12.266,56.763-3.097l9.307,6.619l-0.855-11.388
			c-1.438-19.177-6.516-32.178-15.523-39.754c-12.771-10.739-31.043-8.951-50.384-7.056c-20.598,2.017-43.945,4.305-64.3-8.188l-11.683-7.168l3.72,13.193z"/>
		<path style="&st3;" d="M69.481,2.028C57.002,5.316,44.556,12.714,34.437,22.861C24.317,33.005,16.973,45.447,13.755,57.89c-1.287,4.98-1.931,9.958-1.931,14.798c0,4.904,0.661,9.668,1.983,14.155c2.592,8.801,7.631,16.157,14.563,21.409
			c7.935,11.135,20.64,17.265,35.942,17.265c17.944,0,36.407-8.143,50.657-22.342c14.261-14.21,22.439-32.64,22.439-50.564c0-14.784-5.809-27.217-16.359-35.168c-5.217-7.299-12.701-12.61-21.768-15.352c-9.15-2.767-19.455-2.789-29.8-0.063z"/>
		<linearGradient id="aigrd8" gradientUnits="userSpaceOnUse" x1="86.1943" y1="76.0176" x2="109.1214" y2="102.3529">
			<stop  offset="0" style="stop-color:#959595"/>
			<stop  offset="1" style="stop-color:#5B5B5B"/>
		</linearGradient>
		<path style="&st16;" d="M77.998,15.871c-23.531,6.202-45.015,27.753-51.071,51.185c-6.869,26.572,7.101,50.878,35.876,50.878c34.04,0,66.573-32.374,66.573-66.38c0-28.855-24.593-42.74-51.378-35.683z M63.13,82.511c-1.51,9.397-9.803,17.677-18.098,18.083
			c-7.925,0.388-12.415-6.65-10.421-15.369c1.915-8.369,9.245-15.708,16.72-16.731c7.798-1.07,13.245,5.031,11.799,14.018z M69.38,42.066c-1.231,7.618-8.688,15.082-16.315,16.335c-7.318,1.202-11.658-3.88-10.013-11.061c1.586-6.915,8.257-13.604,15.189-15.222
			c7.199-1.681,12.324,2.631,11.139,9.948z M109.348,78.116c-0.514,10.477-9.889,19.814-20.396,20.33c-9.982,0.486-16.608-7.292-15.301-16.938c1.25-9.212,9.414-17.368,18.664-18.635c9.695-1.329,17.525,5.273,17.033,15.242z M111.537,33.622
			c-0.408,8.292-8.734,16.607-18.174,18.16c-9.018,1.481-15.148-3.917-14.092-11.697c1.012-7.463,8.371-14.832,16.783-16.795c8.775-2.049,15.871,2.403,15.482,10.333z"/>
		<radialGradient id="aigrd9" cx="64.9517" cy="48.4351" r="43.8482" fx="64.9517" fy="48.4351" gradientUnits="userSpaceOnUse">
			<stop  offset="0" style="stop-color:#454545"/>
			<stop  offset="1" style="stop-color:#333333"/>
		</radialGradient>
		<path style="&st5;" d="M107.371,54.156c0,21.261-20.34,41.503-41.622,41.501c-17.992,0.002-26.727-15.196-22.433-31.809c3.788-14.649,17.221-28.124,31.932-32.002c16.744-4.413,32.123,4.271,32.123,22.31z"/>
		<radialGradient id="aigrd10" cx="103.9165" cy="115.8193" r="108.7411" fx="103.9165" fy="115.8193" gradientUnits="userSpaceOnUse">
			<stop  offset="0" style="stop-color:#767676"/>
			<stop  offset="1" style="stop-color:#484848"/>
		</radialGradient>
		<path style="&st15;" d="M101.172,47.957c0,21.261-20.342,41.501-41.622,41.501c-17.992,0-26.726-15.195-22.432-31.811c3.787-14.647,17.218-28.124,31.931-32c16.746-4.412,32.123,4.27,32.123,22.31z"/>
		<path style="&st18;" d="M120.393,25.688c13.878,13.881,14.253,45.133-7.135,69.268c-21.385,24.136-53.642,29.562-72.889,16.428c53.855,25.593,108.736-46.476,80.023-85.696z"/>
		<radialGradient id="aigrd11" cx="48.9595" cy="89.9224" r="56.2564" fx="48.9595" fy="89.9224" gradientUnits="userSpaceOnUse">
			<stop  offset="0" style="stop-color:#767676"/>
			<stop  offset="1" style="stop-color:#484848"/>
		</radialGradient>
		<path style="&st4;" d="M185.207,144.864c-18.012-12.807-61.634,2.403-61.634,2.403s10.208-18.612,0-28.816c-10.203-10.208-59.631-1.698-66.034-24.414c53.69,32.95,121.664-29.216,127.668,50.827z"/>
		<radialGradient id="aigrd12" cx="136.3003" cy="97.7852" r="57.3759" fx="136.3003" fy="97.7852" gradientUnits="userSpaceOnUse">
			<stop  offset="0" style="stop-color:#767676"/>
			<stop  offset="1" style="stop-color:#484848"/>
		</radialGradient>
		<path style="&st24;" d="M184.925,144.433c-18.01-12.803-61.632,2.404-61.632,2.404s22.88-36.569-21.973-42.763c53.46-5.721,81.417-8.493,83.605,40.358z"/>
		<path style="&st27;" d="M127.789,115.355c5.65,20.132-4.496,31.481-4.496,31.481s9.232-16.461,2.004-30.136c-8.914-16.864-47.586-1.151-67.993-22.841c20.868,20.871,64.228-0.807,70.485,21.495z"/>
		<linearGradient id="aigrd13" gradientUnits="userSpaceOnUse" x1="7.2129" y1="-12.9985" x2="117.6135" y2="112.5975">
			<stop  offset="0" style="stop-color:#FFFFFF"/>
			<stop  offset="1" style="stop-color:#959595"/>
		</linearGradient>
		<path style="&st12;" d="M69.638,7.28c-23.531,6.201-45.014,27.754-51.071,51.185c-6.869,26.571,7.102,50.878,35.876,50.876c34.042,0.002,66.572-32.373,66.572-66.379c0-28.853-24.592-42.739-51.377-35.682z M54.771,73.921c-1.511,9.396-9.803,17.677-18.099,18.081
			c-7.924,0.391-12.415-6.651-10.42-15.369c1.913-8.367,9.245-15.707,16.72-16.731c7.797-1.069,13.246,5.031,11.799,14.02z M61.021,33.475c-1.229,7.619-8.687,15.082-16.315,16.336c-7.318,1.2-11.657-3.882-10.012-11.061c1.584-6.917,8.257-13.606,15.186-15.224
			c7.201-1.681,12.322,2.63,11.141,9.948z M100.99,69.524c-0.516,10.479-9.889,19.816-20.398,20.33c-9.982,0.487-16.608-7.29-15.301-16.935c1.25-9.212,9.414-17.369,18.662-18.637c9.697-1.329,17.527,5.275,17.037,15.241z M103.178,25.03
			c-0.408,8.293-8.736,16.61-18.176,18.16c-9.016,1.482-15.146-3.915-14.091-11.695c1.013-7.465,8.373-14.832,16.783-16.796c8.779-2.049,15.873,2.401,15.484,10.332z"/>
		<path style="&st18;" d="M96.131,57.532c-5.881-5-16.742-4.649-23.844,2.451c-7.672,7.673-11.007,19.789-1.472,27.122C56.677,69.117,81.281,48.507,96.131,57.532z"/>
		<path style="&st30;" d="M70.76,87.038c19.621,13.285,41.877-17.993,25.318-29.575c15.141,15.653-8.107,39.375-25.318,29.575z"/>
		<path style="&st14;" d="M58.802,25.322c-2.68-2.681-9.816-4.073-17.939,3.27c-5.333,4.82-9.892,14.819-3.365,19.879c-8.424-8.425,10.047-29.771,21.305-23.148z"/>
		<path style="&st30;" d="M37.37,48.292c2.68,2.681,9.816,4.073,17.94-3.271c5.332-4.819,9.891-14.818,3.366-19.878c8.424,8.425-10.048,29.77-21.306,23.148z"/>
		<path style="&st22;" d="M50.739,61.778c-2.683-2.681-10.528-3.619-17.788,3.322c-8.513,8.137-9.559,20.453-2.722,25.187c-9.598-12.311,7.964-34.054,20.51-28.508z"/>
		<path style="&st30;" d="M31.06,90.697c2.68,2.682,10.526,3.619,17.786-3.321c8.512-8.136,9.558-20.453,2.722-25.187c9.599,12.31-7.965,34.054-20.508,28.508z"/>
		<path style="&st14;" d="M98.734,16.035c-2.68-2.68-13.514-3.297-21.301,4.144c-7.265,6.939-9.098,15.057-3.066,20.786C64.186,27.291,86.191,10.491,98.734,16.035z"/>
		<path style="&st30;" d="M76.316,42.376c2.682,2.681,13.516,3.3,21.305-4.142c7.262-6.939,9.096-15.058,3.064-20.787c10.182,13.673-11.824,30.474-24.369,24.928z"/>
		<path style="&st18;" d="M111.637,16.935c13.879,13.88,14.254,45.134-7.133,69.269c-21.389,24.136-53.641,29.558-72.888,16.424c53.855,25.595,108.735-46.473,80.021-85.692z"/>
	</g>
</svg>
