<?xml version="1.0" encoding="iso-8859-1"?>
<!DOCTYPE svg PUBLIC "-//W3C//DTD SVG 20000303 Stylable//EN"   "http://www.w3.org/TR/2000/03/WD-SVG-20000303/DTD/svg-20000303-stylable.dtd">
<!-- Generator: Adobe Illustrator 9.0, SVG Export Plug-In  -->
<svg  width="240.038pt" height="200.462pt" viewBox="0 0 240.038 200.462" xml:space="preserve">
	<g id="Layer_x0020_2" style="fill-rule:nonzero;clip-rule:nonzero;fill:#FFFFFF;stroke:#000000;stroke-miterlimit:4;">
		<path style="opacity:0.35;fill:#000000;stroke:none;" d="M145.326,178.648c-14.998,2.891-125.286,0.938-133.223-7.219c-7.936-8.153,47.936-44.456,67.649-46.86c19.713-2.404,116.354,10.577,126.931,21.155s-46.359,30.034-61.356,32.924z"/>
		<path style="fill:#000000;stroke:none;" d="M22,0C9.869,0,0,9.869,0,22v129.791c0,12.131,9.869,22,22,22h115.802c12.131,0,22-9.869,22-22V22c0-12.131-9.869-22-22-22H22z"/>
		<linearGradient id="aigrd1" gradientUnits="userSpaceOnUse" x1="38.9502" y1="17.4946" x2="120.6726" y2="159.4599">
			<stop  offset="0" style="stop-color:#F0F0F0"/>
			<stop  offset="1" style="stop-color:#D6D6D6"/>
		</linearGradient>
		<path style="fill:url(#aigrd1);stroke:none;" d="M148.802,151.791c0,6.627-5.373,12-12,12H21c-6.627,0-12-5.373-12-12V22c0-6.628,5.373-12,12-12h115.802c6.627,0,12,5.372,12,12v129.791z"/>
		<g>
			<radialGradient id="aigrd2" cx="20.8921" cy="114.5674" r="5.257" fx="20.8921" fy="114.5674" gradientUnits="userSpaceOnUse">
				<stop  offset="0" style="stop-color:#F0F0F0"/>
				<stop  offset="1" style="stop-color:#474747"/>
			</radialGradient>
			<path style="fill:url(#aigrd2);stroke:none;" d="M23.428,113.07c0,1.973-1.6,3.572-3.573,3.572c-1.974,0-3.573-1.6-3.573-3.572c0-1.974,1.6-3.573,3.573-3.573c1.973,0,3.573,1.6,3.573,3.573z"/>
			<radialGradient id="aigrd3" cx="20.8921" cy="64.5674" r="5.257" fx="20.8921" fy="64.5674" gradientUnits="userSpaceOnUse">
				<stop  offset="0" style="stop-color:#F0F0F0"/>
				<stop  offset="1" style="stop-color:#474747"/>
			</radialGradient>
			<path style="fill:url(#aigrd3);stroke:none;" d="M23.428,63.07c0,1.973-1.6,3.572-3.573,3.572c-1.974,0-3.573-1.6-3.573-3.572c0-1.974,1.6-3.573,3.573-3.573c1.973,0,3.573,1.6,3.573,3.573z"/>
		</g>
		<path style="stroke:none;" d="M31.679,163.711h-1.613V12.642h1.613v151.069z"/>
		<linearGradient id="aigrd4" gradientUnits="userSpaceOnUse" x1="30.1479" y1="16.8438" x2="28.364" y2="158.226">
			<stop  offset="0" style="stop-color:#EDEDED"/>
			<stop  offset="1" style="stop-color:#CACACA"/>
		</linearGradient>
		<path style="fill:url(#aigrd4);stroke:none;" d="M30.054,163.711h-1.613V12.642h1.613v151.069z"/>
		<path style="stroke:none;" d="M14.393,26.154l-2.618,133.309c-1.902-1.901-2.662-6.036-2.662-6.036L8.952,21.509c0,0-0.159-3.402,2.963-7.335c3.16-3.98,8.421-4.22,8.421-4.22l118.165,0.168l-113.615,5.54c-4.588,0-7.045,2.273-8.048,3.467
			c-0.812,0.967-2.392,4.104-2.445,7.025z"/>
		<path style="fill:#BEBEBE;stroke:none;" d="M143.945,147.664l2.617-133.308c1.902,1.9,2.662,6.035,2.662,6.035l0.161,131.918c0,0,0.159,3.402-2.963,7.335c-3.159,3.98-8.421,4.22-8.421,4.22l-118.166-0.168l113.616-5.54c4.588,0,7.045-2.273,8.048-3.467
			c0.812-0.967,2.392-4.104,2.445-7.025z"/>
	</g>
	<g id="Layer_x0020_1" style="fill-rule:nonzero;clip-rule:nonzero;fill:#E6E6E6;stroke:#000000;stroke-miterlimit:4;">
		<path style="fill:#000000;stroke:none;" d="M81.507,130.481c5.563,19.732,31.286,22.646,51.956,24.988c9.74,1.104,21.865,2.479,24.902,5.514c8.1,8.102-0.949,25.436-1.045,25.607l-7.521,13.871l14.898-5.17c13.018-4.527,50.021-13.986,64.727-3.529l10.613,7.547
			l-0.975-12.986c-1.641-21.865-7.432-36.691-17.703-45.33c-14.564-12.246-35.398-10.207-57.453-8.045c-23.486,2.299-50.109,4.908-73.319-9.336l-13.322-8.174l4.242,15.043z"/>
		<path style="fill:#000000;stroke:none;" d="M101.007,23.907c-14.229,3.75-28.421,12.186-39.961,23.756C49.508,59.23,41.133,73.417,37.465,87.604c-1.468,5.68-2.202,11.355-2.202,16.875c0,5.592,0.754,11.025,2.261,16.141c2.956,10.035,8.701,18.424,16.606,24.412
			c9.047,12.697,23.536,19.688,40.983,19.688c20.462,0,41.515-9.285,57.763-25.477c16.262-16.203,25.588-37.219,25.588-57.658c0-16.857-6.623-31.034-18.654-40.102c-5.949-8.324-14.482-14.38-24.82-17.505c-10.436-3.155-22.186-3.179-33.981-0.072z"/>
		<linearGradient id="aigrd5" gradientUnits="userSpaceOnUse" x1="120.0659" y1="108.2773" x2="146.2096" y2="138.3074">
			<stop  offset="0" style="stop-color:#959595"/>
			<stop  offset="1" style="stop-color:#5B5B5B"/>
		</linearGradient>
		<path style="fill:url(#aigrd5);stroke:none;" d="M110.719,39.692c-26.831,7.07-51.329,31.646-58.235,58.364c-7.833,30.301,8.097,58.016,40.91,58.016c38.815,0,75.911-36.914,75.911-75.692c0-32.901-28.045-48.735-58.586-40.688z M93.767,115.681
			c-1.723,10.715-11.18,20.156-20.637,20.619c-9.037,0.441-14.156-7.584-11.884-17.525c2.183-9.543,10.542-17.912,19.065-19.078c8.893-1.221,15.104,5.736,13.455,15.984z M100.894,69.561c-1.404,8.688-9.908,17.198-18.604,18.627
			c-8.346,1.371-13.293-4.426-11.417-12.613c1.808-7.885,9.414-15.513,17.318-17.357c8.209-1.917,14.053,2.999,12.703,11.343z M146.467,110.669c-0.586,11.947-11.275,22.594-23.258,23.182c-11.383,0.555-18.938-8.314-17.446-19.313
			c1.424-10.504,10.733-19.805,21.28-21.25c11.055-1.516,19.984,6.014,19.424,17.381z M148.963,59.932c-0.465,9.456-9.961,18.938-20.723,20.708c-10.283,1.689-17.273-4.466-16.07-13.338c1.154-8.512,9.547-16.912,19.139-19.151
			c10.008-2.337,18.098,2.739,17.654,11.781z"/>
		<radialGradient id="aigrd6" cx="95.8433" cy="76.8242" r="49.9994" fx="95.8433" fy="76.8242" gradientUnits="userSpaceOnUse">
			<stop  offset="0" style="stop-color:#454545"/>
			<stop  offset="1" style="stop-color:#333333"/>
		</radialGradient>
		<path style="fill:url(#aigrd6);stroke:none;" d="M144.213,83.348c0,24.243-23.193,47.325-47.46,47.323c-20.517,0.002-30.477-17.328-25.58-36.271c4.318-16.705,19.637-32.07,36.41-36.491c19.095-5.032,36.63,4.869,36.63,25.439z"/>
		<radialGradient id="aigrd7" cx="140.272" cy="153.6592" r="123.9836" fx="140.272" fy="153.6592" gradientUnits="userSpaceOnUse">
			<stop  offset="0" style="stop-color:#767676"/>
			<stop  offset="1" style="stop-color:#484848"/>
		</radialGradient>
		<path style="fill:url(#aigrd7);stroke:none;" d="M137.143,76.279c0,24.244-23.193,47.324-47.46,47.324c-20.516,0-30.475-17.328-25.578-36.273c4.318-16.703,19.634-32.07,36.41-36.49c19.095-5.031,36.628,4.868,36.628,25.439z"/>
		<path style="fill:#3B3B3B;stroke:none;" d="M159.061,50.886c15.824,15.827,16.252,51.464-8.135,78.986s-61.167,33.707-83.113,18.73c61.41,29.184,123.988-52.994,91.248-97.716z"/>
		<radialGradient id="aigrd8" cx="77.6055" cy="124.1338" r="64.143" fx="77.6055" fy="124.1338" gradientUnits="userSpaceOnUse">
			<stop  offset="0" style="stop-color:#767676"/>
			<stop  offset="1" style="stop-color:#484848"/>
		</radialGradient>
		<path style="fill:url(#aigrd8);stroke:none;" d="M232.967,186.78c-20.537-14.604-70.279,2.74-70.279,2.74s11.639-21.223,0-32.857c-11.637-11.641-67.997-1.938-75.298-27.84c61.222,37.572,138.731-33.314,145.577,57.957z"/>
		<radialGradient id="aigrd9" cx="177.2036" cy="133.0967" r="65.4245" fx="177.2036" fy="133.0967" gradientUnits="userSpaceOnUse">
			<stop  offset="0" style="stop-color:#767676"/>
			<stop  offset="1" style="stop-color:#484848"/>
		</radialGradient>
		<path style="fill:url(#aigrd9);stroke:none;" d="M232.647,186.29c-20.537-14.6-70.279,2.74-70.279,2.74s26.092-41.699-25.055-48.762c60.961-6.523,92.84-9.686,95.334,46.021z"/>
		<path style="fill:#9F9F9F;stroke:none;" d="M167.495,153.132c6.443,22.955-5.127,35.898-5.127,35.898s10.529-18.771,2.285-34.363c-10.166-19.23-54.26-1.313-77.53-26.045c23.796,23.799,73.235-0.92,80.372,24.51z"/>
		<linearGradient id="aigrd10" gradientUnits="userSpaceOnUse" x1="30.0044" y1="6.7725" x2="155.8931" y2="149.9885">
			<stop  offset="0" style="stop-color:#FFFFFF"/>
			<stop  offset="1" style="stop-color:#959595"/>
		</linearGradient>
		<path style="fill:url(#aigrd10);stroke:none;" d="M101.187,29.896c-26.832,7.07-51.329,31.647-58.235,58.365c-7.833,30.299,8.098,58.016,40.91,58.014c38.816,0.002,75.91-36.914,75.91-75.691c0-32.901-28.043-48.735-58.585-40.688z M84.235,105.886
			c-1.724,10.713-11.179,20.156-20.638,20.617c-9.036,0.445-14.156-7.584-11.883-17.525c2.182-9.541,10.541-17.91,19.065-19.078c8.892-1.221,15.104,5.736,13.455,15.986z M91.361,59.766c-1.402,8.687-9.906,17.197-18.604,18.627
			c-8.346,1.369-13.293-4.427-11.416-12.612c1.807-7.886,9.414-15.514,17.315-17.359c8.211-1.916,14.052,3,12.704,11.345z M136.936,100.872c-0.588,11.949-11.275,22.596-23.258,23.182c-11.384,0.557-18.938-8.313-17.448-19.311
			c1.426-10.504,10.734-19.805,21.28-21.25c11.057-1.516,19.984,6.014,19.426,17.379z M139.43,50.136c-0.465,9.456-9.961,18.939-20.725,20.707c-10.28,1.689-17.271-4.465-16.067-13.337c1.154-8.512,9.546-16.912,19.138-19.151
			c10.01-2.337,18.098,2.738,17.654,11.781z"/>
		<path style="fill:#3B3B3B;stroke:none;" d="M131.397,87.196c-6.705-5.702-19.092-5.301-27.19,2.797c-8.748,8.748-12.551,22.564-1.678,30.926c-16.121-20.512,11.935-44.012,28.868-33.723z"/>
		<path style="stroke:none;" d="M102.466,120.843c22.372,15.148,47.749-20.518,28.868-33.725c17.266,17.85-9.244,44.898-28.868,33.725z"/>
		<path style="fill:#545454;stroke:none;" d="M88.832,50.468c-3.057-3.057-11.193-4.646-20.457,3.729c-6.08,5.496-11.279,16.897-3.837,22.667c-9.606-9.607,11.457-33.948,24.294-26.396z"/>
		<path style="stroke:none;" d="M64.392,76.661c3.057,3.058,11.194,4.645,20.457-3.729c6.08-5.495,11.279-16.897,3.838-22.667c9.605,9.607-11.458,33.947-24.295,26.396z"/>
		<path style="fill:#454545;stroke:none;" d="M79.636,92.038c-3.059-3.057-12.004-4.125-20.283,3.789c-9.707,9.277-10.898,23.322-3.104,28.719c-10.944-14.037,9.082-38.832,23.387-32.508z"/>
		<path style="stroke:none;" d="M57.197,125.015c3.057,3.059,12.002,4.127,20.281-3.787c9.706-9.277,10.898-23.322,3.104-28.721c10.945,14.037-9.082,38.832-23.385,32.508z"/>
		<path style="fill:#545454;stroke:none;" d="M134.366,39.879c-3.057-3.057-15.41-3.76-24.29,4.724c-8.283,7.913-10.373,17.169-3.496,23.703c-11.609-15.591,13.483-34.749,27.786-28.426z"/>
		<path style="stroke:none;" d="M108.802,69.917c3.058,3.056,15.411,3.762,24.292-4.724c8.281-7.913,10.373-17.17,3.494-23.703c11.611,15.592-13.48,34.75-27.786,28.427z"/>
		<path style="fill:#3B3B3B;stroke:none;" d="M149.077,40.905c15.826,15.826,16.254,51.465-8.133,78.985c-24.389,27.521-61.166,33.705-83.113,18.729c61.41,29.186,123.988-52.992,91.246-97.713z"/>
	</g>
</svg>
