<?xml version="1.0" encoding="iso-8859-1"?>
<!-- Generator: Adobe Illustrator 9.0, SVG Export Plug-In  -->
<!DOCTYPE svg PUBLIC "-//W3C//DTD SVG 20000303 Stylable//EN"   "http://www.w3.org/TR/2000/03/WD-SVG-20000303/DTD/svg-20000303-stylable.dtd" [
	<!ENTITY st0 "fill:url(#aigrd1);stroke:none;">
	<!ENTITY st1 "opacity:0.2;stroke:none;">
	<!ENTITY st2 "fill:url(#aigrd3);stroke:none;">
	<!ENTITY st3 "opacity:0.35;stroke:none;">
	<!ENTITY st4 "fill:#FFFFFF;stroke:none;">
	<!ENTITY st5 "fill:url(#aigrd2);stroke:none;">
	<!ENTITY st6 "fill:#BEBEBE;stroke:none;">
	<!ENTITY st7 "fill-rule:evenodd;clip-rule:evenodd;stroke:none;">
	<!ENTITY st8 "fill-rule:nonzero;clip-rule:nonzero;stroke:#000000;stroke-miterlimit:4;">
	<!ENTITY st9 "stroke:none;">
	<!ENTITY st10 "fill:url(#aigrd4);stroke:none;">
]>
<svg  width="209.892pt" height="180.409pt" viewBox="0 0 209.892 180.409" xml:space="preserve">
	<g id="Layer_x0020_1" style="&st8;">
		<path style="&st3;" d="M147.316,179.171c-14.998,2.891-125.285,0.938-133.222-7.219c-7.936-8.154,47.936-44.457,67.648-46.861s116.353,10.578,126.931,21.156c10.576,10.578-46.359,30.033-61.357,32.924z"/>
		<path style="&st9;" d="M22,0C9.869,0,0,9.869,0,22v129.79c0,12.131,9.869,22,22,22h115.802c12.131,0,22-9.869,22-22V22c0-12.131-9.869-22-22-22H22z"/>
		<linearGradient id="aigrd1" gradientUnits="userSpaceOnUse" x1="38.9502" y1="17.4937" x2="120.6726" y2="159.459">
			<stop  offset="0" style="stop-color:#F0F0F0"/>
			<stop  offset="1" style="stop-color:#D6D6D6"/>
		</linearGradient>
		<path style="&st0;" d="M148.802,151.79c0,6.627-5.373,12-12,12H21c-6.627,0-12-5.373-12-12V22c0-6.627,5.373-12,12-12h115.802c6.627,0,12,5.373,12,12v129.79z"/>
		<g>
			<radialGradient id="aigrd2" cx="20.8921" cy="114.5664" r="5.257" fx="20.8921" fy="114.5664" gradientUnits="userSpaceOnUse">
				<stop  offset="0" style="stop-color:#F0F0F0"/>
				<stop  offset="1" style="stop-color:#474747"/>
			</radialGradient>
			<path style="&st5;" d="M23.428,113.069c0,1.973-1.6,3.572-3.573,3.572c-1.974,0-3.573-1.6-3.573-3.572c0-1.975,1.6-3.574,3.573-3.574c1.973,0,3.573,1.6,3.573,3.574z"/>
			<radialGradient id="aigrd3" cx="20.8921" cy="64.5679" r="5.257" fx="20.8921" fy="64.5679" gradientUnits="userSpaceOnUse">
				<stop  offset="0" style="stop-color:#F0F0F0"/>
				<stop  offset="1" style="stop-color:#474747"/>
			</radialGradient>
			<path style="&st2;" d="M23.428,63.07c0,1.973-1.6,3.573-3.573,3.573c-1.974,0-3.573-1.6-3.573-3.573c0-1.974,1.6-3.573,3.573-3.573c1.973,0,3.573,1.6,3.573,3.573z"/>
		</g>
		<path style="&st4;" d="M31.679,163.71h-1.613V12.642h1.613V163.71z"/>
		<linearGradient id="aigrd4" gradientUnits="userSpaceOnUse" x1="30.1489" y1="16.8433" x2="28.365" y2="158.2247">
			<stop  offset="0" style="stop-color:#EDEDED"/>
			<stop  offset="1" style="stop-color:#CACACA"/>
		</linearGradient>
		<path style="&st10;" d="M30.054,163.71h-1.613V12.642h1.613V163.71z"/>
		<path style="&st4;" d="M14.393,26.155l-2.618,133.307c-1.902-1.902-2.662-6.037-2.662-6.037L8.952,21.509c0,0-0.159-3.403,2.963-7.335c3.16-3.98,8.421-4.22,8.421-4.22l118.165,0.168l-113.615,5.54c-4.588,0-7.045,2.273-8.048,3.467
			c-0.812,0.967-2.392,4.104-2.445,7.026z"/>
		<path style="&st6;" d="M143.945,147.663l2.617-133.307c1.902,1.9,2.662,6.035,2.662,6.035l0.162,131.916c0,0,0.158,3.402-2.963,7.336c-3.16,3.98-8.422,4.219-8.422,4.219l-118.166-0.168l113.617-5.539c4.588,0,7.045-2.273,8.047-3.467
			c0.812-0.967,2.393-4.105,2.445-7.025z"/>
		<path style="&st1;" d="M134.292,148.606H93.512V26.933h40.781v121.674z"/>
		<path style="&st1;" d="M84.293,148.606H43.512V26.933h40.781v121.674z"/>
	</g>
	<g id="Layer_x0020_2" style="&st8;">
		<g style="&st7;">
			<path d="M75.192,47.5l15.007-1.091v27.011l20.189-26.738l16.099,4.093l-20.463,25.919l20.19,28.102l-15.551,4.64L90.199,80.241v26.741l-15.006,1.907L75.192,47.5z"/>
			<path d="M102.339,102.697c-4.264,6.185-11.396,10.251-19.449,10.251c-13.003,0-23.608-10.605-23.608-23.608c0-9.191,5.15-17.119,12.817-21.014l-0.006-6.699c-0.38,0.146-0.757,0.301-1.13,0.466c-1.319,0.585-2.589,1.267-3.801,2.047l-9.642-6.788l-6.466,6.231
				l6.69,9.963c-1.701,2.67-2.981,5.637-3.75,8.825l-12.228,2.255l-0.353,9.052l12.469,2.208c0.723,3.195,1.964,6.2,3.634,8.999l-7.52,10.544l6.466,6.583l10.887-7.386c2.705,1.706,5.719,2.973,8.9,3.694l2.315,12.915h9.288l2.173-13.016
				c3.151-0.795,6.102-2.084,8.822-3.755l10.519,7.43l6.466-6.584l-2.565-3.572l-3.824,1.174l-7.103-10.216z"/>
			<path d="M114.181,82.864l10.232,1.763l0.118,9.052l-2.583,0.443l-7.768-11.258z"/>
		</g>
	</g>
</svg>
