<?xml version="1.0" encoding="iso-8859-1"?>
<!-- Generator: Adobe Illustrator 9.0, SVG Export Plug-In  -->
<!DOCTYPE svg PUBLIC "-//W3C//DTD SVG 20000303 Stylable//EN"   "http://www.w3.org/TR/2000/03/WD-SVG-20000303/DTD/svg-20000303-stylable.dtd" [
	<!ENTITY st0 "fill:url(#aigrd1);stroke:none;">
	<!ENTITY st1 "fill:#000000;stroke:none;">
	<!ENTITY st2 "opacity:0.35;fill:#000000;stroke:none;">
	<!ENTITY st3 "fill:url(#aigrd3);stroke:none;">
	<!ENTITY st4 "opacity:0.5;fill:#FFFFFF;stroke:none;">
	<!ENTITY st5 "fill-rule:nonzero;clip-rule:nonzero;fill:#FFFFFF;stroke:#000000;stroke-miterlimit:4;">
	<!ENTITY st6 "fill:#D2D2D2;stroke:none;">
	<!ENTITY st7 "fill:url(#aigrd5);stroke:none;">
	<!ENTITY st8 "fill:url(#aigrd2);stroke:none;">
	<!ENTITY st9 "fill:#BEBEBE;stroke:none;">
	<!ENTITY st10 "fill-rule:nonzero;clip-rule:nonzero;stroke:#000000;stroke-miterlimit:4;">
	<!ENTITY st11 "opacity:0.5;stroke:none;">
	<!ENTITY st12 "stroke:none;">
	<!ENTITY st13 "fill:url(#aigrd4);stroke:none;">
]>
<svg  width="207.901pt" height="179.887pt" viewBox="0 0 207.901 179.887" xml:space="preserve">
	<g id="Layer_x0020_2" style="&st5;">
		<path style="&st2;" d="M145.326,178.648c-14.998,2.891-125.286,0.938-133.223-7.219c-7.936-8.153,47.936-44.456,67.649-46.86c19.713-2.404,116.354,10.577,126.931,21.155s-46.359,30.034-61.356,32.924z"/>
		<path style="&st1;" d="M22,0C9.869,0,0,9.869,0,22v129.791c0,12.131,9.869,22,22,22h115.802c12.131,0,22-9.869,22-22V22c0-12.131-9.869-22-22-22H22z"/>
		<linearGradient id="aigrd1" gradientUnits="userSpaceOnUse" x1="38.9507" y1="17.4946" x2="120.6731" y2="159.4599">
			<stop  offset="0" style="stop-color:#F0F0F0"/>
			<stop  offset="1" style="stop-color:#D6D6D6"/>
		</linearGradient>
		<path style="&st0;" d="M148.802,151.791c0,6.627-5.373,12-12,12H21c-6.627,0-12-5.373-12-12V22c0-6.627,5.373-12,12-12h115.802c6.627,0,12,5.373,12,12v129.791z"/>
		<g>
			<radialGradient id="aigrd2" cx="20.8921" cy="114.5684" r="5.256" fx="20.8921" fy="114.5684" gradientUnits="userSpaceOnUse">
				<stop  offset="0" style="stop-color:#F0F0F0"/>
				<stop  offset="1" style="stop-color:#474747"/>
			</radialGradient>
			<path style="&st8;" d="M23.428,113.07c0,1.973-1.6,3.572-3.573,3.572c-1.974,0-3.573-1.6-3.573-3.572c0-1.974,1.6-3.573,3.573-3.573c1.973,0,3.573,1.6,3.573,3.573z"/>
			<radialGradient id="aigrd3" cx="20.8921" cy="64.5679" r="5.257" fx="20.8921" fy="64.5679" gradientUnits="userSpaceOnUse">
				<stop  offset="0" style="stop-color:#F0F0F0"/>
				<stop  offset="1" style="stop-color:#474747"/>
			</radialGradient>
			<path style="&st3;" d="M23.428,63.07c0,1.973-1.6,3.573-3.573,3.573c-1.974,0-3.573-1.6-3.573-3.573c0-1.974,1.6-3.573,3.573-3.573c1.973,0,3.573,1.6,3.573,3.573z"/>
		</g>
		<path style="&st12;" d="M31.679,163.711h-1.613V12.642h1.613v151.069z"/>
		<linearGradient id="aigrd4" gradientUnits="userSpaceOnUse" x1="30.1484" y1="16.8438" x2="28.3645" y2="158.2261">
			<stop  offset="0" style="stop-color:#EDEDED"/>
			<stop  offset="1" style="stop-color:#CACACA"/>
		</linearGradient>
		<path style="&st13;" d="M30.054,163.711h-1.613V12.642h1.613v151.069z"/>
		<path style="&st12;" d="M14.393,26.155l-2.618,133.308c-1.902-1.901-2.662-6.036-2.662-6.036L8.952,21.509c0,0-0.159-3.403,2.963-7.335c3.16-3.98,8.421-4.22,8.421-4.22l118.165,0.168l-113.615,5.54c-4.588,0-7.045,2.273-8.048,3.467
			c-0.812,0.967-2.392,4.104-2.445,7.026z"/>
		<path style="&st9;" d="M143.945,147.664l2.617-133.308c1.902,1.9,2.662,6.035,2.662,6.035l0.161,131.918c0,0,0.159,3.402-2.963,7.335c-3.159,3.98-8.421,4.22-8.421,4.22l-118.166-0.168l113.616-5.54c4.588,0,7.045-2.273,8.048-3.467
			c0.812-0.967,2.392-4.104,2.445-7.025z"/>
	</g>
	<g id="Layer_x0020_1" style="&st10;">
		<path style="&st12;" d="M58.087,64.475c0,0,0,5.036,0,8.748c-5.391,0.575-9.62,5.096-9.62,10.637v43.006c0,5.928,4.823,10.752,10.751,10.752h58.284c5.928,0,10.751-4.824,10.751-10.752V83.859c0-5.346-3.935-9.758-9.054-10.579c0-3.705,0-8.805,0-8.805
			c0-16.849-13.708-30.557-30.557-30.557S58.087,47.626,58.087,64.475z M77.326,64.475c0-6.24,5.077-11.317,11.317-11.317S99.96,58.235,99.96,64.475c0,0,0,4.911,0,8.634c-5.107,0-17.527,0-22.634,0c0-3.724,0-8.634,0-8.634z"/>
		<path style="&st6;" d="M61.765,64.119v24.822h11.317V64.119c0-8.424,6.854-15.278,15.278-15.278s15.278,6.854,15.278,15.278v24.822h11.317V64.119c0-14.665-11.931-26.596-26.595-26.596S61.765,49.454,61.765,64.119z"/>
		<g>
			<path style="&st11;" d="M90.426,39.216c13.323-0.249,23.988,9.439,24.625,24.44v24.821h-2.264V65.354c0-14.665-10.214-24.819-22.362-26.138z"/>
		</g>
		<g>
			<path style="&st4;" d="M90.426,39.216c5.458,0,10.537,1.655,14.764,4.487c-4.617-3.858-10.554-6.185-17.027-6.185c-14.665,0-26.596,11.931-26.596,26.595v24.822h2.264V65.811c0-14.665,11.931-26.595,26.595-26.595z"/>
		</g>
		<g>
			<path style="&st4;" d="M105.678,88.771V65.135c0-6.06-3.547-11.307-8.674-13.775c4.004,2.758,6.635,7.371,6.635,12.589v24.823h2.039z"/>
		</g>
		<g>
			<path style="&st11;" d="M71.343,88.831V65.195c0-6.06,3.546-11.308,8.673-13.775c-4.003,2.757-6.634,7.371-6.634,12.589v24.822h-2.039z"/>
		</g>
		<linearGradient id="aigrd5" gradientUnits="userSpaceOnUse" x1="56.8311" y1="105.0068" x2="120.7108" y2="105.0068">
			<stop  offset="0" style="stop-color:#F6EDC8"/>
			<stop  offset="0.0144" style="stop-color:#F3EAC0"/>
			<stop  offset="0.0772" style="stop-color:#E8DEA3"/>
			<stop  offset="0.1471" style="stop-color:#E1D48F"/>
			<stop  offset="0.2271" style="stop-color:#DACD81"/>
			<stop  offset="0.3259" style="stop-color:#D7CA78"/>
			<stop  offset="0.5" style="stop-color:#D6C876"/>
			<stop  offset="0.7061" style="stop-color:#D3C575"/>
			<stop  offset="0.7987" style="stop-color:#CABE70"/>
			<stop  offset="0.8686" style="stop-color:#BAAF67"/>
			<stop  offset="0.9271" style="stop-color:#A49B5C"/>
			<stop  offset="0.9779" style="stop-color:#8A844E"/>
			<stop  offset="1" style="stop-color:#7D7746"/>
		</linearGradient>
		<path style="&st7;" d="M124.009,126.51c0,3.75-3.04,6.79-6.79,6.79H58.936c-3.75,0-6.79-3.04-6.79-6.79V83.504c0-3.75,3.04-6.79,6.79-6.79h58.284c3.75,0,6.79,3.04,6.79,6.79v43.006z"/>
		<path style="&st4;" d="M99.112,97.65c0-4.375-4.394-9.008-8.77-9.008c-4.375,0-7.075,4.633-7.075,9.008c0,3.362,2.098,6.229,5.053,7.379l-6.751,11.86l17.542,1.132l-5.053-12.992c2.956-1.15,5.053-4.017,5.053-7.379z"/>
		<path style="&st11;" d="M97.4,96.056c0-4.376-3.963-9.156-9.606-9.156c-4.375,0-7.922,3.546-7.922,7.922c0,4.796,2.237,7.626,5.192,8.776L81.57,116.89l14.146-1.697l-5.053-12.993c2.955-1.15,6.737-2.781,6.737-6.144z"/>
		<path style="&st12;" d="M97.414,96.52c0-4.376-3.546-7.923-7.922-7.923s-7.922,3.547-7.922,7.923c0,3.361,2.098,6.227,5.053,7.377L81.57,116.89h15.844l-5.053-12.993c2.955-1.15,5.053-4.016,5.053-7.377z"/>
		<path style="&st11;" d="M58.936,133.3c0,0,54.824,0,58.284,0s6.79-2.939,6.79-6.79c0-3.852,0-43.006,0-43.006s-4.007,39.213-4.318,41.044c-0.312,1.83-2.129,4.763-4.934,4.934c-2.38,0.17-55.822,3.818-55.822,3.818z"/>
		<path style="&st4;" d="M117.219,76.714c0,0-54.824,0-58.284,0c-3.459,0-6.79,2.938-6.79,6.79s0,43.006,0,43.006s4.007-39.214,4.318-41.044c0.313-1.83,2.128-4.763,4.934-4.934c2.379-0.171,55.822-3.818,55.822-3.818z"/>
	</g>
</svg>
