<?xml version="1.0" encoding="iso-8859-1"?>
<!DOCTYPE svg PUBLIC "-//W3C//DTD SVG 20000303 Stylable//EN"   "http://www.w3.org/TR/2000/03/WD-SVG-20000303/DTD/svg-20000303-stylable.dtd">
<!-- Generator: Adobe Illustrator 9.0, SVG Export Plug-In  -->
<svg  width="207.902pt" height="179.887pt" viewBox="0 0 207.902 179.887" xml:space="preserve">
	<g id="Layer_x0020_1" style="fill-rule:nonzero;clip-rule:nonzero;fill:#FFFFFF;stroke:#000000;stroke-miterlimit:4;">
		<path style="opacity:0.35;fill:#000000;stroke:none;" d="M145.326,178.649c-14.998,2.891-125.286,0.938-133.223-7.219c-7.936-8.154,47.936-44.457,67.649-46.861c19.713-2.404,116.354,10.578,126.932,21.156c10.576,10.578-46.359,30.033-61.357,32.924z"/>
		<path style="fill:#000000;stroke:none;" d="M22,0C9.869,0,0,9.869,0,22v129.792c0,12.131,9.869,22,22,22h115.802c12.131,0,22-9.869,22-22V22c0-12.131-9.869-22-22-22H22z"/>
		<linearGradient id="aigrd1" gradientUnits="userSpaceOnUse" x1="38.9507" y1="17.4946" x2="120.6731" y2="159.4599">
			<stop  offset="0" style="stop-color:#F0F0F0"/>
			<stop  offset="1" style="stop-color:#D6D6D6"/>
		</linearGradient>
		<path style="fill:url(#aigrd1);stroke:none;" d="M148.802,151.792c0,6.627-5.373,12-12,12H21c-6.627,0-12-5.373-12-12V22c0-6.627,5.373-12,12-12h115.802c6.627,0,12,5.373,12,12v129.792z"/>
		<g>
			<radialGradient id="aigrd2" cx="20.8921" cy="114.5679" r="5.257" fx="20.8921" fy="114.5679" gradientUnits="userSpaceOnUse">
				<stop  offset="0" style="stop-color:#F0F0F0"/>
				<stop  offset="1" style="stop-color:#474747"/>
			</radialGradient>
			<path style="fill:url(#aigrd2);stroke:none;" d="M23.428,113.071c0,1.973-1.6,3.572-3.573,3.572c-1.974,0-3.573-1.6-3.573-3.572c0-1.975,1.6-3.574,3.573-3.574c1.973,0,3.573,1.6,3.573,3.574z"/>
			<radialGradient id="aigrd3" cx="20.8921" cy="64.5674" r="5.2575" fx="20.8921" fy="64.5674" gradientUnits="userSpaceOnUse">
				<stop  offset="0" style="stop-color:#F0F0F0"/>
				<stop  offset="1" style="stop-color:#474747"/>
			</radialGradient>
			<path style="fill:url(#aigrd3);stroke:none;" d="M23.428,63.07c0,1.973-1.6,3.573-3.573,3.573c-1.974,0-3.573-1.6-3.573-3.573c0-1.974,1.6-3.573,3.573-3.573c1.973,0,3.573,1.6,3.573,3.573z"/>
		</g>
		<path style="stroke:none;" d="M31.679,163.711h-1.613V12.642h1.613v151.07z"/>
		<linearGradient id="aigrd4" gradientUnits="userSpaceOnUse" x1="30.1479" y1="16.8438" x2="28.364" y2="158.2265">
			<stop  offset="0" style="stop-color:#EDEDED"/>
			<stop  offset="1" style="stop-color:#CACACA"/>
		</linearGradient>
		<path style="fill:url(#aigrd4);stroke:none;" d="M30.054,163.711h-1.613V12.642h1.613v151.07z"/>
		<path style="stroke:none;" d="M14.393,26.155l-2.618,133.309c-1.902-1.902-2.662-6.037-2.662-6.037L8.952,21.509c0,0-0.159-3.403,2.963-7.335c3.16-3.98,8.421-4.22,8.421-4.22l118.165,0.168l-113.615,5.54c-4.588,0-7.045,2.273-8.048,3.467
			c-0.812,0.967-2.392,4.104-2.445,7.026z"/>
		<path style="fill:#BEBEBE;stroke:none;" d="M143.945,147.665l2.617-133.308c1.902,1.9,2.662,6.035,2.662,6.035l0.162,131.917c0,0,0.158,3.402-2.963,7.336c-3.16,3.98-8.422,4.219-8.422,4.219l-118.166-0.168l113.617-5.539c4.588,0,7.045-2.273,8.047-3.467
			c0.813-0.967,2.393-4.105,2.445-7.025z"/>
	</g>
	<g id="Layer_x0020_7" style="fill-rule:nonzero;clip-rule:nonzero;stroke:#000000;stroke-miterlimit:4;">
		<path style="fill:#969696;stroke:none;" d="M47.522,39.598c-2.206,0-4,1.794-4,4v0.783c0,1.717,1.132,3.131,2.711,3.675c0,1.437,0,71.627,0,71.627s37.586,0,39.486,0c0,1.426,0,5.791,0,6.549c-1.189,0.879-1.935,2.217-1.935,3.672c0,0,0.047,0.225,0.095,0.449
			c-1.029,0.762-27.761,20.516-27.761,20.516l8.879-0.006l3.868-0.008c0,0,18.008-15.844,18.693-16.447c0.303,0.068,0.619,0.174,0.903,0.174c0.298,0,0.628-0.113,0.945-0.186c0.69,0.611,18.548,16.461,18.548,16.461l6.671,0.008h6.06
			c0,0-26.617-19.721-27.647-20.484c0.051-0.238,0.102-0.477,0.102-0.477c0-1.443-0.701-2.74-1.853-3.619c0-0.746,0-5.172,0-6.602c1.891,0,36.148,0,36.148,0s0-69.894,0-71.487c1.754-0.424,3.088-1.933,3.088-3.815v-0.783c0-2.206-1.794-4-4-4H47.522z"/>
		<path style="stroke:none;" d="M45.522,37.598c-2.206,0-4,1.794-4,4v0.783c0,1.717,1.132,3.131,2.711,3.675c0,1.437,0,71.627,0,71.627s37.586,0,39.486,0c0,1.426,0,5.791,0,6.549c-1.189,0.879-1.935,2.217-1.935,3.672c0,0,0.047,0.225,0.095,0.449
			c-1.029,0.762-27.761,20.516-27.761,20.516l8.879-0.006l3.868-0.008c0,0,18.008-15.844,18.693-16.447c0.303,0.068,0.619,0.174,0.903,0.174c0.298,0,0.628-0.113,0.945-0.186c0.69,0.611,18.548,16.461,18.548,16.461l6.671,0.008h6.06
			c0,0-26.617-19.721-27.647-20.484c0.051-0.238,0.102-0.477,0.102-0.477c0-1.443-0.701-2.74-1.853-3.619c0-0.746,0-5.172,0-6.602c1.891,0,36.148,0,36.148,0s0-69.894,0-71.487c1.754-0.424,3.088-1.933,3.088-3.815v-0.783c0-2.206-1.794-4-4-4H45.522z"/>
	</g>
	<g id="Layer_x0020_2" style="fill-rule:nonzero;clip-rule:nonzero;fill:#A4A4A4;stroke:#000000;stroke-miterlimit:4;">
		<g id="Layer_x0020_3">
		</g>
		<path style="stroke:none;" d="M87.057,127.75H85.49V40.357h1.567v87.393z"/>
		<linearGradient id="aigrd5" gradientUnits="userSpaceOnUse" x1="95.5835" y1="104.3696" x2="70.1343" y2="46.3784">
			<stop  offset="0" style="stop-color:#FFFFFF"/>
			<stop  offset="1" style="stop-color:#EAEAEA"/>
		</linearGradient>
		<path style="fill:url(#aigrd5);stroke:none;" d="M123.207,115.21H46.003V43.493h77.204v71.717z"/>
		<g id="Layer_x0020_6">
		</g>
		<path style="fill:#F9F9F9;stroke:none;" d="M46.003,115.21l2.99-69.071l74.213-2.231H46.003v71.303z"/>
		<g style="stroke:none;">
			<path d="M106.485,146.383l5.913,0.008l-25.149-18.584l-1.759-0.057l20.995,18.633z"/>
			<path d="M65.88,146.383l-5.913,0.008l25.148-18.584l1.76-0.057L65.88,146.383z"/>
			<path style="fill:#DEDEDE;" d="M59.969,146.39h2.799v-0.916l22.35-17.668L59.969,146.39"/>
			<path style="fill:#DEDEDE;" d="M108.33,146.385l-1.55-0.601l-21.066-17.836l20.771,18.435l1.845,0.002z"/>
			<path style="fill:#757575;" d="M87.057,127.75L65.88,146.383l-1.487,0.002l1.487-0.678l21.177-17.957z"/>
			<path style="fill:#878787;" d="M112.398,146.391h-1.201l-24.409-18.972l25.61,18.972z"/>
		</g>
		<linearGradient id="aigrd6" gradientUnits="userSpaceOnUse" x1="84.793" y1="39.7227" x2="84.793" y2="44.1073">
			<stop  offset="0" style="stop-color:#F0F0F0"/>
			<stop  offset="1" style="stop-color:#686868"/>
		</linearGradient>
		<path style="fill:url(#aigrd6);stroke:none;" d="M126.294,41.908c0,1.104-0.896,2-2,2H45.292c-1.104,0-2-0.896-2-2v-0.783c0-1.104,0.896-2,2-2h79.003c1.104,0,2,0.896,2,2v0.783z"/>
		<path style="opacity:0.16;fill:#000000;stroke:none;" d="M123.207,43.908H46.003v5.631c4.35-6.119,77.204-5.631,77.204-5.631z"/>
		<path style="fill:#C9C9C9;stroke:none;" d="M123.207,115.21V43.908l-2.146,68.634l-75.058,2.669h77.204z"/>
	</g>
	<g id="Layer_x0020_5" style="fill-rule:nonzero;clip-rule:nonzero;stroke:#000000;stroke-miterlimit:4;">
		<radialGradient id="aigrd7" cx="85.479" cy="126.481" r="2.3673" fx="85.479" fy="126.481" gradientUnits="userSpaceOnUse">
			<stop  offset="0" style="stop-color:#F0F0F0"/>
			<stop  offset="1" style="stop-color:#848484"/>
		</radialGradient>
		<path style="fill:url(#aigrd7);stroke:none;" d="M88.91,127.43c0,1.479-1.199,2.678-2.678,2.678s-2.678-1.198-2.678-2.678c0-1.479,1.199-2.678,2.678-2.678s2.678,1.199,2.678,2.678z"/>
	</g>
	<g id="Layer_x0020_4" style="fill-rule:nonzero;clip-rule:nonzero;fill:#959595;stroke:#000000;stroke-miterlimit:4;">
		<path style="fill:#000000;stroke:none;" d="M60.352,60.902c-3.15,1.982-4.884,4.675-4.884,7.585v2.416c0,2.909,1.734,5.603,4.884,7.585c2.976,1.872,6.908,2.904,11.072,2.904c4.164,0,8.096-1.032,11.072-2.904c3.149-1.982,4.884-4.676,4.884-7.585v-2.416
			c0-2.91-1.734-5.603-4.884-7.585c-2.976-1.872-6.909-2.904-11.072-2.904c-4.164,0-8.096,1.032-11.072,2.904z"/>
		<linearGradient id="aigrd8" gradientUnits="userSpaceOnUse" x1="66.8374" y1="63.8696" x2="76.5175" y2="77.7794">
			<stop  offset="0" style="stop-color:#C09287"/>
			<stop  offset="1" style="stop-color:#803926"/>
		</linearGradient>
		<path style="fill:url(#aigrd8);stroke:none;" d="M85.496,68.036c-1.69-3.953-7.423-6.865-14.24-6.865s-12.55,2.912-14.24,6.865h-0.508v2.417c0,5.125,6.603,9.28,14.749,9.28s14.748-4.154,14.748-9.28v-2.417h-0.508z"/>
		<linearGradient id="aigrd9" gradientUnits="userSpaceOnUse" x1="66.6494" y1="61.4175" x2="76.3984" y2="75.4262">
			<stop  offset="0" style="stop-color:#C1553A"/>
			<stop  offset="1" style="stop-color:#803926"/>
		</linearGradient>
		<path style="fill:url(#aigrd9);stroke:none;" d="M86.003,68.036c0,5.126-6.603,9.281-14.748,9.281s-14.749-4.155-14.749-9.281s6.603-9.28,14.749-9.28s14.748,4.154,14.748,9.28z"/>
		<linearGradient id="aigrd10" gradientUnits="userSpaceOnUse" x1="69.228" y1="67.1846" x2="82.2662" y2="74.3615">
			<stop  offset="0" style="stop-color:#2C7894"/>
			<stop  offset="1" style="stop-color:#0E3D47"/>
		</linearGradient>
		<path style="fill:url(#aigrd10);stroke:none;" d="M86.003,70.814l-0.019-2.529c-1.6,5.254-5.195,7.48-9.716,8.57v2.327c4.894-1.172,9.273-3.84,9.735-8.368z"/>
		<linearGradient id="aigrd11" gradientUnits="userSpaceOnUse" x1="66.0771" y1="59.0557" x2="81.6108" y2="72.8373">
			<stop  offset="0" style="stop-color:#3FA6CC"/>
			<stop  offset="1" style="stop-color:#00687A"/>
		</linearGradient>
		<path style="fill:url(#aigrd11);stroke:none;" d="M86.003,68.036c-0.338,5.931-8.042,8.633-9.762,8.737l-4.986-8.737h14.748z"/>
		<linearGradient id="aigrd12" gradientUnits="userSpaceOnUse" x1="54.8481" y1="70.0801" x2="74.2863" y2="79.1686">
			<stop  offset="0" style="stop-color:#E8F066"/>
			<stop  offset="1" style="stop-color:#777A34"/>
		</linearGradient>
		<path style="fill:url(#aigrd12);stroke:none;" d="M68.168,79.528v-2.415c2.775,0.344,5.323,0.404,8.073-0.251l0.027,2.32c-2.304,0.72-5.91,0.753-8.1,0.346z"/>
		<linearGradient id="aigrd13" gradientUnits="userSpaceOnUse" x1="59.894" y1="64.5547" x2="76.4784" y2="78.1026">
			<stop  offset="0" style="stop-color:#E8F066"/>
			<stop  offset="1" style="stop-color:#949941"/>
		</linearGradient>
		<path style="fill:url(#aigrd13);stroke:none;" d="M71.255,68.037l4.986,8.736c-3.053,1.107-8.073,0.341-8.073,0.341l3.087-9.077z"/>
		<path style="opacity:0.45;fill:#ECCFC7;stroke:none;" d="M81.121,61.137c0,0,5.27,2.777,4.854,7.282s-7.035,10.258-17.966,8.671c10.995,0.596,16.85-4.919,17.26-8.506c0.408-3.588-2.114-5.886-4.148-7.447z"/>
		<path style="fill:#EDA18C;stroke:none;" d="M66.49,76.821c-4.318-0.708-10.152-4.187-9.977-9.038c0.163-4.522,6.429-9.879,17.544-8.86c-11.011-0.501-16.672,4.55-16.906,8.658c-0.222,3.883,4.571,8.256,9.339,9.241z"/>
		<path style="stroke:none;" d="M117.961,104.223H55.797v-6.258h62.164v6.258z"/>
		<path style="stroke:none;" d="M117.961,94.223H55.797v-6.258h62.164v6.258z"/>
		<path style="stroke:none;" d="M117.961,84.223H93.346v-6.258h24.615v6.258z"/>
		<path style="stroke:none;" d="M117.961,74.223H93.346v-6.258h24.615v6.258z"/>
		<path style="stroke:none;" d="M117.961,64.223H93.346v-6.258h24.615v6.258z"/>
	</g>
</svg>
