<?xml version="1.0" encoding="iso-8859-1"?>
<!-- Generator: Adobe Illustrator 9.0, SVG Export Plug-In  -->
<!DOCTYPE svg PUBLIC "-//W3C//DTD SVG 20000303 Stylable//EN"   "http://www.w3.org/TR/2000/03/WD-SVG-20000303/DTD/svg-20000303-stylable.dtd" [
	<!ENTITY st0 "fill:url(#aigrd1);stroke:none;">
	<!ENTITY st1 "fill:#000000;stroke:none;">
	<!ENTITY st2 "fill:#C9C9C9;stroke:none;">
	<!ENTITY st3 "opacity:0.35;fill:#000000;stroke:none;">
	<!ENTITY st4 "fill-rule:evenodd;clip-rule:evenodd;fill:#000000;stroke:none;">
	<!ENTITY st5 "opacity:0.16;fill:#000000;stroke:none;">
	<!ENTITY st6 "fill:#878787;">
	<!ENTITY st7 "fill:url(#aigrd6);stroke:none;">
	<!ENTITY st8 "fill:#959595;stroke:none;">
	<!ENTITY st9 "fill:url(#aigrd3);stroke:none;">
	<!ENTITY st10 "fill-rule:nonzero;clip-rule:nonzero;fill:#FFFFFF;stroke:#000000;stroke-miterlimit:4;">
	<!ENTITY st11 "fill:#969696;stroke:none;">
	<!ENTITY st12 "fill-rule:nonzero;clip-rule:nonzero;fill:#A4A4A4;stroke:#000000;stroke-miterlimit:4;">
	<!ENTITY st13 "fill:url(#aigrd5);stroke:none;">
	<!ENTITY st14 "fill:url(#aigrd2);stroke:none;">
	<!ENTITY st15 "fill:#BEBEBE;stroke:none;">
	<!ENTITY st16 "fill:#F9F9F9;stroke:none;">
	<!ENTITY st17 "fill:url(#aigrd7);stroke:none;">
	<!ENTITY st18 "fill:#757575;">
	<!ENTITY st19 "stroke:none;">
	<!ENTITY st20 "fill:#DEDEDE;">
	<!ENTITY st21 "fill:url(#aigrd4);stroke:none;">
]>
<svg  width="209.892pt" height="180.409pt" viewBox="0 0 209.892 180.409" xml:space="preserve">
	<g id="Layer_x0020_1" style="&st10;">
		<path style="&st3;" d="M147.315,179.171c-14.998,2.891-125.285,0.938-133.222-7.219c-7.936-8.154,47.936-44.457,67.648-46.861s116.353,10.578,126.931,21.156c10.576,10.578-46.359,30.033-61.357,32.924z"/>
		<path style="&st1;" d="M22,0C9.869,0,0,9.869,0,22v129.79c0,12.131,9.869,22,22,22h115.802c12.131,0,22-9.869,22-22V22c0-12.131-9.869-22-22-22H22z"/>
		<linearGradient id="aigrd1" gradientUnits="userSpaceOnUse" x1="38.9497" y1="17.4932" x2="120.6721" y2="159.4585">
			<stop  offset="0" style="stop-color:#F0F0F0"/>
			<stop  offset="1" style="stop-color:#D6D6D6"/>
		</linearGradient>
		<path style="&st0;" d="M148.802,151.79c0,6.627-5.373,12-12,12H21c-6.627,0-12-5.373-12-12V22c0-6.627,5.373-12,12-12h115.802c6.627,0,12,5.373,12,12v129.79z"/>
		<g>
			<radialGradient id="aigrd2" cx="20.8916" cy="114.5664" r="5.2576" fx="20.8916" fy="114.5664" gradientUnits="userSpaceOnUse">
				<stop  offset="0" style="stop-color:#F0F0F0"/>
				<stop  offset="1" style="stop-color:#474747"/>
			</radialGradient>
			<path style="&st14;" d="M23.428,113.069c0,1.973-1.6,3.572-3.573,3.572c-1.974,0-3.573-1.6-3.573-3.572c0-1.975,1.6-3.574,3.573-3.574c1.973,0,3.573,1.6,3.573,3.574z"/>
			<radialGradient id="aigrd3" cx="20.8916" cy="64.5679" r="5.2576" fx="20.8916" fy="64.5679" gradientUnits="userSpaceOnUse">
				<stop  offset="0" style="stop-color:#F0F0F0"/>
				<stop  offset="1" style="stop-color:#474747"/>
			</radialGradient>
			<path style="&st9;" d="M23.428,63.07c0,1.973-1.6,3.573-3.573,3.573c-1.974,0-3.573-1.6-3.573-3.573c0-1.974,1.6-3.573,3.573-3.573c1.973,0,3.573,1.6,3.573,3.573z"/>
		</g>
		<path style="&st19;" d="M31.679,163.71h-1.613V12.642h1.613V163.71z"/>
		<linearGradient id="aigrd4" gradientUnits="userSpaceOnUse" x1="30.1484" y1="16.8433" x2="28.3645" y2="158.2247">
			<stop  offset="0" style="stop-color:#EDEDED"/>
			<stop  offset="1" style="stop-color:#CACACA"/>
		</linearGradient>
		<path style="&st21;" d="M30.054,163.71h-1.613V12.642h1.613V163.71z"/>
		<path style="&st19;" d="M14.393,26.155l-2.618,133.307c-1.902-1.902-2.662-6.037-2.662-6.037L8.952,21.509c0,0-0.159-3.403,2.963-7.335c3.16-3.98,8.421-4.22,8.421-4.22l118.165,0.168l-113.615,5.54c-4.588,0-7.045,2.273-8.048,3.467
			c-0.812,0.967-2.392,4.104-2.445,7.026z"/>
		<path style="&st15;" d="M143.944,147.663l2.617-133.307c1.902,1.9,2.662,6.035,2.662,6.035l0.162,131.916c0,0,0.158,3.402-2.963,7.336c-3.16,3.98-8.422,4.219-8.422,4.219l-118.166-0.168l113.617-5.539c4.588,0,7.045-2.273,8.047-3.467
			c0.812-0.967,2.393-4.105,2.445-7.025z"/>
	</g>
	<g id="Layer_x0020_3" style="&st12;">
		<path style="&st11;" d="M49.123,34.395c-2.206,0-4,1.794-4,4v0.783c0,1.717,1.132,3.131,2.711,3.675c0,1.437,0,71.628,0,71.628s37.586,0,39.486,0c0,1.426,0,5.791,0,6.549c-1.189,0.879-1.935,2.217-1.935,3.672c0,0,0.047,0.225,0.095,0.449
			c-1.029,0.762-27.761,20.516-27.761,20.516l8.879-0.006l3.868-0.008c0,0,18.008-15.844,18.694-16.447c0.303,0.068,0.618,0.174,0.902,0.174c0.299,0,0.629-0.113,0.945-0.186c0.691,0.611,18.549,16.461,18.549,16.461l6.67,0.008h6.061
			c0,0-26.617-19.721-27.648-20.484c0.051-0.238,0.102-0.477,0.102-0.477c0-1.443-0.701-2.74-1.852-3.619c0-0.746,0-5.172,0-6.602c1.891,0,36.148,0,36.148,0s0-69.895,0-71.488c1.754-0.424,3.088-1.933,3.088-3.815v-0.783c0-2.206-1.795-4-4-4H49.123z"/>
		<path style="&st1;" d="M47.123,32.395c-2.206,0-4,1.794-4,4v0.783c0,1.717,1.132,3.131,2.711,3.675c0,1.437,0,71.628,0,71.628s37.586,0,39.486,0c0,1.426,0,5.791,0,6.549c-1.189,0.879-1.935,2.217-1.935,3.672c0,0,0.047,0.225,0.095,0.449
			c-1.029,0.762-27.761,20.516-27.761,20.516l8.879-0.006l3.868-0.008c0,0,18.008-15.844,18.693-16.447c0.303,0.068,0.619,0.174,0.903,0.174c0.299,0,0.629-0.113,0.945-0.186c0.69,0.611,18.549,16.461,18.549,16.461l6.67,0.008h6.061
			c0,0-26.617-19.721-27.648-20.484c0.051-0.238,0.102-0.477,0.102-0.477c0-1.443-0.701-2.74-1.852-3.619c0-0.746,0-5.172,0-6.602c1.891,0,36.148,0,36.148,0s0-69.895,0-71.488c1.754-0.424,3.088-1.933,3.088-3.815v-0.783c0-2.206-1.795-4-4-4H47.123z"/>
		<path style="&st19;" d="M88.657,122.548H87.09V35.154h1.567v87.394z"/>
		<linearGradient id="aigrd5" gradientUnits="userSpaceOnUse" x1="97.1831" y1="99.1621" x2="71.7352" y2="41.1739">
			<stop  offset="0" style="stop-color:#FFFFFF"/>
			<stop  offset="1" style="stop-color:#EAEAEA"/>
		</linearGradient>
		<path style="&st13;" d="M124.808,110.007H47.604V38.29h77.204v71.717z"/>
		<path style="&st16;" d="M47.604,110.007l2.99-69.071l74.214-2.231H47.604v71.303z"/>
		<g style="&st19;">
			<path d="M108.085,141.181l5.914,0.008L88.85,122.604l-1.759-0.057l20.995,18.633z"/>
			<path d="M67.481,141.181l-5.913,0.008l25.148-18.584l1.759-0.057l-20.995,18.633z"/>
			<path style="&st20;" d="M61.569,141.187h2.799v-0.916l22.35-17.668l-25.149,18.584"/>
			<path style="&st20;" d="M109.931,141.183l-1.551-0.602l-21.066-17.836l20.771,18.436l1.846,0.002z"/>
			<path style="&st18;" d="M88.657,122.548l-21.176,18.633l-1.487,0.002l1.487-0.678l21.176-17.957z"/>
			<path style="&st6;" d="M113.999,141.188h-1.201l-24.41-18.973l25.611,18.973z"/>
		</g>
		<linearGradient id="aigrd6" gradientUnits="userSpaceOnUse" x1="86.3936" y1="34.519" x2="86.3936" y2="38.9038">
			<stop  offset="0" style="stop-color:#F0F0F0"/>
			<stop  offset="1" style="stop-color:#686868"/>
		</linearGradient>
		<path style="&st7;" d="M127.896,36.704c0,1.104-0.896,2-2,2H46.892c-1.104,0-2-0.896-2-2v-0.783c0-1.104,0.896-2,2-2h79.003c1.104,0,2,0.896,2,2v0.783z"/>
		<path style="&st5;" d="M124.808,38.704H47.604v5.631c4.35-6.119,77.204-5.631,77.204-5.631z"/>
		<path style="&st2;" d="M124.808,110.007V38.704l-2.146,68.635l-75.058,2.668h77.204z"/>
		<radialGradient id="aigrd7" cx="87.0801" cy="121.2783" r="2.367" fx="87.0801" fy="121.2783" gradientUnits="userSpaceOnUse">
			<stop  offset="0" style="stop-color:#F0F0F0"/>
			<stop  offset="1" style="stop-color:#848484"/>
		</radialGradient>
		<path style="&st17;" d="M90.511,122.228c0,1.479-1.199,2.678-2.678,2.678c-1.479,0-2.678-1.199-2.678-2.678s1.199-2.678,2.678-2.678c1.479,0,2.678,1.199,2.678,2.678z"/>
		<path style="&st8;" d="M119.562,99.021H57.398v-6.258h62.164v6.258z"/>
		<path style="&st8;" d="M119.562,79.02h-17.189v-6.258h17.189v6.258z"/>
		<path style="&st8;" d="M119.562,59.02h-17.189v-6.258h17.189v6.258z"/>
		<g style="&st4;">
			<path d="M72.407,48.144l7.251-0.527v13.049l9.753-12.917l7.777,1.978l-9.886,12.521l9.754,13.577l-7.514,2.241l-9.885-14.104v12.919l-7.25,0.921l0-29.658z"/>
			<path d="M85.523,74.811c-2.06,2.988-5.506,4.953-9.396,4.953c-6.282,0-11.406-5.124-11.406-11.406c0-4.439,2.488-8.27,6.192-10.152l-0.003-3.237c-0.184,0.071-0.366,0.146-0.546,0.225c-0.637,0.283-1.25,0.612-1.836,0.989l-4.658-3.279l-3.124,3.011l3.232,4.814
				c-0.822,1.29-1.44,2.723-1.812,4.263l-5.907,1.09l-0.17,4.373l6.024,1.066c0.349,1.544,0.949,2.996,1.755,4.348l-3.633,5.093l3.124,3.181l5.26-3.569c1.307,0.825,2.763,1.437,4.299,1.785l1.119,6.239h4.487l1.05-6.288c1.522-0.384,2.948-1.006,4.262-1.813
				l5.082,3.589l3.124-3.181l-1.24-1.726l-1.847,0.567l-3.431-4.936z"/>
			<path d="M91.244,65.23l4.943,0.851l0.057,4.373l-1.247,0.215l-3.752-5.439z"/>
		</g>
	</g>
</svg>
