<?xml version="1.0" encoding="iso-8859-1"?>
<!-- Generator: Adobe Illustrator 9.0, SVG Export Plug-In  -->
<!DOCTYPE svg PUBLIC "-//W3C//DTD SVG 20000303 Stylable//EN"   "http://www.w3.org/TR/2000/03/WD-SVG-20000303/DTD/svg-20000303-stylable.dtd" [
	<!ENTITY st0 "fill:url(#aigrd1);stroke:none;">
	<!ENTITY st1 "fill:#000000;stroke:none;">
	<!ENTITY st2 "opacity:0.35;fill:#000000;stroke:none;">
	<!ENTITY st3 "fill:url(#aigrd3);stroke:none;">
	<!ENTITY st4 "fill-rule:nonzero;clip-rule:nonzero;fill:#9D9E92;stroke:#000000;stroke-miterlimit:4;">
	<!ENTITY st5 "fill-rule:nonzero;clip-rule:nonzero;fill:#FFFFFF;stroke:#000000;stroke-miterlimit:4;">
	<!ENTITY st6 "fill:#F3F5E5;stroke:none;">
	<!ENTITY st7 "fill:url(#aigrd5);stroke:none;">
	<!ENTITY st8 "fill:url(#aigrd2);stroke:none;">
	<!ENTITY st9 "fill:#BEBEBE;stroke:none;">
	<!ENTITY st10 "fill-rule:nonzero;clip-rule:nonzero;stroke:#000000;stroke-miterlimit:4;">
	<!ENTITY st11 "stroke:none;">
	<!ENTITY st12 "fill:url(#aigrd4);stroke:none;">
]>
<svg  width="207.9pt" height="179.887pt" viewBox="0 0 207.9 179.887" xml:space="preserve">
	<g id="Layer_x0020_3" style="&st5;">
		<path style="&st2;" d="M145.326,178.648c-14.998,2.891-125.286,0.938-133.223-7.219c-7.936-8.153,47.936-44.456,67.649-46.86c19.713-2.404,116.354,10.577,126.931,21.155s-46.359,30.034-61.356,32.924z"/>
		<path style="&st1;" d="M22,0C9.869,0,0,9.869,0,22v129.791c0,12.131,9.869,22,22,22h115.802c12.131,0,22-9.869,22-22V22c0-12.131-9.869-22-22-22H22z"/>
		<linearGradient id="aigrd1" gradientUnits="userSpaceOnUse" x1="38.9507" y1="17.4951" x2="120.6722" y2="159.459">
			<stop  offset="0" style="stop-color:#F0F0F0"/>
			<stop  offset="1" style="stop-color:#D6D6D6"/>
		</linearGradient>
		<path style="&st0;" d="M148.802,151.791c0,6.627-5.373,12-12,12H21c-6.627,0-12-5.373-12-12V22c0-6.627,5.373-12,12-12h115.802c6.627,0,12,5.373,12,12v129.791z"/>
		<g>
			<radialGradient id="aigrd2" cx="20.8921" cy="114.5674" r="5.257" fx="20.8921" fy="114.5674" gradientUnits="userSpaceOnUse">
				<stop  offset="0" style="stop-color:#F0F0F0"/>
				<stop  offset="1" style="stop-color:#474747"/>
			</radialGradient>
			<path style="&st8;" d="M23.428,113.07c0,1.973-1.6,3.572-3.573,3.572c-1.974,0-3.573-1.6-3.573-3.572c0-1.974,1.6-3.573,3.573-3.573c1.973,0,3.573,1.6,3.573,3.573z"/>
			<radialGradient id="aigrd3" cx="20.8921" cy="64.5679" r="5.257" fx="20.8921" fy="64.5679" gradientUnits="userSpaceOnUse">
				<stop  offset="0" style="stop-color:#F0F0F0"/>
				<stop  offset="1" style="stop-color:#474747"/>
			</radialGradient>
			<path style="&st3;" d="M23.428,63.07c0,1.973-1.6,3.573-3.573,3.573c-1.974,0-3.573-1.6-3.573-3.573c0-1.974,1.6-3.573,3.573-3.573c1.973,0,3.573,1.6,3.573,3.573z"/>
		</g>
		<path style="&st11;" d="M31.679,163.711h-1.613V12.642h1.613v151.069z"/>
		<linearGradient id="aigrd4" gradientUnits="userSpaceOnUse" x1="30.1479" y1="16.8438" x2="28.364" y2="158.2261">
			<stop  offset="0" style="stop-color:#EDEDED"/>
			<stop  offset="1" style="stop-color:#CACACA"/>
		</linearGradient>
		<path style="&st12;" d="M30.054,163.711h-1.613V12.642h1.613v151.069z"/>
		<path style="&st11;" d="M14.393,26.155l-2.618,133.308c-1.902-1.901-2.662-6.036-2.662-6.036L8.952,21.509c0,0-0.159-3.403,2.963-7.335c3.16-3.98,8.421-4.22,8.421-4.22l118.165,0.168l-113.615,5.54c-4.588,0-7.045,2.273-8.048,3.467
			c-0.812,0.967-2.392,4.104-2.445,7.026z"/>
		<path style="&st9;" d="M143.945,147.664l2.617-133.308c1.902,1.9,2.662,6.035,2.662,6.035l0.161,131.918c0,0,0.159,3.402-2.963,7.335c-3.159,3.98-8.421,4.22-8.421,4.22l-118.166-0.168l113.616-5.54c4.588,0,7.045-2.273,8.048-3.467
			c0.812-0.967,2.392-4.104,2.445-7.025z"/>
	</g>
	<g id="Layer_x0020_2" style="&st4;">
		<path style="&st1;" d="M110.205,59.355H60.381c0,0,0,15.326,0,18.49c-2.345-3.811-5.765-6.025-9.482-6.025c-7.064,0-12.598,7.901-12.598,17.988s5.534,17.989,12.598,17.989c3.762,0,7.139-2.16,9.482-5.994c0,2.859,0,17.837,0,17.837h51.212c0,0,0-14.73,0-17.869
			c2.344,3.809,5.765,6.025,9.481,6.025c7.065,0,12.599-7.902,12.599-17.989S128.14,71.82,121.075,71.82c-3.762,0-7.139,2.159-9.481,5.993c0-2.879,0-18.457,0-18.457h-1.388z"/>
		<linearGradient id="aigrd5" gradientUnits="userSpaceOnUse" x1="69.6499" y1="74.2148" x2="102.1946" y2="104.6538">
			<stop  offset="0" style="stop-color:#DEDFCE"/>
			<stop  offset="1" style="stop-color:#C2C4B5"/>
		</linearGradient>
		<path style="&st7;" d="M120.52,75.151c-3.028,0-5.681,2.617-7.169,6.544c-2.327,1.016-5.58,0.237-6.477-2.341V63.106h-0.456H64.445H63.99v16.481c-0.877,2.746-4.006,3.553-6.32,2.545c-1.452-4.169-4.188-6.981-7.327-6.981c-4.658,0-8.434,6.189-8.434,13.824
			c0,7.635,3.776,13.824,8.434,13.824c3.028,0,5.682-2.617,7.169-6.545c2.327-1.015,5.581-0.237,6.478,2.342v16.1h0.455h41.972h0.456V98.363c0.876-2.746,4.005-3.553,6.32-2.545c1.452,4.169,4.188,6.981,7.326,6.981c4.658,0,8.433-6.189,8.433-13.824
			c0-7.634-3.775-13.824-8.433-13.824z"/>
		<g style="&st11;">
			<path d="M56.151,81.179c0.392,0.171,0.81,0.286,1.234,0.352c-1.034-2.568-2.576-4.537-4.391-5.523c1.313,1.229,2.406,3.019,3.156,5.171z"/>
			<path d="M105.354,78.401c0.388,1.116,1.218,1.893,2.222,2.336c-0.298-0.35-0.54-0.757-0.703-1.226V63.264h-0.456h-1.063v15.137z"/>
			<path d="M55.993,95.3c-1.487,3.928-4.141,6.545-7.168,6.545c-0.928,0-1.82-0.249-2.654-0.703c1.231,1.152,2.655,1.813,4.173,1.813c3.028,0,5.682-2.618,7.169-6.545c1.32-0.576,2.937-0.572,4.254,0.007c-1.346-1.576-3.869-1.948-5.774-1.118z"/>
			<path d="M123.174,76.011c2.543,2.38,4.26,6.866,4.26,12.011c0,7.634-3.776,13.824-8.433,13.824c-0.926,0-1.818-0.248-2.652-0.7c1.23,1.151,2.653,1.811,4.171,1.811c4.658,0,8.434-6.189,8.434-13.824c0-6.114-2.422-11.298-5.779-13.122z"/>
			<path d="M111.674,94.864c-2.314-1.008-5.443-0.2-6.319,2.545v16.333h-0.456H63.99v1.111h0.456h41.972h0.456V98.52c0.728-2.279,3.007-3.219,5.085-2.896c-0.1-0.248-0.195-0.501-0.285-0.759z"/>
		</g>
		<g style="&st6;">
			<path d="M42.987,89.949c0-7.634,3.775-13.824,8.434-13.824c1.371,0,2.665,0.537,3.809,1.489c-1.384-1.635-3.083-2.6-4.92-2.6c-4.658,0-8.434,6.189-8.434,13.824c0,5.381,1.877,10.041,4.616,12.324c-2.122-2.51-3.505-6.596-3.505-11.214z"/>
			<path d="M114.428,82.67c1.488-3.928,4.142-6.545,7.169-6.545c1.375,0,2.671,0.542,3.818,1.499c-1.387-1.641-3.088-2.61-4.929-2.61c-3.028,0-5.681,2.618-7.169,6.545c-1.565,0.683-3.547,0.55-4.952-0.392c1.243,1.896,4.012,2.397,6.062,1.502z"/>
			<path d="M58.748,83.106c2.314,1.008,5.443,0.2,6.32-2.545V64.081h0.456h41.317V62.97h-0.456H64.412h-0.456v16.48c-0.78,2.444-3.344,3.349-5.531,2.808c0.113,0.276,0.221,0.558,0.322,0.848z"/>
			<path d="M65.067,99.57c-0.293-0.844-0.842-1.491-1.526-1.95c0.167,0.255,0.309,0.533,0.415,0.839v16.1h0.456h0.655V99.57z"/>
			<path d="M114.271,96.791c-0.254-0.111-0.52-0.195-0.789-0.262c0.803,1.961,1.902,3.568,3.196,4.644c-0.981-1.158-1.805-2.653-2.407-4.381z"/>
		</g>
	</g>
	<g id="Layer_x0020_1" style="&st10;">
	</g>
</svg>
