<?xml version="1.0" encoding="iso-8859-1"?>
<!-- Generator: Adobe Illustrator 9.0, SVG Export Plug-In  -->
<!DOCTYPE svg PUBLIC "-//W3C//DTD SVG 20000303 Stylable//EN"   "http://www.w3.org/TR/2000/03/WD-SVG-20000303/DTD/svg-20000303-stylable.dtd" [
	<!ENTITY st0 "fill:url(#aigrd14);stroke:none;">
	<!ENTITY st1 "fill:url(#aigrd1);stroke:none;">
	<!ENTITY st2 "opacity:0.15;stroke:none;">
	<!ENTITY st3 "fill:#000000;stroke:none;">
	<!ENTITY st4 "fill:url(#aigrd11);stroke:none;">
	<!ENTITY st5 "fill:#C9C9C9;stroke:none;">
	<!ENTITY st6 "opacity:0.35;fill:#000000;stroke:none;">
	<!ENTITY st7 "fill:url(#aigrd9);stroke:none;">
	<!ENTITY st8 "opacity:0.16;fill:#000000;stroke:none;">
	<!ENTITY st9 "fill:#878787;">
	<!ENTITY st10 "fill-rule:nonzero;clip-rule:nonzero;fill:#959595;stroke:#000000;stroke-miterlimit:4;">
	<!ENTITY st11 "fill:url(#aigrd6);stroke:none;">
	<!ENTITY st12 "fill:#A4A4A4;stroke:none;">
	<!ENTITY st13 "fill:url(#aigrd16);stroke:none;">
	<!ENTITY st14 "fill:url(#aigrd3);stroke:none;">
	<!ENTITY st15 "fill:url(#aigrd13);stroke:none;">
	<!ENTITY st16 "fill-rule:nonzero;clip-rule:nonzero;fill:#FFFFFF;stroke:#000000;stroke-miterlimit:4;">
	<!ENTITY st17 "fill:#969696;stroke:none;">
	<!ENTITY st18 "fill:url(#aigrd10);stroke:none;">
	<!ENTITY st19 "fill:url(#aigrd8);stroke:none;">
	<!ENTITY st20 "fill:url(#aigrd5);stroke:none;">
	<!ENTITY st21 "opacity:0.55;stroke:none;">
	<!ENTITY st22 "fill:url(#aigrd15);stroke:none;">
	<!ENTITY st23 "fill:url(#aigrd2);stroke:none;">
	<!ENTITY st24 "fill:#BEBEBE;stroke:none;">
	<!ENTITY st25 "fill:url(#aigrd12);stroke:none;">
	<!ENTITY st26 "fill:#F9F9F9;stroke:none;">
	<!ENTITY st27 "fill-rule:nonzero;clip-rule:nonzero;stroke:#000000;stroke-miterlimit:4;">
	<!ENTITY st28 "fill:url(#aigrd7);stroke:none;">
	<!ENTITY st29 "fill:#757575;">
	<!ENTITY st30 "stroke:none;">
	<!ENTITY st31 "fill:#DEDEDE;">
	<!ENTITY st32 "fill:url(#aigrd4);stroke:none;">
]>
<svg  width="225.799pt" height="211.323pt" viewBox="0 0 225.799 211.323" xml:space="preserve">
	<g id="Layer_x0020_1" style="&st16;">
		<path style="&st6;" d="M163.223,210.084c-14.998,2.891-125.285,0.938-133.222-7.219c-7.936-8.154,47.936-44.457,67.648-46.861s116.353,10.578,126.931,21.156c10.576,10.578-46.359,30.033-61.357,32.924z"/>
		<path style="&st3;" d="M37.907,30.914c-12.131,0-22,9.869-22,22v129.79c0,12.131,9.869,22,22,22h115.802c12.131,0,22-9.869,22-22V52.914c0-12.131-9.869-22-22-22H37.907z"/>
		<linearGradient id="aigrd1" gradientUnits="userSpaceOnUse" x1="54.8569" y1="48.4072" x2="136.5793" y2="190.3725">
			<stop  offset="0" style="stop-color:#F0F0F0"/>
			<stop  offset="1" style="stop-color:#D6D6D6"/>
		</linearGradient>
		<path style="&st1;" d="M164.709,182.704c0,6.627-5.373,12-12,12H36.907c-6.627,0-12-5.373-12-12V52.914c0-6.627,5.373-12,12-12h115.802c6.627,0,12,5.373,12,12v129.79z"/>
		<g>
			<radialGradient id="aigrd2" cx="36.7988" cy="145.48" r="5.257" fx="36.7988" fy="145.48" gradientUnits="userSpaceOnUse">
				<stop  offset="0" style="stop-color:#F0F0F0"/>
				<stop  offset="1" style="stop-color:#474747"/>
			</radialGradient>
			<path style="&st23;" d="M39.334,143.983c0,1.973-1.6,3.572-3.573,3.572c-1.974,0-3.573-1.6-3.573-3.572c0-1.975,1.6-3.574,3.573-3.574c1.973,0,3.573,1.6,3.573,3.574z"/>
			<radialGradient id="aigrd3" cx="36.7988" cy="95.4814" r="5.257" fx="36.7988" fy="95.4814" gradientUnits="userSpaceOnUse">
				<stop  offset="0" style="stop-color:#F0F0F0"/>
				<stop  offset="1" style="stop-color:#474747"/>
			</radialGradient>
			<path style="&st14;" d="M39.334,93.984c0,1.973-1.6,3.573-3.573,3.573c-1.974,0-3.573-1.6-3.573-3.573c0-1.974,1.6-3.573,3.573-3.573c1.973,0,3.573,1.6,3.573,3.573z"/>
		</g>
		<path style="&st30;" d="M47.586,194.624h-1.613V43.555h1.613v151.068z"/>
		<linearGradient id="aigrd4" gradientUnits="userSpaceOnUse" x1="46.0557" y1="47.7568" x2="44.2718" y2="189.1382">
			<stop  offset="0" style="stop-color:#EDEDED"/>
			<stop  offset="1" style="stop-color:#CACACA"/>
		</linearGradient>
		<path style="&st32;" d="M45.961,194.624h-1.613V43.555h1.613v151.068z"/>
		<path style="&st30;" d="M30.3,57.068l-2.618,133.307c-1.902-1.902-2.662-6.037-2.662-6.037L24.859,52.423c0,0-0.159-3.403,2.963-7.335c3.16-3.98,8.421-4.22,8.421-4.22l118.165,0.168l-113.615,5.54c-4.588,0-7.045,2.273-8.048,3.467
			c-0.812,0.967-2.392,4.104-2.445,7.026z"/>
		<path style="&st24;" d="M159.852,178.577l2.617-133.307c1.902,1.9,2.662,6.035,2.662,6.035l0.162,131.916c0,0,0.158,3.402-2.963,7.336c-3.16,3.98-8.422,4.219-8.422,4.219l-118.166-0.168l113.617-5.539c4.588,0,7.045-2.273,8.047-3.467
			c0.812-0.967,2.393-4.105,2.445-7.025z"/>
	</g>
	<g id="Layer_x0020_3" style="&st10;">
		<path style="&st17;" d="M65.03,67.309c-2.206,0-4,1.794-4,4v0.783c0,1.717,1.132,3.131,2.711,3.675c0,1.437,0,71.628,0,71.628s37.586,0,39.486,0c0,1.426,0,5.791,0,6.549c-1.189,0.879-1.935,2.217-1.935,3.672c0,0,0.047,0.225,0.095,0.449
			c-1.029,0.762-27.761,20.516-27.761,20.516l8.879-0.006l3.868-0.008c0,0,18.008-15.844,18.694-16.447c0.303,0.068,0.618,0.174,0.902,0.174c0.299,0,0.629-0.113,0.945-0.186c0.691,0.611,18.549,16.461,18.549,16.461l6.67,0.008h6.061
			c0,0-26.617-19.721-27.648-20.484c0.051-0.238,0.102-0.477,0.102-0.477c0-1.443-0.701-2.74-1.852-3.619c0-0.746,0-5.172,0-6.602c1.891,0,36.148,0,36.148,0s0-69.894,0-71.488c1.754-0.424,3.088-1.933,3.088-3.815v-0.783c0-2.206-1.795-4-4-4H65.03z"/>
		<path style="&st3;" d="M63.03,65.309c-2.206,0-4,1.794-4,4v0.783c0,1.717,1.132,3.131,2.711,3.675c0,1.437,0,71.628,0,71.628s37.586,0,39.486,0c0,1.426,0,5.791,0,6.549c-1.189,0.879-1.935,2.217-1.935,3.672c0,0,0.047,0.225,0.095,0.449
			c-1.029,0.762-27.761,20.516-27.761,20.516l8.879-0.006l3.868-0.008c0,0,18.008-15.844,18.693-16.447c0.303,0.068,0.619,0.174,0.903,0.174c0.299,0,0.629-0.113,0.945-0.186c0.69,0.611,18.549,16.461,18.549,16.461l6.67,0.008h6.061
			c0,0-26.617-19.721-27.648-20.484c0.051-0.238,0.102-0.477,0.102-0.477c0-1.443-0.701-2.74-1.852-3.619c0-0.746,0-5.172,0-6.602c1.891,0,36.148,0,36.148,0s0-69.894,0-71.488c1.754-0.424,3.088-1.933,3.088-3.815v-0.783c0-2.206-1.795-4-4-4H63.03z"/>
		<path style="&st12;" d="M104.564,155.461h-1.567V68.068h1.567v87.394z"/>
		<linearGradient id="aigrd5" gradientUnits="userSpaceOnUse" x1="113.0903" y1="132.0767" x2="87.6424" y2="74.0884">
			<stop  offset="0" style="stop-color:#FFFFFF"/>
			<stop  offset="1" style="stop-color:#EAEAEA"/>
		</linearGradient>
		<path style="&st20;" d="M140.715,142.92H63.511V71.204h77.204v71.717z"/>
		<path style="&st26;" d="M63.511,142.92l2.99-69.071l74.214-2.231H63.511v71.302z"/>
		<g style="&st12;">
			<path d="M123.992,174.094l5.914,0.008l-25.149-18.584l-1.759-0.057l20.995,18.633z"/>
			<path d="M83.388,174.094l-5.913,0.008l25.148-18.584l1.759-0.057l-20.995,18.633z"/>
			<path style="&st31;" d="M77.477,174.1h2.799v-0.916l22.35-17.668L77.477,174.1"/>
			<path style="&st31;" d="M125.838,174.096l-1.551-0.602l-21.066-17.836l20.771,18.436l1.846,0.002z"/>
			<path style="&st29;" d="M104.564,155.461l-21.176,18.633l-1.487,0.002l1.487-0.678l21.176-17.957z"/>
			<path style="&st9;" d="M129.906,174.102h-1.201l-24.41-18.973l25.611,18.973z"/>
		</g>
		<linearGradient id="aigrd6" gradientUnits="userSpaceOnUse" x1="102.3008" y1="67.4326" x2="102.3008" y2="71.8174">
			<stop  offset="0" style="stop-color:#F0F0F0"/>
			<stop  offset="1" style="stop-color:#686868"/>
		</linearGradient>
		<path style="&st11;" d="M143.803,69.618c0,1.104-0.896,2-2,2H62.799c-1.104,0-2-0.896-2-2v-0.783c0-1.104,0.896-2,2-2h79.003c1.104,0,2,0.896,2,2v0.783z"/>
		<path style="&st8;" d="M140.715,71.618H63.511v5.631c4.35-6.119,77.204-5.631,77.204-5.631z"/>
		<path style="&st5;" d="M140.715,142.92V71.618l-2.146,68.634l-75.058,2.668h77.204z"/>
		<radialGradient id="aigrd7" cx="102.9873" cy="154.1919" r="2.367" fx="102.9873" fy="154.1919" gradientUnits="userSpaceOnUse">
			<stop  offset="0" style="stop-color:#F0F0F0"/>
			<stop  offset="1" style="stop-color:#848484"/>
		</radialGradient>
		<path style="&st28;" d="M106.418,155.141c0,1.479-1.199,2.678-2.678,2.678c-1.479,0-2.678-1.199-2.678-2.678s1.199-2.678,2.678-2.678c1.479,0,2.678,1.199,2.678,2.678z"/>
		<path style="&st30;" d="M135.469,131.934H73.305v-6.258h62.164v6.258z"/>
		<path style="&st30;" d="M135.469,121.934H73.305v-6.258h62.164v6.258z"/>
		<path style="&st30;" d="M135.469,111.934h-24.615v-6.258h24.615v6.258z"/>
		<path style="&st30;" d="M135.469,101.934h-24.615v-6.258h24.615v6.258z"/>
		<path style="&st30;" d="M135.469,91.934h-24.615v-6.258h24.615v6.258z"/>
	</g>
	<g id="Layer_x0020_5" style="&st27;">
		<path style="&st2;" d="M152.41,68.798c-2.895-3.312-7.227-5.41-12.533-6.068c-13.627-1.689-31.688,6.142-44.045,14.035l-5.208,3.29c-0.652,0.408-1.28,0.806-1.921,1.209c-0.608-1.014-1.538-1.885-2.937-2.511c-1.036-0.465-2.046-0.636-3.041-0.658
			c0.029-0.265,0.688-6.306,0.688-6.306c1.369-11.867-0.218-24.403-4.992-33.403H36.224c-5.291,6.165-9.4,13.901-11.505,21.661v18.708c0.568,1.761,1.279,3.516,2.167,5.252c-0.837,0.724-1.541,1.521-2.167,2.36v37.508c0.762-0.246,1.465-0.449,2.046-0.576
			c2.24,1.988,5.12,3.256,8.506,3.631c4.355,0.48,9.013-0.561,13.315-2.166c-0.093,0.471-0.171,0.928-0.221,1.359c-0.439,3.814,0.855,6.102,3.824,7.432c3.221,1.445,6.226,0.438,8.602-1.082c0.445,2.471,1.281,4.836,2.738,6.855c1.761,2.441,4.248,4.15,7.236,5.09
			c0.406,2.107,0.288,6.316,0.217,8.764c-0.178,6.068-0.276,9.412,2.413,11.76l4.838,1.736c7.045-0.031,8.676-5.623,9.222-10.352c0.118-1.018,0.186-1.998,0.245-2.871c0.075-1.111,0.164-2.379,0.311-3.652c0.366-3.174,1.104-6.371,2.97-7.129l2.149-0.863
			c8.198-3.277,17.493-6.992,20.099-14.383c0.3-0.848,0.5-1.713,0.602-2.59c0.018-0.156,0.006-0.316,0.018-0.475c6.811-0.896,12.965-3.023,18.063-6.279c12.402-7.921,22.104-21.312,24.139-33.319c0.086-0.505,0.156-1.005,0.213-1.5
			c0.672-5.819-0.646-10.796-3.852-14.467z"/>
	</g>
	<g id="Layer_x0020_4" style="&st16;">
		<path style="&st3;" d="M17.252,50.189c0,6.524,1.844,13.106,5.319,19.308c-3.41,4.205-4.292,9.724-4.292,15.412c0,2.938,0.226,5.914,0.443,8.768l0.171,2.316c0.003,0.048,0.005,0.097,0.005,0.146c0,2.8-5.498,6.337-9.157,8.691C5.912,107.294,0,111.098,0,116.315
			c0,1.248,0.338,2.576,1.124,3.986c0.001,0.004,4.05,3.146,4.05,3.146c3.623,0.973,6.903-0.986,12.858-4.543c2.401-1.434,6.536-3.896,8.827-4.732c2.401,2.047,5.342,3.209,8.676,3.311c4.314,0.131,8.709-1.459,12.701-3.68c-0.036,0.523-0.061,1.031-0.061,1.508
			c0,4.377,1.516,6.855,4.55,8.082c1.25,0.506,2.515,0.707,3.844,0.451c0.262,2.82,0.992,5.336,2.431,7.219c0.814,1.064,1.835,1.887,2.967,2.496c-0.141,2.322-0.575,5.619-0.858,7.707c-0.433,3.197-0.765,5.652-0.765,7.621c0,2.637,0.597,4.398,2.349,5.896
			c1.618,1.385,3.809,1.848,5.859,1.236c5.582-1.668,6.551-7.697,7.574-14.082c0.764-4.756,1.809-11.268,4.521-13.529l1.615-1.338c5.912-4.879,12.613-10.412,15.053-17.758c0.473-1.426,0.713-2.864,0.84-4.304c5.188-2.331,9.996-5.829,14.072-10.362
			c10.23-11.385,21.254-32.119,21.254-46.079c0-3.228-0.59-6.094-1.914-8.398c-1.789-3.11-4.758-5.032-8.364-5.413c-12.626-1.333-30.851,17.751-36.136,23.631c0,0-2.846,3.144-3.758,4.151c-0.643-2.29-1.971-3.806-4.082-4.66c-1.061-0.429-2.064-0.526-3.033-0.456
			c-0.002-0.305-0.039-7.234-0.039-7.234C76.155,25.858,66.754,0,49.333,0C31.562,0,17.252,27.457,17.252,50.189z M64.468,91.775c0.315,0.146,2.311,1.066,4.587,2.117c-2.397-0.447-4.759-0.888-4.878-0.91c0.076-0.316,0.146-0.604,0.291-1.207z"/>
		<linearGradient id="aigrd8" gradientUnits="userSpaceOnUse" x1="-36.2959" y1="67.9639" x2="-6.7726" y2="63.3984" gradientTransform="matrix(-0.9994 -0.034 -0.034 0.9994 75.3388 2.2501)">
			<stop  offset="0" style="stop-color:#A3D6E2"/>
			<stop  offset="1" style="stop-color:#35AECA"/>
		</linearGradient>
		<path style="&st19;" d="M107.432,89.248c-13.51,15.031-32.227,13.704-36.744,5.848c-4.517-7.857,7.002-19.054,20.51-34.084s30.318-27.096,34.836-19.239c4.518,7.857-5.095,32.445-18.602,47.476z"/>
		<linearGradient id="aigrd9" gradientUnits="userSpaceOnUse" x1="37.6108" y1="30.1733" x2="5.4978" y2="75.3853" gradientTransform="matrix(-1 0 0 1 75.5879 0)">
			<stop  offset="0" style="stop-color:#3EAACE"/>
			<stop  offset="1" style="stop-color:#2E86A1"/>
		</linearGradient>
		<path style="&st7;" d="M22.92,48.802c0,21.102,22.442,38.21,35.493,38.21c13.052,0,11.409-17.108,11.409-38.21c0-21.103-7.771-44.189-20.821-44.189c-13.052,0-26.081,23.086-26.081,44.189z"/>
		<radialGradient id="aigrd10" cx="97.1143" cy="28.083" r="30.1295" fx="97.1143" fy="28.083" gradientUnits="userSpaceOnUse">
			<stop  offset="0" style="stop-color:#787878"/>
			<stop  offset="1" style="stop-color:#313131"/>
		</radialGradient>
		<path style="&st18;" d="M80.193,58.781l0.816,0.576c8.051-11.413,30.679-39.828,38.606-34.335l0.57-0.822c-10.361-7.178-38.788,32.873-39.993,34.582z"/>
		<radialGradient id="aigrd11" cx="80.9917" cy="12.4995" r="35.8869" fx="80.9917" fy="12.4995" gradientUnits="userSpaceOnUse">
			<stop  offset="0" style="stop-color:#787878"/>
			<stop  offset="1" style="stop-color:#313131"/>
		</radialGradient>
		<path style="&st4;" d="M78.635,6.784c9.372,2.275,3.17,38.066-0.011,51.665l0.975,0.228c0.476-2.036,11.521-49.891-0.728-52.864l-0.236,0.972z"/>
		<linearGradient id="aigrd12" gradientUnits="userSpaceOnUse" x1="-9.9858" y1="117.1255" x2="5.9667" y2="114.6586" gradientTransform="matrix(-0.9994 -0.034 -0.034 0.9994 75.3388 2.2501)">
			<stop  offset="0" style="stop-color:#3BB1CE"/>
			<stop  offset="1" style="stop-color:#37A6C2"/>
		</linearGradient>
		<path style="&st25;" d="M66.504,148.881c4.473-1.336,2.036-19.855,9.969-26.469c5.883-4.902,12.729-10.094,14.814-16.377c3.418-10.298-7.115-18.56-13.928-19.188c-6.814-0.627-9.438,8.447-11.443,14.398c-3.468,10.293-6.693,26.477,0.428,26.055
			c3.841-0.227-2.021,22.229,0.159,21.58z"/>
		<linearGradient id="aigrd13" gradientUnits="userSpaceOnUse" x1="-189.5825" y1="228.9985" x2="-165.6108" y2="225.2916" gradientTransform="matrix(0.5742 0.8187 -0.8187 0.5742 321.7114 112.0247)">
			<stop  offset="0" style="stop-color:#2C7F9A"/>
			<stop  offset="1" style="stop-color:#24667A"/>
		</linearGradient>
		<path style="&st15;" d="M6.034,115.995c-3.021-5.424,19.311-10.434,18.514-21.809c-0.59-8.436-1.831-18.038,2.844-22.91c7.663-7.983,27.033,0.069,34.495,7.229c7.462,7.161,0.323,13.772-4.075,18.419c-7.606,8.035-21.786,18.245-28.426,10.315
			c-3.584-4.278-21.878,11.4-23.352,8.755z"/>
		<radialGradient id="aigrd14" cx="22.4541" cy="88.5659" r="27.2101" fx="22.4541" fy="88.5659" gradientTransform="matrix(-1.3608 -0.5505 -0.5505 1.3608 153.8256 -38.9604)" gradientUnits="userSpaceOnUse">
			<stop  offset="0" style="stop-color:#787878"/>
			<stop  offset="1" style="stop-color:#313131"/>
		</radialGradient>
		<path style="&st0;" d="M61.382,87.525c-6.074,15.019-9.094,27.965-6.74,28.917c2.352,0.953,9.186-10.452,15.261-25.471c6.075-15.019,9.094-27.965,6.741-28.917c-2.352-0.952-9.186,10.451-15.262,25.471z"/>
		<radialGradient id="aigrd15" cx="78.46" cy="4.8774" r="3.0862" fx="78.46" fy="4.8774" gradientUnits="userSpaceOnUse">
			<stop  offset="0" style="stop-color:#787878"/>
			<stop  offset="1" style="stop-color:#313131"/>
		</radialGradient>
		<path style="&st22;" d="M76.851,6.298c0,1.05,0.852,1.901,1.902,1.901c1.05,0,1.9-0.851,1.9-1.901s-0.851-1.901-1.9-1.901c-1.051,0-1.902,0.851-1.902,1.901z"/>
		<radialGradient id="aigrd16" cx="119.6079" cy="23.1899" r="3.0867" fx="119.6079" fy="23.1899" gradientUnits="userSpaceOnUse">
			<stop  offset="0" style="stop-color:#787878"/>
			<stop  offset="1" style="stop-color:#313131"/>
		</radialGradient>
		<path style="&st13;" d="M117.999,24.61c0,1.05,0.852,1.901,1.902,1.901c1.051,0,1.902-0.851,1.902-1.901s-0.852-1.901-1.902-1.901c-1.05,0-1.902,0.851-1.902,1.901z"/>
		<path style="&st21;" d="M59.639,10.645c0,0-8.8-11.731-19.584-2.595c-14.563,12.337-18.04,34.597-16.242,48.021c1.798-38.139,22.258-58.995,35.826-45.426z"/>
		<path style="&st21;" d="M73.193,82.199c18.013-23.552,44.984-51.528,52.841-40.427c-9.866-3.21-27.317,11.475-52.841,40.427z"/>
		<path style="&st21;" d="M77.433,64.948c-2.178-3.358-21.374,32.79-23.541,47.928c3.407-23.131,18.322-47.437,21.022-50.137s2.519,2.209,2.519,2.209z"/>
		<path style="&st21;" d="M52.153,72.062c-6.705-4.229-21.312-6.245-25.859,0s-1.86,17.906-1.86,24.202S7.806,110.277,6.802,112.823c5.916-4.375,17.286-8.195,18.802-13.432c1.516-5.236-0.138-19.017,3.583-25.08s16.261-4.134,22.966-2.248z"/>
	</g>
</svg>
