<?xml version="1.0" encoding="iso-8859-1"?>
<!-- Generator: Adobe Illustrator 9.0, SVG Export Plug-In  -->
<!DOCTYPE svg PUBLIC "-//W3C//DTD SVG 20000303 Stylable//EN"   "http://www.w3.org/TR/2000/03/WD-SVG-20000303/DTD/svg-20000303-stylable.dtd" [
	<!ENTITY st0 "fill:url(#aigrd1);stroke:none;">
	<!ENTITY st1 "fill:#000000;stroke:none;">
	<!ENTITY st2 "opacity:0.35;fill:#000000;stroke:none;">
	<!ENTITY st3 "fill:url(#aigrd3);stroke:none;">
	<!ENTITY st4 "fill-rule:nonzero;clip-rule:nonzero;fill:#FFFFFF;stroke:#000000;stroke-miterlimit:4;">
	<!ENTITY st5 "fill:none;stroke-width:2;">
	<!ENTITY st6 "fill:url(#aigrd2);stroke:none;">
	<!ENTITY st7 "fill:#BEBEBE;stroke:none;">
	<!ENTITY st8 "fill-rule:nonzero;clip-rule:nonzero;stroke:#000000;stroke-miterlimit:4;">
	<!ENTITY st9 "stroke:none;">
	<!ENTITY st10 "fill:url(#aigrd4);stroke:none;">
]>
<svg  width="207.901pt" height="179.886pt" viewBox="0 0 207.901 179.886" xml:space="preserve">
	<g id="Layer_x0020_1" style="&st4;">
		<path style="&st2;" d="M145.325,178.648c-14.998,2.891-125.286,0.938-133.223-7.219c-7.936-8.154,47.936-44.457,67.649-46.861c19.713-2.404,116.353,10.578,126.931,21.156c10.576,10.578-46.359,30.033-61.357,32.924z"/>
		<path style="&st1;" d="M22,0C9.869,0,0,9.869,0,22v129.791c0,12.131,9.869,22,22,22h115.802c12.131,0,22-9.869,22-22V22c0-12.131-9.869-22-22-22H22z"/>
		<linearGradient id="aigrd1" gradientUnits="userSpaceOnUse" x1="38.9507" y1="17.4941" x2="120.6722" y2="159.458">
			<stop  offset="0" style="stop-color:#F0F0F0"/>
			<stop  offset="1" style="stop-color:#D6D6D6"/>
		</linearGradient>
		<path style="&st0;" d="M148.802,151.791c0,6.627-5.373,12-12,12H21c-6.627,0-12-5.373-12-12V22c0-6.627,5.373-12,12-12h115.802c6.627,0,12,5.373,12,12v129.791z"/>
		<g>
			<radialGradient id="aigrd2" cx="20.8916" cy="114.5669" r="5.2576" fx="20.8916" fy="114.5669" gradientUnits="userSpaceOnUse">
				<stop  offset="0" style="stop-color:#F0F0F0"/>
				<stop  offset="1" style="stop-color:#474747"/>
			</radialGradient>
			<path style="&st6;" d="M23.428,113.07c0,1.973-1.6,3.572-3.573,3.572c-1.974,0-3.573-1.6-3.573-3.572c0-1.975,1.6-3.574,3.573-3.574c1.973,0,3.573,1.6,3.573,3.574z"/>
			<radialGradient id="aigrd3" cx="20.8916" cy="64.5674" r="5.2581" fx="20.8916" fy="64.5674" gradientUnits="userSpaceOnUse">
				<stop  offset="0" style="stop-color:#F0F0F0"/>
				<stop  offset="1" style="stop-color:#474747"/>
			</radialGradient>
			<path style="&st3;" d="M23.428,63.07c0,1.973-1.6,3.573-3.573,3.573c-1.974,0-3.573-1.6-3.573-3.573c0-1.974,1.6-3.573,3.573-3.573c1.973,0,3.573,1.6,3.573,3.573z"/>
		</g>
		<path style="&st9;" d="M31.679,163.71h-1.613V12.642h1.613V163.71z"/>
		<linearGradient id="aigrd4" gradientUnits="userSpaceOnUse" x1="30.1479" y1="16.8438" x2="28.364" y2="158.2261">
			<stop  offset="0" style="stop-color:#EDEDED"/>
			<stop  offset="1" style="stop-color:#CACACA"/>
		</linearGradient>
		<path style="&st10;" d="M30.054,163.71h-1.613V12.642h1.613V163.71z"/>
		<path style="&st9;" d="M14.393,26.155l-2.618,133.308c-1.902-1.902-2.662-6.037-2.662-6.037L8.952,21.509c0,0-0.159-3.403,2.963-7.335c3.16-3.98,8.421-4.22,8.421-4.22l118.165,0.168l-113.615,5.54c-4.588,0-7.045,2.273-8.048,3.467
			c-0.812,0.967-2.392,4.104-2.445,7.026z"/>
		<path style="&st7;" d="M143.944,147.664l2.617-133.307c1.902,1.9,2.662,6.035,2.662,6.035l0.162,131.917c0,0,0.158,3.402-2.963,7.336c-3.16,3.98-8.422,4.219-8.422,4.219l-118.166-0.168l113.617-5.539c4.588,0,7.045-2.273,8.047-3.467
			c0.812-0.967,2.393-4.105,2.445-7.025z"/>
	</g>
	<g id="Layer_x0020_3" style="&st8;">
		<path style="&st9;" d="M109.913,44.031l-1.262-0.245l0.05,21.324c-1.509-1.167-4.184-1.472-6.923-0.606c-3.709,1.172-6.125,4.037-5.396,6.4c0.729,2.365,4.329,3.33,8.039,2.159c3.379-1.067,5.675-3.538,5.509-5.757l-0.018-23.275z"/>
		<path style="&st9;" d="M122.913,96.031c1.861,1.876,7.902,1.909,7.907,7.401c1.851-7.977-6.368-7.554-9.169-14.646l0.05,21.324c-1.509-1.167-4.184-1.472-6.923-0.606c-3.709,1.172-6.125,4.037-5.396,6.4c0.729,2.365,4.329,3.33,8.039,2.159
			c3.379-1.067,5.675-3.538,5.509-5.757l-0.018-16.275z"/>
		<path style="&st9;" d="M60.913,105.031c1.861,1.876,7.902,1.909,7.907,7.401c1.851-7.977-6.369-7.554-9.169-14.646l0.05,21.324c-1.508-1.167-4.184-1.472-6.923-0.606c-3.709,1.172-6.125,4.037-5.396,6.4c0.729,2.365,4.329,3.33,8.039,2.159
			c3.379-1.067,5.675-3.538,5.508-5.757l-0.017-16.275z"/>
		<path style="&st9;" d="M80.913,40.03c1.861,1.876,7.902,1.91,7.907,7.402c1.851-7.977-6.369-7.554-9.169-14.646l0.05,21.324c-1.508-1.167-4.184-1.472-6.923-0.607c-3.709,1.172-6.125,4.038-5.396,6.401c0.729,2.365,4.329,3.33,8.039,2.159
			c3.379-1.067,5.675-3.539,5.508-5.756L80.913,40.03z"/>
		<path style="&st9;" d="M60.913,40.03c1.861,1.876,7.902,1.91,7.907,7.402c1.851-7.977-6.369-7.554-9.169-14.646l0.05,21.324c-1.508-1.167-4.184-1.472-6.923-0.607c-3.709,1.172-6.125,4.038-5.396,6.401c0.729,2.365,4.329,3.33,8.039,2.159
			c3.379-1.067,5.675-3.539,5.508-5.756L60.913,40.03z"/>
		<g style="&st9;">
			<path d="M101.913,106.031l-1.262-0.245l0.05,21.324c-1.509-1.167-4.184-1.472-6.923-0.606c-3.709,1.172-6.125,4.037-5.396,6.4c0.729,2.365,4.329,3.33,8.039,2.159c3.379-1.067,5.675-3.538,5.509-5.757l-0.018-23.275z"/>
			<path d="M81.913,106.031l-1.262-0.245l0.05,21.324c-1.509-1.167-4.184-1.472-6.923-0.606c-3.709,1.172-6.125,4.037-5.396,6.4c0.729,2.365,4.329,3.33,8.039,2.159c3.379-1.067,5.675-3.538,5.509-5.757l-0.018-23.275z"/>
			<path d="M81.917,112.075h18.734v-6.289H81.917v6.289z"/>
		</g>
		<g style="&st5;">
			<g>
				<path d="M135.295,120.925H38.703"/>
				<path d="M38.703,112.535h96.592"/>
				<path d="M135.295,128.634H38.703V104.17h96.592v24.464z"/>
			</g>
			<path d="M38.703,128.634v7.957h96.592v-7.957"/>
		</g>
		<g style="&st5;">
			<g>
				<path d="M135.295,60.926H38.703"/>
				<path d="M38.703,52.535h96.592"/>
				<path d="M135.295,68.634H38.703V44.17h96.592v24.463z"/>
			</g>
			<path d="M38.703,68.634v7.958h96.592v-7.958"/>
		</g>
	</g>
</svg>
