<?xml version="1.0" encoding="iso-8859-1"?>
<!-- Generator: Adobe Illustrator 9.0, SVG Export Plug-In  -->
<!DOCTYPE svg PUBLIC "-//W3C//DTD SVG 20000303 Stylable//EN"   "http://www.w3.org/TR/2000/03/WD-SVG-20000303/DTD/svg-20000303-stylable.dtd" [
	<!ENTITY st0 "fill:url(#aigrd1);stroke:none;">
	<!ENTITY st1 "fill:#000000;stroke:none;">
	<!ENTITY st2 "fill:url(#aigrd5);stroke-width:2;">
	<!ENTITY st3 "opacity:0.35;fill:#000000;stroke:none;">
	<!ENTITY st4 "fill:url(#aigrd3);stroke:none;">
	<!ENTITY st5 "opacity:0.3;stroke:none;">
	<!ENTITY st6 "fill-rule:nonzero;clip-rule:nonzero;fill:#FFFFFF;stroke:#000000;stroke-miterlimit:4;">
	<!ENTITY st7 "fill:url(#aigrd2);stroke:none;">
	<!ENTITY st8 "fill:#BEBEBE;stroke:none;">
	<!ENTITY st9 "fill-rule:evenodd;clip-rule:evenodd;stroke:none;">
	<!ENTITY st10 "fill-rule:nonzero;clip-rule:nonzero;stroke:#000000;stroke-miterlimit:4;">
	<!ENTITY st11 "stroke:none;">
	<!ENTITY st12 "fill:url(#aigrd4);stroke:none;">
]>
<svg  width="207.901pt" height="179.887pt" viewBox="0 0 207.901 179.887" xml:space="preserve">
	<g id="Layer_x0020_1" style="&st6;">
		<path style="&st3;" d="M145.326,178.648c-14.998,2.891-125.286,0.938-133.223-7.219c-7.936-8.153,47.936-44.456,67.649-46.86c19.713-2.404,116.354,10.577,126.931,21.155s-46.359,30.034-61.356,32.924z"/>
		<path style="&st1;" d="M22,0C9.869,0,0,9.869,0,22v129.791c0,12.131,9.869,22,22,22h115.802c12.131,0,22-9.869,22-22V22c0-12.131-9.869-22-22-22H22z"/>
		<linearGradient id="aigrd1" gradientUnits="userSpaceOnUse" x1="38.9502" y1="17.4937" x2="120.6726" y2="159.459">
			<stop  offset="0" style="stop-color:#F0F0F0"/>
			<stop  offset="1" style="stop-color:#D6D6D6"/>
		</linearGradient>
		<path style="&st0;" d="M148.802,151.791c0,6.627-5.373,12-12,12H21c-6.627,0-12-5.373-12-12V22c0-6.627,5.373-12,12-12h115.802c6.627,0,12,5.373,12,12v129.791z"/>
		<g>
			<radialGradient id="aigrd2" cx="20.8921" cy="114.5684" r="5.256" fx="20.8921" fy="114.5684" gradientUnits="userSpaceOnUse">
				<stop  offset="0" style="stop-color:#F0F0F0"/>
				<stop  offset="1" style="stop-color:#474747"/>
			</radialGradient>
			<path style="&st7;" d="M23.428,113.07c0,1.973-1.6,3.572-3.573,3.572c-1.974,0-3.573-1.6-3.573-3.572c0-1.974,1.6-3.573,3.573-3.573c1.973,0,3.573,1.6,3.573,3.573z"/>
			<radialGradient id="aigrd3" cx="20.8921" cy="64.5679" r="5.257" fx="20.8921" fy="64.5679" gradientUnits="userSpaceOnUse">
				<stop  offset="0" style="stop-color:#F0F0F0"/>
				<stop  offset="1" style="stop-color:#474747"/>
			</radialGradient>
			<path style="&st4;" d="M23.428,63.07c0,1.973-1.6,3.573-3.573,3.573c-1.974,0-3.573-1.6-3.573-3.573c0-1.974,1.6-3.573,3.573-3.573c1.973,0,3.573,1.6,3.573,3.573z"/>
		</g>
		<path style="&st11;" d="M31.679,163.711h-1.613V12.642h1.613v151.069z"/>
		<linearGradient id="aigrd4" gradientUnits="userSpaceOnUse" x1="30.1484" y1="16.8438" x2="28.3645" y2="158.2265">
			<stop  offset="0" style="stop-color:#EDEDED"/>
			<stop  offset="1" style="stop-color:#CACACA"/>
		</linearGradient>
		<path style="&st12;" d="M30.054,163.711h-1.613V12.642h1.613v151.069z"/>
		<path style="&st11;" d="M14.393,26.155l-2.618,133.308c-1.902-1.901-2.662-6.036-2.662-6.036L8.952,21.509c0,0-0.159-3.403,2.963-7.335c3.16-3.98,8.421-4.22,8.421-4.22l118.165,0.168l-113.615,5.54c-4.588,0-7.045,2.273-8.048,3.467
			c-0.812,0.967-2.392,4.104-2.445,7.026z"/>
		<path style="&st8;" d="M143.945,147.664l2.617-133.308c1.902,1.9,2.662,6.035,2.662,6.035l0.161,131.918c0,0,0.159,3.402-2.963,7.335c-3.159,3.98-8.421,4.22-8.421,4.22l-118.166-0.168l113.616-5.54c4.588,0,7.045-2.273,8.048-3.467
			c0.812-0.967,2.392-4.104,2.445-7.025z"/>
	</g>
	<g id="Layer_x0020_2" style="&st10;">
		<path style="&st5;" d="M98.57,44.404c-8.127-8.127-60.538-22.151-40.962,11.39c9.909,16.979-16.943,34.113-2.29,56.321c17.666,26.771,67.197-1.02,39.836-26.1c-19.231-17.629,11.546-33.484,3.415-41.611z"/>
		<radialGradient id="aigrd5" cx="59.0269" cy="38.3296" r="94.8427" fx="59.0269" fy="38.3296" gradientUnits="userSpaceOnUse">
			<stop  offset="0" style="stop-color:#23ACCD"/>
			<stop  offset="1" style="stop-color:#274773"/>
		</radialGradient>
		<path style="&st2;" d="M95.533,40.1c-8.128-8.127-61.551-19.801-41.976,13.741c9.909,16.979-16.943,34.112-2.29,56.32c17.666,26.77,67.195-1.02,39.837-26.099c-19.232-17.63,12.556-35.834,4.428-43.962z"/>
		<path style="&st11;" d="M116.766,56.908h-4.521L96.83,41.494c0.217-0.327,0.345-0.718,0.345-1.14c0-1.143-0.927-2.069-2.069-2.069c-0.422,0-0.812,0.128-1.141,0.344L78.123,22.785v-4.937h-0.414h-5.107v5.522h4.936l15.844,15.843
			c-0.217,0.327-0.345,0.718-0.345,1.14c0,1.144,0.927,2.07,2.069,2.07c0.422,0,0.812-0.127,1.141-0.344l15.415,15.415v4.937h5.52v-5.522h-0.414z M77.294,22.542c-0.622,0-3.243,0-3.865,0c0-0.622,0-3.244,0-3.866c0.622,0,3.243,0,3.865,0c0,0.622,0,3.244,0,3.866z
			 M116.352,61.602c-0.621,0-3.242,0-3.863,0c0-0.622,0-3.244,0-3.866c0.621,0,3.242,0,3.863,0c0,0.622,0,3.244,0,3.866z"/>
		<path style="&st11;" d="M62.195,28.539v-5.521h-0.414h-5.108v4.936l-5.114,5.114c-0.327-0.216-0.718-0.344-1.14-0.344c-1.143,0-2.069,0.926-2.069,2.069c0,0.421,0.127,0.812,0.344,1.14l-5.409,5.409h-4.937v5.522h5.522v-4.936l5.409-5.409
			c0.327,0.216,0.718,0.344,1.14,0.344c1.143,0,2.07-0.926,2.07-2.069c0-0.421-0.128-0.812-0.344-1.14l5.114-5.114h4.937z M57.501,23.847c0.622,0,3.244,0,3.866,0c0,0.622,0,3.242,0,3.864c-0.622,0-3.244,0-3.866,0c0-0.622,0-3.242,0-3.864z M39.177,46.035
			c0-0.622,0-3.244,0-3.866c0.601,0,3.05,0,3.778,0l0.087,0.087c0,0.728,0,3.178,0,3.778c-0.622,0-3.244,0-3.866,0z"/>
	</g>
	<g id="Layer_x0020_3" style="&st10;">
		<g style="&st9;">
			<path d="M95.838,82.834l12.834-0.933v23.101l17.269-22.868l13.768,3.499l-17.502,22.168l17.268,24.034l-13.302,3.968l-17.5-24.969v22.871l-12.834,1.631l0-52.503z"/>
			<path d="M119.056,130.041c-3.647,5.291-9.748,8.767-16.635,8.767c-11.12,0-20.19-9.069-20.19-20.188c0-7.862,4.404-14.642,10.962-17.973l-0.006-5.731c-0.325,0.126-0.648,0.258-0.967,0.399c-1.127,0.5-2.213,1.084-3.25,1.75l-8.247-5.805l-5.53,5.329l5.721,8.522
				c-1.455,2.283-2.549,4.82-3.207,7.547l-10.458,1.929l-0.302,7.743l10.664,1.886c0.618,2.732,1.679,5.302,3.107,7.697l-6.431,9.016l5.529,5.631l9.312-6.315c2.314,1.46,4.892,2.543,7.612,3.158l1.98,11.047h7.943l1.858-11.132c2.695-0.679,5.219-1.783,7.545-3.212
				l8.997,6.354l5.529-5.631l-2.194-3.055l-3.27,1.003l-6.074-8.736z"/>
			<path d="M129.183,113.08l8.752,1.507l0.1,7.743l-2.206,0.376l-6.646-9.626z"/>
		</g>
	</g>
</svg>
