<?xml version="1.0" encoding="iso-8859-1"?>
<!DOCTYPE svg PUBLIC "-//W3C//DTD SVG 20000303 Stylable//EN"   "http://www.w3.org/TR/2000/03/WD-SVG-20000303/DTD/svg-20000303-stylable.dtd">
<!-- Generator: Adobe Illustrator 9.0, SVG Export Plug-In  -->
<svg  width="207.901pt" height="179.888pt" viewBox="0 0 207.901 179.888" xml:space="preserve">
	<g id="Layer_x0020_1" style="fill-rule:nonzero;clip-rule:nonzero;stroke:#000000;stroke-miterlimit:4;">
		<path style="opacity:0.35;stroke:none;" d="M145.325,178.649c-14.998,2.891-125.286,0.938-133.223-7.219c-7.936-8.154,47.936-44.457,67.649-46.861c19.713-2.404,116.353,10.578,126.931,21.156c10.576,10.578-46.359,30.033-61.357,32.924z"/>
		<path style="stroke:none;" d="M22,0C9.869,0,0,9.869,0,22v129.792c0,12.131,9.869,22,22,22h115.802c12.131,0,22-9.869,22-22V22c0-12.131-9.869-22-22-22H22z"/>
		<linearGradient id="aigrd1" gradientUnits="userSpaceOnUse" x1="38.9502" y1="17.4941" x2="120.673" y2="159.4602">
			<stop  offset="0" style="stop-color:#F0F0F0"/>
			<stop  offset="1" style="stop-color:#D6D6D6"/>
		</linearGradient>
		<path style="fill:url(#aigrd1);stroke:none;" d="M148.802,151.792c0,6.627-5.373,12-12,12H21c-6.627,0-12-5.373-12-12V22c0-6.627,5.373-12,12-12h115.802c6.627,0,12,5.373,12,12v129.792z"/>
		<g>
			<radialGradient id="aigrd2" cx="20.8916" cy="114.5684" r="5.2576" fx="20.8916" fy="114.5684" gradientUnits="userSpaceOnUse">
				<stop  offset="0" style="stop-color:#F0F0F0"/>
				<stop  offset="1" style="stop-color:#474747"/>
			</radialGradient>
			<path style="fill:url(#aigrd2);stroke:none;" d="M23.428,113.071c0,1.973-1.6,3.572-3.573,3.572c-1.974,0-3.573-1.6-3.573-3.572c0-1.975,1.6-3.574,3.573-3.574c1.973,0,3.573,1.6,3.573,3.574z"/>
			<radialGradient id="aigrd3" cx="20.8916" cy="64.5679" r="5.2576" fx="20.8916" fy="64.5679" gradientUnits="userSpaceOnUse">
				<stop  offset="0" style="stop-color:#F0F0F0"/>
				<stop  offset="1" style="stop-color:#474747"/>
			</radialGradient>
			<path style="fill:url(#aigrd3);stroke:none;" d="M23.428,63.07c0,1.973-1.6,3.573-3.573,3.573c-1.974,0-3.573-1.6-3.573-3.573c0-1.974,1.6-3.573,3.573-3.573c1.973,0,3.573,1.6,3.573,3.573z"/>
		</g>
		<path style="fill:#FFFFFF;stroke:none;" d="M31.679,163.712h-1.613V12.642h1.613v151.07z"/>
		<linearGradient id="aigrd4" gradientUnits="userSpaceOnUse" x1="30.1479" y1="16.8438" x2="28.364" y2="158.227">
			<stop  offset="0" style="stop-color:#EDEDED"/>
			<stop  offset="1" style="stop-color:#CACACA"/>
		</linearGradient>
		<path style="fill:url(#aigrd4);stroke:none;" d="M30.054,163.712h-1.613V12.642h1.613v151.07z"/>
		<path style="fill:#FFFFFF;stroke:none;" d="M14.393,26.155l-2.618,133.309c-1.902-1.902-2.662-6.037-2.662-6.037L8.952,21.509c0,0-0.159-3.403,2.963-7.335c3.16-3.98,8.421-4.22,8.421-4.22l118.165,0.168l-113.615,5.54c-4.588,0-7.045,2.273-8.048,3.467
			c-0.812,0.967-2.392,4.104-2.445,7.026z"/>
		<path style="fill:#BEBEBE;stroke:none;" d="M143.944,147.665l2.617-133.309c1.902,1.9,2.662,6.035,2.662,6.035l0.162,131.918c0,0,0.158,3.402-2.963,7.336c-3.16,3.98-8.422,4.219-8.422,4.219l-118.166-0.168l113.617-5.539c4.588,0,7.045-2.273,8.047-3.467
			c0.813-0.967,2.393-4.105,2.445-7.025z"/>
		<path style="opacity:0.3;stroke:none;" d="M95.029,41.337c-8.128-8.127-60.538-22.151-40.962,11.39c9.909,16.979-16.943,34.113-2.29,56.32c17.666,26.771,67.197-1.019,39.836-26.099c-19.231-17.629,11.545-33.484,3.416-41.611z"/>
		<radialGradient id="aigrd5" cx="55.4849" cy="35.2627" r="94.842" fx="55.4849" fy="35.2627" gradientUnits="userSpaceOnUse">
			<stop  offset="0" style="stop-color:#23ACCD"/>
			<stop  offset="1" style="stop-color:#274773"/>
		</radialGradient>
		<path style="fill:url(#aigrd5);stroke-width:2;" d="M91.992,37.033c-8.128-8.127-61.552-19.801-41.976,13.741c9.909,16.979-16.943,34.113-2.29,56.32c17.666,26.77,67.195-1.021,39.837-26.099c-19.231-17.63,12.556-35.834,4.429-43.962z"/>
		<path style="stroke:none;" d="M113.224,53.841h-4.521L93.288,38.427c0.217-0.327,0.345-0.718,0.345-1.14c0-1.143-0.927-2.069-2.069-2.069c-0.422,0-0.813,0.128-1.141,0.344L74.581,19.718v-4.937h-0.414h-5.107v5.522h4.936l15.843,15.843
			c-0.216,0.327-0.344,0.718-0.344,1.14c0,1.144,0.926,2.07,2.07,2.07c0.421,0,0.812-0.127,1.14-0.344l15.414,15.415v4.937h5.52v-5.522h-0.414z M73.752,19.476c-0.622,0-3.243,0-3.865,0c0-0.622,0-3.244,0-3.866c0.622,0,3.243,0,3.865,0c0,0.622,0,3.244,0,3.866z
			 M112.81,58.535c-0.621,0-3.242,0-3.864,0c0-0.622,0-3.244,0-3.866c0.622,0,3.243,0,3.864,0c0,0.622,0,3.244,0,3.866z"/>
		<path style="fill:#82D0E3;stroke:none;" d="M80.447,32.538C48.241,23.801,43.971,33.843,47.45,43.17c2.202,5.904,7.081,12.126,5.542,18.27c-3.56,14.208-21.05,38.946,4.571,53.219C35.276,98.21,54.177,72.58,55.836,62.604c1.66-9.977-25.218-38.586,24.61-30.066z"
			/>
		<path style="stroke:none;" d="M58.653,25.472v-5.521h-0.414h-5.108v4.936l-5.114,5.114c-0.327-0.216-0.718-0.344-1.14-0.344c-1.143,0-2.069,0.926-2.069,2.069c0,0.421,0.127,0.813,0.344,1.14l-5.409,5.409h-4.937v5.522h5.522v-4.936l5.409-5.409
			c0.327,0.216,0.718,0.344,1.14,0.344c1.143,0,2.07-0.926,2.07-2.069c0-0.421-0.128-0.813-0.344-1.14l5.114-5.114h4.937z M53.959,20.78c0.622,0,3.244,0,3.866,0c0,0.622,0,3.242,0,3.864c-0.622,0-3.244,0-3.866,0c0-0.622,0-3.242,0-3.864z M35.635,42.968
			c0-0.622,0-3.244,0-3.866c0.601,0,3.05,0,3.778,0L39.5,39.19c0,0.728,0,3.178,0,3.778c-0.622,0-3.244,0-3.866,0z"/>
		<g style="stroke:none;">
			<path d="M80.691,145.587c-0.943,1.739-1.276,2.524-1.276,3.085c0,0.337,0.167,0.449,0.444,0.449c0.388,0,0.555,0.168,0.555,0.561c0,0.168-0.056,0.225-0.5,0.393l-4.548,2.02c-1.387,0.617-1.387,0.617-1.831,0.617c-0.388,0-0.666-0.28-0.666-0.673
				c0-0.954,1.054-3.086,3.495-7.181l15.753-26.532c0-0.393-0.111-0.505-0.333-0.505c-0.111,0-0.111,0-0.444,0.112h-0.166c-0.222,0-0.389-0.224-0.389-0.561c0-0.168,0.111-0.28,0.333-0.393l5.436-2.3c1.165-0.449,1.498-0.562,1.941-0.562
				c0.555,0,0.832,0.337,0.943,1.234l4.604,29.562c0.444,2.917,0.777,3.646,1.553,3.646c0.333,0,0.499-0.056,1.165-0.28c0.277-0.112,0.388-0.112,0.443-0.112c0.222,0,0.444,0.225,0.444,0.505c0,0.169-0.111,0.28-0.333,0.393l-6.378,2.749
				c-1.664,0.729-1.997,0.841-2.773,0.841c-1.165,0-1.553-0.616-1.886-2.86l-1.609-12.116c-3.605,1.515-4.881,1.852-6.767,1.852h-3.994l-3.217,6.058z M93.504,128.591c-0.167-1.122-0.5-5.049-0.5-5.609v-0.561c-0.388,1.346-0.832,2.3-2.163,4.768l-4.215,7.572
				c-0.277,0.505-0.389,0.673-0.777,1.066c0.444-0.112,0.666-0.112,0.888-0.112h7.654l-0.887-7.124z"/>
			<path d="M124.399,146.989c0.388-1.795,0.555-2.637,0.887-3.927c-1.164,1.402-2.219,2.412-5.103,4.88c-3.883,3.31-6.213,4.601-8.376,4.601c-2.219,0-3.494-1.796-3.494-4.824c0-7.461,4.659-15.258,11.648-19.465c3.883-2.355,7.599-3.197,13.7-3.197h0.998
				c0.333,0,0.61,0.225,0.555,0.449l-0.055,0.168l-3.384,17.501c-0.277,1.459-0.389,2.524-0.444,3.085c-0.055,0.729,0.444,1.29,1.109,1.29c0.888,0,2.219-0.561,3.938-1.626c0.555-0.393,0.722-0.449,0.832-0.449c0.222,0,0.444,0.28,0.444,0.505
				c0,0.112-0.056,0.225-0.277,0.337l-4.715,3.085c-3.106,2.02-5.547,3.142-6.878,3.142c-1.276,0-1.887-0.617-1.887-1.964c0-0.673,0.056-1.346,0.277-2.468l0.223-1.122z M127.505,129.432c-0.665-0.056-0.942-0.056-1.441-0.056c-1.72,0-3.273,0.112-4.771,0.337
				c-1.941,2.188-3.106,4.095-4.104,6.73c-0.888,2.469-1.554,5.609-1.554,7.573c0,2.075,0.666,3.028,1.997,3.028c1.72,0,4.992-2.075,7.377-4.655l2.496-12.958z"/>
		</g>
	</g>
</svg>
