<?xml version="1.0" encoding="iso-8859-1"?>
<!-- Generator: Adobe Illustrator 9.0, SVG Export Plug-In  -->
<!DOCTYPE svg PUBLIC "-//W3C//DTD SVG 20000303 Stylable//EN"   "http://www.w3.org/TR/2000/03/WD-SVG-20000303/DTD/svg-20000303-stylable.dtd" [
	<!ENTITY st0 "fill:url(#aigrd1);stroke:none;">
	<!ENTITY st1 "fill:url(#aigrd3);stroke:none;">
	<!ENTITY st2 "opacity:0.35;stroke:none;">
	<!ENTITY st3 "fill:#FFFFFF;stroke:none;">
	<!ENTITY st4 "opacity:0.2;">
	<!ENTITY st5 "fill:url(#aigrd2);stroke:none;">
	<!ENTITY st6 "fill:#BEBEBE;stroke:none;">
	<!ENTITY st7 "fill-rule:nonzero;clip-rule:nonzero;stroke:#000000;stroke-miterlimit:4;">
	<!ENTITY st8 "stroke:none;">
	<!ENTITY st9 "fill:url(#aigrd4);stroke:none;">
]>
<svg  width="207.901pt" height="179.886pt" viewBox="0 0 207.901 179.886" xml:space="preserve">
	<g id="Layer_x0020_1" style="&st7;">
		<path style="&st2;" d="M145.326,178.648c-14.998,2.891-125.286,0.938-133.223-7.219c-7.936-8.152,47.936-44.455,67.649-46.859c19.713-2.404,116.354,10.576,126.931,21.154s-46.359,30.035-61.356,32.924z"/>
		<path style="&st8;" d="M22,0C9.869,0,0,9.869,0,22v129.791c0,12.131,9.869,22,22,22h115.802c12.131,0,22-9.869,22-22V22c0-12.131-9.869-22-22-22H22z"/>
		<linearGradient id="aigrd1" gradientUnits="userSpaceOnUse" x1="38.9507" y1="17.4941" x2="120.6731" y2="159.4595">
			<stop  offset="0" style="stop-color:#F0F0F0"/>
			<stop  offset="1" style="stop-color:#D6D6D6"/>
		</linearGradient>
		<path style="&st0;" d="M148.802,151.791c0,6.627-5.373,12-12,12H21c-6.627,0-12-5.373-12-12V22c0-6.627,5.373-12,12-12h115.802c6.627,0,12,5.373,12,12v129.791z"/>
		<g>
			<radialGradient id="aigrd2" cx="20.8921" cy="114.5669" r="5.257" fx="20.8921" fy="114.5669" gradientUnits="userSpaceOnUse">
				<stop  offset="0" style="stop-color:#F0F0F0"/>
				<stop  offset="1" style="stop-color:#474747"/>
			</radialGradient>
			<path style="&st5;" d="M23.428,113.07c0,1.973-1.6,3.572-3.573,3.572c-1.974,0-3.573-1.6-3.573-3.572s1.6-3.572,3.573-3.572c1.973,0,3.573,1.6,3.573,3.572z"/>
			<radialGradient id="aigrd3" cx="20.8921" cy="64.5674" r="5.2575" fx="20.8921" fy="64.5674" gradientUnits="userSpaceOnUse">
				<stop  offset="0" style="stop-color:#F0F0F0"/>
				<stop  offset="1" style="stop-color:#474747"/>
			</radialGradient>
			<path style="&st1;" d="M23.428,63.07c0,1.973-1.6,3.573-3.573,3.573c-1.974,0-3.573-1.6-3.573-3.573c0-1.974,1.6-3.573,3.573-3.573c1.973,0,3.573,1.6,3.573,3.573z"/>
		</g>
		<path style="&st3;" d="M31.679,163.71h-1.613V12.642h1.613V163.71z"/>
		<linearGradient id="aigrd4" gradientUnits="userSpaceOnUse" x1="30.1479" y1="16.8433" x2="28.364" y2="158.2251">
			<stop  offset="0" style="stop-color:#EDEDED"/>
			<stop  offset="1" style="stop-color:#CACACA"/>
		</linearGradient>
		<path style="&st9;" d="M30.054,163.71h-1.613V12.642h1.613V163.71z"/>
		<path style="&st3;" d="M14.393,26.155l-2.618,133.308c-1.902-1.9-2.662-6.035-2.662-6.035L8.952,21.509c0,0-0.159-3.403,2.963-7.335c3.16-3.98,8.421-4.22,8.421-4.22l118.165,0.168l-113.615,5.54c-4.588,0-7.045,2.273-8.048,3.467
			c-0.812,0.967-2.392,4.104-2.445,7.026z"/>
		<path style="&st6;" d="M143.945,147.664l2.617-133.307c1.902,1.9,2.662,6.035,2.662,6.035l0.161,131.918c0,0,0.159,3.402-2.963,7.334c-3.159,3.98-8.421,4.221-8.421,4.221l-118.166-0.168l113.616-5.541c4.588,0,7.045-2.273,8.048-3.467
			c0.812-0.967,2.392-4.104,2.445-7.025z"/>
		<g style="&st8;">
			<path style="&st4;" d="M119.955,142.436H42.608v-13.613h77.346v13.613z"/>
			<path style="&st4;" d="M100.753,122.436H62.608v-13.613h38.145v13.613z"/>
			<path style="&st4;" d="M58.604,122.436H42.608v-13.613h15.996v13.613z"/>
			<path style="&st4;" d="M117.144,102.436H42.608V88.823h74.536v13.613z"/>
			<path style="&st4;" d="M129.789,82.437h-47.18V68.823h47.18v13.614z"/>
			<path style="&st4;" d="M76.869,82.437H42.608V68.823h34.261v13.614z"/>
			<path style="&st4;" d="M89.514,62.437H42.608V48.823h46.905v13.614z"/>
			<path style="&st4;" d="M123.233,42.437H42.608V28.823h80.625v13.614z"/>
		</g>
	</g>
	<g id="Layer_x0020_2" style="&st7;">
		<g style="&st8;">
			<path d="M94.798,143.75c-2.04,0-3.48-1.62-3.48-3.78s1.5-3.78,3.6-3.78c2.1,0,3.54,1.561,3.54,3.78c0,2.16-1.44,3.78-3.6,3.78h-0.06z"/>
			<path d="M125.698,142.07c-1.381,0.659-4.441,1.68-8.341,1.68c-8.761,0-14.46-5.94-14.46-14.88c0-8.94,6.12-15.48,15.6-15.48c3.121,0,5.881,0.78,7.32,1.56l-1.199,4.021c-1.261-0.66-3.24-1.38-6.121-1.38c-6.66,0-10.26,4.979-10.26,11.04
				c0,6.72,4.32,10.86,10.08,10.86c3,0,4.98-0.721,6.48-1.381l0.9,3.961z"/>
		</g>
	</g>
</svg>
