<?xml version="1.0" encoding="iso-8859-1"?>
<!-- Generator: Adobe Illustrator 9.0, SVG Export Plug-In  -->
<!DOCTYPE svg PUBLIC "-//W3C//DTD SVG 20000303 Stylable//EN"   "http://www.w3.org/TR/2000/03/WD-SVG-20000303/DTD/svg-20000303-stylable.dtd" [
	<!ENTITY st0 "opacity:0.22;stroke:none;">
	<!ENTITY st1 "fill:url(#aigrd14);stroke:none;">
	<!ENTITY st2 "fill:url(#aigrd1);stroke:none;">
	<!ENTITY st3 "fill:#000000;stroke:none;">
	<!ENTITY st4 "fill:#535445;stroke:none;">
	<!ENTITY st5 "fill:url(#aigrd11);stroke:none;">
	<!ENTITY st6 "opacity:0.08;stroke:none;">
	<!ENTITY st7 "opacity:0.35;fill:#000000;stroke:none;">
	<!ENTITY st8 "fill:url(#aigrd9);stroke:none;">
	<!ENTITY st9 "fill:#CAD071;stroke:none;">
	<!ENTITY st10 "fill:url(#aigrd6);stroke:none;">
	<!ENTITY st11 "fill:url(#aigrd3);stroke:none;">
	<!ENTITY st12 "fill-rule:nonzero;clip-rule:nonzero;fill:#FFFFFF;stroke:#000000;stroke-miterlimit:4;">
	<!ENTITY st13 "fill:#A3A76A;stroke:none;">
	<!ENTITY st14 "fill:url(#aigrd10);stroke:none;">
	<!ENTITY st15 "fill:url(#aigrd8);stroke:none;">
	<!ENTITY st16 "fill:#FFFFFF;stroke:none;">
	<!ENTITY st17 "fill:url(#aigrd5);stroke:none;">
	<!ENTITY st18 "opacity:0.55;fill:#FFFFFF;stroke:none;">
	<!ENTITY st19 "opacity:0.36;fill:#FFFFFF;stroke:none;">
	<!ENTITY st20 "fill:url(#aigrd15);stroke:none;">
	<!ENTITY st21 "fill:url(#aigrd2);stroke:none;">
	<!ENTITY st22 "fill:#BEBEBE;stroke:none;">
	<!ENTITY st23 "fill:url(#aigrd12);stroke:none;">
	<!ENTITY st24 "fill:#F0F970;stroke:none;">
	<!ENTITY st25 "fill-rule:nonzero;clip-rule:nonzero;stroke:#000000;stroke-miterlimit:4;">
	<!ENTITY st26 "fill:url(#aigrd7);stroke:none;">
	<!ENTITY st27 "stroke:none;">
	<!ENTITY st28 "fill:#2A2A26;stroke:none;">
	<!ENTITY st29 "fill:url(#aigrd4);stroke:none;">
	<!ENTITY st30 "opacity:0.53;fill:url(#aigrd13);stroke:none;">
	<!ENTITY st31 "fill:#7B7D5B;stroke:none;">
]>
<svg  width="207.901pt" height="179.887pt" viewBox="0 0 207.901 179.887" xml:space="preserve">
	<g id="Layer_x0020_1" style="&st12;">
		<path style="&st7;" d="M145.326,178.648c-14.998,2.891-125.286,0.938-133.223-7.219c-7.936-8.153,47.936-44.456,67.649-46.86c19.713-2.404,116.354,10.577,126.931,21.155s-46.359,30.034-61.356,32.924z"/>
		<path style="&st3;" d="M22,0C9.869,0,0,9.869,0,22v129.791c0,12.131,9.869,22,22,22h115.802c12.131,0,22-9.869,22-22V22c0-12.131-9.869-22-22-22H22z"/>
		<linearGradient id="aigrd1" gradientUnits="userSpaceOnUse" x1="38.9497" y1="17.4937" x2="120.6721" y2="159.459">
			<stop  offset="0" style="stop-color:#F0F0F0"/>
			<stop  offset="1" style="stop-color:#D6D6D6"/>
		</linearGradient>
		<path style="&st2;" d="M148.802,151.791c0,6.627-5.373,12-12,12H21c-6.627,0-12-5.373-12-12V22c0-6.627,5.373-12,12-12h115.802c6.627,0,12,5.373,12,12v129.791z"/>
		<g>
			<radialGradient id="aigrd2" cx="20.8921" cy="114.5684" r="5.256" fx="20.8921" fy="114.5684" gradientUnits="userSpaceOnUse">
				<stop  offset="0" style="stop-color:#F0F0F0"/>
				<stop  offset="1" style="stop-color:#474747"/>
			</radialGradient>
			<path style="&st21;" d="M23.428,113.07c0,1.973-1.6,3.572-3.573,3.572c-1.974,0-3.573-1.6-3.573-3.572c0-1.974,1.6-3.573,3.573-3.573c1.973,0,3.573,1.6,3.573,3.573z"/>
			<radialGradient id="aigrd3" cx="20.8921" cy="64.5679" r="5.257" fx="20.8921" fy="64.5679" gradientUnits="userSpaceOnUse">
				<stop  offset="0" style="stop-color:#F0F0F0"/>
				<stop  offset="1" style="stop-color:#474747"/>
			</radialGradient>
			<path style="&st11;" d="M23.428,63.07c0,1.973-1.6,3.573-3.573,3.573c-1.974,0-3.573-1.6-3.573-3.573c0-1.974,1.6-3.573,3.573-3.573c1.973,0,3.573,1.6,3.573,3.573z"/>
		</g>
		<path style="&st27;" d="M31.679,163.711h-1.613V12.642h1.613v151.069z"/>
		<linearGradient id="aigrd4" gradientUnits="userSpaceOnUse" x1="30.1479" y1="16.8438" x2="28.364" y2="158.226">
			<stop  offset="0" style="stop-color:#EDEDED"/>
			<stop  offset="1" style="stop-color:#CACACA"/>
		</linearGradient>
		<path style="&st29;" d="M30.054,163.711h-1.613V12.642h1.613v151.069z"/>
		<path style="&st27;" d="M14.393,26.155l-2.618,133.308c-1.902-1.901-2.662-6.036-2.662-6.036L8.952,21.509c0,0-0.159-3.403,2.963-7.335c3.16-3.98,8.421-4.22,8.421-4.22l118.165,0.168l-113.615,5.54c-4.588,0-7.045,2.273-8.048,3.467
			c-0.812,0.967-2.392,4.104-2.445,7.026z"/>
		<path style="&st22;" d="M143.945,147.664l2.617-133.308c1.902,1.9,2.662,6.035,2.662,6.035l0.161,131.918c0,0,0.159,3.402-2.963,7.335c-3.159,3.98-8.421,4.22-8.421,4.22l-118.166-0.168l113.616-5.54c4.588,0,7.045-2.273,8.048-3.467
			c0.812-0.967,2.392-4.104,2.445-7.025z"/>
	</g>
	<g id="Layer_x0020_2" style="&st25;">
		<path style="&st27;" d="M133.788,76.916c0,0-1.638-0.487-2.087-0.621c-1.344-1.12-3.036-1.805-4.869-1.952c-0.142-0.04-4.646-1.316-6.368-1.805c1.372-9.644,3.805-12.891,4.587-13.261c1.786-0.846,2.94-2.669,2.94-4.644l-0.021-0.464
			c-0.196-2.14-1.72-3.948-3.795-4.503l-43.696-11.67c-1.11-0.296-2.302-0.209-3.357,0.244c-5.661,2.436-9.034,9.385-10.311,21.201c-4.662,1.904-10.294,7.46-17.164,16.929c-0.356,0.278-8.405,6.561-8.405,6.561c-1.257,0.98-1.978,2.457-1.978,4.052v23.723
			c0,2.193,1.394,4.146,3.468,4.859c0.001,0,58.896,20.258,58.896,20.258c1.795,0.618,3.775,0.198,5.167-1.093l28.378-26.323c1.006-0.932,1.604-2.253,1.643-3.622l0.646-22.796c0-0.004,0.002-0.146,0.002-0.146c0-2.257-1.511-4.282-3.676-4.926z"/>
		<linearGradient id="aigrd5" gradientUnits="userSpaceOnUse" x1="104.0967" y1="120.6924" x2="132.3503" y2="87.4303">
			<stop  offset="0" style="stop-color:#9F9F9F"/>
			<stop  offset="1" style="stop-color:#828282"/>
		</linearGradient>
		<path style="&st17;" d="M131.779,83.522l-0.553,19.531c0,0.768-0.297,1.441-0.681,1.827l-25.789,23.919c-0.962,0.962-1.944-0.07-1.944-1.029l0-20.89l27.755-24.244l1.212,0.886z"/>
		<linearGradient id="aigrd6" gradientUnits="userSpaceOnUse" x1="48.5195" y1="106.7813" x2="98.3041" y2="110.367">
			<stop  offset="0" style="stop-color:#F8F8F8"/>
			<stop  offset="1" style="stop-color:#B5B5B5"/>
		</linearGradient>
		<path style="&st10;" d="M45.987,111.109c1.196,0.412,54.046,18.588,54.046,18.588c1.013,0.321,2.772,0.183,2.771-2.216l0-20.554L46.019,87.397c-1.13-0.368-2.111,0.401-2.111,1.184c0,0,0,17.928,0,19.313c0,1.716,0.753,2.759,2.079,3.215z"/>
		<linearGradient id="aigrd7" gradientUnits="userSpaceOnUse" x1="116.5991" y1="84.1548" x2="73.6268" y2="86.1243">
			<stop  offset="0" style="stop-color:#CFCFCF"/>
			<stop  offset="1" style="stop-color:#FFFFFF"/>
		</linearGradient>
		<path style="&st26;" d="M130.214,81.05l-57.28-17.035L45.573,85.374c-1.068,0.817,0.246,1.991,0.246,1.991l56.986,19.563l27.762-24.292l-0.353-1.585z"/>
		<linearGradient id="aigrd8" gradientUnits="userSpaceOnUse" x1="106.5869" y1="101.125" x2="124.5027" y2="80.0333">
			<stop  offset="0" style="stop-color:#9F9F9F"/>
			<stop  offset="1" style="stop-color:#828282"/>
		</linearGradient>
		<path style="&st15;" d="M103.1,103.796l25.347-22.583c0,0-3.322-6.032-12.924,3.569c-9.601,9.601-12.423,19.014-12.423,19.014z"/>
		<linearGradient id="aigrd9" gradientUnits="userSpaceOnUse" x1="54.2666" y1="90.0098" x2="139.6121" y2="73.1994">
			<stop  offset="0" style="stop-color:#F8F8F8"/>
			<stop  offset="1" style="stop-color:#B5B5B5"/>
		</linearGradient>
		<path style="&st8;" d="M125.721,79.42L70.194,63.467c-7.297,0-21.186,21.873-21.186,21.873l54.091,18.456c0.746-3.191,13.787-24.376,22.622-24.376z"/>
		<linearGradient id="aigrd10" gradientUnits="userSpaceOnUse" x1="84.541" y1="76.3291" x2="62.481" y2="77.9047">
			<stop  offset="0" style="stop-color:#F8F8F8"/>
			<stop  offset="1" style="stop-color:#343434"/>
		</linearGradient>
		<path style="&st14;" d="M70.737,66.576l-5.644,5.644l43.355,13.142l5.644-5.644L70.737,66.576z"/>
		<linearGradient id="aigrd11" gradientUnits="userSpaceOnUse" x1="98.6909" y1="48.8994" x2="85.6441" y2="102.9509">
			<stop  offset="0" style="stop-color:#FFFFFF"/>
			<stop  offset="0.2401" style="stop-color:#FBFBFB"/>
			<stop  offset="0.4951" style="stop-color:#EEEEEE"/>
			<stop  offset="0.756" style="stop-color:#D9D9D9"/>
			<stop  offset="1" style="stop-color:#BEBEBE"/>
		</linearGradient>
		<path style="&st5;" d="M122.355,54.321l-43.697-11.67c-9.02,3.88-7.713,31.342-7.713,31.342l37.503,11.71l5.644-5.644c0,0,0.604-22.111,8.263-25.739z"/>
		<linearGradient id="aigrd12" gradientUnits="userSpaceOnUse" x1="99.5747" y1="104.3408" x2="86.3161" y2="100.3158">
			<stop  offset="0" style="stop-color:#F0F0F0"/>
			<stop  offset="1" style="stop-color:#FFFFFF"/>
		</linearGradient>
		<path style="&st23;" d="M45.439,86.188l-0.784,1.389c0,0,56.701,18.955,57.264,19.885c0.683,1.131,0.977,18.484,0.977,18.484s0.258-17.038,0.942-18.537c0.684-1.499,17.862-16.947,17.862-16.947s-18.108,15.844-19.229,15.844c-1.122,0-57.033-20.118-57.033-20.118
			z"/>
		<g>
			<g>
				<path style="&st27;" d="M97.672,110.423l-0.12,2.322l-5.689-2.226l0.042-2.115l5.767,2.019z"/>
				<path style="&st28;" d="M97.546,110.389l-0.106,2.079l-5.114-1.995l0.038-1.895l5.183,1.811z"/>
				<path style="&st4;" d="M97.42,110.354l-0.094,1.837l-4.538-1.765l0.032-1.673l4.6,1.601z"/>
				<path style="&st31;" d="M97.294,110.319l-0.081,1.594l-3.963-1.534l0.027-1.452l4.016,1.393z"/>
				<path style="&st13;" d="M97.168,110.284l-0.068,1.352l-3.387-1.305l0.022-1.23l3.433,1.184z"/>
				<path style="&st9;" d="M97.042,110.25l-0.055,1.108l-2.812-1.074l0.017-1.009l2.849,0.975z"/>
				<path style="&st24;" d="M96.917,110.215l-0.042,0.866l-2.235-0.844l0.012-0.788l2.266,0.766z"/>
			</g>
		</g>
		<path style="&st16;" d="M43.901,88.51c0-1.273,0.349-2.27,1.672-3.136c0,0-0.433,0.747,0.231,2.019c-1.497-0.226-1.903,1.118-1.903,1.118z"/>
		<path style="&st6;" d="M120.859,54.888c-5.548,2.545-7.853,21.35-7.17,24.707l-0.752,0.752c-0.797-2.499,1.362-24.741,7.922-25.459z"/>
		<path style="&st0;" d="M79.427,47.931l33.351,8.651c-1.09,0.718-2.021,4.466-2.021,4.466l-33.175-9.144c0,0,0.356-3.334,1.845-3.973z"/>
		<path style="&st0;" d="M76.625,55.944l-0.744,4.147l32.62,8.802l0.98-4.23l-32.856-8.719z"/>
		<path style="&st0;" d="M75.561,64.451l-0.189,4.596l32.515,8.908l0.343-4.596l-32.668-8.908z"/>
		<path style="&st19;" d="M65.093,72.219l43.459,14.676l5.54-6.835l-5.826,5.618L65.093,72.219z"/>
		<path style="&st0;" d="M114.092,80.06l7.286,0.738c1.212-0.738,3.247-1.378,4.343-1.378l-11.381-3.27l-0.248,3.909z"/>
		<path style="&st18;" d="M103.1,103.796c1-5.644,14.527-23.882,22.622-24.376c-12.784,0.927-23.403,21.915-22.622,24.376z"/>
		<path style="&st16;" d="M49.009,85.34c3.873-5.672,14.233-18.7,20.774-21.761c-7.627,0.927-18.202,17.458-20.774,21.761z"/>
		<linearGradient id="aigrd13" gradientUnits="userSpaceOnUse" x1="91.9175" y1="77.3296" x2="90.7684" y2="82.3685">
			<stop  offset="0" style="stop-color:#F8F8F8"/>
			<stop  offset="1" style="stop-color:#343434"/>
		</linearGradient>
		<path style="&st30;" d="M70.945,73.993l37.321,11.684l4.477-4.375c-3.541,1.41-41.797-7.309-41.797-7.309z"/>
		<linearGradient id="aigrd14" gradientUnits="userSpaceOnUse" x1="102.4463" y1="127.8135" x2="102.4463" y2="129.234">
			<stop  offset="0" style="stop-color:#9F9F9F"/>
			<stop  offset="1" style="stop-color:#828282"/>
		</linearGradient>
		<path style="&st1;" d="M102.804,126.714c0,0-1.009,2.691-2.392,3.073c1.191,0.381,2.95,0.25,4.069-0.738c-0.935,0-1.677-2.335-1.677-2.335z"/>
		<linearGradient id="aigrd15" gradientUnits="userSpaceOnUse" x1="129.9722" y1="83.4912" x2="131.2044" y2="82.0406">
			<stop  offset="0" style="stop-color:#9F9F9F"/>
			<stop  offset="1" style="stop-color:#AAAAAA"/>
		</linearGradient>
		<path style="&st20;" d="M130.214,81.05c0.761,0,1.593,1.465,1.564,2.472c0,0-1.297-0.766-2.227,0c0.962-1.125,0.662-2.472,0.662-2.472z"/>
	</g>
</svg>
