<?xml version="1.0" encoding="iso-8859-1"?>
<!DOCTYPE svg PUBLIC "-//W3C//DTD SVG 20000303 Stylable//EN"   "http://www.w3.org/TR/2000/03/WD-SVG-20000303/DTD/svg-20000303-stylable.dtd">
<!-- Generator: Adobe Illustrator 9.0, SVG Export Plug-In  -->
<svg  width="244.564pt" height="193.006pt" viewBox="0 0 244.564 193.006" xml:space="preserve">
	<g id="Layer_x0020_3" style="fill-rule:nonzero;clip-rule:nonzero;stroke:#000000;stroke-miterlimit:4;">
		<path style="opacity:0.35;stroke:none;" d="M243.346,158.844c-3.98-3.98-20.156-8.303-39.832-12.016c-0.213-0.49-0.537-0.965-0.994-1.422c-10.576-10.578-107.218-23.559-126.931-21.154c-19.714,2.404-75.585,38.707-67.649,46.859
			c2.999,3.082,20.608,5.277,42.166,6.662c-2.122,2.928-2.768,5.309-1.34,6.775c7.937,8.156,118.226,10.109,133.224,7.219c14.996-2.889,71.934-22.346,61.355-32.924z"/>
		<path style="stroke:none;" d="M22,0C9.869,0,0,9.869,0,22v129.791c0,12.131,9.869,22,22,22h115.803c12.131,0,22-9.869,22-22V22c0-12.131-9.869-22-22-22H22z"/>
		<linearGradient id="aigrd1" gradientUnits="userSpaceOnUse" x1="38.9507" y1="17.4941" x2="120.6731" y2="159.4595">
			<stop  offset="0" style="stop-color:#F0F0F0"/>
			<stop  offset="1" style="stop-color:#D6D6D6"/>
		</linearGradient>
		<path style="fill:url(#aigrd1);stroke:none;" d="M148.803,151.791c0,6.627-5.373,12-12,12H21c-6.627,0-12-5.373-12-12V22c0-6.628,5.373-12,12-12h115.803c6.627,0,12,5.372,12,12v129.791z"/>
		<g>
			<radialGradient id="aigrd2" cx="20.8916" cy="114.5674" r="5.2576" fx="20.8916" fy="114.5674" gradientUnits="userSpaceOnUse">
				<stop  offset="0" style="stop-color:#F0F0F0"/>
				<stop  offset="1" style="stop-color:#474747"/>
			</radialGradient>
			<path style="fill:url(#aigrd2);stroke:none;" d="M23.428,113.07c0,1.973-1.6,3.572-3.573,3.572c-1.974,0-3.573-1.6-3.573-3.572c0-1.975,1.6-3.574,3.573-3.574c1.973,0,3.573,1.6,3.573,3.574z"/>
			<radialGradient id="aigrd3" cx="20.8916" cy="64.5674" r="5.2576" fx="20.8916" fy="64.5674" gradientUnits="userSpaceOnUse">
				<stop  offset="0" style="stop-color:#F0F0F0"/>
				<stop  offset="1" style="stop-color:#474747"/>
			</radialGradient>
			<path style="fill:url(#aigrd3);stroke:none;" d="M23.428,63.07c0,1.973-1.6,3.572-3.573,3.572c-1.974,0-3.573-1.6-3.573-3.572c0-1.974,1.6-3.573,3.573-3.573c1.973,0,3.573,1.6,3.573,3.573z"/>
		</g>
		<path style="fill:#FFFFFF;stroke:none;" d="M31.679,163.711h-1.613V12.642h1.613v151.069z"/>
		<linearGradient id="aigrd4" gradientUnits="userSpaceOnUse" x1="30.1479" y1="16.8433" x2="28.364" y2="158.2256">
			<stop  offset="0" style="stop-color:#EDEDED"/>
			<stop  offset="1" style="stop-color:#CACACA"/>
		</linearGradient>
		<path style="fill:url(#aigrd4);stroke:none;" d="M30.054,163.711h-1.613V12.642h1.613v151.069z"/>
		<path style="fill:#FFFFFF;stroke:none;" d="M14.393,26.154l-2.618,133.309c-1.902-1.902-2.662-6.037-2.662-6.037L8.952,21.509c0,0-0.159-3.402,2.963-7.335c3.16-3.98,8.421-4.22,8.421-4.22l118.166,0.168l-113.616,5.54c-4.588,0-7.045,2.273-8.048,3.467
			c-0.812,0.967-2.392,4.104-2.445,7.025z"/>
		<path style="fill:#BEBEBE;stroke:none;" d="M143.945,147.664l2.617-133.308c1.902,1.9,2.662,6.035,2.662,6.035l0.162,131.917c0,0,0.158,3.402-2.963,7.336c-3.16,3.98-8.422,4.219-8.422,4.219l-118.167-0.168l113.617-5.539c4.588,0,7.045-2.273,8.047-3.467
			c0.813-0.967,2.393-4.105,2.445-7.025z"/>
		<path style="opacity:0.1;stroke:none;" d="M54.112,40.874c0,0,85.591-3.377,98.03-8.942v13.094l-98.03-4.151"/>
		<path style="stroke:none;" d="M57.413,40.548c-9.323,0-16.908,7.584-16.908,16.907v113.287c0,9.322,7.584,16.908,16.908,16.908h120.365c9.322,0,16.906-7.586,16.906-16.908V57.455c0-9.323-7.584-16.907-16.906-16.907H57.413z"/>
		<linearGradient id="aigrd5" gradientUnits="userSpaceOnUse" x1="81.9565" y1="52.1885" x2="154.8575" y2="178.8295">
			<stop  offset="0" style="stop-color:#D2D2D2"/>
			<stop  offset="1" style="stop-color:#EDEDED"/>
		</linearGradient>
		<path style="fill:url(#aigrd5);stroke:none;" d="M186.227,168.004c0,6.273-5.086,11.357-11.359,11.357H60.321c-6.272,0-11.357-5.084-11.357-11.357V60.192c0-6.272,5.084-11.357,11.357-11.357h114.546c6.273,0,11.359,5.085,11.359,11.357v107.812z"/>
		<linearGradient id="aigrd6" gradientUnits="userSpaceOnUse" x1="118.981" y1="84.4795" x2="118.981" y2="147.5473">
			<stop  offset="0" style="stop-color:#70717D"/>
			<stop  offset="1" style="stop-color:#B1A1B0"/>
		</linearGradient>
		<path style="fill:url(#aigrd6);stroke:none;" d="M176.125,153.416H61.838V75.574h114.287v77.842z"/>
		<path style="fill:#FCFCFC;stroke:none;" d="M53.513,62.321l-2.208,112.452c-1.604-1.604-2.245-5.092-2.245-5.092L48.923,58.403c0,0-0.134-2.87,2.5-6.188c2.666-3.358,7.104-3.561,7.104-3.561l99.678,0.143l-95.84,4.673c-3.871,0-5.943,1.918-6.789,2.925
			c-0.685,0.815-2.018,3.462-2.063,5.926z"/>
		<path style="fill:#BEBEBE;stroke:none;" d="M181.551,165.289l2.4-111.911c1.592,1.593,2.189,5.431,2.189,5.431l-0.031,110.373c0,0,0.133,2.85-2.482,6.146c-2.648,3.336-7.484,3.963-7.484,3.963l-98.934,0.07l95.549-5.281c3.844,0,5.904-1.904,6.742-2.904
			c0.682-0.809,2.006-3.439,2.051-5.887z"/>
		<path style="fill:#BEBEBE;stroke:none;" d="M176.125,75.574l2.639-2.699L59.101,72.608l0.156,83.759l2.581-2.951V75.574h114.287z"/>
		<path style="fill:#FFFFFF;stroke:none;" d="M59.257,156.367l119.507-0.27V72.875l-2.639,2.699v77.842H61.838l-2.581,2.951z"/>
		<path style="stroke:none;" d="M61.838,75.574v77.842h114.287V75.574H61.838z M173.754,151.002H64.208V77.989h109.546v73.013z"/>
	</g>
	<g id="Layer_x0020_2" style="fill-rule:nonzero;clip-rule:nonzero;stroke:#000000;stroke-miterlimit:4;">
		<path style="opacity:0.3;stroke:none;" d="M109.432,99.778c-4.906-4.905-36.539-13.369-24.723,6.875c5.98,10.248-10.226,20.59-1.382,33.993c10.662,16.158,40.557-0.615,24.043-15.753c-11.607-10.64,6.968-20.209,2.062-25.115z"/>
		<radialGradient id="aigrd7" cx="85.5645" cy="96.1108" r="57.2439" fx="85.5645" fy="96.1108" gradientUnits="userSpaceOnUse">
			<stop  offset="0" style="stop-color:#23ACCD"/>
			<stop  offset="1" style="stop-color:#274773"/>
		</radialGradient>
		<path style="fill:url(#aigrd7);stroke-width:2;" d="M107.599,97.18c-4.905-4.905-37.15-11.951-25.335,8.293c5.98,10.248-10.226,20.589-1.381,33.993c10.662,16.157,40.556-0.615,24.043-15.753c-11.607-10.64,7.579-21.627,2.673-26.533z"/>
		<path style="stroke:none;" d="M120.413,107.324h-2.728l-9.304-9.303c0.131-0.198,0.208-0.434,0.208-0.688c0-0.69-0.558-1.249-1.248-1.249c-0.255,0-0.49,0.077-0.688,0.208l-9.562-9.563V83.75h-0.25h-3.083v3.333h2.979l9.563,9.563
			c-0.132,0.197-0.208,0.434-0.208,0.688c0,0.69,0.559,1.25,1.249,1.25c0.253,0,0.49-0.077,0.688-0.208l9.303,9.304v2.979h3.333v-3.333h-0.251z M96.59,86.583c-0.375,0-1.958,0-2.333,0c0-0.375,0-1.958,0-2.333c0.375,0,1.958,0,2.333,0c0,0.375,0,1.958,0,2.333z
			 M120.163,110.157c-0.375,0-1.956,0-2.332,0c0-0.375,0-1.958,0-2.333c0.376,0,1.957,0,2.332,0c0,0.375,0,1.958,0,2.333z"/>
		<path style="fill:#82D0E3;stroke:none;" d="M100.631,94.467c-19.438-5.274-22.016,0.787-19.916,6.417c1.329,3.563,4.273,7.319,3.344,11.026c-2.148,8.575-12.705,23.508,2.759,32.121c-13.452-9.927-2.043-25.396-1.042-31.418
			c1.002-6.021-15.22-23.289,14.854-18.146z"/>
		<path style="stroke:none;" d="M87.478,90.202V86.87h-0.251h-3.083v2.979l-3.086,3.087c-0.198-0.131-0.433-0.208-0.688-0.208c-0.69,0-1.249,0.559-1.249,1.248c0,0.255,0.077,0.491,0.208,0.688l-3.264,3.265h-2.979v3.333h3.332v-2.979l3.265-3.265
			c0.197,0.131,0.434,0.208,0.688,0.208c0.69,0,1.25-0.559,1.25-1.249c0-0.254-0.077-0.49-0.208-0.688l3.086-3.087h2.98z M84.644,87.37c0.375,0,1.958,0,2.334,0c0,0.375,0,1.957,0,2.332c-0.376,0-1.958,0-2.334,0c0-0.375,0-1.957,0-2.332z M73.584,100.762
			c0-0.375,0-1.958,0-2.333c0.362,0,1.841,0,2.28,0l0.053,0.052c0,0.44,0,1.918,0,2.281c-0.376,0-1.958,0-2.333,0z"/>
		<g style="stroke:none;">
			<path d="M123.98,138.934c-0.701,1.292-0.948,1.876-0.948,2.293c0,0.25,0.123,0.334,0.329,0.334c0.289,0,0.413,0.125,0.413,0.416c0,0.125-0.042,0.167-0.371,0.292l-3.381,1.501c-1.03,0.459-1.03,0.459-1.36,0.459c-0.288,0-0.494-0.209-0.494-0.501
				c0-0.708,0.783-2.293,2.597-5.336l11.707-19.719c0-0.291-0.082-0.375-0.246-0.375c-0.082,0-0.082,0-0.33,0.084h-0.123c-0.166,0-0.289-0.167-0.289-0.417c0-0.125,0.082-0.208,0.248-0.292l4.039-1.709c0.865-0.334,1.113-0.417,1.443-0.417
				c0.412,0,0.617,0.25,0.701,0.917l3.42,21.97c0.33,2.167,0.578,2.71,1.154,2.71c0.248,0,0.371-0.042,0.867-0.209c0.205-0.083,0.287-0.083,0.328-0.083c0.166,0,0.33,0.167,0.33,0.375c0,0.125-0.082,0.208-0.246,0.292l-4.742,2.043
				c-1.236,0.542-1.482,0.625-2.061,0.625c-0.865,0-1.154-0.459-1.402-2.126l-1.195-9.005c-2.68,1.125-3.627,1.376-5.029,1.376h-2.968l-2.391,4.502z M133.502,126.302c-0.123-0.833-0.371-3.752-0.371-4.168v-0.417c-0.289,1.001-0.617,1.709-1.607,3.544l-3.133,5.627
				c-0.206,0.375-0.288,0.5-0.577,0.793c0.33-0.084,0.495-0.084,0.66-0.084h5.689l-0.66-5.295z"/>
			<path d="M156.463,139.976c0.289-1.334,0.412-1.959,0.66-2.918c-0.865,1.043-1.648,1.793-3.793,3.627c-2.885,2.46-4.617,3.419-6.225,3.419c-1.648,0-2.596-1.335-2.596-3.585c0-5.545,3.461-11.34,8.656-14.467c2.885-1.75,5.646-2.376,10.182-2.376h0.742
				c0.248,0,0.453,0.167,0.412,0.333l-0.041,0.125l-2.514,13.008c-0.207,1.084-0.289,1.875-0.33,2.293c-0.041,0.541,0.33,0.958,0.824,0.958c0.66,0,1.648-0.417,2.926-1.208c0.412-0.293,0.537-0.334,0.619-0.334c0.164,0,0.33,0.208,0.33,0.375
				c0,0.084-0.041,0.166-0.207,0.25l-3.504,2.293c-2.309,1.501-4.121,2.335-5.111,2.335c-0.947,0-1.402-0.459-1.402-1.46c0-0.5,0.043-1,0.207-1.834l0.164-0.834z M158.771,126.928c-0.494-0.042-0.699-0.042-1.07-0.042c-1.279,0-2.434,0.084-3.547,0.25
				c-1.441,1.626-2.309,3.043-3.049,5.003c-0.66,1.834-1.154,4.169-1.154,5.628c0,1.543,0.494,2.251,1.482,2.251c1.279,0,3.711-1.542,5.484-3.46l1.854-9.63z"/>
		</g>
	</g>
</svg>
