<?xml version="1.0" encoding="iso-8859-1"?>
<!-- Generator: Adobe Illustrator 9.0, SVG Export Plug-In  -->
<!DOCTYPE svg PUBLIC "-//W3C//DTD SVG 20000303 Stylable//EN"   "http://www.w3.org/TR/2000/03/WD-SVG-20000303/DTD/svg-20000303-stylable.dtd" [
	<!ENTITY st0 "fill:url(#aigrd14);stroke:none;">
	<!ENTITY st1 "fill:url(#aigrd1);stroke:none;">
	<!ENTITY st2 "fill:#000000;stroke:none;">
	<!ENTITY st3 "fill:url(#aigrd11);stroke:none;">
	<!ENTITY st4 "opacity:0.35;fill:#000000;stroke:none;">
	<!ENTITY st5 "fill:url(#aigrd9);stroke:none;">
	<!ENTITY st6 "fill:url(#aigrd19);stroke:none;">
	<!ENTITY st7 "fill:url(#aigrd6);stroke:none;">
	<!ENTITY st8 "fill:url(#aigrd16);stroke:none;">
	<!ENTITY st9 "fill:url(#aigrd3);stroke:none;">
	<!ENTITY st10 "fill:url(#aigrd13);stroke:none;">
	<!ENTITY st11 "fill-rule:nonzero;clip-rule:nonzero;fill:#FFFFFF;stroke:#000000;stroke-miterlimit:4;">
	<!ENTITY st12 "fill:url(#aigrd10);stroke:none;">
	<!ENTITY st13 "fill:url(#aigrd8);stroke:none;">
	<!ENTITY st14 "fill:url(#aigrd18);stroke:none;">
	<!ENTITY st15 "fill:url(#aigrd5);stroke:none;">
	<!ENTITY st16 "fill:url(#aigrd15);stroke:none;">
	<!ENTITY st17 "fill:url(#aigrd2);stroke:none;">
	<!ENTITY st18 "fill:#BEBEBE;stroke:none;">
	<!ENTITY st19 "fill:url(#aigrd12);stroke:none;">
	<!ENTITY st20 "fill-rule:nonzero;clip-rule:nonzero;stroke:#000000;stroke-miterlimit:4;">
	<!ENTITY st21 "fill:url(#aigrd7);stroke:none;">
	<!ENTITY st22 "stroke:none;">
	<!ENTITY st23 "fill:url(#aigrd17);stroke:none;">
	<!ENTITY st24 "fill:url(#aigrd4);stroke:none;">
]>
<svg  width="207.901pt" height="179.886pt" viewBox="0 0 207.901 179.886" xml:space="preserve">
	<g id="Layer_x0020_1" style="&st11;">
		<path style="&st4;" d="M145.326,178.648c-14.998,2.891-125.286,0.938-133.223-7.219c-7.936-8.152,47.936-44.455,67.649-46.859c19.713-2.404,116.354,10.576,126.931,21.154s-46.359,30.035-61.356,32.924z"/>
		<path style="&st2;" d="M22,0C9.869,0,0,9.869,0,22v129.791c0,12.131,9.869,22,22,22h115.802c12.131,0,22-9.869,22-22V22c0-12.131-9.869-22-22-22H22z"/>
		<linearGradient id="aigrd1" gradientUnits="userSpaceOnUse" x1="38.9507" y1="17.4941" x2="120.6726" y2="159.4587">
			<stop  offset="0" style="stop-color:#F0F0F0"/>
			<stop  offset="1" style="stop-color:#D6D6D6"/>
		</linearGradient>
		<path style="&st1;" d="M148.802,151.791c0,6.627-5.373,12-12,12H21c-6.627,0-12-5.373-12-12V22c0-6.627,5.373-12,12-12h115.802c6.627,0,12,5.373,12,12v129.791z"/>
		<g>
			<radialGradient id="aigrd2" cx="20.8921" cy="114.5669" r="5.257" fx="20.8921" fy="114.5669" gradientUnits="userSpaceOnUse">
				<stop  offset="0" style="stop-color:#F0F0F0"/>
				<stop  offset="1" style="stop-color:#474747"/>
			</radialGradient>
			<path style="&st17;" d="M23.428,113.07c0,1.973-1.6,3.572-3.573,3.572c-1.974,0-3.573-1.6-3.573-3.572s1.6-3.572,3.573-3.572c1.973,0,3.573,1.6,3.573,3.572z"/>
			<radialGradient id="aigrd3" cx="20.8921" cy="64.5674" r="5.2575" fx="20.8921" fy="64.5674" gradientUnits="userSpaceOnUse">
				<stop  offset="0" style="stop-color:#F0F0F0"/>
				<stop  offset="1" style="stop-color:#474747"/>
			</radialGradient>
			<path style="&st9;" d="M23.428,63.07c0,1.973-1.6,3.573-3.573,3.573c-1.974,0-3.573-1.6-3.573-3.573c0-1.974,1.6-3.573,3.573-3.573c1.973,0,3.573,1.6,3.573,3.573z"/>
		</g>
		<path style="&st22;" d="M31.679,163.71h-1.613V12.642h1.613V163.71z"/>
		<linearGradient id="aigrd4" gradientUnits="userSpaceOnUse" x1="30.1475" y1="16.8433" x2="28.3635" y2="158.2251">
			<stop  offset="0" style="stop-color:#EDEDED"/>
			<stop  offset="1" style="stop-color:#CACACA"/>
		</linearGradient>
		<path style="&st24;" d="M30.054,163.71h-1.613V12.642h1.613V163.71z"/>
		<path style="&st22;" d="M14.393,26.155l-2.618,133.308c-1.902-1.9-2.662-6.035-2.662-6.035L8.952,21.509c0,0-0.159-3.403,2.963-7.335c3.16-3.98,8.421-4.22,8.421-4.22l118.165,0.168l-113.615,5.54c-4.588,0-7.045,2.273-8.048,3.467
			c-0.812,0.967-2.392,4.104-2.445,7.026z"/>
		<path style="&st18;" d="M143.945,147.664l2.617-133.307c1.902,1.9,2.662,6.035,2.662,6.035l0.161,131.918c0,0,0.159,3.402-2.963,7.334c-3.159,3.98-8.421,4.221-8.421,4.221l-118.166-0.168l113.616-5.541c4.588,0,7.045-2.273,8.048-3.467
			c0.812-0.967,2.392-4.104,2.445-7.025z"/>
	</g>
	<g id="Layer_x0020_2" style="&st20;">
		<path style="&st22;" d="M86.2,45.652l-20.141,9.562c0,0,0,5.861,0,8.319c-0.14-0.066-0.434-0.206-0.434-0.206L43.338,73.909v27.397l19.973,10.34c0,0,1.148,0.6,1.843,0.962c0,0.185,0,0.591,0,0.591l22.286,12.123l43.817-22.809V75.118
			c0,0-20.417-9.708-20.757-9.869c0-3.459,0-10.082,0-10.082L88.346,44.633L86.2,45.652z"/>
		<g>
			<g>
				<linearGradient id="aigrd5" gradientUnits="userSpaceOnUse" x1="105.1113" y1="89.3208" x2="88.8963" y2="77.8036">
					<stop  offset="0" style="stop-color:#6D6E66"/>
					<stop  offset="1" style="stop-color:#B0B1A4"/>
				</linearGradient>
				<path style="&st15;" d="M86.604,75.331v22.055l17.286-8.949V67.242l-17.286,8.088z"/>
				<linearGradient id="aigrd6" gradientUnits="userSpaceOnUse" x1="72.2769" y1="71.8818" x2="86.1554" y2="95.8735">
					<stop  offset="0" style="stop-color:#CECFBF"/>
					<stop  offset="1" style="stop-color:#A8AA9E"/>
				</linearGradient>
				<path style="&st7;" d="M86.734,75.38v22.056l-17.286-8.949V67.292l17.286,8.088z"/>
				<linearGradient id="aigrd7" gradientUnits="userSpaceOnUse" x1="79.1982" y1="64.1899" x2="102.1141" y2="73.4422">
					<stop  offset="0" style="stop-color:#EBEAD9"/>
					<stop  offset="1" style="stop-color:#C4C7B8"/>
				</linearGradient>
				<path style="&st21;" d="M103.89,67.242L86.734,75.38l-17.286-8.088l17.286-8.207l17.155,8.157z"/>
			</g>
			<g>
				<linearGradient id="aigrd8" gradientUnits="userSpaceOnUse" x1="83.4512" y1="99.0308" x2="67.2361" y2="87.5135">
					<stop  offset="0" style="stop-color:#6D6E66"/>
					<stop  offset="1" style="stop-color:#B0B1A4"/>
				</linearGradient>
				<path style="&st13;" d="M64.943,85.041v22.056l17.286-8.949V76.952l-17.286,8.088z"/>
				<linearGradient id="aigrd9" gradientUnits="userSpaceOnUse" x1="50.6162" y1="81.5913" x2="64.4947" y2="105.5829">
					<stop  offset="0" style="stop-color:#CECFBF"/>
					<stop  offset="1" style="stop-color:#A8AA9E"/>
				</linearGradient>
				<path style="&st5;" d="M65.074,85.09v22.055l-17.286-8.949V77.002l17.286,8.088z"/>
				<linearGradient id="aigrd10" gradientUnits="userSpaceOnUse" x1="57.5386" y1="73.9004" x2="80.4545" y2="83.1527">
					<stop  offset="0" style="stop-color:#EBEAD9"/>
					<stop  offset="1" style="stop-color:#C4C7B8"/>
				</linearGradient>
				<path style="&st12;" d="M82.229,76.952L65.074,85.09l-17.286-8.088l17.286-8.207l17.155,8.157z"/>
			</g>
			<g>
				<linearGradient id="aigrd11" gradientUnits="userSpaceOnUse" x1="126.9282" y1="100.2876" x2="110.7139" y2="88.7709">
					<stop  offset="0" style="stop-color:#6D6E66"/>
					<stop  offset="1" style="stop-color:#B0B1A4"/>
				</linearGradient>
				<path style="&st3;" d="M108.42,86.297v22.055l17.286-8.949V78.209l-17.286,8.088z"/>
				<linearGradient id="aigrd12" gradientUnits="userSpaceOnUse" x1="94.0923" y1="82.8481" x2="107.9708" y2="106.8398">
					<stop  offset="0" style="stop-color:#CECFBF"/>
					<stop  offset="1" style="stop-color:#A8AA9E"/>
				</linearGradient>
				<path style="&st19;" d="M108.55,86.347v22.055l-17.286-8.948V78.258l17.286,8.089z"/>
				<linearGradient id="aigrd13" gradientUnits="userSpaceOnUse" x1="101.0151" y1="75.1572" x2="123.9317" y2="84.4098">
					<stop  offset="0" style="stop-color:#EBEAD9"/>
					<stop  offset="1" style="stop-color:#C4C7B8"/>
				</linearGradient>
				<path style="&st10;" d="M125.707,78.209l-17.156,8.138l-17.286-8.089l17.286-8.207l17.156,8.157z"/>
			</g>
			<g>
				<linearGradient id="aigrd14" gradientUnits="userSpaceOnUse" x1="105.2681" y1="110.9233" x2="89.053" y2="99.4061">
					<stop  offset="0" style="stop-color:#6D6E66"/>
					<stop  offset="1" style="stop-color:#B0B1A4"/>
				</linearGradient>
				<path style="&st0;" d="M86.76,96.933v22.055l17.286-8.949V88.844L86.76,96.933z"/>
				<linearGradient id="aigrd15" gradientUnits="userSpaceOnUse" x1="72.4321" y1="93.4839" x2="86.3107" y2="117.4755">
					<stop  offset="0" style="stop-color:#CECFBF"/>
					<stop  offset="1" style="stop-color:#A8AA9E"/>
				</linearGradient>
				<path style="&st16;" d="M86.89,96.983v22.055l-17.286-8.949V88.894l17.286,8.089z"/>
				<linearGradient id="aigrd16" gradientUnits="userSpaceOnUse" x1="79.3545" y1="85.793" x2="102.2704" y2="95.0452">
					<stop  offset="0" style="stop-color:#EBEAD9"/>
					<stop  offset="1" style="stop-color:#C4C7B8"/>
				</linearGradient>
				<path style="&st8;" d="M104.046,88.844L86.89,96.983l-17.286-8.089l17.286-8.207l17.156,8.157z"/>
			</g>
			<g>
				<linearGradient id="aigrd17" gradientUnits="userSpaceOnUse" x1="106.1714" y1="80.3354" x2="89.957" y2="68.8188">
					<stop  offset="0" style="stop-color:#6D6E66"/>
					<stop  offset="1" style="stop-color:#B0B1A4"/>
				</linearGradient>
				<path style="&st23;" d="M87.665,66.346v22.055l17.286-8.949V58.258l-17.286,8.088z"/>
				<linearGradient id="aigrd18" gradientUnits="userSpaceOnUse" x1="73.3364" y1="62.8965" x2="87.215" y2="86.8881">
					<stop  offset="0" style="stop-color:#CECFBF"/>
					<stop  offset="1" style="stop-color:#A8AA9E"/>
				</linearGradient>
				<path style="&st14;" d="M87.794,66.396v22.055l-17.286-8.948V58.307l17.286,8.089z"/>
				<linearGradient id="aigrd19" gradientUnits="userSpaceOnUse" x1="80.2593" y1="55.2061" x2="103.1752" y2="64.4583">
					<stop  offset="0" style="stop-color:#EBEAD9"/>
					<stop  offset="1" style="stop-color:#C4C7B8"/>
				</linearGradient>
				<path style="&st6;" d="M104.95,58.258l-17.156,8.138l-17.286-8.089l17.286-8.207l17.156,8.157z"/>
			</g>
		</g>
	</g>
</svg>
