<?xml version="1.0" encoding="iso-8859-1"?>
<!-- Generator: Adobe Illustrator 9.0, SVG Export Plug-In  -->
<!DOCTYPE svg PUBLIC "-//W3C//DTD SVG 20000303 Stylable//EN"   "http://www.w3.org/TR/2000/03/WD-SVG-20000303/DTD/svg-20000303-stylable.dtd" [
	<!ENTITY st0 "opacity:0.22;stroke:none;">
	<!ENTITY st1 "fill:url(#aigrd1);stroke:none;">
	<!ENTITY st2 "fill:#000000;stroke:none;">
	<!ENTITY st3 "opacity:0.35;fill:#000000;stroke:none;">
	<!ENTITY st4 "fill:url(#aigrd3);stroke:none;">
	<!ENTITY st5 "fill-rule:nonzero;clip-rule:nonzero;fill:#FFFFFF;stroke:#000000;stroke-miterlimit:4;">
	<!ENTITY st6 "fill:#FFFFFF;stroke:none;">
	<!ENTITY st7 "fill:url(#aigrd5);stroke:none;">
	<!ENTITY st8 "fill:url(#aigrd2);stroke:none;">
	<!ENTITY st9 "fill:#BEBEBE;stroke:none;">
	<!ENTITY st10 "fill-rule:nonzero;clip-rule:nonzero;stroke:#000000;stroke-miterlimit:4;">
	<!ENTITY st11 "stroke:none;">
	<!ENTITY st12 "fill:url(#aigrd4);stroke:none;">
]>
<svg  width="207.901pt" height="190.519pt" viewBox="0 0 207.901 190.519" xml:space="preserve">
	<g id="Layer_x0020_1" style="&st5;">
		<path style="&st3;" d="M145.325,189.281c-14.998,2.891-125.285,0.938-133.223-7.219c-7.936-8.152,47.936-44.455,67.648-46.859s116.354,10.576,126.932,21.154c10.576,10.578-46.359,30.035-61.357,32.924z"/>
		<path style="&st2;" d="M22,10.633c-12.131,0-22,9.869-22,22v129.79c0,12.131,9.869,22,22,22h115.802c12.131,0,22-9.869,22-22V32.633c0-12.131-9.869-22-22-22H22z"/>
		<linearGradient id="aigrd1" gradientUnits="userSpaceOnUse" x1="38.9507" y1="28.127" x2="120.6722" y2="170.0908">
			<stop  offset="0" style="stop-color:#F0F0F0"/>
			<stop  offset="1" style="stop-color:#D6D6D6"/>
		</linearGradient>
		<path style="&st1;" d="M148.802,162.423c0,6.627-5.373,12-12,12H21c-6.628,0-12-5.373-12-12V32.633c0-6.627,5.372-12,12-12h115.802c6.627,0,12,5.373,12,12v129.79z"/>
		<g>
			<radialGradient id="aigrd2" cx="20.8916" cy="125.1997" r="5.2576" fx="20.8916" fy="125.1997" gradientUnits="userSpaceOnUse">
				<stop  offset="0" style="stop-color:#F0F0F0"/>
				<stop  offset="1" style="stop-color:#474747"/>
			</radialGradient>
			<path style="&st8;" d="M23.428,123.703c0,1.973-1.6,3.572-3.573,3.572c-1.973,0-3.572-1.6-3.572-3.572s1.6-3.572,3.572-3.572c1.974,0,3.573,1.6,3.573,3.572z"/>
			<radialGradient id="aigrd3" cx="20.8916" cy="75.2012" r="5.2576" fx="20.8916" fy="75.2012" gradientUnits="userSpaceOnUse">
				<stop  offset="0" style="stop-color:#F0F0F0"/>
				<stop  offset="1" style="stop-color:#474747"/>
			</radialGradient>
			<path style="&st4;" d="M23.428,73.704c0,1.973-1.6,3.573-3.573,3.573c-1.973,0-3.572-1.6-3.572-3.573c0-1.974,1.6-3.573,3.572-3.573c1.974,0,3.573,1.6,3.573,3.573z"/>
		</g>
		<path style="&st11;" d="M31.679,174.343h-1.613V23.275h1.613v151.068z"/>
		<linearGradient id="aigrd4" gradientUnits="userSpaceOnUse" x1="30.1479" y1="27.4766" x2="28.364" y2="168.8584">
			<stop  offset="0" style="stop-color:#EDEDED"/>
			<stop  offset="1" style="stop-color:#CACACA"/>
		</linearGradient>
		<path style="&st12;" d="M30.054,174.343H28.44V23.275h1.613v151.068z"/>
		<path style="&st11;" d="M14.394,36.788l-2.618,133.307c-1.901-1.9-2.661-6.035-2.661-6.035L8.952,32.143c0,0-0.158-3.403,2.963-7.335c3.16-3.98,8.422-4.22,8.422-4.22l118.164,0.168l-113.615,5.54c-4.588,0-7.045,2.273-8.047,3.467
			c-0.812,0.967-2.393,4.104-2.445,7.026z"/>
		<path style="&st9;" d="M143.944,158.296l2.617-133.307c1.902,1.9,2.662,6.035,2.662,6.035l0.162,131.918c0,0,0.158,3.402-2.963,7.334c-3.16,3.98-8.422,4.221-8.422,4.221L19.835,174.33l113.617-5.541c4.588,0,7.045-2.273,8.047-3.467
			c0.812-0.967,2.393-4.104,2.445-7.025z"/>
	</g>
	<g id="Layer_x0020_2" style="&st10;">
		<path style="&st0;" d="M57.102,10c-11.393,0-19.047,7.164-19.047,17.826v52.78c0,10.333,7.134,17.01,18.175,17.01h13.802c10.103,0,16.14-8.328,16.14-16.378v-29.34c0-4.128-3.589-7.487-8-7.487s-8,3.359-8,7.487v29.34c0,0.743-0.222,1.204-0.36,1.404
			c-0.427,0-13.582,0-13.582,0c-1.138,0-1.72-0.154-1.919-0.239c-0.091-0.187-0.255-0.731-0.255-1.796v-52.78c0-2.372,0.513-2.852,3.047-2.852h20.93c4.411,0,11-0.551,11-4.68S85.753,10,78.032,10h-20.93z"/>
		<path style="&st11;" d="M53.102,0C41.709,0,34.055,7.654,34.055,19.047v56.395c0,11.041,7.134,18.175,18.175,18.175h13.802c10.103,0,16.14-8.898,16.14-17.5V44.768c0-4.411-3.589-8-8-8s-8,3.589-8,8v31.349c0,0.793-0.222,1.286-0.36,1.5
			c-0.427,0-13.582,0-13.582,0c-1.138,0-1.72-0.164-1.919-0.255c-0.091-0.2-0.255-0.781-0.255-1.919V19.047c0-2.534,0.513-3.047,3.047-3.047h20.93c4.411,0,11-0.589,11-5s-3.279-11-11-11h-20.93z"/>
		<linearGradient id="aigrd5" gradientUnits="userSpaceOnUse" x1="64.8809" y1="21.9072" x2="70.0322" y2="3.1748">
			<stop  offset="0" style="stop-color:#F5F682"/>
			<stop  offset="1" style="stop-color:#000000"/>
		</linearGradient>
		<path style="&st7;" d="M53.102,6c-8.047,0-13.047,5-13.047,13.047v56.395c0,7.737,4.438,12.175,12.175,12.175h13.802c6.586,0,10.14-5.925,10.14-11.5V44.768c0-1.104-0.896-2-2-2s-2,0.896-2,2v31.349c0,3.727-2.109,7.5-6.14,7.5H52.23
			c-5.577,0-8.175-2.598-8.175-8.175V19.047c0-5.834,3.213-9.047,9.047-9.047h24.06c0,0-0.26-4-3.13-4h-20.93z"/>
		<path style="&st6;" d="M53.844,6.86c-7.135,1.943-11.799,6.23-13.307,13.669C39.852,12.308,44.825,5.933,53.844,6.86z"/>
		<path style="&st6;" d="M73.063,74.8c1.047,8.402-1.338,10.973-9.565,9.99c6.631-0.65,9.565-1.561,9.565-9.99z"/>
	</g>
</svg>
