<?xml version="1.0" encoding="iso-8859-1"?>
<!-- Generator: Adobe Illustrator 9.0, SVG Export Plug-In  -->
<!DOCTYPE svg PUBLIC "-//W3C//DTD SVG 20000303 Stylable//EN"   "http://www.w3.org/TR/2000/03/WD-SVG-20000303/DTD/svg-20000303-stylable.dtd" [
	<!ENTITY st0 "fill:url(#aigrd1);stroke:none;">
	<!ENTITY st1 "opacity:0.2;stroke:none;">
	<!ENTITY st2 "fill:url(#aigrd3);stroke:none;">
	<!ENTITY st3 "opacity:0.35;stroke:none;">
	<!ENTITY st4 "fill:#FFFFFF;stroke:none;">
	<!ENTITY st5 "fill:url(#aigrd2);stroke:none;">
	<!ENTITY st6 "fill:#BEBEBE;stroke:none;">
	<!ENTITY st7 "fill-rule:nonzero;clip-rule:nonzero;stroke:#000000;stroke-miterlimit:4;">
	<!ENTITY st8 "stroke:none;">
	<!ENTITY st9 "fill:url(#aigrd4);stroke:none;">
]>
<svg  width="209.892pt" height="180.409pt" viewBox="0 0 209.892 180.409" xml:space="preserve">
	<g id="Layer_x0020_1" style="&st7;">
		<path style="&st3;" d="M147.315,179.171c-14.998,2.891-125.285,0.938-133.222-7.219c-7.936-8.154,47.936-44.457,67.648-46.861s116.353,10.578,126.931,21.156c10.576,10.578-46.359,30.033-61.357,32.924z"/>
		<path style="&st8;" d="M22,0C9.869,0,0,9.869,0,22v129.79c0,12.131,9.869,22,22,22h115.802c12.131,0,22-9.869,22-22V22c0-12.131-9.869-22-22-22H22z"/>
		<linearGradient id="aigrd1" gradientUnits="userSpaceOnUse" x1="38.9497" y1="17.4932" x2="120.6721" y2="159.4585">
			<stop  offset="0" style="stop-color:#F0F0F0"/>
			<stop  offset="1" style="stop-color:#D6D6D6"/>
		</linearGradient>
		<path style="&st0;" d="M148.802,151.79c0,6.627-5.373,12-12,12H21c-6.627,0-12-5.373-12-12V22c0-6.627,5.373-12,12-12h115.802c6.627,0,12,5.373,12,12v129.79z"/>
		<g>
			<radialGradient id="aigrd2" cx="20.8916" cy="114.5664" r="5.2576" fx="20.8916" fy="114.5664" gradientUnits="userSpaceOnUse">
				<stop  offset="0" style="stop-color:#F0F0F0"/>
				<stop  offset="1" style="stop-color:#474747"/>
			</radialGradient>
			<path style="&st5;" d="M23.428,113.069c0,1.973-1.6,3.572-3.573,3.572c-1.974,0-3.573-1.6-3.573-3.572c0-1.975,1.6-3.574,3.573-3.574c1.973,0,3.573,1.6,3.573,3.574z"/>
			<radialGradient id="aigrd3" cx="20.8916" cy="64.5679" r="5.2576" fx="20.8916" fy="64.5679" gradientUnits="userSpaceOnUse">
				<stop  offset="0" style="stop-color:#F0F0F0"/>
				<stop  offset="1" style="stop-color:#474747"/>
			</radialGradient>
			<path style="&st2;" d="M23.428,63.07c0,1.973-1.6,3.573-3.573,3.573c-1.974,0-3.573-1.6-3.573-3.573c0-1.974,1.6-3.573,3.573-3.573c1.973,0,3.573,1.6,3.573,3.573z"/>
		</g>
		<path style="&st4;" d="M31.679,163.71h-1.613V12.642h1.613V163.71z"/>
		<linearGradient id="aigrd4" gradientUnits="userSpaceOnUse" x1="30.1484" y1="16.8433" x2="28.3645" y2="158.2247">
			<stop  offset="0" style="stop-color:#EDEDED"/>
			<stop  offset="1" style="stop-color:#CACACA"/>
		</linearGradient>
		<path style="&st9;" d="M30.054,163.71h-1.613V12.642h1.613V163.71z"/>
		<path style="&st4;" d="M14.393,26.155l-2.618,133.307c-1.902-1.902-2.662-6.037-2.662-6.037L8.952,21.509c0,0-0.159-3.403,2.963-7.335c3.16-3.98,8.421-4.22,8.421-4.22l118.165,0.168l-113.615,5.54c-4.588,0-7.045,2.273-8.048,3.467
			c-0.812,0.967-2.392,4.104-2.445,7.026z"/>
		<path style="&st6;" d="M143.944,147.663l2.617-133.307c1.902,1.9,2.662,6.035,2.662,6.035l0.162,131.916c0,0,0.158,3.402-2.963,7.336c-3.16,3.98-8.422,4.219-8.422,4.219l-118.166-0.168l113.617-5.539c4.588,0,7.045-2.273,8.047-3.467
			c0.812-0.967,2.393-4.105,2.445-7.025z"/>
		<path style="&st1;" d="M134.292,148.606h-40.78V93.384h40.78v55.223z"/>
		<path style="&st1;" d="M84.293,148.606H43.512V93.384h40.781v55.223z"/>
		<path style="&st1;" d="M43.512,27.501h90.78v54.118h-90.78V27.501z"/>
		<g style="&st8;">
			<path d="M51.583,35.966h23.889l0.161,7.21h-1.022c-0.497-2.259-1.128-3.729-1.893-4.411c-0.766-0.682-2.376-1.023-4.832-1.023h-2.26v21.683c0,1.616,0.25,2.616,0.75,3.003c0.5,0.387,1.595,0.642,3.285,0.763v0.807H57.395V63.19
				c1.802-0.137,2.925-0.432,3.369-0.885s0.666-1.593,0.666-3.419V37.742h-2.26c-2.353,0-3.956,0.338-4.806,1.013c-0.851,0.675-1.491,2.149-1.919,4.421h-1.022l0.161-7.21z"/>
			<path d="M73.546,74.954c1.554-0.163,2.561-0.438,3.021-0.825c0.461-0.387,0.691-1.367,0.691-2.942V52.303c0-1.487-0.227-2.459-0.681-2.917c-0.454-0.458-1.465-0.741-3.032-0.85v-0.807h22.49l0.161,6.08h-1.076c-0.358-1.875-0.895-3.087-1.611-3.639
				c-0.716-0.551-2.313-0.827-4.791-0.827h-5.783c-0.624,0-1.009,0.1-1.154,0.3c-0.146,0.2-0.219,0.575-0.219,1.125v9.443h6.51c1.817,0,2.976-0.266,3.475-0.799c0.5-0.533,0.901-1.612,1.207-3.237h0.968v9.739h-0.968c-0.319-1.633-0.728-2.714-1.228-3.243
				c-0.499-0.528-1.651-0.792-3.454-0.792h-6.51v10.495c0,0.843,0.266,1.339,0.797,1.491c0.531,0.152,2.122,0.228,4.771,0.228c2.87,0,4.989-0.31,6.355-0.929c1.366-0.62,2.598-2.121,3.694-4.505h1.169l-1.906,7.102H73.546v-0.807z"/>
			<path d="M97.8,64.228c1.134-0.121,1.995-0.416,2.583-0.887c0.587-0.471,1.757-1.789,3.509-3.957l6.542-8.094l-4.639-6.794c-2.022-2.968-3.444-4.811-4.265-5.528c-0.821-0.717-1.913-1.103-3.278-1.158v-0.807h12.817v0.807c-1.227,0.041-2.026,0.122-2.399,0.243
				c-0.569,0.175-0.853,0.56-0.853,1.153c0,0.377,0.139,0.829,0.416,1.355c0.138,0.27,0.332,0.58,0.583,0.931l4.351,6.33l4.7-5.729c0.7-0.837,1.175-1.51,1.422-2.018c0.151-0.302,0.228-0.577,0.228-0.824c0-0.617-0.303-1.029-0.907-1.235
				c-0.371-0.124-1.045-0.193-2.023-0.206v-0.807h10.041v0.807c-1.131,0.028-2.006,0.207-2.627,0.536c-0.979,0.538-2.191,1.693-3.639,3.467l-6.082,7.617l8.02,11.65c0.849,1.256,1.556,2.053,2.122,2.391c0.565,0.338,1.395,0.59,2.486,0.756v0.807h-12.454v-0.807
				c1.196-0.027,2.03-0.131,2.502-0.311c0.471-0.18,0.707-0.526,0.707-1.039c0-0.442-0.314-1.176-0.943-2.201c-0.628-1.025-2.366-3.626-5.214-7.804l-4.984,6.236c-0.724,0.918-1.229,1.589-1.515,2.014c-0.451,0.672-0.676,1.173-0.676,1.501
				c0,0.604,0.354,1.028,1.065,1.274c0.423,0.151,1.143,0.261,2.16,0.329v0.807H97.8v-0.807z"/>
		</g>
	</g>
</svg>
