<?xml version="1.0" encoding="iso-8859-1"?>
<!-- Generator: Adobe Illustrator 9.0, SVG Export Plug-In  -->
<!DOCTYPE svg PUBLIC "-//W3C//DTD SVG 20000303 Stylable//EN"   "http://www.w3.org/TR/2000/03/WD-SVG-20000303/DTD/svg-20000303-stylable.dtd" [
	<!ENTITY st0 "fill:url(#aigrd1);stroke:none;">
	<!ENTITY st1 "opacity:0.15;stroke:none;">
	<!ENTITY st2 "fill:#000000;stroke:none;">
	<!ENTITY st3 "fill:url(#aigrd11);stroke:none;">
	<!ENTITY st4 "fill:url(#aigrd9);stroke:none;">
	<!ENTITY st5 "fill:url(#aigrd6);stroke:none;">
	<!ENTITY st6 "fill:url(#aigrd3);stroke:none;">
	<!ENTITY st7 "opacity:0.35;stroke:none;">
	<!ENTITY st8 "fill:url(#aigrd13);stroke:none;">
	<!ENTITY st9 "fill-rule:nonzero;clip-rule:nonzero;fill:#FFFFFF;stroke:#000000;stroke-miterlimit:4;">
	<!ENTITY st10 "fill:url(#aigrd10);stroke:none;">
	<!ENTITY st11 "fill:url(#aigrd8);stroke:none;">
	<!ENTITY st12 "fill:url(#aigrd5);stroke:none;">
	<!ENTITY st13 "opacity:0.55;stroke:none;">
	<!ENTITY st14 "fill:url(#aigrd2);stroke:none;">
	<!ENTITY st15 "opacity:0.2;fill:#000000;stroke:none;">
	<!ENTITY st16 "fill:#BEBEBE;stroke:none;">
	<!ENTITY st17 "fill:url(#aigrd12);stroke:none;">
	<!ENTITY st18 "fill-rule:nonzero;clip-rule:nonzero;stroke:#000000;stroke-miterlimit:4;">
	<!ENTITY st19 "fill:url(#aigrd7);stroke:none;">
	<!ENTITY st20 "stroke:none;">
	<!ENTITY st21 "fill:url(#aigrd4);stroke:none;">
]>
<svg  width="235.197pt" height="210.343pt" viewBox="0 0 235.197 210.343" xml:space="preserve">
	<g id="Layer_x0020_3" style="&st18;">
		<path style="&st7;" d="M172.621,209.105c-14.998,2.891-125.286,0.938-133.223-7.219c-7.936-8.154,47.936-44.457,67.648-46.861s116.354,10.578,126.932,21.156c10.576,10.578-46.359,30.033-61.357,32.924z"/>
	</g>
	<g id="Layer_x0020_1" style="&st9;">
		<path style="&st2;" d="M47.305,29.934c-12.131,0-22,9.869-22,22v129.791c0,12.131,9.869,22,22,22h115.802c12.131,0,22-9.869,22-22V51.934c0-12.131-9.869-22-22-22H47.305z"/>
		<linearGradient id="aigrd1" gradientUnits="userSpaceOnUse" x1="64.2554" y1="47.4282" x2="145.9769" y2="189.3921">
			<stop  offset="0" style="stop-color:#F0F0F0"/>
			<stop  offset="1" style="stop-color:#D6D6D6"/>
		</linearGradient>
		<path style="&st0;" d="M174.106,181.724c0,6.627-5.373,12-12,12H46.305c-6.627,0-12-5.373-12-12V51.934c0-6.627,5.373-12,12-12h115.802c6.627,0,12,5.373,12,12v129.791z"/>
		<g>
			<radialGradient id="aigrd2" cx="46.1963" cy="144.5005" r="5.2576" fx="46.1963" fy="144.5005" gradientUnits="userSpaceOnUse">
				<stop  offset="0" style="stop-color:#F0F0F0"/>
				<stop  offset="1" style="stop-color:#474747"/>
			</radialGradient>
			<path style="&st14;" d="M48.732,143.003c0,1.973-1.6,3.572-3.573,3.572c-1.974,0-3.573-1.6-3.573-3.572c0-1.975,1.6-3.574,3.573-3.574c1.973,0,3.573,1.6,3.573,3.574z"/>
			<radialGradient id="aigrd3" cx="46.1963" cy="94.501" r="5.2581" fx="46.1963" fy="94.501" gradientUnits="userSpaceOnUse">
				<stop  offset="0" style="stop-color:#F0F0F0"/>
				<stop  offset="1" style="stop-color:#474747"/>
			</radialGradient>
			<path style="&st6;" d="M48.732,93.004c0,1.973-1.6,3.573-3.573,3.573c-1.974,0-3.573-1.6-3.573-3.573c0-1.974,1.6-3.573,3.573-3.573c1.973,0,3.573,1.6,3.573,3.573z"/>
		</g>
		<path style="&st20;" d="M56.984,193.644h-1.613V42.575h1.613v151.069z"/>
		<linearGradient id="aigrd4" gradientUnits="userSpaceOnUse" x1="55.4526" y1="46.7773" x2="53.6687" y2="188.1597">
			<stop  offset="0" style="stop-color:#EDEDED"/>
			<stop  offset="1" style="stop-color:#CACACA"/>
		</linearGradient>
		<path style="&st21;" d="M55.359,193.644h-1.613V42.575h1.613v151.069z"/>
		<path style="&st20;" d="M39.698,56.088L37.08,189.396c-1.902-1.902-2.662-6.037-2.662-6.037L34.257,51.443c0,0-0.159-3.403,2.963-7.335c3.16-3.98,8.421-4.22,8.421-4.22l118.165,0.168l-113.615,5.54c-4.588,0-7.045,2.273-8.048,3.467
			c-0.812,0.967-2.392,4.104-2.445,7.026z"/>
		<path style="&st16;" d="M169.249,177.597l2.617-133.307c1.902,1.9,2.662,6.035,2.662,6.035l0.162,131.917c0,0,0.158,3.402-2.963,7.336c-3.16,3.98-8.422,4.219-8.422,4.219L45.14,193.628l113.617-5.539c4.588,0,7.045-2.273,8.047-3.467
			c0.812-0.967,2.393-4.105,2.445-7.025z"/>
		<path style="&st15;" d="M159.598,178.541h-40.781V56.866h40.781v121.674z"/>
		<path style="&st15;" d="M109.598,178.541H68.816V56.866h40.781v121.674z"/>
	</g>
	<g id="Layer_x0020_4" style="&st18;">
		<path style="&st1;" d="M160.845,69.571c-2.894-3.312-7.226-5.41-12.532-6.068c-13.627-1.689-31.688,6.142-44.045,14.035l-5.208,3.29c-0.652,0.408-1.28,0.806-1.921,1.209c-0.608-1.014-1.538-1.885-2.937-2.511c-1.036-0.465-2.046-0.636-3.041-0.658
			c0.029-0.265,0.688-6.306,0.688-6.306c1.369-11.867-0.218-24.403-4.992-33.403H44.66c-5.291,6.165-9.4,13.901-11.505,21.661v18.708c0.568,1.761,1.279,3.516,2.167,5.252c-0.837,0.724-1.541,1.521-2.167,2.36v37.508c0.762-0.246,1.465-0.449,2.046-0.576
			c2.24,1.988,5.12,3.257,8.506,3.632c4.355,0.48,9.013-0.562,13.315-2.167c-0.093,0.472-0.171,0.929-0.221,1.359c-0.439,3.815,0.855,6.103,3.824,7.432c3.221,1.445,6.226,0.438,8.602-1.082c0.445,2.471,1.281,4.837,2.738,6.856c1.761,2.441,4.248,4.15,7.236,5.089
			c0.406,2.108,0.288,6.316,0.217,8.764c-0.178,6.068-0.276,9.413,2.413,11.761l4.838,1.735c7.045-0.031,8.676-5.622,9.222-10.351c0.118-1.019,0.186-1.999,0.245-2.872c0.075-1.11,0.164-2.379,0.311-3.652c0.366-3.174,1.104-6.37,2.97-7.129l2.149-0.863
			c8.199-3.276,17.494-6.992,20.098-14.383c0.3-0.848,0.5-1.713,0.602-2.589c0.018-0.157,0.006-0.317,0.019-0.476c6.81-0.896,12.964-3.022,18.062-6.278c12.401-7.921,22.103-21.312,24.138-33.319c0.087-0.505,0.156-1.005,0.214-1.5
			c0.671-5.819-0.647-10.796-3.853-14.467z"/>
	</g>
	<g id="Layer_x0020_2" style="&st9;">
		<path style="&st2;" d="M17.252,50.189c0,6.524,1.844,13.106,5.319,19.308c-3.41,4.205-4.292,9.725-4.292,15.412c0,2.937,0.226,5.914,0.443,8.767l0.171,2.316c0.003,0.048,0.005,0.097,0.005,0.146c0,2.8-5.498,6.337-9.157,8.691C5.912,107.294,0,111.098,0,116.315
			c0,1.247,0.338,2.576,1.124,3.986c0.001,0.003,4.05,3.145,4.05,3.145c3.623,0.973,6.903-0.986,12.858-4.542c2.401-1.434,6.536-3.896,8.827-4.732c2.401,2.047,5.342,3.21,8.676,3.311c4.314,0.132,8.709-1.458,12.701-3.679c-0.036,0.522-0.061,1.031-0.061,1.508
			c0,4.377,1.516,6.854,4.55,8.081c1.25,0.506,2.515,0.707,3.844,0.451c0.262,2.82,0.992,5.336,2.431,7.219c0.814,1.064,1.835,1.887,2.967,2.496c-0.141,2.322-0.575,5.619-0.858,7.707c-0.433,3.197-0.765,5.652-0.765,7.621c0,2.637,0.597,4.398,2.349,5.896
			c1.618,1.385,3.809,1.848,5.858,1.236c5.583-1.668,6.551-7.697,7.575-14.082c0.764-4.756,1.809-11.268,4.521-13.529l1.616-1.338c5.912-4.879,12.612-10.411,15.052-17.757c0.474-1.426,0.714-2.864,0.841-4.304c5.187-2.331,9.996-5.829,14.071-10.363
			c10.231-11.384,21.255-32.119,21.255-46.079c0-3.228-0.59-6.094-1.915-8.398c-1.788-3.11-4.758-5.032-8.362-5.413c-12.627-1.333-30.853,17.751-36.138,23.631c0,0-2.846,3.144-3.758,4.151c-0.642-2.29-1.97-3.806-4.082-4.66c-1.06-0.429-2.063-0.526-3.033-0.456
			c-0.002-0.305-0.039-7.234-0.039-7.234C76.154,25.858,66.754,0,49.333,0C31.562,0,17.252,27.457,17.252,50.189z M64.468,91.775c0.315,0.146,2.311,1.066,4.588,2.117c-2.397-0.447-4.76-0.887-4.879-0.91c0.076-0.317,0.146-0.604,0.291-1.207z"/>
		<linearGradient id="aigrd5" gradientUnits="userSpaceOnUse" x1="-19.5376" y1="68.25" x2="9.9854" y2="63.6846" gradientTransform="matrix(-0.9994 -0.034 -0.034 0.9994 92.0964 2.5354)">
			<stop  offset="0" style="stop-color:#A3D6E2"/>
			<stop  offset="1" style="stop-color:#35AECA"/>
		</linearGradient>
		<path style="&st12;" d="M107.432,89.248c-13.509,15.031-32.227,13.704-36.743,5.847c-4.518-7.857,7.002-19.053,20.509-34.084c13.509-15.031,30.318-27.096,34.836-19.239c4.518,7.857-5.093,32.445-18.602,47.476z"/>
		<linearGradient id="aigrd6" gradientUnits="userSpaceOnUse" x1="54.415" y1="30.1729" x2="22.3018" y2="75.3852" gradientTransform="matrix(-1 0 0 1 92.3926 0)">
			<stop  offset="0" style="stop-color:#3EAACE"/>
			<stop  offset="1" style="stop-color:#2E86A1"/>
		</linearGradient>
		<path style="&st5;" d="M22.92,48.802c0,21.102,22.442,38.21,35.493,38.21c13.052,0,11.409-17.108,11.409-38.21c0-21.103-7.771-44.189-20.821-44.189c-13.052,0-26.081,23.086-26.081,44.189z"/>
		<radialGradient id="aigrd7" cx="97.1138" cy="28.083" r="30.1295" fx="97.1138" fy="28.083" gradientUnits="userSpaceOnUse">
			<stop  offset="0" style="stop-color:#787878"/>
			<stop  offset="1" style="stop-color:#313131"/>
		</radialGradient>
		<path style="&st19;" d="M80.193,58.781l0.816,0.576c8.051-11.413,30.679-39.828,38.605-34.335l0.57-0.822c-10.36-7.178-38.787,32.873-39.992,34.582z"/>
		<radialGradient id="aigrd8" cx="80.9917" cy="12.4995" r="35.8869" fx="80.9917" fy="12.4995" gradientUnits="userSpaceOnUse">
			<stop  offset="0" style="stop-color:#787878"/>
			<stop  offset="1" style="stop-color:#313131"/>
		</radialGradient>
		<path style="&st11;" d="M78.635,6.784c9.372,2.275,3.17,38.066-0.011,51.665l0.975,0.228c0.476-2.036,11.521-49.891-0.728-52.864l-0.236,0.972z"/>
		<linearGradient id="aigrd9" gradientUnits="userSpaceOnUse" x1="6.771" y1="117.4102" x2="22.7238" y2="114.9432" gradientTransform="matrix(-0.9994 -0.034 -0.034 0.9994 92.0964 2.5354)">
			<stop  offset="0" style="stop-color:#3BB1CE"/>
			<stop  offset="1" style="stop-color:#37A6C2"/>
		</linearGradient>
		<path style="&st4;" d="M66.504,148.881c4.474-1.336,2.036-19.856,9.969-26.469c5.884-4.903,12.729-10.093,14.815-16.378c3.417-10.297-7.115-18.559-13.929-19.187c-6.814-0.627-9.438,8.446-11.442,14.398c-3.468,10.292-6.693,26.476,0.428,26.054
			c3.842-0.227-2.021,22.229,0.159,21.581z"/>
		<linearGradient id="aigrd10" gradientUnits="userSpaceOnUse" x1="-184.9883" y1="235.3511" x2="-161.0172" y2="231.6442" gradientTransform="matrix(0.5742 0.8187 -0.8187 0.5742 324.2729 104.6172)">
			<stop  offset="0" style="stop-color:#2C7F9A"/>
			<stop  offset="1" style="stop-color:#24667A"/>
		</linearGradient>
		<path style="&st10;" d="M6.034,115.995c-3.021-5.425,19.311-10.434,18.514-21.809c-0.59-8.437-1.831-18.039,2.844-22.911c7.663-7.983,27.033,0.069,34.495,7.229c7.462,7.161,0.323,13.772-4.075,18.418c-7.606,8.035-21.786,18.244-28.426,10.316
			c-3.584-4.278-21.878,11.4-23.352,8.756z"/>
		<radialGradient id="aigrd11" cx="35.8457" cy="90.2554" r="27.2101" fx="35.8457" fy="90.2554" gradientTransform="matrix(-1.3608 -0.5505 -0.5505 1.3608 172.9786 -33.8871)" gradientUnits="userSpaceOnUse">
			<stop  offset="0" style="stop-color:#787878"/>
			<stop  offset="1" style="stop-color:#313131"/>
		</radialGradient>
		<path style="&st3;" d="M61.382,87.525c-6.074,15.019-9.094,27.966-6.74,28.917c2.352,0.952,9.186-10.452,15.261-25.471c6.075-15.02,9.094-27.966,6.741-28.917c-2.352-0.952-9.186,10.451-15.262,25.471z"/>
		<radialGradient id="aigrd12" cx="78.46" cy="4.8774" r="3.0862" fx="78.46" fy="4.8774" gradientUnits="userSpaceOnUse">
			<stop  offset="0" style="stop-color:#787878"/>
			<stop  offset="1" style="stop-color:#313131"/>
		</radialGradient>
		<path style="&st17;" d="M76.851,6.298c0,1.05,0.852,1.901,1.902,1.901c1.05,0,1.9-0.851,1.9-1.901s-0.851-1.901-1.9-1.901c-1.051,0-1.902,0.851-1.902,1.901z"/>
		<radialGradient id="aigrd13" cx="119.6079" cy="23.1899" r="3.0865" fx="119.6079" fy="23.1899" gradientUnits="userSpaceOnUse">
			<stop  offset="0" style="stop-color:#787878"/>
			<stop  offset="1" style="stop-color:#313131"/>
		</radialGradient>
		<path style="&st8;" d="M117.999,24.61c0,1.05,0.852,1.901,1.901,1.901c1.051,0,1.902-0.851,1.902-1.901s-0.852-1.901-1.902-1.901c-1.05,0-1.901,0.851-1.901,1.901z"/>
		<path style="&st13;" d="M59.639,10.645c0,0-8.8-11.731-19.584-2.595c-14.563,12.337-18.04,34.597-16.242,48.021c1.798-38.139,22.258-58.995,35.826-45.426z"/>
		<path style="&st13;" d="M73.193,82.199c18.013-23.551,44.984-51.527,52.84-40.426c-9.864-3.21-27.316,11.475-52.84,40.426z"/>
		<path style="&st13;" d="M77.433,64.948c-2.178-3.358-21.374,32.79-23.541,47.927c3.407-23.13,18.322-47.436,21.022-50.136s2.519,2.209,2.519,2.209z"/>
		<path style="&st13;" d="M52.153,72.062c-6.705-4.229-21.312-6.245-25.859,0s-1.86,17.906-1.86,24.202S7.806,110.277,6.802,112.823c5.916-4.375,17.286-8.195,18.802-13.432s-0.138-19.017,3.583-25.081s16.261-4.134,22.966-2.248z"/>
	</g>
</svg>
