<?xml version="1.0" encoding="iso-8859-1"?>
<!-- Generator: Adobe Illustrator 9.0, SVG Export Plug-In  -->
<!DOCTYPE svg PUBLIC "-//W3C//DTD SVG 20000303 Stylable//EN"   "http://www.w3.org/TR/2000/03/WD-SVG-20000303/DTD/svg-20000303-stylable.dtd" [
	<!ENTITY st0 "fill:url(#aigrd5);">
	<!ENTITY st1 "fill:url(#aigrd6);">
	<!ENTITY st2 "opacity:0.005;">
	<!ENTITY st3 "opacity:0.015;">
	<!ENTITY st4 "fill:url(#aigrd1);stroke:none;">
	<!ENTITY st5 "fill:#000000;stroke:none;">
	<!ENTITY st6 "opacity:0.35;fill:#000000;stroke:none;">
	<!ENTITY st7 "opacity:0.01;">
	<!ENTITY st8 "opacity:0.02;">
	<!ENTITY st9 "opacity:0.26;">
	<!ENTITY st10 "opacity:0.52;">
	<!ENTITY st11 "opacity:0.0012;">
	<!ENTITY st12 "opacity:0.0025;">
	<!ENTITY st13 "opacity:0.0037;">
	<!ENTITY st14 "opacity:0.0062;">
	<!ENTITY st15 "opacity:0.0075;">
	<!ENTITY st16 "opacity:0.0088;">
	<!ENTITY st17 "opacity:0.0112;">
	<!ENTITY st18 "opacity:0.0125;">
	<!ENTITY st19 "opacity:0.0137;">
	<!ENTITY st20 "opacity:0.0162;">
	<!ENTITY st21 "opacity:0.0175;">
	<!ENTITY st22 "opacity:0.0187;">
	<!ENTITY st23 "fill:url(#aigrd3);stroke:none;">
	<!ENTITY st24 "fill-rule:nonzero;clip-rule:nonzero;fill:#FFFFFF;stroke:#000000;stroke-miterlimit:4;">
	<!ENTITY st25 "opacity:0;">
	<!ENTITY st26 "fill:url(#aigrd2);stroke:none;">
	<!ENTITY st27 "fill:#BEBEBE;stroke:none;">
	<!ENTITY st28 "fill:#000000;">
	<!ENTITY st29 "opacity:0.52;fill:url(#aigrd7);">
	<!ENTITY st30 "stroke:none;">
	<!ENTITY st31 "fill:#0F1226;">
	<!ENTITY st32 "fill:url(#aigrd4);stroke:none;">
]>
<svg  width="207.9pt" height="195.639pt" viewBox="0 0 207.9 195.639" xml:space="preserve">
	<g id="Layer_x0020_1" style="&st24;">
		<path style="&st6;" d="M145.325,178.647c-14.998,2.891-125.285,0.938-133.223-7.219c-7.936-8.152,47.936-44.455,67.648-46.859s116.353,10.576,126.931,21.154c10.576,10.578-46.359,30.035-61.356,32.924z"/>
		<path style="&st5;" d="M22,0C9.869,0,0,9.869,0,22v129.79c0,12.131,9.869,22,22,22h115.802c12.131,0,21.999-9.869,21.999-22V22c0-12.131-9.868-22-21.999-22H22z"/>
		<linearGradient id="aigrd1" gradientUnits="userSpaceOnUse" x1="38.9502" y1="17.4941" x2="120.6717" y2="159.458">
			<stop  offset="0" style="stop-color:#F0F0F0"/>
			<stop  offset="1" style="stop-color:#D6D6D6"/>
		</linearGradient>
		<path style="&st4;" d="M148.802,151.79c0,6.627-5.373,12-12,12H21c-6.628,0-12-5.373-12-12V22c0-6.627,5.372-12,12-12h115.802c6.627,0,12,5.373,12,12v129.79z"/>
		<g>
			<radialGradient id="aigrd2" cx="20.8916" cy="114.5664" r="5.2576" fx="20.8916" fy="114.5664" gradientUnits="userSpaceOnUse">
				<stop  offset="0" style="stop-color:#F0F0F0"/>
				<stop  offset="1" style="stop-color:#474747"/>
			</radialGradient>
			<path style="&st26;" d="M23.428,113.069c0,1.973-1.6,3.572-3.573,3.572c-1.973,0-3.572-1.6-3.572-3.572s1.6-3.572,3.572-3.572c1.974,0,3.573,1.6,3.573,3.572z"/>
			<radialGradient id="aigrd3" cx="20.8916" cy="64.5679" r="5.2576" fx="20.8916" fy="64.5679" gradientUnits="userSpaceOnUse">
				<stop  offset="0" style="stop-color:#F0F0F0"/>
				<stop  offset="1" style="stop-color:#474747"/>
			</radialGradient>
			<path style="&st23;" d="M23.428,63.07c0,1.973-1.6,3.573-3.573,3.573c-1.973,0-3.572-1.6-3.572-3.573c0-1.974,1.6-3.573,3.572-3.573c1.974,0,3.573,1.6,3.573,3.573z"/>
		</g>
		<path style="&st30;" d="M31.679,163.71h-1.613V12.642h1.613V163.71z"/>
		<linearGradient id="aigrd4" gradientUnits="userSpaceOnUse" x1="30.1479" y1="16.8428" x2="28.364" y2="158.2242">
			<stop  offset="0" style="stop-color:#EDEDED"/>
			<stop  offset="1" style="stop-color:#CACACA"/>
		</linearGradient>
		<path style="&st32;" d="M30.054,163.71H28.44V12.642h1.613V163.71z"/>
		<path style="&st30;" d="M14.394,26.155l-2.618,133.307c-1.901-1.9-2.661-6.035-2.661-6.035L8.952,21.509c0,0-0.158-3.403,2.963-7.335c3.16-3.98,8.422-4.22,8.422-4.22l118.164,0.168l-113.615,5.54c-4.588,0-7.045,2.273-8.047,3.467
			c-0.812,0.967-2.393,4.104-2.445,7.026z"/>
		<path style="&st27;" d="M143.944,147.663l2.617-133.307c1.902,1.9,2.662,6.035,2.662,6.035l0.162,131.918c0,0,0.158,3.402-2.963,7.334c-3.16,3.98-8.422,4.221-8.422,4.221l-118.166-0.168l113.617-5.541c4.588,0,7.045-2.273,8.047-3.467
			c0.812-0.967,2.393-4.104,2.445-7.025z"/>
	</g>
	<g id="Layer_x0020_2" style="&st24;">
		<g style="&st30;">
			<path style="&st28;" d="M97.42,70.521c-1.891-0.455-6.814-1.471-13.299-1.471c-7.094,0-9.932,6.126-12.213,11.048c-1.422,3.07-2.893,6.246-5.229,8.582c-7.398,7.398-15.783,15.783-15.783,25.131c0,7.5,6.457,11.404,11.17,14.256
				c1.857,1.123,3.611,2.184,4.613,3.186c1.25,1.25,2.191,5.418,2.945,8.768c1.15,5.092,2.338,10.359,5.516,13.535c3.869,3.871,9.379,1.664,12.664-0.098c2.375,0.781,5.049,1.162,7.85,1.549c4.482,0.621,9.117,1.264,11.4,3.549c0.096,0.094,0.186,0.184,0.186,0.523
				c0,0.045-0.002,0.092-0.004,0.145c-0.283,4.652-16.309,20.541-23.045,25.811l3.016,1.076c0,0,24.977-5.209,28.762-6.273c2.311,2.398,15.219,15.803,15.219,15.803v-9.92c0-4.473,2.408-8.852,4.736-13.088c2.057-3.742,4.424-8.049,4.424-12.318
				c0-2.662-0.92-5.311-3.41-7.799c-3.473-3.475-8.754-5.355-14.139-6.984c3.826-1.805,4.934-4.133,5.699-6.57c0.279-0.891,0.385-1.189,0.75-1.555c0.672-0.67,2.164-1.699,3.607-2.693c4.74-3.266,10.639-7.328,10.639-13.209c0-5.713-2.936-10.486-5.525-14.699
				c0,0-1.109-1.826-1.16-1.908c-0.014-0.062-0.023-0.135-0.023-0.221c0-0.801,0.59-2.586,0.957-3.701c0.664-2.008,1.502-4.545,1.502-7.191c0-2.49-0.742-5.078-3.074-7.408c-1.416-1.416-2.615-3.515-3.885-5.737c-2.949-5.162-6.621-11.586-15.094-11.586
				c-8.098,0-17.117,1.117-19.771,1.471z"/>
			<path style="&st31;" d="M99.412,111.059c0,0-16.15,22.303-16.15,32.301s18.457,4.615,25.764,11.922c7.307,7.305-17.305,26.531-17.305,26.531l24.611-6.92l9.998,10.381c0-12.689,14.611-22.688,6.922-30.377c-7.691-7.691-29.615-6.879-30.764-16.92
				c-1.148-10.043-3.076-26.918-3.076-26.918z"/>
			<radialGradient id="aigrd5" cx="111.7168" cy="122.5947" r="40.9637" fx="111.7168" fy="122.5947" gradientUnits="userSpaceOnUse">
				<stop  offset="0" style="stop-color:#E41E08"/>
				<stop  offset="1" style="stop-color:#901505"/>
			</radialGradient>
			<path style="&st0;" d="M116.332,72.605c9.229,0,10.766,10.766,16.15,16.151c5.383,5.383-2.631,13.246,0,17.688c2.629,4.441,6.152,9.23,6.152,14.613s-9.955,9.955-13.074,13.074s-0.025,6.211-8.459,8.461c-8.434,2.248-12.307-0.77-17.689-0.77
				s-17.689,13.072-22.303,8.459c-4.615-4.615-4.23-18.072-8.461-22.303c-4.229-4.23-14.611-6.922-14.611-14.613c0-7.689,7.689-15.381,14.611-22.303s6.922-18.458,14.613-18.458s13.074,1.538,13.074,1.538s10.768-1.538,19.996-1.538z"/>
			<radialGradient id="aigrd6" cx="82.4922" cy="99.5225" r="45.2194" fx="82.4922" fy="99.5225" gradientUnits="userSpaceOnUse">
				<stop  offset="0" style="stop-color:#E41E08"/>
				<stop  offset="1" style="stop-color:#901505"/>
			</radialGradient>
			<path style="&st1;" d="M130.176,111.059c0,16.99-13.773,30.764-30.764,30.764s-30.764-13.773-30.764-30.764s13.773-30.763,30.764-30.763s30.764,13.772,30.764,30.763z"/>
			<path style="&st10;" d="M68.631,95.395c0,0-10.574,10.574-11.871,14.84c-1.299,4.266,3.523,7.789,3.523,7.789s-3.617-10.664,8.348-22.629z"/>
			<path style="&st10;" d="M74.195,135.461c0,0,2.227,16.322,7.42,13.17c-3.789-1.301-7.42-13.17-7.42-13.17z"/>
			<path style="&st10;" d="M76.051,82.967c0,0,2.039-11.5,12.613-8.904c-6.863,0-12.613,8.904-12.613,8.904z"/>
			<path style="&st10;" d="M122.422,76.289c0,0-1.854-4.822-17.807-2.041c10.572,0,17.807,2.041,17.807,2.041z"/>
			<linearGradient id="aigrd7" gradientUnits="userSpaceOnUse" x1="78.9355" y1="93.2559" x2="95.2583" y2="109.393">
				<stop  offset="0" style="stop-color:#FFFFFF"/>
				<stop  offset="1" style="stop-color:#901505"/>
			</linearGradient>
			<path style="&st29;" d="M101.266,82.969c-22.219-0.597-32.879,20.312-28.607,36.443c13.295-6.945,28.607-19.689,28.607-36.443z"/>
			<g>
				<g>
					<path style="&st25;" d="M121.562,128.535c-8.242,11.025-21.587,14.981-29.807,8.842c-8.218-6.146-8.2-20.064,0.043-31.091c8.242-11.026,21.586-14.983,29.805-8.841c8.219,6.146,8.201,20.064-0.041,31.09z"/>
					<path style="&st11;" d="M121.446,128.472c-7.923,10.597-20.733,14.412-28.613,8.526c-7.879-5.893-7.846-19.259,0.078-29.857c7.923-10.6,20.732-14.415,28.611-8.525c7.88,5.892,7.846,19.258-0.076,29.856z"/>
					<path style="&st12;" d="M121.331,128.407c-7.604,10.17-19.88,13.845-27.421,8.212c-7.539-5.639-7.489-18.453,0.114-28.624c7.603-10.171,19.878-13.847,27.419-8.21c7.54,5.637,7.49,18.451-0.112,28.622z"/>
					<path style="&st13;" d="M121.215,128.344c-7.283,9.742-19.025,13.275-26.227,7.896c-7.2-5.386-7.134-17.646,0.149-27.391s19.024-13.277,26.226-7.896c7.201,5.384,7.136,17.646-0.148,27.39z"/>
					<path style="&st2;" d="M121.1,128.279c-6.963,9.314-18.172,12.707-25.033,7.582c-6.861-5.133-6.779-16.842,0.186-26.157c6.963-9.316,18.17-12.709,25.031-7.581c6.861,5.131,6.781,16.84-0.184,26.156z"/>
					<path style="&st14;" d="M120.984,128.215c-6.645,8.888-17.317,12.14-23.841,7.266c-6.521-4.877-6.424-16.033,0.222-24.922c6.644-8.889,17.316-12.141,23.839-7.266c6.522,4.877,6.425,16.034-0.22,24.922z"/>
					<path style="&st15;" d="M120.869,128.15c-6.325,8.461-16.464,11.571-22.647,6.951c-6.182-4.623-6.068-15.228,0.257-23.688c6.324-8.461,16.463-11.572,22.646-6.95c6.183,4.623,6.068,15.228-0.256,23.688z"/>
					<path style="&st16;" d="M120.754,128.087c-6.005,8.032-15.61,11.002-21.454,6.636c-5.843-4.369-5.713-14.422,0.292-22.455s15.609-11.004,21.453-6.636c5.844,4.369,5.714,14.423-0.291,22.455z"/>
					<path style="&st7;" d="M120.639,128.023c-5.686,7.604-14.757,10.433-20.262,6.32c-5.503-4.115-5.357-13.616,0.328-21.222c5.686-7.606,14.756-10.435,20.26-6.321c5.504,4.116,5.359,13.617-0.326,21.223z"/>
					<path style="&st17;" d="M120.522,127.959c-5.365,7.178-13.902,9.865-19.067,6.006c-5.164-3.861-5.003-12.811,0.364-19.988c5.364-7.178,13.9-9.866,19.066-6.006c5.164,3.861,5.003,12.811-0.363,19.988z"/>
					<path style="&st18;" d="M120.407,127.895c-5.046,6.75-13.049,9.297-17.874,5.691c-4.825-3.608-4.647-12.004,0.399-18.754c5.045-6.752,13.047-9.299,17.873-5.691c4.825,3.607,4.648,12.004-0.398,18.754z"/>
					<path style="&st19;" d="M120.292,127.83c-4.727,6.322-12.195,8.729-16.681,5.377c-4.486-3.354-4.292-11.198,0.435-17.521c4.726-6.323,12.193-8.729,16.681-5.376c4.485,3.354,4.292,11.198-0.435,17.521z"/>
					<path style="&st3;" d="M120.177,127.767c-4.407,5.895-11.341,8.16-15.488,5.062c-4.146-3.102-3.937-10.393,0.471-16.287c4.406-5.896,11.34-8.162,15.487-5.062c4.146,3.102,3.938,10.393-0.47,16.288z"/>
					<path style="&st20;" d="M120.062,127.703c-4.088,5.467-10.487,7.591-14.295,4.745c-3.807-2.847-3.581-9.586,0.506-15.054s10.485-7.592,14.295-4.746c3.807,2.848,3.581,9.587-0.506,15.055z"/>
					<path style="&st21;" d="M119.945,127.639c-3.768,5.039-9.633,7.023-13.101,4.431s-3.227-8.78,0.542-13.819c3.766-5.041,9.631-7.024,13.101-4.432c3.468,2.593,3.227,8.78-0.542,13.82z"/>
					<path style="&st22;" d="M119.83,127.574c-3.448,4.612-8.779,6.455-11.908,4.115c-3.128-2.338-2.871-7.973,0.578-12.586c3.446-4.613,8.777-6.455,11.908-4.116c3.128,2.34,2.87,7.975-0.578,12.587z"/>
					<path style="&st8;" d="M119.715,127.51c-3.129,4.186-7.926,5.887-10.715,3.801c-2.789-2.084-2.516-7.168,0.613-11.352c3.127-4.186,7.924-5.887,10.715-3.803c2.789,2.086,2.516,7.17-0.613,11.354z"/>
				</g>
			</g>
			<path style="&st9;" d="M111.479,155.123c2.412,3.432,0,7.789,0,7.789c4.08,2.041,13.912-4.723,21.703,0c2.068-4.723-0.604-7.279-4.09-9.023l-17.613,1.234z"/>
		</g>
	</g>
</svg>
