<?xml version="1.0" encoding="iso-8859-1"?>
<!DOCTYPE svg PUBLIC "-//W3C//DTD SVG 20000303 Stylable//EN"   "http://www.w3.org/TR/2000/03/WD-SVG-20000303/DTD/svg-20000303-stylable.dtd">
<!-- Generator: Adobe Illustrator 9.0, SVG Export Plug-In  -->
<svg  width="207.901pt" height="179.887pt" viewBox="0 0 207.901 179.887" xml:space="preserve">
	<g id="Layer_x0020_1" style="fill-rule:nonzero;clip-rule:nonzero;fill:#FFFFFF;stroke:#000000;stroke-miterlimit:4;">
		<path style="opacity:0.35;fill:#000000;stroke:none;" d="M145.325,178.649c-14.998,2.891-125.286,0.938-133.223-7.219c-7.936-8.154,47.936-44.457,67.649-46.861c19.713-2.404,116.353,10.578,126.931,21.156c10.576,10.578-46.359,30.033-61.357,32.924z"/>
		<path style="fill:#000000;stroke:none;" d="M22,0C9.869,0,0,9.869,0,22v129.792c0,12.131,9.869,22,22,22h115.802c12.131,0,22-9.869,22-22V22c0-12.131-9.869-22-22-22H22z"/>
		<linearGradient id="aigrd1" gradientUnits="userSpaceOnUse" x1="38.9497" y1="17.4937" x2="120.6725" y2="159.4597">
			<stop  offset="0" style="stop-color:#F0F0F0"/>
			<stop  offset="1" style="stop-color:#D6D6D6"/>
		</linearGradient>
		<path style="fill:url(#aigrd1);stroke:none;" d="M148.802,151.792c0,6.627-5.373,12-12,12H21c-6.627,0-12-5.373-12-12V22c0-6.627,5.373-12,12-12h115.802c6.627,0,12,5.373,12,12v129.792z"/>
		<g>
			<radialGradient id="aigrd2" cx="20.8916" cy="114.5679" r="5.2576" fx="20.8916" fy="114.5679" gradientUnits="userSpaceOnUse">
				<stop  offset="0" style="stop-color:#F0F0F0"/>
				<stop  offset="1" style="stop-color:#474747"/>
			</radialGradient>
			<path style="fill:url(#aigrd2);stroke:none;" d="M23.428,113.071c0,1.973-1.6,3.572-3.573,3.572c-1.974,0-3.573-1.6-3.573-3.572c0-1.975,1.6-3.574,3.573-3.574c1.973,0,3.573,1.6,3.573,3.574z"/>
			<radialGradient id="aigrd3" cx="20.8916" cy="64.5674" r="5.2581" fx="20.8916" fy="64.5674" gradientUnits="userSpaceOnUse">
				<stop  offset="0" style="stop-color:#F0F0F0"/>
				<stop  offset="1" style="stop-color:#474747"/>
			</radialGradient>
			<path style="fill:url(#aigrd3);stroke:none;" d="M23.428,63.07c0,1.973-1.6,3.573-3.573,3.573c-1.974,0-3.573-1.6-3.573-3.573c0-1.974,1.6-3.573,3.573-3.573c1.973,0,3.573,1.6,3.573,3.573z"/>
		</g>
		<path style="stroke:none;" d="M31.679,163.711h-1.613V12.642h1.613v151.07z"/>
		<linearGradient id="aigrd4" gradientUnits="userSpaceOnUse" x1="30.1479" y1="16.8438" x2="28.364" y2="158.2265">
			<stop  offset="0" style="stop-color:#EDEDED"/>
			<stop  offset="1" style="stop-color:#CACACA"/>
		</linearGradient>
		<path style="fill:url(#aigrd4);stroke:none;" d="M30.054,163.711h-1.613V12.642h1.613v151.07z"/>
		<path style="stroke:none;" d="M14.393,26.155l-2.618,133.309c-1.902-1.902-2.662-6.037-2.662-6.037L8.952,21.509c0,0-0.159-3.403,2.963-7.335c3.16-3.98,8.421-4.22,8.421-4.22l118.165,0.168l-113.615,5.54c-4.588,0-7.045,2.273-8.048,3.467
			c-0.812,0.967-2.392,4.104-2.445,7.026z"/>
		<path style="fill:#BEBEBE;stroke:none;" d="M143.944,147.665l2.617-133.308c1.902,1.9,2.662,6.035,2.662,6.035l0.162,131.917c0,0,0.158,3.402-2.963,7.336c-3.16,3.98-8.422,4.219-8.422,4.219l-118.166-0.168l113.617-5.539c4.588,0,7.045-2.273,8.047-3.467
			c0.813-0.967,2.393-4.105,2.445-7.025z"/>
	</g>
	<g id="Layer_x0020_2" style="fill-rule:nonzero;clip-rule:nonzero;stroke:#000000;stroke-miterlimit:4;">
		<linearGradient id="aigrd5" gradientUnits="userSpaceOnUse" x1="63.4766" y1="96.1147" x2="63.5398" y2="83.7794">
			<stop  offset="0" style="stop-color:#163069"/>
			<stop  offset="1" style="stop-color:#83A1CB"/>
		</linearGradient>
		<path style="fill:url(#aigrd5);stroke:none;" d="M84.209,94.928H42.918v-31.68h41.291v31.68z"/>
		<linearGradient id="aigrd6" gradientUnits="userSpaceOnUse" x1="63.5645" y1="87.0459" x2="63.5645" y2="59.191">
			<stop  offset="0" style="stop-color:#D0D6E5"/>
			<stop  offset="1" style="stop-color:#093A80"/>
		</linearGradient>
		<path style="fill:url(#aigrd6);stroke:none;" d="M43.279,63.655H83.85v19.266H43.279V63.655z"/>
		<g>
			<g>
				<path style="opacity:0.05;fill:#E8F52F;stroke:none;" d="M58.513,72.341c0,3.569-2.569,6.462-5.738,6.462c-3.168,0-5.737-2.893-5.737-6.462c0-3.569,2.569-6.462,5.737-6.462c3.169,0,5.738,2.893,5.738,6.462z"/>
				<path style="opacity:0.2083;fill:#ECF751;stroke:none;" d="M57.968,72.341c0,3.23-2.325,5.849-5.193,5.849c-2.868,0-5.193-2.619-5.193-5.849c0-3.23,2.325-5.849,5.193-5.849c2.868,0,5.193,2.619,5.193,5.849z"/>
				<path style="opacity:0.3667;fill:#F0F972;stroke:none;" d="M57.424,72.341c0,2.892-2.082,5.235-4.649,5.235c-2.567,0-4.648-2.344-4.648-5.235s2.081-5.235,4.648-5.235c2.567,0,4.649,2.344,4.649,5.235z"/>
				<path style="opacity:0.525;fill:#F4FA95;stroke:none;" d="M56.879,72.341c0,2.553-1.838,4.622-4.104,4.622s-4.104-2.069-4.104-4.622c0-2.553,1.837-4.622,4.104-4.622s4.104,2.069,4.104,4.622z"/>
				<path style="opacity:0.6833;fill:#F7FCB7;stroke:none;" d="M56.334,72.341c0,2.214-1.594,4.009-3.56,4.009c-1.966,0-3.559-1.794-3.559-4.009c0-2.214,1.593-4.009,3.559-4.009c1.965,0,3.56,1.795,3.56,4.009z"/>
				<path style="opacity:0.8417;fill:#FBFDDB;stroke:none;" d="M55.79,72.341c0,1.875-1.351,3.395-3.015,3.395c-1.665,0-3.014-1.52-3.014-3.395s1.349-3.396,3.014-3.396c1.665,0,3.015,1.52,3.015,3.396z"/>
				<path style="fill:#FFFFFF;stroke:none;" d="M55.246,72.341c0,1.537-1.107,2.782-2.471,2.782c-1.364,0-2.47-1.245-2.47-2.782s1.105-2.782,2.47-2.782c1.364,0,2.471,1.246,2.471,2.782z"/>
			</g>
		</g>
		<path style="opacity:0.3;stroke:none;" d="M77.044,86.532h-6.717l12.378,6.92l-5.661-6.92z"/>
		<path style="fill:#515151;stroke:none;" d="M66.492,85.654h10.333l1.579-1.186h-3.356c0,0,3.164-0.665,3.558-4.594c0.395-3.929-4.816-8.492-4.816-8.492s0.006,0.033,0.02,0.096c0.178,0.882,1.495,7.612,0.631,10.247c-0.461,2.298-1.763,2.743-1.763,2.743h-6.515
			l0.329,1.186z"/>
		<path style="fill:#515151;stroke:none;" d="M72.649,83.923h-5.964l7.043-12.083l-1.079,12.083z"/>
		<path style="opacity:0.2;stroke:none;" d="M134.244,147.656H93.463V25.981h40.781v121.675z"/>
		<path style="opacity:0.2;stroke:none;" d="M83.856,147.656H43.074v-41.675h40.782v41.675z"/>
		<path style="opacity:0.2;stroke:none;" d="M83.856,53.767H43.074V25.981h40.782v27.786z"/>
	</g>
</svg>
