<?xml version="1.0" encoding="iso-8859-1"?>
<!DOCTYPE svg PUBLIC "-//W3C//DTD SVG 20000303 Stylable//EN"   "http://www.w3.org/TR/2000/03/WD-SVG-20000303/DTD/svg-20000303-stylable.dtd">
<!-- Generator: Adobe Illustrator 9.0, SVG Export Plug-In  -->
<svg  width="361.254pt" height="306.999pt" viewBox="0 0 361.254 306.999" xml:space="preserve">
	<g id="Layer_x0020_1" style="fill-rule:nonzero;clip-rule:nonzero;stroke:#000000;stroke-miterlimit:4;">
		<path style="stroke:none;" d="M146.39,65.045c-24.563,20.893-38.091,48.963-38.091,79.042c0,30.078,13.528,58.148,38.091,79.041c23.725,20.179,55.115,31.292,88.387,31.292s64.662-11.113,88.386-31.292c24.564-20.893,38.092-48.964,38.092-79.041
			c0-30.079-13.527-58.149-38.092-79.042c-23.724-20.18-55.113-31.293-88.386-31.293s-64.662,11.113-88.387,31.293z M207.462,144.087c0-11.1,12.508-20.475,27.314-20.475c14.806,0,27.314,9.375,27.314,20.475c0,11.098-12.509,20.475-27.314,20.475
			c-14.807,0-27.314-9.377-27.314-20.475z"/>
		<linearGradient id="aigrd1" gradientUnits="userSpaceOnUse" x1="209.0181" y1="75.9746" x2="255.3993" y2="198.9851">
			<stop  offset="0" style="stop-color:#FFFFFF"/>
			<stop  offset="1" style="stop-color:#9B9B9B"/>
		</linearGradient>
		<path style="fill:url(#aigrd1);stroke:none;" d="M151.32,70.534c-22.624,19.242-35.083,44.969-35.083,72.441c0,27.472,12.459,53.199,35.083,72.441c22.216,18.896,51.679,29.303,82.96,29.303c31.282,0,60.745-10.407,82.96-29.303
			c22.624-19.242,35.085-44.97,35.085-72.441c0-27.473-12.461-53.199-35.085-72.441c-22.215-18.896-51.678-29.303-82.96-29.303c-31.281,0-60.745,10.407-82.96,29.303z M202.763,142.976c0-14.042,14.139-25.467,31.518-25.467s31.519,11.425,31.519,25.467
			s-14.14,25.467-31.519,25.467s-31.518-11.425-31.518-25.467z"/>
		<linearGradient id="aigrd2" gradientUnits="userSpaceOnUse" x1="255.1509" y1="256.7285" x2="212.1584" y2="29.1211">
			<stop  offset="0" style="stop-color:#FFFFFF"/>
			<stop  offset="0.4944" style="stop-color:#858585"/>
			<stop  offset="0.5225" style="stop-color:#FFFFFF"/>
			<stop  offset="1" style="stop-color:#C2C2C2"/>
		</linearGradient>
		<path style="fill:url(#aigrd2);stroke:none;" d="M233.291,44.805c-62.458,0-113.09,43.065-113.09,96.188c0,53.124,50.632,96.189,113.09,96.189c62.457,0,113.089-43.065,113.089-96.189c0-53.123-50.632-96.188-113.089-96.188z M234.281,173.997
			c-20.144,0-36.473-13.889-36.473-31.021s16.329-31.022,36.473-31.022s36.473,13.89,36.473,31.022s-16.329,31.021-36.473,31.021z"/>
		<linearGradient id="aigrd3" gradientUnits="userSpaceOnUse" x1="222.814" y1="103.5044" x2="246.1076" y2="181.1502">
			<stop  offset="0" style="stop-color:#FFFFFF"/>
			<stop  offset="1" style="stop-color:#C2C2C2"/>
		</linearGradient>
		<path style="opacity:0.79;fill:url(#aigrd3);stroke:none;" d="M234.358,92.973c-32.837,0-59.455,21.942-59.455,49.01c0,27.068,26.618,49.011,59.455,49.011c32.836,0,59.455-21.942,59.455-49.011c0-27.067-26.619-49.01-59.455-49.01z M234.358,167.96
			c-18.637,0-33.745-11.63-33.745-25.978s15.108-25.978,33.745-25.978s33.745,11.63,33.745,25.978s-15.108,25.978-33.745,25.978z"/>
		<path style="fill:#AFAFAF;stroke:none;" d="M256.531,124.955c-18.563-13.364-41.992-2.733-47.134,2.408c-5.142,5.141-8.279,15.521-3.344,26.932c-9.672-14.025-4.699-24.052,0.762-29.513c10.196-10.196,35.464-14.078,49.716,0.173z"/>
		<path style="fill:#FFFFFF;stroke:none;" d="M212.847,161.542c18.563,13.365,41.374,3.229,47.134-3.839c4.593-5.637,7.791-14.092,2.854-25.5c9.672,14.025,3.156,23.718-1.457,28.33c-6.832,6.833-30.837,15.591-48.531,1.009z"/>
		<path style="stroke:none;" d="M114.951,37.392C90.388,58.284,76.86,86.355,76.86,116.434c0,30.079,13.528,58.149,38.091,79.041c23.725,20.179,55.114,31.293,88.386,31.293c33.273,0,64.663-11.114,88.387-31.293c24.564-20.892,38.092-48.964,38.092-79.041
			c0-30.078-13.527-58.149-38.092-79.042C268,17.212,236.611,6.099,203.337,6.099c-33.272,0-64.661,11.113-88.386,31.293z M176.023,116.434c0-11.099,12.508-20.475,27.314-20.475c14.807,0,27.314,9.376,27.314,20.475c0,11.098-12.508,20.475-27.314,20.475
			c-14.806,0-27.314-9.377-27.314-20.475z"/>
		<linearGradient id="aigrd4" gradientUnits="userSpaceOnUse" x1="177.5791" y1="48.3213" x2="223.9603" y2="171.3318">
			<stop  offset="0" style="stop-color:#FFFFFF"/>
			<stop  offset="1" style="stop-color:#9B9B9B"/>
		</linearGradient>
		<path style="fill:url(#aigrd4);stroke:none;" d="M119.881,42.881c-22.624,19.243-35.083,44.97-35.083,72.441s12.459,53.199,35.083,72.441c22.216,18.896,51.679,29.303,82.961,29.303c31.282,0,60.745-10.407,82.96-29.303c22.624-19.242,35.085-44.97,35.085-72.441
			s-12.461-53.198-35.085-72.441c-22.215-18.896-51.678-29.303-82.96-29.303c-31.282,0-60.745,10.407-82.961,29.303z M171.324,115.322c0-14.042,14.139-25.467,31.518-25.467s31.519,11.425,31.519,25.467c0,14.043-14.14,25.468-31.519,25.468
			s-31.518-11.425-31.518-25.468z"/>
		<linearGradient id="aigrd5" gradientUnits="userSpaceOnUse" x1="223.7124" y1="229.0752" x2="180.7199" y2="1.4678">
			<stop  offset="0" style="stop-color:#FFFFFF"/>
			<stop  offset="0.4944" style="stop-color:#858585"/>
			<stop  offset="0.5225" style="stop-color:#FFFFFF"/>
			<stop  offset="1" style="stop-color:#C2C2C2"/>
		</linearGradient>
		<path style="fill:url(#aigrd5);stroke:none;" d="M201.851,17.151c-62.457,0-113.089,43.065-113.089,96.189c0,53.123,50.632,96.188,113.089,96.188c62.458,0,113.09-43.065,113.09-96.188c0-53.124-50.632-96.189-113.09-96.189z M202.842,146.344
			c-20.144,0-36.473-13.888-36.473-31.021c0-17.133,16.33-31.022,36.473-31.022c20.143,0,36.473,13.89,36.473,31.022c0,17.134-16.33,31.021-36.473,31.021z"/>
		<linearGradient id="aigrd6" gradientUnits="userSpaceOnUse" x1="191.3755" y1="75.8516" x2="214.6689" y2="153.4966">
			<stop  offset="0" style="stop-color:#FFFFFF"/>
			<stop  offset="1" style="stop-color:#C2C2C2"/>
		</linearGradient>
		<path style="opacity:0.79;fill:url(#aigrd6);stroke:none;" d="M202.919,65.319c-32.836,0-59.456,21.942-59.456,49.011c0,27.067,26.619,49.01,59.456,49.01c32.836,0,59.455-21.942,59.455-49.01c0-27.068-26.619-49.011-59.455-49.011z M202.919,140.308
			c-18.637,0-33.745-11.631-33.745-25.978c0-14.348,15.108-25.979,33.745-25.979s33.745,11.631,33.745,25.979c0,14.347-15.108,25.978-33.745,25.978z"/>
		<path style="fill:#AFAFAF;stroke:none;" d="M225.091,97.302c-18.562-13.363-41.992-2.733-47.133,2.408c-5.142,5.141-8.279,15.522-3.344,26.932c-9.671-14.025-4.699-24.052,0.762-29.513c10.196-10.196,35.464-14.078,49.715,0.173z"/>
		<path style="fill:#FFFFFF;stroke:none;" d="M181.409,133.89c18.563,13.364,41.374,3.229,47.134-3.84c4.593-5.637,7.791-14.091,2.854-25.5c9.672,14.025,3.156,23.718-1.457,28.33c-6.832,6.833-30.837,15.592-48.531,1.01z"/>
		<path style="stroke:none;" d="M59.124,31.293c-24.563,20.892-38.091,48.963-38.091,79.041c0,30.079,13.528,58.149,38.091,79.041c23.725,20.179,55.115,31.293,88.387,31.293s64.662-11.114,88.386-31.293c24.565-20.892,38.092-48.964,38.092-79.041
			c0-30.078-13.526-58.148-38.092-79.041C212.173,11.113,180.784,0,147.511,0S82.849,11.113,59.124,31.293z M120.196,110.334c0-11.099,12.509-20.475,27.315-20.475c14.806,0,27.314,9.376,27.314,20.475c0,11.098-12.508,20.475-27.314,20.475
			c-14.806,0-27.315-9.377-27.315-20.475z"/>
		<linearGradient id="aigrd7" gradientUnits="userSpaceOnUse" x1="121.7529" y1="42.2227" x2="168.1339" y2="165.2326">
			<stop  offset="0" style="stop-color:#FFFFFF"/>
			<stop  offset="1" style="stop-color:#9B9B9B"/>
		</linearGradient>
		<path style="fill:url(#aigrd7);stroke:none;" d="M64.055,36.782c-22.624,19.243-35.083,44.969-35.083,72.442c0,27.471,12.459,53.198,35.083,72.44c22.216,18.896,51.679,29.303,82.96,29.303c31.283,0,60.745-10.406,82.961-29.303
			c22.624-19.242,35.084-44.97,35.084-72.44c0-27.473-12.46-53.199-35.084-72.442C207.76,17.886,178.298,7.479,147.015,7.479c-31.282,0-60.745,10.407-82.96,29.303z M115.497,109.224c0-14.043,14.139-25.467,31.518-25.467s31.519,11.424,31.519,25.467
			c0,14.042-14.14,25.467-31.519,25.467s-31.518-11.425-31.518-25.467z"/>
		<linearGradient id="aigrd8" gradientUnits="userSpaceOnUse" x1="167.8857" y1="222.9756" x2="124.8933" y2="-4.6318">
			<stop  offset="0" style="stop-color:#FFFFFF"/>
			<stop  offset="0.4944" style="stop-color:#858585"/>
			<stop  offset="0.5225" style="stop-color:#FFFFFF"/>
			<stop  offset="1" style="stop-color:#C2C2C2"/>
		</linearGradient>
		<path style="fill:url(#aigrd8);stroke:none;" d="M146.024,11.052c-62.457,0-113.089,43.065-113.089,96.189c0,53.123,50.632,96.188,113.089,96.188c62.458,0,113.09-43.065,113.09-96.188c0-53.124-50.632-96.189-113.09-96.189z M147.015,140.245
			c-20.143,0-36.473-13.889-36.473-31.021c0-17.134,16.33-31.022,36.473-31.022s36.473,13.889,36.473,31.022c0,17.133-16.33,31.021-36.473,31.021z"/>
		<linearGradient id="aigrd9" gradientUnits="userSpaceOnUse" x1="135.5493" y1="69.752" x2="158.8428" y2="147.397">
			<stop  offset="0" style="stop-color:#FFFFFF"/>
			<stop  offset="1" style="stop-color:#C2C2C2"/>
		</linearGradient>
		<path style="opacity:0.79;fill:url(#aigrd9);stroke:none;" d="M147.092,59.22c-32.836,0-59.455,21.943-59.455,49.01s26.619,49.01,59.455,49.01c32.836,0,59.455-21.942,59.455-49.01s-26.619-49.01-59.455-49.01z M147.092,134.208
			c-18.637,0-33.745-11.631-33.745-25.978c0-14.348,15.108-25.978,33.745-25.978c18.637,0,33.745,11.63,33.745,25.978c0,14.347-15.108,25.978-33.745,25.978z"/>
		<path style="fill:#AFAFAF;stroke:none;" d="M169.265,91.203c-18.562-13.364-41.992-2.733-47.133,2.407c-5.142,5.142-8.279,15.522-3.344,26.932c-9.671-14.025-4.699-24.052,0.762-29.513c10.196-10.196,35.463-14.078,49.715,0.174z"/>
		<path style="fill:#FFFFFF;stroke:none;" d="M125.582,127.79c18.562,13.364,41.374,3.229,47.133-3.839c4.593-5.637,7.791-14.092,2.855-25.5c9.671,14.025,3.156,23.718-1.457,28.329c-6.832,6.833-30.837,15.592-48.531,1.01z"/>
		<path style="stroke:none;" d="M38.091,117.624C13.528,138.517,0,166.588,0,196.665c0,30.079,13.528,58.149,38.091,79.041c23.725,20.18,55.115,31.293,88.387,31.293c33.272,0,64.662-11.113,88.385-31.293c24.565-20.892,38.092-48.963,38.092-79.041
			c0-30.077-13.526-58.148-38.092-79.041c-23.724-20.18-55.113-31.293-88.385-31.293c-33.272,0-64.662,11.113-88.387,31.293z M99.164,196.665c0-11.098,12.508-20.475,27.315-20.475c14.806,0,27.314,9.377,27.314,20.475c0,11.099-12.508,20.475-27.314,20.475
			c-14.807,0-27.315-9.376-27.315-20.475z"/>
		<linearGradient id="aigrd10" gradientUnits="userSpaceOnUse" x1="100.7197" y1="128.5542" x2="147.1007" y2="251.5641">
			<stop  offset="0" style="stop-color:#FFFFFF"/>
			<stop  offset="1" style="stop-color:#9B9B9B"/>
		</linearGradient>
		<path style="fill:url(#aigrd10);stroke:none;" d="M43.022,123.113c-22.624,19.243-35.083,44.97-35.083,72.441s12.459,53.198,35.083,72.44c22.216,18.896,51.679,29.303,82.96,29.303c31.283,0,60.745-10.406,82.96-29.303c22.624-19.242,35.084-44.969,35.084-72.44
			s-12.46-53.198-35.084-72.441c-22.216-18.896-51.678-29.303-82.96-29.303c-31.282,0-60.745,10.406-82.96,29.303z M94.464,195.555c0-14.043,14.139-25.467,31.518-25.467s31.518,11.424,31.518,25.467c0,14.042-14.139,25.467-31.518,25.467
			s-31.518-11.425-31.518-25.467z"/>
		<linearGradient id="aigrd11" gradientUnits="userSpaceOnUse" x1="146.8525" y1="309.3076" x2="103.8601" y2="81.7002">
			<stop  offset="0" style="stop-color:#FFFFFF"/>
			<stop  offset="0.4944" style="stop-color:#858585"/>
			<stop  offset="0.5225" style="stop-color:#FFFFFF"/>
			<stop  offset="1" style="stop-color:#C2C2C2"/>
		</linearGradient>
		<path style="fill:url(#aigrd11);stroke:none;" d="M124.991,97.384c-62.457,0-113.089,43.065-113.089,96.188s50.632,96.189,113.089,96.189c62.458,0,113.089-43.066,113.089-96.189s-50.632-96.188-113.089-96.188z M125.982,226.576
			c-20.144,0-36.473-13.889-36.473-31.021s16.329-31.022,36.473-31.022c20.143,0,36.473,13.89,36.473,31.022s-16.33,31.021-36.473,31.021z"/>
		<linearGradient id="aigrd12" gradientUnits="userSpaceOnUse" x1="114.5151" y1="156.0825" x2="137.8088" y2="233.7283">
			<stop  offset="0" style="stop-color:#FFFFFF"/>
			<stop  offset="1" style="stop-color:#C2C2C2"/>
		</linearGradient>
		<path style="opacity:0.79;fill:url(#aigrd12);stroke:none;" d="M126.059,145.551c-32.836,0-59.455,21.943-59.455,49.012c0,27.066,26.619,49.009,59.455,49.009s59.455-21.942,59.455-49.009c0-27.068-26.619-49.012-59.455-49.012z M126.059,220.539
			c-18.637,0-33.745-11.631-33.745-25.977c0-14.348,15.108-25.979,33.745-25.979c18.638,0,33.746,11.631,33.746,25.979c0,14.346-15.108,25.977-33.746,25.977z"/>
		<path style="fill:#AFAFAF;stroke:none;" d="M148.232,177.534c-18.563-13.363-41.992-2.733-47.134,2.408c-5.141,5.142-8.279,15.522-3.343,26.931c-9.672-14.025-4.699-24.052,0.762-29.513c10.195-10.195,35.463-14.078,49.715,0.174z"/>
		<path style="fill:#FFFFFF;stroke:none;" d="M104.549,214.122c18.562,13.363,41.374,3.228,47.133-3.84c4.594-5.637,7.791-14.091,2.855-25.5c9.671,14.025,3.156,23.718-1.457,28.329c-6.833,6.834-30.837,15.592-48.531,1.011z"/>
	</g>
</svg>
