<?xml version="1.0" encoding="iso-8859-1"?>
<!DOCTYPE svg PUBLIC "-//W3C//DTD SVG 20000303 Stylable//EN"   "http://www.w3.org/TR/2000/03/WD-SVG-20000303/DTD/svg-20000303-stylable.dtd">
<!-- Generator: Adobe Illustrator 9.0, SVG Export Plug-In  -->
<svg  width="520.621pt" height="428.747pt" viewBox="0 0 520.621 428.747" xml:space="preserve">
	<g id="Layer_x0020_1" style="fill-rule:nonzero;clip-rule:nonzero;stroke:#000000;stroke-miterlimit:4;">
		<path style="opacity:0.35;stroke:none;" d="M469.951,320.536c0,43.575-88.875,78.9-198.51,78.9c-109.634,0-198.51-35.325-198.51-78.9s88.876-78.899,198.51-78.899c109.635,0,198.51,35.324,198.51,78.899z"/>
		<path style="stroke:none;" d="M99.766,85.754c-39.083,33.243-60.608,77.908-60.608,125.766c0,47.859,21.525,92.523,60.608,125.767c37.75,32.107,87.695,49.791,140.637,49.791c52.94,0,102.886-17.684,140.635-49.791c39.085-33.243,60.609-77.908,60.609-125.767
			s-21.524-92.523-60.609-125.766c-37.749-32.109-87.694-49.792-140.635-49.792c-52.941,0-102.887,17.683-140.637,49.792z M196.941,211.52c0-17.659,19.903-32.578,43.462-32.578c23.559,0,43.461,14.919,43.461,32.578s-19.902,32.578-43.461,32.578
			c-23.559,0-43.462-14.919-43.462-32.578z"/>
		<linearGradient id="aigrd1" gradientUnits="userSpaceOnUse" x1="199.4165" y1="103.1436" x2="273.2157" y2="298.871">
			<stop  offset="0" style="stop-color:#FFFFFF"/>
			<stop  offset="1" style="stop-color:#9B9B9B"/>
		</linearGradient>
		<path style="fill:url(#aigrd1);stroke:none;" d="M107.611,94.487c-35.998,30.618-55.823,71.553-55.823,115.265s19.825,84.647,55.823,115.265c35.349,30.066,82.229,46.625,132.002,46.625c49.774,0,96.653-16.559,132.002-46.625
			c35.998-30.618,55.823-71.553,55.823-115.265c0-43.711-19.825-84.646-55.823-115.265c-35.349-30.066-82.228-46.625-132.002-46.625c-49.774,0-96.654,16.559-132.002,46.625z M189.464,209.752c0-22.343,22.497-40.521,50.15-40.521
			c27.652,0,50.149,18.178,50.149,40.521c0,22.344-22.497,40.522-50.149,40.522c-27.653,0-50.15-18.178-50.15-40.522z"/>
		<linearGradient id="aigrd2" gradientUnits="userSpaceOnUse" x1="272.8228" y1="390.7573" x2="204.4146" y2="28.5961">
			<stop  offset="0" style="stop-color:#FFFFFF"/>
			<stop  offset="0.4944" style="stop-color:#858585"/>
			<stop  offset="0.5225" style="stop-color:#FFFFFF"/>
			<stop  offset="1" style="stop-color:#C2C2C2"/>
		</linearGradient>
		<path style="fill:url(#aigrd2);stroke:none;" d="M238.037,53.548c-99.378,0-179.941,68.523-179.941,153.05c0,84.528,80.563,153.051,179.941,153.051c99.38,0,179.941-68.522,179.941-153.051c0-84.527-80.562-153.05-179.941-153.05z M239.614,259.113
			c-32.051,0-58.034-22.099-58.034-49.361c0-27.261,25.982-49.36,58.034-49.36c32.051,0,58.033,22.1,58.033,49.36c0,27.262-25.982,49.361-58.033,49.361z"/>
		<linearGradient id="aigrd3" gradientUnits="userSpaceOnUse" x1="221.3687" y1="146.9473" x2="258.4326" y2="270.4942">
			<stop  offset="0" style="stop-color:#FFFFFF"/>
			<stop  offset="1" style="stop-color:#C2C2C2"/>
		</linearGradient>
		<path style="opacity:0.79;fill:url(#aigrd3);stroke:none;" d="M239.736,130.19c-52.247,0-94.602,34.914-94.602,77.983s42.354,77.983,94.602,77.983s94.603-34.914,94.603-77.983s-42.355-77.983-94.603-77.983z M239.736,249.507
			c-29.654,0-53.693-18.506-53.693-41.334c0-22.829,24.039-41.335,53.693-41.335c29.654,0,53.693,18.506,53.693,41.335c0,22.829-24.039,41.334-53.693,41.334z"/>
		<path style="fill:#AFAFAF;stroke:none;" d="M275.015,181.079c-29.534-21.264-66.815-4.349-74.996,3.832s-13.173,24.698-5.32,42.852c-15.389-22.316-7.477-38.27,1.213-46.959c16.223-16.223,56.427-22.4,79.103,0.276z"/>
		<path style="fill:#FFFFFF;stroke:none;" d="M205.51,239.295c29.535,21.264,65.832,5.137,74.996-6.109c7.308-8.969,12.396-22.42,4.543-40.573c15.389,22.316,5.021,37.738-2.318,45.076c-10.872,10.873-49.066,24.808-77.221,1.606z"/>
		<path style="fill:none;stroke:none;" d="M520.621,428.747H0V0h520.621v428.747z"/>
	</g>
</svg>
