<?xml version="1.0" encoding="iso-8859-1"?>
<!-- Generator: Adobe Illustrator 9.0, SVG Export Plug-In  -->
<!DOCTYPE svg PUBLIC "-//W3C//DTD SVG 20000303 Stylable//EN"   "http://www.w3.org/TR/2000/03/WD-SVG-20000303/DTD/svg-20000303-stylable.dtd" [
	<!ENTITY st0 "fill:url(#aigrd1);stroke:none;">
	<!ENTITY st1 "fill:#000000;stroke:none;">
	<!ENTITY st2 "opacity:0.35;fill:#000000;stroke:none;">
	<!ENTITY st3 "fill:#9C9C9C;stroke:none;">
	<!ENTITY st4 "fill:url(#aigrd3);stroke:none;">
	<!ENTITY st5 "fill-rule:nonzero;clip-rule:nonzero;fill:#FFFFFF;stroke:#000000;stroke-miterlimit:4;">
	<!ENTITY st6 "fill:url(#aigrd2);stroke:none;">
	<!ENTITY st7 "fill:#BEBEBE;stroke:none;">
	<!ENTITY st8 "fill-rule:nonzero;clip-rule:nonzero;stroke:#000000;stroke-miterlimit:4;">
	<!ENTITY st9 "fill:#6E6E6E;stroke:none;">
	<!ENTITY st10 "stroke:none;">
	<!ENTITY st11 "fill:url(#aigrd4);stroke:none;">
]>
<svg  width="207.9pt" height="179.887pt" viewBox="0 0 207.9 179.887" xml:space="preserve">
	<g id="Layer_x0020_1" style="&st5;">
		<path style="&st2;" d="M145.326,178.648c-14.998,2.891-125.286,0.938-133.223-7.219c-7.936-8.153,47.936-44.456,67.649-46.86c19.713-2.404,116.354,10.577,126.931,21.155s-46.359,30.034-61.356,32.924z"/>
		<path style="&st1;" d="M22,0C9.869,0,0,9.869,0,22v129.791c0,12.131,9.869,22,22,22h115.802c12.131,0,22-9.869,22-22V22c0-12.131-9.869-22-22-22H22z"/>
		<linearGradient id="aigrd1" gradientUnits="userSpaceOnUse" x1="38.9507" y1="17.4941" x2="120.6731" y2="159.4595">
			<stop  offset="0" style="stop-color:#F0F0F0"/>
			<stop  offset="1" style="stop-color:#D6D6D6"/>
		</linearGradient>
		<path style="&st0;" d="M148.802,151.791c0,6.627-5.373,12-12,12H21c-6.627,0-12-5.373-12-12V22c0-6.627,5.373-12,12-12h115.802c6.627,0,12,5.373,12,12v129.791z"/>
		<g>
			<radialGradient id="aigrd2" cx="20.8921" cy="114.5684" r="5.256" fx="20.8921" fy="114.5684" gradientUnits="userSpaceOnUse">
				<stop  offset="0" style="stop-color:#F0F0F0"/>
				<stop  offset="1" style="stop-color:#474747"/>
			</radialGradient>
			<path style="&st6;" d="M23.428,113.07c0,1.973-1.6,3.572-3.573,3.572c-1.974,0-3.573-1.6-3.573-3.572c0-1.974,1.6-3.573,3.573-3.573c1.973,0,3.573,1.6,3.573,3.573z"/>
			<radialGradient id="aigrd3" cx="20.8921" cy="64.5679" r="5.257" fx="20.8921" fy="64.5679" gradientUnits="userSpaceOnUse">
				<stop  offset="0" style="stop-color:#F0F0F0"/>
				<stop  offset="1" style="stop-color:#474747"/>
			</radialGradient>
			<path style="&st4;" d="M23.428,63.07c0,1.973-1.6,3.573-3.573,3.573c-1.974,0-3.573-1.6-3.573-3.573c0-1.974,1.6-3.573,3.573-3.573c1.973,0,3.573,1.6,3.573,3.573z"/>
		</g>
		<path style="&st10;" d="M31.679,163.711h-1.613V12.642h1.613v151.069z"/>
		<linearGradient id="aigrd4" gradientUnits="userSpaceOnUse" x1="30.1479" y1="16.8438" x2="28.364" y2="158.226">
			<stop  offset="0" style="stop-color:#EDEDED"/>
			<stop  offset="1" style="stop-color:#CACACA"/>
		</linearGradient>
		<path style="&st11;" d="M30.054,163.711h-1.613V12.642h1.613v151.069z"/>
		<path style="&st10;" d="M14.393,26.155l-2.618,133.308c-1.902-1.901-2.662-6.036-2.662-6.036L8.952,21.509c0,0-0.159-3.403,2.963-7.335c3.16-3.98,8.421-4.22,8.421-4.22l118.165,0.168l-113.615,5.54c-4.588,0-7.045,2.273-8.048,3.467
			c-0.812,0.967-2.392,4.104-2.445,7.026z"/>
		<path style="&st7;" d="M143.945,147.664l2.617-133.308c1.902,1.9,2.662,6.035,2.662,6.035l0.161,131.918c0,0,0.159,3.402-2.963,7.335c-3.159,3.98-8.421,4.22-8.421,4.22l-118.166-0.168l113.616-5.54c4.588,0,7.045-2.273,8.048-3.467
			c0.812-0.967,2.392-4.104,2.445-7.025z"/>
	</g>
	<g id="nota" style="&st8;">
		<path style="&st10;" d="M94.524,32.917c-3.015,0.581-5.192,3.218-5.192,6.288c0,0.002,0.061,46.897,0.077,61.024c-5.669-1.09-12.14-0.748-18.604,1.263c-9.345,2.906-17.088,8.761-20.713,15.662c-2.356,4.486-2.89,9.146-1.542,13.474
			c1.345,4.328,4.428,7.863,8.914,10.222c6.899,3.627,16.596,4.056,25.941,1.148c14.279-4.442,23.697-14.963,22.902-25.585c0.011,0.159,0.018,0.318,0.018,0.479c0,0,0-29.358,0-43.075c9.228,3.789,13.58,6.396,13.58,13.792c0,3.25,2.435,5.984,5.662,6.36
			c3.229,0.375,6.226-1.728,6.971-4.891c4.552-19.31-6.055-27.471-15.412-34.671c-6.265-4.82-12.182-9.372-15.443-17.569c-1.138-2.855-4.141-4.5-7.158-3.92z"/>
		<path style="&st9;" d="M97.362,60.574c6.207,6.207,26.384,6.335,26.384,24.474c6.209-26.337-21.246-24.971-30.572-48.404l0.089,70.428c-5.032-3.862-13.966-4.874-23.117-2.027c-12.395,3.856-20.476,13.313-18.044,21.12c2.428,7.813,14.447,11.016,26.841,7.159
			c11.29-3.511,18.968-11.665,18.42-18.993V60.574z"/>
		<path style="&st3;" d="M62.828,134.37c-15.507-15.507,16.91-30.941,32.431-25.18l0.128-67.965c0,0-0.778-0.887-2.213-4.582l0.089,70.428c-5.032-3.862-13.966-4.874-23.117-2.027c-12.395,3.856-20.476,13.313-18.044,21.12c2.428,7.813,10.727,8.206,10.727,8.206z"
			/>
	</g>
</svg>
