<?xml version="1.0" encoding="iso-8859-1"?>
<!-- Generator: Adobe Illustrator 9.0, SVG Export Plug-In  -->
<!DOCTYPE svg PUBLIC "-//W3C//DTD SVG 20000303 Stylable//EN"   "http://www.w3.org/TR/2000/03/WD-SVG-20000303/DTD/svg-20000303-stylable.dtd" [
	<!ENTITY st0 "opacity:0.22;stroke:none;">
	<!ENTITY st1 "fill:url(#aigrd1);stroke:none;">
	<!ENTITY st2 "fill:#535445;stroke:none;">
	<!ENTITY st3 "fill:url(#aigrd11);stroke:none;">
	<!ENTITY st4 "opacity:0.08;stroke:none;">
	<!ENTITY st5 "fill:#CAD071;stroke:none;">
	<!ENTITY st6 "fill:url(#aigrd6);stroke:none;">
	<!ENTITY st7 "fill:url(#aigrd3);stroke:none;">
	<!ENTITY st8 "fill:#A3A76A;stroke:none;">
	<!ENTITY st9 "fill:url(#aigrd10);stroke:none;">
	<!ENTITY st10 "fill:url(#aigrd8);stroke:none;">
	<!ENTITY st11 "fill:#FFFFFF;stroke:none;">
	<!ENTITY st12 "fill:url(#aigrd5);stroke:none;">
	<!ENTITY st13 "opacity:0.55;fill:#FFFFFF;stroke:none;">
	<!ENTITY st14 "opacity:0.36;fill:#FFFFFF;stroke:none;">
	<!ENTITY st15 "fill:url(#aigrd2);stroke:none;">
	<!ENTITY st16 "opacity:0.25;stroke:none;">
	<!ENTITY st17 "opacity:0.53;fill:url(#aigrd9);stroke:none;">
	<!ENTITY st18 "fill:#F0F970;stroke:none;">
	<!ENTITY st19 "fill-rule:nonzero;clip-rule:nonzero;stroke:#000000;stroke-miterlimit:4;">
	<!ENTITY st20 "fill:url(#aigrd7);stroke:none;">
	<!ENTITY st21 "stroke:none;">
	<!ENTITY st22 "fill:#2A2A26;stroke:none;">
	<!ENTITY st23 "fill:url(#aigrd4);stroke:none;">
	<!ENTITY st24 "fill:#7B7D5B;stroke:none;">
]>
<svg  width="344.234pt" height="286.46pt" viewBox="0 0 344.234 286.46" xml:space="preserve">
	<g id="Layer_x0020_1" style="&st19;">
		<path style="&st16;" d="M336.252,175.303l-41.519-10.913l18.099-12.099c8.082-5.287,5.287-17.674-3-20.277L187.148,92.221l-56.064,80.728l68.986-3.607l-5.386,109.771l144.923-85.056c9.801-6.635,3.656-17.088-3.354-18.754z"/>
		<path style="&st21;" d="M275.865,114.05c0,0-4.785-1.423-6.094-1.813c-3.922-3.268-8.862-5.269-14.212-5.695c-0.412-0.117-13.558-3.841-18.587-5.266c4.008-28.147,11.107-37.623,13.39-38.704c5.212-2.469,8.579-7.789,8.579-13.553l-0.062-1.356
			c-0.567-6.245-5.016-11.523-11.068-13.14L120.282,0.465c-3.239-0.865-6.719-0.612-9.798,0.713C93.963,8.285,84.119,28.568,80.392,63.051c-13.606,5.556-30.042,21.772-50.091,49.405c-1.041,0.813-24.531,19.148-24.531,19.148C2.104,134.465,0,138.775,0,143.428
			l0.001,69.235c0,6.401,4.067,12.102,10.121,14.184c0,0,171.883,59.118,171.883,59.118c5.238,1.802,11.016,0.581,15.079-3.187l82.823-76.823c2.933-2.722,4.68-6.575,4.793-10.573l1.882-66.531c0-0.011,0.006-0.428,0.006-0.428c0-6.585-4.41-12.496-10.724-14.375z"
			/>
		<linearGradient id="aigrd1" gradientUnits="userSpaceOnUse" x1="189.2065" y1="241.8062" x2="271.6639" y2="144.7318">
			<stop  offset="0" style="stop-color:#9F9F9F"/>
			<stop  offset="1" style="stop-color:#828282"/>
		</linearGradient>
		<path style="&st1;" d="M269.998,133.327l-1.612,57c0,2.24-0.868,4.209-1.988,5.329l-75.262,69.81c-2.809,2.809-5.674-0.204-5.674-3.006l-0.002-60.966l81.001-70.754l3.537,2.586z"/>
		<linearGradient id="aigrd2" gradientUnits="userSpaceOnUse" x1="27.0127" y1="201.2124" x2="172.3056" y2="211.6771">
			<stop  offset="0" style="stop-color:#F8F8F8"/>
			<stop  offset="1" style="stop-color:#B5B5B5"/>
		</linearGradient>
		<path style="&st15;" d="M19.62,213.84c3.491,1.201,157.729,54.25,157.729,54.25c2.958,0.934,8.091,0.534,8.087-6.469l-0.001-59.985L19.712,144.637c-3.3-1.073-6.16,1.17-6.16,3.456c0,0,0.001,52.321,0.001,56.365c0,5.011,2.197,8.051,6.067,9.382z"/>
		<linearGradient id="aigrd3" gradientUnits="userSpaceOnUse" x1="225.4839" y1="135.1851" x2="99.4199" y2="140.9629">
			<stop  offset="0" style="stop-color:#CFCFCF"/>
			<stop  offset="1" style="stop-color:#FFFFFF"/>
		</linearGradient>
		<path style="&st7;" d="M265.43,126.115L98.263,76.4L18.41,138.73c-3.116,2.388,0.717,5.81,0.717,5.81l166.312,57.096l81.021-70.895l-1.03-4.626z"/>
		<linearGradient id="aigrd4" gradientUnits="userSpaceOnUse" x1="196.4956" y1="184.6328" x2="249.0483" y2="122.7642">
			<stop  offset="0" style="stop-color:#9F9F9F"/>
			<stop  offset="1" style="stop-color:#828282"/>
		</linearGradient>
		<path style="&st23;" d="M186.3,192.496l73.976-65.908c0,0-9.698-17.603-37.719,10.417S186.3,192.496,186.3,192.496z"/>
		<linearGradient id="aigrd5" gradientUnits="userSpaceOnUse" x1="43.7827" y1="152.2617" x2="292.8586" y2="103.2017">
			<stop  offset="0" style="stop-color:#F8F8F8"/>
			<stop  offset="1" style="stop-color:#B5B5B5"/>
		</linearGradient>
		<path style="&st12;" d="M252.319,121.357L90.268,74.799c-21.3,0-61.829,63.836-61.829,63.836L186.3,192.496c2.177-9.315,40.236-71.139,66.019-71.139z"/>
		<linearGradient id="aigrd6" gradientUnits="userSpaceOnUse" x1="132.1357" y1="112.335" x2="67.7559" y2="116.9331">
			<stop  offset="0" style="stop-color:#F8F8F8"/>
			<stop  offset="1" style="stop-color:#343434"/>
		</linearGradient>
		<path style="&st6;" d="M91.851,83.871L75.38,100.341l126.529,38.353l16.471-16.471L91.851,83.871z"/>
		<linearGradient id="aigrd7" gradientUnits="userSpaceOnUse" x1="173.2036" y1="32.2275" x2="135.1277" y2="189.9722">
			<stop  offset="0" style="stop-color:#FFFFFF"/>
			<stop  offset="0.2401" style="stop-color:#FBFBFB"/>
			<stop  offset="0.4951" style="stop-color:#EEEEEE"/>
			<stop  offset="0.756" style="stop-color:#D9D9D9"/>
			<stop  offset="1" style="stop-color:#BEBEBE"/>
		</linearGradient>
		<path style="&st20;" d="M242.498,48.105L114.968,14.047c-26.323,11.324-22.511,91.471-22.511,91.471l109.452,34.176l16.471-16.471c0,0,1.764-64.53,24.117-75.118z"/>
		<linearGradient id="aigrd8" gradientUnits="userSpaceOnUse" x1="176.0117" y1="194.0869" x2="137.3164" y2="182.3398">
			<stop  offset="0" style="stop-color:#F0F0F0"/>
			<stop  offset="1" style="stop-color:#FFFFFF"/>
		</linearGradient>
		<path style="&st10;" d="M18.02,141.108l-2.287,4.051c0,0,165.48,55.319,167.123,58.037c1.995,3.3,2.852,53.942,2.852,53.942s0.754-49.721,2.75-54.095s52.133-49.46,52.133-49.46s-52.849,46.237-56.123,46.237S18.02,141.108,18.02,141.108z"/>
		<g>
			<g>
				<path style="&st21;" d="M170.461,211.837l-0.35,6.775l-16.604-6.492l0.123-6.172l16.831,5.889z"/>
				<path style="&st22;" d="M170.093,211.736l-0.312,6.067l-14.924-5.82l0.108-5.527l15.127,5.28z"/>
				<path style="&st2;" d="M169.726,211.635l-0.273,5.359l-13.244-5.148l0.093-4.882l13.425,4.671z"/>
				<path style="&st24;" d="M169.357,211.534l-0.235,4.651l-11.564-4.477l0.078-4.237l11.721,4.063z"/>
				<path style="&st8;" d="M168.989,211.433l-0.197,3.943l-9.884-3.805l0.063-3.593l10.018,3.455z"/>
				<path style="&st5;" d="M168.622,211.332l-0.159,3.234l-8.204-3.133l0.048-2.947l8.315,2.846z"/>
				<path style="&st18;" d="M168.253,211.231l-0.121,2.526l-6.523-2.461l0.033-2.303l6.611,2.237z"/>
			</g>
		</g>
		<path style="&st11;" d="M13.53,147.883c0-3.715,1.018-6.625,4.879-9.153c0,0-1.261,2.182,0.676,5.892c-4.369-0.66-5.556,3.261-5.556,3.261z"/>
		<path style="&st4;" d="M238.129,49.76c-16.192,7.428-22.918,62.308-20.924,72.107l-2.195,2.196c-2.327-7.293,3.977-72.206,23.119-74.303z"/>
		<path style="&st0;" d="M117.21,29.459l97.334,25.246c-3.182,2.094-5.896,13.034-5.896,13.034l-96.822-26.688c0,0,1.04-9.73,5.384-11.592z"/>
		<path style="&st0;" d="M109.033,52.843l-2.172,12.103l95.201,25.688l2.862-12.344l-95.891-25.447z"/>
		<path style="&st0;" d="M105.93,77.669l-0.551,13.413l94.891,25.999l1-13.413L105.93,77.669z"/>
		<path style="&st14;" d="M75.38,100.341l126.832,42.83l16.168-19.948l-17.004,16.395L75.38,100.341z"/>
		<path style="&st0;" d="M218.38,123.223l21.262,2.155c3.54-2.155,9.481-4.021,12.677-4.021l-33.215-9.543l-0.724,11.409z"/>
		<path style="&st13;" d="M186.3,192.496c2.917-16.473,42.396-69.7,66.019-71.139c-37.309,2.706-68.302,63.958-66.019,71.139z"/>
		<path style="&st11;" d="M28.439,138.635c11.3-16.554,41.537-54.577,60.626-63.508c-22.259,2.706-53.122,50.948-60.626,63.508z"/>
		<linearGradient id="aigrd9" gradientUnits="userSpaceOnUse" x1="153.6616" y1="115.2549" x2="150.3081" y2="129.96">
			<stop  offset="0" style="stop-color:#F8F8F8"/>
			<stop  offset="1" style="stop-color:#343434"/>
		</linearGradient>
		<path style="&st17;" d="M92.458,105.518l108.919,34.101l13.064-12.767c-10.333,4.113-121.983-21.333-121.983-21.333z"/>
		<linearGradient id="aigrd10" gradientUnits="userSpaceOnUse" x1="184.3936" y1="262.7407" x2="184.3936" y2="267.0825">
			<stop  offset="0" style="stop-color:#9F9F9F"/>
			<stop  offset="1" style="stop-color:#828282"/>
		</linearGradient>
		<path style="&st9;" d="M185.436,259.379c0,0-2.944,7.854-6.98,8.97c3.476,1.115,8.609,0.732,11.875-2.152c-2.729,0-4.896-6.817-4.896-6.817z"/>
		<linearGradient id="aigrd11" gradientUnits="userSpaceOnUse" x1="264.7368" y1="133.2261" x2="268.4004" y2="128.913">
			<stop  offset="0" style="stop-color:#9F9F9F"/>
			<stop  offset="1" style="stop-color:#AAAAAA"/>
		</linearGradient>
		<path style="&st3;" d="M265.43,126.115c2.222,0,4.65,4.277,4.567,7.212c0,0-3.787-2.234-6.498,0c2.806-3.283,1.931-7.212,1.931-7.212z"/>
	</g>
</svg>
