<?xml version="1.0" encoding="iso-8859-1"?>
<!DOCTYPE svg PUBLIC "-//W3C//DTD SVG 20000303 Stylable//EN"   "http://www.w3.org/TR/2000/03/WD-SVG-20000303/DTD/svg-20000303-stylable.dtd">
<!-- Generator: Adobe Illustrator 9.0, SVG Export Plug-In  -->
<svg  width="242.079pt" height="242.079pt" viewBox="0 0 242.079 242.079" xml:space="preserve">
	<g id="Layer_x0020_1" style="fill-rule:nonzero;clip-rule:nonzero;stroke:#000000;stroke-miterlimit:4;">
		<path style="stroke:none;" d="M0,121.039c0,66.739,54.298,121.04,121.039,121.04c66.739,0,121.04-54.301,121.04-121.04C242.079,54.298,187.778,0,121.039,0C54.298,0,0,54.298,0,121.039z"/>
		<radialGradient id="aigrd1" cx="84.1831" cy="77.0347" r="150.7058" fx="84.1831" fy="77.0347" gradientUnits="userSpaceOnUse">
			<stop  offset="0" style="stop-color:#FED182"/>
			<stop  offset="0.2809" style="stop-color:#FFB310"/>
			<stop  offset="1" style="stop-color:#996E04"/>
		</radialGradient>
		<path style="fill-rule:evenodd;clip-rule:evenodd;fill:url(#aigrd1);stroke:none;" d="M221.885,120.629c0,57.028-46.23,103.256-103.255,103.256c-57.027,0-103.256-46.229-103.256-103.256c0-57.027,46.229-103.256,103.256-103.256
			c57.025,0,103.255,46.229,103.255,103.256z"/>
		<path style="opacity:0.7;fill:#FFFFFF;stroke:none;" d="M170.997,138.639c0,0-18.859-18.857-27.855-27.852c7.943-7.944,21.152-21.153,21.152-21.153c1.914-1.913,2.93-4.471,2.93-7.073c0-1.289-0.25-2.588-0.762-3.825c-1.549-3.736-5.193-6.173-9.238-6.173
			l-76.864,0c-5.523,0-10,4.477-10,10v76.866c0,4.045,2.437,7.691,6.173,9.24c3.737,1.547,8.039,0.691,10.898-2.17c0,0,13.208-13.211,21.152-21.154c8.996,8.996,27.851,27.854,27.851,27.854c1.875,1.877,4.42,2.93,7.072,2.93s5.195-1.053,7.07-2.928l20.42-20.42
			c1.875-1.877,2.93-4.42,2.93-7.072s-1.055-5.195-2.93-7.07z"/>
	</g>
</svg>
