<?xml version="1.0" encoding="iso-8859-1"?>
<!DOCTYPE svg PUBLIC "-//W3C//DTD SVG 20000303 Stylable//EN"   "http://www.w3.org/TR/2000/03/WD-SVG-20000303/DTD/svg-20000303-stylable.dtd">
<!-- Generator: Adobe Illustrator 9.0, SVG Export Plug-In  -->
<svg  width="207.901pt" height="179.887pt" viewBox="0 0 207.901 179.887" xml:space="preserve">
	<g id="Layer_x0020_1" style="fill-rule:nonzero;clip-rule:nonzero;fill:#FFFFFF;stroke:#000000;stroke-miterlimit:4;">
		<path style="opacity:0.35;fill:#000000;stroke:none;" d="M145.325,178.649c-14.998,2.891-125.286,0.938-133.223-7.219c-7.936-8.154,47.936-44.457,67.649-46.861c19.713-2.404,116.353,10.578,126.931,21.156c10.576,10.578-46.359,30.033-61.357,32.924z"/>
		<path style="fill:#000000;stroke:none;" d="M22,0C9.869,0,0,9.869,0,22v129.792c0,12.131,9.869,22,22,22h115.802c12.131,0,22-9.869,22-22V22c0-12.131-9.869-22-22-22H22z"/>
		<linearGradient id="aigrd1" gradientUnits="userSpaceOnUse" x1="38.9497" y1="17.4937" x2="120.6725" y2="159.4597">
			<stop  offset="0" style="stop-color:#F0F0F0"/>
			<stop  offset="1" style="stop-color:#D6D6D6"/>
		</linearGradient>
		<path style="fill:url(#aigrd1);stroke:none;" d="M148.802,151.792c0,6.627-5.373,12-12,12H21c-6.627,0-12-5.373-12-12V22c0-6.627,5.373-12,12-12h115.802c6.627,0,12,5.373,12,12v129.792z"/>
		<g>
			<radialGradient id="aigrd2" cx="20.8916" cy="114.5679" r="5.2576" fx="20.8916" fy="114.5679" gradientUnits="userSpaceOnUse">
				<stop  offset="0" style="stop-color:#F0F0F0"/>
				<stop  offset="1" style="stop-color:#474747"/>
			</radialGradient>
			<path style="fill:url(#aigrd2);stroke:none;" d="M23.428,113.071c0,1.973-1.6,3.572-3.573,3.572c-1.974,0-3.573-1.6-3.573-3.572c0-1.975,1.6-3.574,3.573-3.574c1.973,0,3.573,1.6,3.573,3.574z"/>
			<radialGradient id="aigrd3" cx="20.8916" cy="64.5674" r="5.2581" fx="20.8916" fy="64.5674" gradientUnits="userSpaceOnUse">
				<stop  offset="0" style="stop-color:#F0F0F0"/>
				<stop  offset="1" style="stop-color:#474747"/>
			</radialGradient>
			<path style="fill:url(#aigrd3);stroke:none;" d="M23.428,63.07c0,1.973-1.6,3.573-3.573,3.573c-1.974,0-3.573-1.6-3.573-3.573c0-1.974,1.6-3.573,3.573-3.573c1.973,0,3.573,1.6,3.573,3.573z"/>
		</g>
		<path style="stroke:none;" d="M31.679,163.711h-1.613V12.642h1.613v151.07z"/>
		<linearGradient id="aigrd4" gradientUnits="userSpaceOnUse" x1="30.1479" y1="16.8438" x2="28.364" y2="158.2265">
			<stop  offset="0" style="stop-color:#EDEDED"/>
			<stop  offset="1" style="stop-color:#CACACA"/>
		</linearGradient>
		<path style="fill:url(#aigrd4);stroke:none;" d="M30.054,163.711h-1.613V12.642h1.613v151.07z"/>
		<path style="stroke:none;" d="M14.393,26.155l-2.618,133.309c-1.902-1.902-2.662-6.037-2.662-6.037L8.952,21.509c0,0-0.159-3.403,2.963-7.335c3.16-3.98,8.421-4.22,8.421-4.22l118.165,0.168l-113.615,5.54c-4.588,0-7.045,2.273-8.048,3.467
			c-0.812,0.967-2.392,4.104-2.445,7.026z"/>
		<path style="fill:#BEBEBE;stroke:none;" d="M143.944,147.665l2.617-133.308c1.902,1.9,2.662,6.035,2.662,6.035l0.162,131.917c0,0,0.158,3.402-2.963,7.336c-3.16,3.98-8.422,4.219-8.422,4.219l-118.166-0.168l113.617-5.539c4.588,0,7.045-2.273,8.047-3.467
			c0.813-0.967,2.393-4.105,2.445-7.025z"/>
	</g>
	<g id="Layer_x0020_2" style="fill-rule:nonzero;clip-rule:nonzero;stroke:#000000;stroke-miterlimit:4;">
		<path style="opacity:0.3;stroke:none;" d="M116.908,43.284L59.53,43.336l2.438,12.804c0,0,2.983,0,3.224,0c0.904,15.714,8.45,21.451,14.052,25.7c4.187,3.176,6.372,5.02,6.372,9.032c0,3.295-1.731,4.66-5.648,7.431c-5.851,4.14-13.738,9.753-14.566,27.41
			c-0.509,0-1.854,0-1.854,0l-3.935,12.861l61.581-0.058l-2.948-12.804c0,0-2.593,0-2.627,0c-0.885-17.379-9.192-23.37-15.355-27.793c-3.88-2.785-5.746-4.248-5.746-7.048c0-4.323,3.21-7.592,7.274-11.729c5.21-5.305,11.523-11.861,12.578-23.003
			c0.02,0,2.31,0,2.31,0l4.444-12.86l-4.215,0.004z"/>
		<path style="stroke:none;" d="M113.323,40.992l-57.378,0.053l2.438,12.803c0,0,2.983,0,3.224,0c0.904,15.714,8.45,21.452,14.052,25.701c4.187,3.176,6.372,5.02,6.372,9.032c0,3.294-1.731,4.66-5.648,7.43c-5.851,4.14-13.738,9.753-14.566,27.41
			c-0.509,0-1.854,0-1.854,0l-3.935,12.861l61.581-0.058l-2.948-12.804c0,0-2.593,0-2.627,0c-0.885-17.379-9.192-23.37-15.355-27.793c-3.88-2.785-5.746-4.248-5.746-7.047c0-4.323,3.21-7.592,7.274-11.729c5.21-5.305,11.523-11.862,12.578-23.003
			c0.02,0,2.31,0,2.31,0l4.444-12.86l-4.215,0.004z"/>
		<path style="fill:#B3E2E1;stroke:none;" d="M64.17,51.211c0,28.332,20.524,24.093,20.524,37.925c0,12.716-20.301,7.363-20.301,37.925h44.395c0-29.671-21.193-26.324-21.193-37.925c0-12.716,20.078-16.731,20.078-37.925H64.17z"/>
		<radialGradient id="aigrd5" cx="75.1313" cy="65.2798" r="19.3059" fx="75.1313" fy="65.2798" gradientUnits="userSpaceOnUse">
			<stop  offset="0" style="stop-color:#F8EAC9"/>
			<stop  offset="1" style="stop-color:#B5AB93"/>
		</radialGradient>
		<path style="fill:url(#aigrd5);stroke:none;" d="M69.524,65.488h31.463c-3.194,7.697-12.5,10.04-14.731,19.409c-2.231-9.37-14.947-10.04-16.732-19.409z"/>
		<radialGradient id="aigrd6" cx="73.6934" cy="101.8306" r="23.7521" fx="73.6934" fy="101.8306" gradientUnits="userSpaceOnUse">
			<stop  offset="0" style="stop-color:#F8EAC9"/>
			<stop  offset="1" style="stop-color:#B5AB93"/>
		</radialGradient>
		<path style="fill:url(#aigrd6);stroke:none;" d="M67.754,116.889c-1.831,5.038-0.907,7.941-0.907,7.941h39.487c0,0,0.052-4.41-1.258-7.708l-18.82-15.048l-18.501,14.814z"/>
		<path style="opacity:0.6;fill:#FFFFFF;stroke:none;" d="M68.932,124.831h9.366c-2.558-20.387,7.21-19.448,7.958-33.168c-3.209,13.286-18.644,9.366-17.324,33.168z"/>
		<path style="opacity:0.6;fill:#FFFFFF;stroke:none;" d="M68.932,53.275h9.366c0,19.919,7.21,20.503,7.958,31.622c-3.209-13.286-16.269-13.418-17.324-31.622z"/>
		<g>
			<g>
				<path style="fill:#0E4529;stroke:none;" d="M59.233,44.596l1.296,6.807h50.091l2.369-6.856l-53.756,0.05z"/>
				<path style="fill:#0F4B2D;stroke:none;" d="M60.187,44.666l1.238,6.728h45.861l2.202-6.785l-49.301,0.057z"/>
				<path style="fill:#105130;stroke:none;" d="M61.14,44.735l1.181,6.648h41.63l2.035-6.713L61.14,44.735z"/>
				<path style="fill:#125734;stroke:none;" d="M62.094,44.805l1.123,6.569h37.401l1.867-6.642l-40.391,0.072z"/>
				<path style="fill:#145E38;stroke:none;" d="M63.047,44.874l1.065,6.49h33.171l1.7-6.57l-35.936,0.08z"/>
				<path style="fill:#15653C;stroke:none;" d="M64.001,44.944l1.007,6.411h28.941l1.532-6.498l-31.48,0.087z"/>
				<path style="fill:#166C40;stroke:none;" d="M64.955,45.013l0.949,6.332h24.711l1.365-6.427l-27.024,0.095z"/>
				<path style="fill:#187344;stroke:none;" d="M65.909,45.083l0.891,6.252h20.481l1.197-6.355l-22.569,0.103z"/>
				<path style="fill:#1A7B49;stroke:none;" d="M66.862,45.152l0.833,6.173h16.251l1.03-6.283l-18.114,0.11z"/>
				<path style="fill:#1D834E;stroke:none;" d="M67.816,45.222l0.775,6.094h12.022l0.862-6.211l-13.659,0.117z"/>
				<path style="fill:#1F8B53;stroke:none;" d="M68.77,45.292l0.717,6.015h7.792l0.695-6.14l-9.204,0.125z"/>
				<path style="fill:#229458;stroke:none;" d="M69.723,45.361l0.659,5.936h3.562l0.528-6.068l-4.749,0.132z"/>
			</g>
		</g>
		<g>
			<g>
				<path style="fill:#0E4529;stroke:none;" d="M113.502,133.784l-1.567-6.808h-50.09l-2.098,6.857l53.756-0.05z"/>
				<path style="fill:#0F4B2D;stroke:none;" d="M109.75,133.756l-1.485-6.729h-45.86l-1.956,6.785l49.301-0.057z"/>
				<path style="fill:#105130;stroke:none;" d="M105.998,133.728l-1.402-6.648H62.965l-1.813,6.714l44.846-0.065z"/>
				<path style="fill:#125734;stroke:none;" d="M102.246,133.701l-1.319-6.57H63.525l-1.67,6.643l40.39-0.072z"/>
				<path style="fill:#145E38;stroke:none;" d="M98.494,133.673l-1.237-6.491H64.086l-1.527,6.57l35.935-0.079z"/>
				<path style="fill:#15653C;stroke:none;" d="M94.742,133.645l-1.154-6.411H64.646l-1.384,6.499l31.48-0.088z"/>
				<path style="fill:#166C40;stroke:none;" d="M90.99,133.618l-1.072-6.332H65.207l-1.242,6.427l27.025-0.095z"/>
				<path style="fill:#187344;stroke:none;" d="M87.238,133.589l-0.99-6.252H65.767l-1.099,6.355l22.57-0.104z"/>
				<path style="fill:#1A7B49;stroke:none;" d="M83.486,133.562l-0.907-6.173H66.327l-0.956,6.283l18.115-0.11z"/>
				<path style="fill:#1D834E;stroke:none;" d="M79.733,133.535l-0.824-6.095H66.888l-0.813,6.212l13.659-0.117z"/>
				<path style="fill:#1F8B53;stroke:none;" d="M75.981,133.506l-0.742-6.015h-7.792l-0.67,6.141l9.204-0.126z"/>
				<path style="fill:#229458;stroke:none;" d="M72.229,133.479l-0.659-5.936h-3.562l-0.528,6.068l4.749-0.133z"/>
			</g>
		</g>
	</g>
</svg>
