<?xml version="1.0" encoding="iso-8859-1"?>
<!DOCTYPE svg PUBLIC "-//W3C//DTD SVG 20000303 Stylable//EN"   "http://www.w3.org/TR/2000/03/WD-SVG-20000303/DTD/svg-20000303-stylable.dtd">
<!-- Generator: Adobe Illustrator 9.0, SVG Export Plug-In  -->
<svg  width="200.954pt" height="200.954pt" viewBox="0 0 200.954 200.954" xml:space="preserve">
	<g id="Layer_x0020_1" style="fill-rule:nonzero;clip-rule:nonzero;stroke:#000000;stroke-miterlimit:4;">
		<path style="stroke:none;" d="M0,100.477c0,55.403,45.074,100.478,100.477,100.478c55.403,0,100.477-45.074,100.477-100.478C200.954,45.074,155.88,0,100.477,0C45.074,0,0,45.074,0,100.477z"/>
		<radialGradient id="aigrd1" cx="70.8823" cy="63.2881" r="125.1047" fx="70.8823" fy="63.2881" gradientUnits="userSpaceOnUse">
			<stop  offset="0" style="stop-color:#FED182"/>
			<stop  offset="0.2809" style="stop-color:#FFB310"/>
			<stop  offset="1" style="stop-color:#996E04"/>
		</radialGradient>
		<path style="fill-rule:evenodd;clip-rule:evenodd;fill:url(#aigrd1);stroke:none;" d="M185.192,99.477c0,47.339-38.377,85.716-85.715,85.716c-47.339,0-85.715-38.377-85.715-85.716s38.376-85.715,85.715-85.715c47.338,0,85.715,38.376,85.715,85.715z"/>
	</g>
	<g id="Layer_x0020_3" style="fill-rule:nonzero;clip-rule:nonzero;fill:#FFFFFF;stroke:#000000;stroke-miterlimit:4;">
		<g style="stroke:none;">
			<path style="opacity:0.49;fill:none;" d="M167.676,79.109l-6.302-12.866l-10.241,2.363l-12.21-3.807l-3.807,3.807l9.847,5.645l-2.232,2.232l-10.766-7.352l-1.838,7.877l3.938,6.564c0,0-9.847,6.302-9.847,8.009s-5.908-5.909-5.908-5.909l-1.313-16.805
				l6.302-3.414l4.464-8.665l-4.201-13.391l-2.889,13.391l-7.877-4.726l-3.413-16.542l16.258-17.397c-8.248-2.651-17.036-4.097-26.165-4.097c-13.511,0-26.282,3.147-37.64,8.73l17.087,13.552l4.727,43.588L62.907,91.45l-9.19,15.755V90.137h-16.28l-5.514,19.693
				l6.565,6.565l23.632,1.313l7.615,18.643L55.03,147.379l3.676,22.319l5.645,5.645L46.89,163.134l-15.492-45.951l-3.939-7.615l3.151-19.693l-14.123-10.76c-1.596,6.528-2.461,13.343-2.461,20.363c0,47.193,38.258,85.451,85.451,85.451
				c37.694,0,69.665-24.417,81.016-58.289l-9.404,8.661l-1.838-16.279l-13.392-13.392l-9.19,13.654l-21.794-2.101V95.651l23.895-17.593h12.079l3.938,2.888l10.503,2.101l7.09,21.532l-1.382,20.567c2.55-8.104,3.93-16.725,3.93-25.669
				c0-7.022-0.865-13.838-2.462-20.368h-14.79z"/>
			<path style="opacity:0.49;" d="M112.797,52.063l7.877,4.726l2.889-13.391l4.201,13.391l-4.464,8.665l-6.302,3.414l1.313,16.805c0,0,5.908,7.616,5.908,5.909s9.847-8.009,9.847-8.009l-3.938-6.564l1.838-7.877l10.766,7.352l2.232-2.232l-9.847-5.645l3.807-3.807
				l12.21,3.807l10.241-2.363l6.302,12.866h14.79c-7.063-28.866-28.777-51.972-56.824-60.985l-16.258,17.397l3.413,16.542z"/>
			<path style="opacity:0.49;" d="M175.29,83.047l-10.503-2.101l-3.938-2.888H148.77l-23.895,17.593v21.531l19.623,1.892l11.297-7.012l10.244,9.179l5.05,15.854l9.404-10.456c0.167-0.498-0.157,0.502,0,0l1.887-22.06l-7.09-21.532z"/>
			<path style="opacity:0.49;" d="M27.459,109.567l3.939,7.615l15.492,45.951l17.461,12.209l-5.645-5.645l-3.676-22.319l14.705-11.028l-7.615-18.643l-23.632-1.313l-6.565-6.565l5.514-19.693h16.28v17.068l9.19-15.755l20.744-11.554l-4.727-43.588L61.837,22.757
				C39.423,33.775,22.551,54.32,16.487,79.114l14.123,10.76l-3.151,19.693z"/>
		</g>
	</g>
	<g id="Layer_x0020_2" style="fill-rule:nonzero;clip-rule:nonzero;stroke:#000000;stroke-miterlimit:4;">
		<path style="fill-rule:evenodd;clip-rule:evenodd;fill:#FFFFFF;stroke:none;" d="M153.484,131.465l-21.443-21.442c3.474-6.857,5.443-14.601,5.443-22.798c0-27.925-22.719-50.645-50.646-50.645c-27.926,0-50.645,22.72-50.645,50.645
			c0,27.926,22.719,50.645,50.645,50.645c10.7,0,20.63-3.345,28.815-9.03l20.229,20.227c4.86,4.862,12.74,4.862,17.601,0c4.86-4.858,4.86-12.738,0-17.601z M61.085,87.224c0-14.201,11.553-25.754,25.753-25.754s25.754,11.553,25.754,25.754
			s-11.554,25.754-25.754,25.754s-25.753-11.554-25.753-25.754z"/>
		<path style="fill-rule:evenodd;clip-rule:evenodd;stroke:none;" d="M151.492,129.475L130.05,108.03c3.473-6.856,5.442-14.599,5.442-22.797c0-27.926-22.718-50.646-50.645-50.646c-27.925,0-50.644,22.72-50.644,50.646c0,27.925,22.719,50.645,50.644,50.645
			c10.701,0,20.63-3.345,28.816-9.031l20.229,20.229c4.862,4.861,12.74,4.861,17.601,0c4.862-4.859,4.862-12.739,0-17.601z M59.094,85.233c0-14.201,11.553-25.754,25.753-25.754c14.202,0,25.754,11.553,25.754,25.754c0,14.2-11.553,25.753-25.754,25.753
			c-14.2,0-25.753-11.553-25.753-25.753z"/>
		<radialGradient id="aigrd2" cx="70.876" cy="59.0356" r="114.58" fx="70.876" fy="59.0356" gradientUnits="userSpaceOnUse">
			<stop  offset="0" style="stop-color:#FFFFFF"/>
			<stop  offset="1" style="stop-color:#F0E1BD"/>
		</radialGradient>
		<path style="fill-rule:evenodd;clip-rule:evenodd;fill:url(#aigrd2);stroke:none;" d="M152.488,130.471l-21.442-21.444c3.473-6.856,5.442-14.601,5.442-22.797c0-27.926-22.719-50.645-50.645-50.645c-27.925,0-50.645,22.719-50.645,50.645
			c0,27.925,22.72,50.645,50.645,50.645c10.701,0,20.629-3.345,28.816-9.031l20.229,20.229c4.86,4.861,12.74,4.861,17.601,0c4.86-4.86,4.86-12.74,0-17.601z M60.089,86.229c0-14.201,11.553-25.754,25.754-25.754c14.202,0,25.753,11.553,25.753,25.754
			c0,14.201-11.552,25.753-25.753,25.753c-14.201,0-25.754-11.553-25.754-25.753z"/>
	</g>
</svg>
