<?xml version="1.0" encoding="iso-8859-1"?>
<!DOCTYPE svg PUBLIC "-//W3C//DTD SVG 20000303 Stylable//EN"   "http://www.w3.org/TR/2000/03/WD-SVG-20000303/DTD/svg-20000303-stylable.dtd">
<!-- Generator: Adobe Illustrator 9.0, SVG Export Plug-In  -->
<svg  width="446.323pt" height="300.895pt" viewBox="0 0 446.323 300.895" xml:space="preserve">
	<g id="Layer_x0020_1" style="fill-rule:nonzero;clip-rule:nonzero;fill:none;stroke:#000000;stroke-miterlimit:4;">
		<path style="fill:#000000;stroke:none;" d="M290.001,0H0v220.953h300.001V0h-10z"/>
		<path style="fill:#BBBDB1;stroke:none;" d="M290.001,210.953H10V10h280.001v200.953z"/>
		<path style="fill:#7E8078;stroke:none;" d="M110.952,210.953H10V10h100.952v200.953z"/>
		<path style="stroke:none;" d="M10,10v200.953h100.952V10H10z"/>
		<g style="stroke:none;">
			<path d="M110.952,210.953v-21.182l-21.181,21.182h21.181z"/>
			<path d="M110.952,79.776L10,180.729v28.061l100.952-100.953V79.776z"/>
			<path d="M110.952,24.779L10,125.731v28.062L110.952,52.84V24.779z"/>
			<path d="M15.737,10L10,15.737v28.06L43.797,10h-28.06z"/>
			<path d="M110.952,162.834v-28.061l-76.178,76.179h28.061l48.117-48.118z"/>
			<path d="M70.734,10L10,70.734v28.061L98.794,10h-28.06z"/>
			<path style="fill:#8B8C84;" d="M89.771,210.953l21.181-21.182v-26.936l-48.117,48.118h26.936z"/>
			<path style="fill:#8B8C84;" d="M110.952,107.837L10,208.79v2.163h24.774l76.178-76.179v-26.936z"/>
			<path style="fill:#8B8C84;" d="M110.952,52.84L10,153.793v26.936L110.952,79.776V52.84z"/>
			<path style="fill:#8B8C84;" d="M110.952,10H98.794L10,98.795v26.937L110.952,24.779V10z"/>
			<path style="fill:#8B8C84;" d="M43.797,10L10,43.797v26.937L70.734,10H43.797z"/>
			<path style="fill:#9D9E95;" d="M10,10v5.737L15.737,10H10z"/>
		</g>
		<path style="fill:#83857C;stroke:none;" d="M121.476,210.953h-9.524V10h9.524v200.953z"/>
		<linearGradient id="aigrd1" gradientUnits="userSpaceOnUse" x1="110.9521" y1="110.4761" x2="120.4761" y2="110.4761">
			<stop  offset="0" style="stop-color:#D9DACD"/>
			<stop  offset="1" style="stop-color:#A5A69C"/>
		</linearGradient>
		<path style="fill:url(#aigrd1);stroke:none;" d="M120.476,210.953h-9.524V10h9.524v200.953z"/>
		<path style="opacity:0.61;fill:#FFFFFF;stroke:none;" d="M290.001,10H10v198.79l9.524-188.314l91.072-2.2c0,0-0.131-6.324,9.88-6.324l0.584,5.812L290.001,10z"/>
		<path style="opacity:0.61;fill:#000000;stroke:none;" d="M10,210.953h280.001V10l-10.037,189.93l-158.488,5.85l-10.587,3.218v-2.048L10,210.953z"/>
	</g>
	<g id="Layer_x0020_3" style="fill-rule:nonzero;clip-rule:nonzero;fill:#FFFFFF;stroke:#000000;stroke-miterlimit:4;">
		<path style="opacity:0.35;fill:#000000;stroke:none;" d="M373.431,243.275c-17.471,3.367-145.938,1.092-155.184-8.408c-9.244-9.498,55.838-51.785,78.801-54.585c22.963-2.801,135.533,12.321,147.855,24.643c12.32,12.321-54.002,34.985-71.473,38.351z"/>
		<path style="fill:#000000;stroke:none;" d="M229.776,35.178c-14.131,0-25.627,11.496-25.627,25.626v151.187c0,14.13,11.496,25.626,25.627,25.626h134.891c14.131,0,25.627-11.496,25.627-25.626V60.804c0-14.13-11.496-25.626-25.627-25.626H229.776z"/>
		<linearGradient id="aigrd2" gradientUnits="userSpaceOnUse" x1="249.5205" y1="55.5557" x2="344.7137" y2="220.9221">
			<stop  offset="0" style="stop-color:#F0F0F0"/>
			<stop  offset="1" style="stop-color:#D6D6D6"/>
		</linearGradient>
		<path style="fill:url(#aigrd2);stroke:none;" d="M377.481,211.991c0,7.72-6.26,13.978-13.979,13.978H228.612c-7.721,0-13.979-6.258-13.979-13.978V60.804c0-7.719,6.258-13.978,13.979-13.978h134.891c7.719,0,13.979,6.259,13.979,13.978v151.187z"/>
		<g>
			<radialGradient id="aigrd3" cx="228.4863" cy="168.6309" r="6.1232" fx="228.4863" fy="168.6309" gradientUnits="userSpaceOnUse">
				<stop  offset="0" style="stop-color:#F0F0F0"/>
				<stop  offset="1" style="stop-color:#474747"/>
			</radialGradient>
			<path style="fill:url(#aigrd3);stroke:none;" d="M231.439,166.887c0,2.297-1.863,4.161-4.161,4.161c-2.299,0-4.162-1.864-4.162-4.161c0-2.299,1.863-4.163,4.162-4.163c2.298,0,4.161,1.863,4.161,4.163z"/>
			<radialGradient id="aigrd4" cx="228.4863" cy="110.3896" r="6.1232" fx="228.4863" fy="110.3896" gradientUnits="userSpaceOnUse">
				<stop  offset="0" style="stop-color:#F0F0F0"/>
				<stop  offset="1" style="stop-color:#474747"/>
			</radialGradient>
			<path style="fill:url(#aigrd4);stroke:none;" d="M231.439,108.645c0,2.299-1.863,4.163-4.161,4.163c-2.299,0-4.162-1.863-4.162-4.163c0-2.299,1.863-4.162,4.162-4.162c2.298,0,4.161,1.863,4.161,4.162z"/>
		</g>
		<path style="stroke:none;" d="M241.052,225.875h-1.88V49.903h1.88v175.972z"/>
		<linearGradient id="aigrd5" gradientUnits="userSpaceOnUse" x1="239.2676" y1="54.7974" x2="237.1896" y2="219.4857">
			<stop  offset="0" style="stop-color:#EDEDED"/>
			<stop  offset="1" style="stop-color:#CACACA"/>
		</linearGradient>
		<path style="fill:url(#aigrd5);stroke:none;" d="M239.158,225.875h-1.879V49.903h1.879v175.972z"/>
		<path style="stroke:none;" d="M220.915,65.645l-3.049,155.283c-2.215-2.215-3.1-7.031-3.1-7.031l-0.189-153.663c0,0-0.184-3.965,3.452-8.544c3.681-4.637,9.81-4.917,9.81-4.917l137.643,0.196l-132.343,6.453c-5.345,0-8.207,2.648-9.374,4.039
			c-0.946,1.126-2.787,4.781-2.85,8.185z"/>
		<path style="fill:#BEBEBE;stroke:none;" d="M371.823,207.184L374.872,51.9c2.215,2.214,3.1,7.03,3.1,7.03l0.189,153.665c0,0,0.184,3.963-3.451,8.543c-3.682,4.637-9.811,4.916-9.811,4.916l-137.645-0.195l132.346-6.453c5.344,0,8.207-2.648,9.373-4.039
			c0.947-1.126,2.787-4.781,2.85-8.183z"/>
	</g>
	<g id="Layer_x0020_2" style="fill-rule:nonzero;clip-rule:nonzero;stroke:#000000;stroke-miterlimit:4;">
		<path style="stroke:none;" d="M193.432,114.932c-5.061,1.446-9.362,4.092-12.819,6.217c-3.429,2.109-6.391,3.93-8.675,3.93c-1.638-0.008-8.992-1.665-13.857-2.762c-18.564-4.183-43.985-9.91-58.422-4.372c-6.075,2.33-12.5,9.554-19.573,21.903
			c-2.881-0.517-6.252-1.12-6.252-1.12c-26.821-4.574-31.491-3.484-35.162-1.445c-4.056,2.253-6.548,6.506-7.408,12.641c-2.447,17.476,9.083,74.245,21.4,86.563c8.377,8.376,57.812,25.158,78.677,31.985c18.515,6.06,35.952,11.253,49.101,14.622
			c22.379,5.734,28.732,5.469,33.181,2.88c3.813-2.22,27.168-19.573,43.785-72.776c2.662-8.524,9.467-33.644,9.467-47.996c0-3.091-0.322-5.685-1.082-7.509c-3.955-9.504-12.158-11.312-17.061-12.392c-1.08-0.238-2.59-0.58-3.279-0.888
			c-0.104-0.674-0.184-1.879-0.217-2.406c-0.27-4.254-0.723-11.372-7.094-17.743c-10.496-10.495-33.49-12.537-44.709-9.332z"/>
		<path style="opacity:0.35;stroke:none;" d="M200.071,298.341c-19.362,3.052-140.636-33.053-150.459-43.86c-9.823-10.804,43.331-26.142,68.718-28.364c25.388-2.224,148.769,18.649,161.875,32.678c13.104,14.028-60.771,36.495-80.133,39.547z"/>
		<path style="stroke:none;" d="M193.141,120.017c-4.399,1.258-8.212,3.602-11.574,5.669c-4.076,2.506-7.597,4.67-11.294,4.67c-2.158,0-8.665-1.466-14.957-2.884c-17.939-4.042-42.507-9.578-55.531-4.582c-14.194,5.445-31.134,48.973-34.386,57.644
			c-6.489,17.302-13.376,39.528-9.338,47.157c0.962,1.817,3.891,7.35,44.509,21.131c24.85,8.431,52.596,15.986,74.221,20.212c35.505,6.937,44.89,3.31,48.861-0.021c12.254-10.279,22.359-40.088,27.291-56.941c0.512-1.744,12.461-42.827,8.568-52.18
			c-2.955-7.102-9.063-8.447-13.521-9.43c-2.514-0.555-4.686-1.033-5.953-2.302c-1.078-1.077-1.256-2.38-1.457-5.56c-0.254-4.004-0.602-9.486-5.639-14.522c-8.766-8.768-29.858-10.9-39.799-8.061z"/>
		<linearGradient id="aigrd6" gradientUnits="userSpaceOnUse" x1="177.7095" y1="136.7451" x2="141.0233" y2="235.0126">
			<stop  offset="0" style="stop-color:#989C80"/>
			<stop  offset="1" style="stop-color:#000000"/>
		</linearGradient>
		<path style="fill:url(#aigrd6);stroke:none;" d="M98.576,127.559c-15.583,5.978-46.786,87.044-41.096,97.792c5.69,10.749,143.11,53.965,159.958,39.831c19.086-16.013,37.979-94.906,34.457-103.371c-3.42-8.219-13.021-4.741-18.395-10.115
			c-5.375-5.374-0.141-13.128-7.096-20.083c-6.953-6.954-26.04-9.316-34.89-6.788c-8.852,2.529-15.391,10.531-24.242,10.531s-51.952-14.222-68.697-7.797z"/>
		<path style="fill:#C1C2B4;stroke:none;" d="M58.208,223.145c1.641-26.713,25.165-88.316,39.225-95.586c14.06-7.271,62.063,7.797,69.841,7.797s13.814-7.634,24.242-10.531c10.428-2.896,28.363,0.259,34.89,6.788c5.52,5.519,3.408,16.134,5.967,18.692
			s15.221,6.177,17.887,8.842c0,0-14.936-4.061-18.801-7.927c-3.867-3.867-3.152-12.537-6.316-15.701c-3.164-3.163-28.524-8.669-35.267-5.74c-6.742,2.929-12.301,10.193-21.675,11.833c-9.374,1.641-53.662-14.06-67.253-6.092
			c-13.591,7.967-42.739,87.625-42.739,87.625z"/>
		<path style="fill:#808078;stroke:none;" d="M247.872,157.078c6.801,5.717-7.498,71.236-27.092,104.673c21.467-29.688,31.855-88.37,31.855-96.066c0-1.796-1.207-6.708-4.764-8.606z"/>
		<path style="stroke:none;" d="M39.435,141.93c-3.936,2.187-4.65,7.289-4.885,8.965c-2.438,17.411,9.695,72.044,19.984,82.333c8.191,8.191,69.708,28.483,76.696,30.77c18.416,6.027,35.742,11.188,48.787,14.53c22.597,5.791,26.925,4.856,29.423,3.402
			c2.535-1.475,4.232-4.341,5.504-9.295c5.176-20.146,2.734-78.632-3.732-89.398c-1.592-2.651-5.365-6.112-30.122-13.66c-14.372-4.381-33.79-9.466-54.678-14.317c-20.166-4.684-39.729-8.705-55.084-11.325c-27.161-4.633-30.008-3.051-31.893-2.004z"/>
		<linearGradient id="aigrd7" gradientUnits="userSpaceOnUse" x1="130.4922" y1="208.6196" x2="158.7892" y2="281.163">
			<stop  offset="0" style="stop-color:#DEDFCE"/>
			<stop  offset="1" style="stop-color:#C2C4B5"/>
		</linearGradient>
		<path style="fill:url(#aigrd7);stroke:none;" d="M204.927,276.609c8.947-5.207,6.525-80.933,0-91.798c-6.527-10.865-156.174-44.448-165.063-39.51s6.493,73.678,16.207,83.392c9.714,9.713,139.908,53.123,148.857,47.916z"/>
		<linearGradient id="aigrd8" gradientUnits="userSpaceOnUse" x1="94.9561" y1="182.4106" x2="108.7603" y2="231.4394">
			<stop  offset="0" style="stop-color:#DEDFCE"/>
			<stop  offset="1" style="stop-color:#FFFFFF"/>
		</linearGradient>
		<path style="fill:url(#aigrd8);stroke:none;" d="M98.059,246.978c-27.779-61.166,67.208-16.267,47.188-82.525c0,0-100.067-24.468-105.383-19.151c-8.519,8.519,5.125,68.161,15.566,82.502c4.316,5.929,42.629,19.175,42.629,19.175z"/>
		<path style="fill:#F1F2E1;stroke:none;" d="M57.854,229.904c-8.353-13.077-22.936-68.862-12.097-75.533c16.17-9.951,140.406,21.704,140.406,21.704c-11.677-3.962-131.967-37.669-146.299-30.773c-8.69,4.181,5.846,77.529,17.99,84.603z"/>
		<path style="fill:#919187;stroke:none;" d="M205.267,185.341c5.35,6.962,9.146,85.677-0.379,91.075c-9.527,5.398-106.265-29.513-106.265-29.513s95.646,33.173,104.095,26.135c8.448-7.038,7.604-51.521,2.549-87.697z"/>
		<path style="fill:none;stroke:none;" d="M2.769,300.895h282.773V108.997H2.769v191.898z"/>
	</g>
	<g id="Layer_x0020_4" style="fill-rule:nonzero;clip-rule:nonzero;stroke:#000000;stroke-miterlimit:4;">
		<g style="fill-rule:evenodd;clip-rule:evenodd;stroke:none;">
			<radialGradient id="aigrd9" cx="39.1211" cy="218.2808" r="44.1037" fx="39.1211" fy="218.2808" gradientUnits="userSpaceOnUse">
				<stop  offset="0" style="stop-color:#FFFCEA"/>
				<stop  offset="0.5056" style="stop-color:#F7C418"/>
				<stop  offset="0.5993" style="stop-color:#F0B916"/>
				<stop  offset="0.755" style="stop-color:#DF9B12"/>
				<stop  offset="0.9524" style="stop-color:#C26D0A"/>
				<stop  offset="1" style="stop-color:#BA6206"/>
			</radialGradient>
			<path style="fill:url(#aigrd9);" d="M14.08,230.349c0,19.429,15.755,35.181,35.19,35.181s35.188-15.752,35.188-35.181c0-19.431-15.753-35.182-35.188-35.182s-35.19,15.751-35.19,35.182z"/>
			<path style="opacity:0.5;fill:#FFFFFF;" d="M62.702,224.022c-2.41-1.133-8.647-13.182-8.647-13.182l-10.633,2.269l-0.566,2.977l2.551,0.993l0.993-2.554l7.229-1.274c0,0,3.12,7.229,4.255,10.347c-5.955-1.558-7.658,0.142-11.06,2.41
				c-3.402,2.269-5.485,5.287-5.485,5.287s-9.293-1.854-9.828-8.223c-0.487-5.807,7.94-18.185,7.94-18.185s-8.641,9.282-9.593,17.85c-0.791,7.122,10.462,10.66,10.462,10.66c-0.459,1.527-0.16,5.225-1.294,8.2c-0.85-1.134-5.387,2.836-5.387,2.836l-1.861-1.794
				l-2.453,4.649l2.755-0.872l8.932-4.251l1.702-5.954c0,0,7.23,6.095,4.536,5.527s-6.238,6.946-6.238,6.946l-2.269,0.283l0.333,4.691c0,0,8.316-10.646,11.578-11.779l-4.396-8.077c0,0,8.788-6.095,11.059-1.844c0.708,4.821-0.851,8.078-0.851,8.078l10.492,7.655
				l2.021-0.428l0.624-2.649l-3.497,0.383c0.143,0-6.237-5.668-6.237-5.668l0.425-6.946l1.559-2.126l2.695,2.978c0,0,2.126-0.284,3.686-2.552c1.56-2.268,0.283-3.827-2.41-5.245c-2.693-1.417-3.687,1.559-3.687,1.559s0.426-2.834,0.567-2.976z"/>
			<path d="M62.568,223.816c-2.408-1.134-8.647-13.181-8.647-13.181l-10.633,2.267l-0.567,2.978l2.551,0.992l0.993-2.553l7.231-1.274c0,0,3.118,7.227,4.254,10.347c-5.956-1.559-7.658,0.142-11.059,2.408c-3.403,2.269-5.487,5.289-5.487,5.289
				s-9.292-1.854-9.826-8.223c-0.488-5.807,7.941-18.184,7.941-18.184s-8.643,9.281-9.595,17.849c-0.791,7.123,10.462,10.66,10.462,10.66c-0.459,1.526-0.161,5.224-1.295,8.201c-0.851-1.136-5.387,2.834-5.387,2.834l-1.86-1.793l-2.454,4.65l2.754-0.871l8.934-4.253
				l1.701-5.954c0,0,7.231,6.094,4.536,5.527c-2.692-0.567-6.236,6.947-6.236,6.947l-2.269,0.282l0.331,4.69c0,0,8.317-10.644,11.579-11.777l-4.396-8.078c0,0,8.79-6.096,11.058-1.844c0.71,4.817-0.85,8.078-0.85,8.078l10.492,7.655l2.021-0.429l0.625-2.649
				l-3.496,0.385c0.142,0-6.238-5.67-6.238-5.67l0.425-6.945l1.558-2.126l2.695,2.978c0,0,2.126-0.284,3.686-2.553c1.559-2.268,0.282-3.826-2.411-5.244c-2.693-1.417-3.687,1.561-3.687,1.561s0.426-2.836,0.566-2.978z"/>
			<path style="fill-rule:nonzero;clip-rule:nonzero;fill:none;stroke:#040304;stroke-width:0.1279;stroke-miterlimit:3.8637;" d="M48.107,231.06v0.072"/>
			<path d="M17.254,230.247c0,17.678,14.334,32.008,32.016,32.008c17.68,0,32.015-14.33,32.015-32.008c0-17.679-14.335-32.009-32.015-32.009c-17.682,0-32.016,14.33-32.016,32.009 M11.36,230.247c0-20.933,16.972-37.901,37.91-37.901s37.911,16.968,37.911,37.901
				c0,20.934-16.973,37.902-37.911,37.902s-37.91-16.969-37.91-37.902z"/>
			<linearGradient id="aigrd10" gradientUnits="userSpaceOnUse" x1="20.4609" y1="227.1284" x2="34.1024" y2="204.9106">
				<stop  offset="0" style="stop-color:#FFB310"/>
				<stop  offset="0.1108" style="stop-color:#FEC031"/>
				<stop  offset="0.29" style="stop-color:#FED36A"/>
				<stop  offset="0.4628" style="stop-color:#FEE29D"/>
				<stop  offset="0.6246" style="stop-color:#FEEFC6"/>
				<stop  offset="0.7728" style="stop-color:#FFF8E5"/>
				<stop  offset="0.9026" style="stop-color:#FFFDF8"/>
				<stop  offset="1" style="stop-color:#FFFFFF"/>
			</linearGradient>
			<path style="fill:url(#aigrd10);" d="M32.874,205.575c-5.387,3.508-11.647,11.902-12.202,21.684c1.588-0.294,2.499-2.118,4.486-2.049c0.991-4.383,1.426-9.771,10.779-19.635c-0.632-0.726-2.44,0.176-3.063,0z"/>
			<linearGradient id="aigrd11" gradientUnits="userSpaceOnUse" x1="45.9453" y1="268.5942" x2="85.8021" y2="244.7546">
				<stop  offset="0" style="stop-color:#050404"/>
				<stop  offset="1" style="stop-color:#251F20"/>
			</linearGradient>
			<path style="fill:url(#aigrd11);" d="M83.676,240.74c-4.734,16.339-20.626,28.044-39.998,25.019l0.73-1.006c18.958,1.147,32.694-9.328,38.144-23.86l1.124-0.152z"/>
			<linearGradient id="aigrd12" gradientUnits="userSpaceOnUse" x1="72.9985" y1="252.52" x2="47.4826" y2="228.4938">
				<stop  offset="0" style="stop-color:#EDEEDB"/>
				<stop  offset="1" style="stop-color:#040304"/>
			</linearGradient>
			<path style="fill:url(#aigrd12);" d="M71.842,207.482c5.905,5.807,9.569,13.887,9.569,22.822c0,17.679-14.334,32.009-32.018,32.009c-8.939,0-17.023-3.663-22.832-9.569c5.778,5.682,13.703,9.187,22.446,9.187c17.685,0,32.018-14.332,32.018-32.01
				c0-8.74-3.503-16.662-9.183-22.438z"/>
			<radialGradient id="aigrd13" cx="13.5645" cy="223.0776" r="25.2953" fx="13.5645" fy="223.0776" gradientUnits="userSpaceOnUse">
				<stop  offset="0" style="stop-color:#050404"/>
				<stop  offset="1" style="stop-color:#554C4D"/>
			</radialGradient>
			<path style="fill:url(#aigrd13);" d="M26.559,201.381c-5.386,3.508-11.634,12.307-12.995,21.696c1.587-0.296,0.147-3.476,2.135-3.406c0.99-4.383,1-7.589,10.353-17.454c0-0.172,1.131-0.659,0.507-0.836z"/>
			<g style="fill-rule:nonzero;clip-rule:nonzero;">
				<path d="M66.675,242.63h-0.412v-0.148h1.002v0.148h-0.414v1.204h-0.176v-1.204z"/>
				<path d="M68.553,243.24c-0.01-0.188-0.021-0.417-0.021-0.584h-0.004c-0.048,0.157-0.103,0.327-0.171,0.515l-0.239,0.656h-0.132l-0.221-0.646c-0.065-0.192-0.117-0.365-0.155-0.525h-0.004c-0.004,0.169-0.014,0.394-0.026,0.598l-0.036,0.581h-0.167l0.094-1.353
					h0.223l0.231,0.654c0.057,0.166,0.1,0.314,0.136,0.455h0.004c0.036-0.136,0.084-0.285,0.145-0.455l0.241-0.654h0.223l0.083,1.353h-0.172l-0.032-0.595z"/>
			</g>
		</g>
	</g>
</svg>
