<?xml version="1.0" encoding="iso-8859-1"?>
<!DOCTYPE svg PUBLIC "-//W3C//DTD SVG 20000303 Stylable//EN"   "http://www.w3.org/TR/2000/03/WD-SVG-20000303/DTD/svg-20000303-stylable.dtd">
<!-- Generator: Adobe Illustrator 9.0, SVG Export Plug-In  -->
<svg  width="221.688pt" height="338.055pt" viewBox="0 0 221.688 338.055" xml:space="preserve">
	<g id="Layer_x0020_1" style="fill-rule:nonzero;clip-rule:nonzero;stroke:#000000;stroke-miterlimit:4;">
		<path style="opacity:0.35;stroke:none;" d="M221.688,252.04c0-15.085-28.926-27.313-64.607-27.313s-64.607,12.229-64.607,27.313c0,5.362,3.669,10.359,9.983,14.579c-17.49,3.476-30.47,7.433-30.47,7.433l-24.77,62.429l33.686-13.637
			c38.106,5.626,125.094-24.09,109.44-47.386c18.779-4.777,31.345-13.477,31.345-23.418z"/>
		<path style="stroke:none;" d="M39.346,24.093C28.733,37.457,28.149,55.866,36.787,74.11c3.459,7.307,8.394,14.586,14.751,21.501c13.253,14.418,30.993,25.468,49.952,31.116c19.366,5.769,37.848,5.245,52.037-1.473c8.821-4.177,15.539-10.632,19.523-18.674
			c10.615-13.364,11.197-31.773,2.56-50.018c-3.46-7.307-8.396-14.586-14.752-21.5c-13.254-14.418-30.993-25.469-49.952-31.116C91.539-1.822,73.059-1.299,58.872,5.418C50.048,9.596,43.33,16.051,39.346,24.093z"/>
		<path style="stroke:none;" d="M0,156.069v26.046c0,4.463,1.458,10.91,7.901,17.461c0,5.959,0,88.625,0,88.625c0,10.559,8.229,19.959,23.17,26.467c12.994,5.66,30.109,8.777,48.191,8.777c18.083,0,35.2-3.117,48.194-8.777c14.941-6.508,23.17-15.908,23.17-26.467
			c0,0,0-83.289,0-89.096c6.072-6.404,7.463-12.662,7.463-16.99v-26.046c0-22-33.982-38.589-79.045-38.589C33.981,117.48,0,134.07,0,156.069z"/>
		<linearGradient id="aigrd1" gradientUnits="userSpaceOnUse" x1="55.5234" y1="222.5083" x2="137.3934" y2="222.0728">
			<stop  offset="0" style="stop-color:#BBBBBB"/>
			<stop  offset="1" style="stop-color:#707070"/>
		</linearGradient>
		<path style="fill:url(#aigrd1);stroke:none;" d="M77.163,130.019c-35.341,0-63.99,12.479-63.99,27.872v129.004c0,15.393,28.649,27.873,63.99,27.873c35.342,0,63.993-12.48,63.993-27.873V157.891c0-15.393-28.65-27.872-63.993-27.872z"/>
		<linearGradient id="aigrd2" gradientUnits="userSpaceOnUse" x1="28.6963" y1="287.938" x2="44.5295" y2="208.7732">
			<stop  offset="0" style="stop-color:#BBBBBB"/>
			<stop  offset="1" style="stop-color:#F3F3F3"/>
		</linearGradient>
		<path style="fill:url(#aigrd2);stroke:none;" d="M23.047,197.845v90.871l28.426,3.677v-89.295l-28.426-5.253z"/>
		<path style="opacity:0.3;stroke:none;" d="M140.453,221.114c-2.613-15.678-44.855-2.371-60.534-9.146l60.663-19.4c0,0,2.484,44.225-0.129,28.547z"/>
		<linearGradient id="aigrd3" gradientUnits="userSpaceOnUse" x1="21.1978" y1="167.7876" x2="97.4152" y2="167.7876">
			<stop  offset="0" style="stop-color:#BBBBBB"/>
			<stop  offset="1" style="stop-color:#707070"/>
		</linearGradient>
		<path style="fill:url(#aigrd3);stroke:none;" d="M76.944,123.546c-39.583,0-71.672,13.977-71.672,31.217v26.047c0,17.24,32.089,31.217,71.672,31.217c39.584,0,71.674-13.977,71.674-31.217v-26.047c0-17.241-32.09-31.217-71.674-31.217z"/>
		<linearGradient id="aigrd4" gradientUnits="userSpaceOnUse" x1="35.2666" y1="153.4521" x2="113.2264" y2="152.581">
			<stop  offset="0" style="stop-color:#4E4E4E"/>
			<stop  offset="1" style="stop-color:#707070"/>
		</linearGradient>
		<path style="fill:url(#aigrd4);stroke:none;" d="M136.65,152.977c0,12.817-26.357,23.208-58.873,23.208c-32.513,0-58.871-10.391-58.871-23.208s26.357-23.207,58.871-23.207c32.515,0,58.873,10.39,58.873,23.207z"/>
		<path style="fill:#FFFFFF;stroke:none;" d="M6.443,151.066c1.83,13.495,17.766,33.187,83.179,34.405c-49.953,4.66-89.276-9.582-83.179-34.405z"/>
		<path style="fill:#BCBCBC;stroke:none;" d="M125.119,167.502c27.002-19.162-15.498-44.617-77.115-34.571c55.312-14.966,121.537,12.36,77.115,34.571z"/>
		<path style="stroke:none;" d="M9.083,323.155l39.185,14.9l18.763-16.176l-2.344-15.979l-38.163-9.787L9.083,323.155z"/>
		<path style="fill:#6E6E6E;stroke:none;" d="M27.186,298.047l-14.282,22.561l33.521,12.494l14.23-26.059l-33.469-8.996z"/>
		<path style="fill:#474747;stroke:none;" d="M62.687,319.083l-2.031-12.039l-14.23,26.059l16.262-14.02z"/>
		<radialGradient id="aigrd5" cx="60.8647" cy="62.0049" r="98.8653" fx="60.8647" fy="62.0049" gradientTransform="matrix(0.9038 -0.4279 0.4279 0.9038 -15.4175 57.4849)" gradientUnits="userSpaceOnUse">
			<stop  offset="0" style="stop-color:#BBBBBB"/>
			<stop  offset="1" style="stop-color:#707070"/>
		</radialGradient>
		<path style="fill:url(#aigrd5);stroke:none;" d="M154.678,39.504C128.802,11.355,86.343-1.292,59.841,11.255c-8.069,3.82-13.725,9.539-16.963,16.436c-13.01,15.758-9.239,41.46,11.524,64.047c25.876,28.149,68.336,40.796,94.838,28.249
			c8.07-3.821,13.723-9.538,16.963-16.437c13.009-15.757,9.237-41.459-11.525-64.046z"/>
		<radialGradient id="aigrd6" cx="154.2544" cy="49.8027" r="90.1057" fx="154.2544" fy="49.8027" gradientTransform="matrix(0.9038 -0.4279 0.4279 0.9038 -15.4175 57.4849)" gradientUnits="userSpaceOnUse">
			<stop  offset="0" style="stop-color:#BBBBBB"/>
			<stop  offset="1" style="stop-color:#707070"/>
		</radialGradient>
		<path style="fill:url(#aigrd6);stroke:none;" d="M141.05,51.459c21.609,23.51,21.186,51.063-0.947,61.542c-22.133,10.479-57.598-0.083-79.209-23.592c-21.61-23.511-21.186-51.064,0.947-61.544c22.135-10.48,57.597,0.083,79.209,23.593z"/>
		<path style="fill:#BCBCBC;stroke:none;" d="M149.763,106.431c16.356-20.329,3.913-69.043-62.607-82.352c51.191,3.932,91.905,53.223,62.607,82.352z"/>
		<path style="fill:#CDCDCD;stroke:none;" d="M5.272,179.573c0.937,10.207,17.875,30.299,72.563,32.451c-26.698,1.061-73.614-9.527-72.563-32.451z"/>
		<path style="fill:#DFDFDF;stroke:none;" d="M134.572,29.303C76.725-1.611,47.397,20.92,39.285,34.151c5.801-12.68,32.487-43.137,95.287-4.848z"/>
	</g>
</svg>
