<?xml version="1.0" encoding="iso-8859-1"?>
<!-- Generator: Adobe Illustrator 9.0, SVG Export Plug-In  -->
<!DOCTYPE svg PUBLIC "-//W3C//DTD SVG 20000303 Stylable//EN"   "http://www.w3.org/TR/2000/03/WD-SVG-20000303/DTD/svg-20000303-stylable.dtd" [
	<!ENTITY st0 "fill:url(#aigrd1);stroke:none;">
	<!ENTITY st1 "fill:#000000;stroke:none;">
	<!ENTITY st2 "opacity:0.35;fill:#000000;stroke:none;">
	<!ENTITY st3 "fill:#ABABAB;stroke:none;">
	<!ENTITY st4 "fill:url(#aigrd3);stroke:none;">
	<!ENTITY st5 "opacity:0.35;stroke:none;">
	<!ENTITY st6 "fill:#545454;stroke:none;">
	<!ENTITY st7 "fill-rule:nonzero;clip-rule:nonzero;fill:#FFFFFF;stroke:#000000;stroke-miterlimit:4;">
	<!ENTITY st8 "fill:url(#aigrd2);stroke:none;">
	<!ENTITY st9 "fill:#BEBEBE;stroke:none;">
	<!ENTITY st10 "fill-rule:nonzero;clip-rule:nonzero;stroke:#000000;stroke-miterlimit:4;">
	<!ENTITY st11 "stroke:none;">
	<!ENTITY st12 "fill:url(#aigrd4);stroke:none;">
]>
<svg  width="207.9pt" height="179.888pt" viewBox="0 0 207.9 179.888" xml:space="preserve">
	<g id="Layer_x0020_1" style="&st7;">
		<path style="&st2;" d="M145.326,178.648c-14.998,2.891-125.286,0.938-133.223-7.219c-7.936-8.153,47.936-44.456,67.649-46.86c19.713-2.404,116.354,10.577,126.931,21.155s-46.359,30.034-61.356,32.924z"/>
		<path style="&st1;" d="M22,0C9.869,0,0,9.869,0,22v129.791c0,12.131,9.869,22,22,22h115.802c12.131,0,22-9.869,22-22V22c0-12.131-9.869-22-22-22H22z"/>
		<linearGradient id="aigrd1" gradientUnits="userSpaceOnUse" x1="38.9502" y1="17.4941" x2="120.6726" y2="159.4595">
			<stop  offset="0" style="stop-color:#F0F0F0"/>
			<stop  offset="1" style="stop-color:#D6D6D6"/>
		</linearGradient>
		<path style="&st0;" d="M148.802,151.791c0,6.627-5.373,12-12,12H21c-6.627,0-12-5.373-12-12V22c0-6.627,5.373-12,12-12h115.802c6.627,0,12,5.373,12,12v129.791z"/>
		<g>
			<radialGradient id="aigrd2" cx="20.8921" cy="114.5674" r="5.257" fx="20.8921" fy="114.5674" gradientUnits="userSpaceOnUse">
				<stop  offset="0" style="stop-color:#F0F0F0"/>
				<stop  offset="1" style="stop-color:#474747"/>
			</radialGradient>
			<path style="&st8;" d="M23.428,113.07c0,1.973-1.6,3.572-3.573,3.572c-1.974,0-3.573-1.6-3.573-3.572c0-1.974,1.6-3.573,3.573-3.573c1.973,0,3.573,1.6,3.573,3.573z"/>
			<radialGradient id="aigrd3" cx="20.8921" cy="64.5679" r="5.257" fx="20.8921" fy="64.5679" gradientUnits="userSpaceOnUse">
				<stop  offset="0" style="stop-color:#F0F0F0"/>
				<stop  offset="1" style="stop-color:#474747"/>
			</radialGradient>
			<path style="&st4;" d="M23.428,63.07c0,1.973-1.6,3.573-3.573,3.573c-1.974,0-3.573-1.6-3.573-3.573c0-1.974,1.6-3.573,3.573-3.573c1.973,0,3.573,1.6,3.573,3.573z"/>
		</g>
		<path style="&st11;" d="M31.679,163.711h-1.613V12.642h1.613v151.069z"/>
		<linearGradient id="aigrd4" gradientUnits="userSpaceOnUse" x1="30.1484" y1="16.8438" x2="28.3645" y2="158.226">
			<stop  offset="0" style="stop-color:#EDEDED"/>
			<stop  offset="1" style="stop-color:#CACACA"/>
		</linearGradient>
		<path style="&st12;" d="M30.054,163.711h-1.613V12.642h1.613v151.069z"/>
		<path style="&st11;" d="M14.393,26.155l-2.618,133.308c-1.902-1.901-2.662-6.036-2.662-6.036L8.952,21.509c0,0-0.159-3.403,2.963-7.335c3.16-3.98,8.421-4.22,8.421-4.22l118.165,0.168l-113.615,5.54c-4.588,0-7.045,2.273-8.048,3.467
			c-0.812,0.967-2.392,4.104-2.445,7.026z"/>
		<path style="&st9;" d="M143.945,147.664l2.617-133.308c1.902,1.9,2.662,6.035,2.662,6.035l0.161,131.918c0,0,0.159,3.402-2.963,7.335c-3.159,3.98-8.421,4.22-8.421,4.22l-118.166-0.168l113.616-5.54c4.588,0,7.045-2.273,8.048-3.467
			c0.812-0.967,2.392-4.104,2.445-7.025z"/>
	</g>
	<g id="Layer_x0020_2" style="&st10;">
		<path style="&st5;" d="M121.439,29.218h-10v5c0,1.852-0.326,2.325-0.33,2.331c-0.602,0.634-4.493,1.104-6.155,1.304c-6.896,0.832-19.187,2.362-22.773,16.879c-1.521,0-8.108,0-8.108,0s0,9.713,0,13.197c-15.403,5.784-25.869,20.612-25.869,37.339
			c0,22.003,17.901,39.904,39.905,39.904c22.004,0,39.904-17.901,39.904-39.904c0-16.271-10.105-30.965-24.982-36.989c0-3.533,0-13.547,0-13.547s-3.062,0-4.195,0c1.568-1.124,4.009-1.516,7.914-1.987c6.392-0.771,19.688-2.375,19.688-18.526v-5h-5z"/>
		<path style="&st11;" d="M118.462,26.395h-10v5c0,1.852-0.326,2.325-0.33,2.332c-0.602,0.633-4.493,1.103-6.155,1.304c-6.896,0.832-19.187,2.362-22.773,16.879c-1.521,0-8.108,0-8.108,0s0,9.713,0,13.197c-15.403,5.784-25.869,20.612-25.869,37.339
			c0,22.003,17.901,39.904,39.905,39.904s39.905-17.901,39.905-39.904c0-16.27-10.106-30.964-24.982-36.989c0-3.533,0-13.547,0-13.547s-3.062,0-4.195,0c1.568-1.125,4.009-1.516,7.914-1.987c6.391-0.771,19.688-2.375,19.688-18.527v-5h-5z"/>
		<path style="&st3;" d="M94.055,67.979v-12.07h-6.659c1.259-10.311,7.578-11.082,14.779-11.951c6.811-0.822,15.287-1.844,15.287-13.563h-5c0,6.976-3.534,7.712-10.886,8.599c-7.548,0.911-17.659,2.143-19.204,16.915h-7.276v11.819
			c-14.896,3.982-25.869,17.565-25.869,33.717c0,19.277,15.627,34.904,34.905,34.904s34.905-15.627,34.905-34.904c0-15.829-10.54-29.189-24.982-33.465z"/>
		<path style="&st6;" d="M94.055,67.979V57.708l-6.472-0.03c1.174-9.969,7.857-13.03,14.592-13.72c7.759-0.794,15.287-2.233,15.287-13.563h-3.719c0,6.745-4.137,9.969-10.996,10.827c-7.042,0.88-16.474,2.072-17.916,16.354h-6.788v13.357
			c-5.054,1.4-9.62,3.777-13.389,6.981c3.23,0.429,5.733,3.195,5.733,6.542c0,3.643-2.963,6.605-6.606,6.605c-2.873,0-5.315-1.846-6.223-4.411c-2.328,4.328-3.648,9.354-3.648,14.952c0,18.639,13.609,34.717,31.593,34.717s33.533-15.607,33.533-34.874
			c0-16.113-10.329-29.331-24.982-33.465z"/>
	</g>
</svg>
