<?xml version="1.0" encoding="iso-8859-1"?>
<!-- Generator: Adobe Illustrator 9.0, SVG Export Plug-In  -->
<!DOCTYPE svg PUBLIC "-//W3C//DTD SVG 20000303 Stylable//EN"   "http://www.w3.org/TR/2000/03/WD-SVG-20000303/DTD/svg-20000303-stylable.dtd" [
	<!ENTITY st0 "fill:url(#aigrd1);stroke:none;">
	<!ENTITY st1 "fill:#000000;stroke:none;">
	<!ENTITY st2 "opacity:0.3;fill-rule:evenodd;clip-rule:evenodd;fill:#FFFFFF;stroke:none;">
	<!ENTITY st3 "fill:url(#aigrd3);stroke:none;">
	<!ENTITY st4 "fill-rule:evenodd;clip-rule:evenodd;fill:url(#aigrd6);stroke:none;">
	<!ENTITY st5 "fill-rule:nonzero;clip-rule:nonzero;fill:#FFFFFF;stroke:#000000;stroke-miterlimit:4;">
	<!ENTITY st6 "opacity:0.75;fill-rule:evenodd;clip-rule:evenodd;fill:url(#aigrd7);stroke:none;">
	<!ENTITY st7 "fill:url(#aigrd2);stroke:none;">
	<!ENTITY st8 "opacity:0.35;fill-rule:evenodd;clip-rule:evenodd;fill:#000000;stroke:none;">
	<!ENTITY st9 "fill-rule:evenodd;clip-rule:evenodd;fill:url(#aigrd5);stroke:none;">
	<!ENTITY st10 "fill:#BEBEBE;stroke:none;">
	<!ENTITY st11 "fill-rule:evenodd;clip-rule:evenodd;stroke:none;">
	<!ENTITY st12 "fill-rule:nonzero;clip-rule:nonzero;stroke:#000000;stroke-miterlimit:4;">
	<!ENTITY st13 "stroke:none;">
	<!ENTITY st14 "fill:url(#aigrd4);stroke:none;">
]>
<svg  width="223.299pt" height="200.907pt" viewBox="0 0 223.299 200.907" xml:space="preserve">
	<g id="Layer_x0020_1" style="&st5;">
		<path style="&st1;" d="M22,0C9.869,0,0,9.869,0,22v129.791c0,12.131,9.869,22,22,22h115.802c12.131,0,22-9.869,22-22V22c0-12.131-9.869-22-22-22H22z"/>
		<linearGradient id="aigrd1" gradientUnits="userSpaceOnUse" x1="38.9502" y1="17.4941" x2="120.6726" y2="159.4595">
			<stop  offset="0" style="stop-color:#F0F0F0"/>
			<stop  offset="1" style="stop-color:#D6D6D6"/>
		</linearGradient>
		<path style="&st0;" d="M148.802,151.791c0,6.627-5.373,12-12,12H21c-6.627,0-12-5.373-12-12V22c0-6.627,5.373-12,12-12h115.802c6.627,0,12,5.373,12,12v129.791z"/>
		<g>
			<radialGradient id="aigrd2" cx="20.8921" cy="114.5674" r="5.257" fx="20.8921" fy="114.5674" gradientUnits="userSpaceOnUse">
				<stop  offset="0" style="stop-color:#F0F0F0"/>
				<stop  offset="1" style="stop-color:#474747"/>
			</radialGradient>
			<path style="&st7;" d="M23.428,113.07c0,1.973-1.6,3.572-3.573,3.572c-1.974,0-3.573-1.6-3.573-3.572c0-1.974,1.6-3.573,3.573-3.573c1.973,0,3.573,1.6,3.573,3.573z"/>
			<radialGradient id="aigrd3" cx="20.8921" cy="64.5679" r="5.257" fx="20.8921" fy="64.5679" gradientUnits="userSpaceOnUse">
				<stop  offset="0" style="stop-color:#F0F0F0"/>
				<stop  offset="1" style="stop-color:#474747"/>
			</radialGradient>
			<path style="&st3;" d="M23.428,63.07c0,1.973-1.6,3.573-3.573,3.573c-1.974,0-3.573-1.6-3.573-3.573c0-1.974,1.6-3.573,3.573-3.573c1.973,0,3.573,1.6,3.573,3.573z"/>
		</g>
		<path style="&st13;" d="M31.679,163.711h-1.613V12.642h1.613v151.069z"/>
		<linearGradient id="aigrd4" gradientUnits="userSpaceOnUse" x1="30.1484" y1="16.8438" x2="28.3645" y2="158.226">
			<stop  offset="0" style="stop-color:#EDEDED"/>
			<stop  offset="1" style="stop-color:#CACACA"/>
		</linearGradient>
		<path style="&st14;" d="M30.054,163.711h-1.613V12.642h1.613v151.069z"/>
		<path style="&st13;" d="M14.393,26.155l-2.618,133.308c-1.902-1.901-2.662-6.036-2.662-6.036L8.952,21.509c0,0-0.159-3.403,2.963-7.335c3.16-3.98,8.421-4.22,8.421-4.22l118.165,0.168l-113.615,5.54c-4.588,0-7.045,2.273-8.048,3.467
			c-0.812,0.967-2.392,4.104-2.445,7.026z"/>
		<path style="&st10;" d="M143.945,147.664l2.617-133.308c1.902,1.9,2.662,6.035,2.662,6.035l0.161,131.918c0,0,0.159,3.402-2.963,7.335c-3.159,3.98-8.421,4.22-8.421,4.22l-118.166-0.168l113.616-5.54c4.588,0,7.045-2.273,8.048-3.467
			c0.812-0.967,2.392-4.104,2.445-7.025z"/>
		<path style="&st8;" d="M146.731,148.729c-39.971,6.803-70.495,23.355-68.176,36.975c2.317,13.617,36.599,19.145,76.568,12.343c39.972-6.803,70.494-23.356,68.177-36.976c-2.318-13.618-36.597-19.144-76.568-12.342z"/>
	</g>
	<g id="Layer_x0020_2" style="&st12;">
		<radialGradient id="aigrd5" cx="131.8003" cy="149.8535" r="100.5961" fx="131.8003" fy="149.8535" gradientUnits="userSpaceOnUse">
			<stop  offset="0" style="stop-color:#FED182"/>
			<stop  offset="0.2809" style="stop-color:#FFB310"/>
			<stop  offset="1" style="stop-color:#996E04"/>
		</radialGradient>
		<path style="&st9;" d="M40.021,120.146c0,41.516,33.659,75.168,75.178,75.168c41.525,0,75.182-33.652,75.182-75.168c0-41.51-33.656-75.165-75.182-75.165c-41.519,0-75.178,33.655-75.178,75.165z"/>
		<path style="&st13;" d="M103.827,112.606l0.209,0.002l0.006-0.619l-0.21-0.002l-0.005,0.619z"/>
		<path style="&st11;" d="M46.798,119.929c0,37.768,30.625,68.387,68.401,68.387c37.777,0,68.402-30.619,68.402-68.387c0-37.766-30.625-68.385-68.402-68.385c-37.775,0-68.401,30.619-68.401,68.385 M34.206,119.929c0-44.723,36.262-80.978,80.993-80.978
			c44.734,0,80.995,36.255,80.995,80.978s-36.261,80.979-80.995,80.979c-44.731,0-80.993-36.256-80.993-80.979z"/>
		<linearGradient id="aigrd6" gradientUnits="userSpaceOnUse" x1="165.895" y1="167.5166" x2="111.3817" y2="116.1859">
			<stop  offset="0" style="stop-color:#D9CEA3"/>
			<stop  offset="1" style="stop-color:#000000"/>
		</linearGradient>
		<path style="&st4;" d="M163.424,71.292c12.614,12.406,20.443,29.669,20.443,48.761c0,37.771-30.624,68.385-68.402,68.385c-19.1,0-36.369-7.824-48.782-20.443c12.347,12.137,29.28,19.625,47.959,19.625c37.781,0,68.403-30.621,68.403-68.388
			c0-18.671-7.484-35.601-19.622-47.94z"/>
		<g style="&st11;">
			<path d="M113.709,119.711l-22.207,53.228l3.677,1.533c0,0,19.451-46.62,21.234-50.891c3.729,2.732,44.135,32.344,44.135,32.344l2.356-3.213l-48.221-35.336l-0.975,2.335z"/>
			<path d="M106.215,62.211l7.738,61.554l50.564-30.486l-2.059-3.412c0,0-40.629,24.497-45.315,27.324c-0.688-5.465-6.976-55.477-6.976-55.477l-3.953,0.498z"/>
			<path d="M64.331,110.433l50.759,11.982l0.917-3.877l-50.76-11.984l-0.916,3.879z"/>
			<path d="M67.446,108.044l-1.027,1.027l29.745,57.844l58.289-17.918V96.815l-44.077-15.65l-31.047,31.049l23.523,38.903l38.348-11.835v-34.467l-29.298-10.59l-17.909,21.651l14.859,21.274l19.509-7.367v-17.093l-13.516-6.379l-1.701,3.603
				c0,0,9.35,4.413,11.232,5.302c0,1.884,0,9.774,0,11.812c-1.991,0.751-11.816,4.465-14.033,5.303c-1.433-2.053-9.944-14.239-11.347-16.25c1.604-1.941,12.697-15.352,14.188-17.155c2.26,0.817,21.777,7.87,24.031,8.686c0,2.431,0,26.185,0,28.735
				c-2.479,0.762-29.948,9.24-32.564,10.045c-1.438-2.377-18.857-31.185-20.298-33.568c1.978-1.979,25.454-25.455,27.061-27.062c2.165,0.769,36.643,13.011,39.053,13.868c0,2.572,0,43.736,0,46.424c-2.592,0.797-49.355,15.17-52.284,16.074
				c-1.41-2.74-25.657-49.897-26.891-52.293c1.952-1.953,39.221-39.221,39.221-39.221l-2.817-2.818l-40.249,40.248z"/>
		</g>
		<linearGradient id="aigrd7" gradientUnits="userSpaceOnUse" x1="64.1362" y1="138.0869" x2="116.7666" y2="52.3683">
			<stop  offset="0" style="stop-color:#DDCB6B"/>
			<stop  offset="0.1875" style="stop-color:#E3D37E"/>
			<stop  offset="0.5649" style="stop-color:#EFE6B2"/>
			<stop  offset="1" style="stop-color:#FFFFFF"/>
		</linearGradient>
		<path style="&st6;" d="M53.382,120.403c2.221,33.107,7.161-8.1,21.389-22.325c33.567-33.568,86.675-25.286,56.845-37.523c-45.963-13.32-80.342,28.4-78.234,59.848z"/>
		<path style="&st2;" d="M70.589,151.809c-10.775-23.794,18.116,16.313,45.638,3.851c27.522-12.463,43.25-72.779,54.028-48.984c10.772,23.793-2.804,53.186-30.323,65.648c-27.521,12.463-58.568,3.277-69.343-20.515z"/>
	</g>
</svg>
