<?xml version="1.0" encoding="iso-8859-1"?>
<!DOCTYPE svg PUBLIC "-//W3C//DTD SVG 20000303 Stylable//EN"   "http://www.w3.org/TR/2000/03/WD-SVG-20000303/DTD/svg-20000303-stylable.dtd">
<!-- Generator: Adobe Illustrator 9.0, SVG Export Plug-In  -->
<svg  width="244.563pt" height="193.006pt" viewBox="0 0 244.563 193.006" xml:space="preserve">
	<g id="Layer_x0020_1" style="fill-rule:nonzero;clip-rule:nonzero;stroke:#000000;stroke-miterlimit:4;">
		<path style="opacity:0.35;stroke:none;" d="M243.346,158.844c-3.981-3.981-20.157-8.304-39.832-12.017c-0.214-0.489-0.537-0.964-0.994-1.421c-10.577-10.578-107.218-23.559-126.931-21.154c-19.714,2.404-75.585,38.707-67.649,46.859
			c2.999,3.081,20.608,5.276,42.166,6.661c-2.122,2.928-2.768,5.31-1.34,6.776c7.937,8.156,118.225,10.109,133.223,7.219c14.997-2.889,71.934-22.346,61.356-32.924z"/>
		<path style="stroke:none;" d="M22,0C9.869,0,0,9.869,0,22v129.792c0,12.131,9.869,22,22,22h115.802c12.131,0,22-9.869,22-22V22c0-12.131-9.869-22-22-22H22z"/>
		<linearGradient id="aigrd1" gradientUnits="userSpaceOnUse" x1="38.9497" y1="17.4941" x2="120.6721" y2="159.4595">
			<stop  offset="0" style="stop-color:#F0F0F0"/>
			<stop  offset="1" style="stop-color:#D6D6D6"/>
		</linearGradient>
		<path style="fill:url(#aigrd1);stroke:none;" d="M148.802,151.792c0,6.627-5.373,12-12,12H21c-6.627,0-12-5.373-12-12V22c0-6.627,5.373-12,12-12h115.802c6.627,0,12,5.373,12,12v129.792z"/>
		<g>
			<radialGradient id="aigrd2" cx="20.8916" cy="114.5679" r="5.2576" fx="20.8916" fy="114.5679" gradientUnits="userSpaceOnUse">
				<stop  offset="0" style="stop-color:#F0F0F0"/>
				<stop  offset="1" style="stop-color:#474747"/>
			</radialGradient>
			<path style="fill:url(#aigrd2);stroke:none;" d="M23.428,113.071c0,1.973-1.6,3.572-3.573,3.572c-1.974,0-3.573-1.6-3.573-3.572c0-1.975,1.6-3.574,3.573-3.574c1.973,0,3.573,1.6,3.573,3.574z"/>
			<radialGradient id="aigrd3" cx="20.8916" cy="64.5674" r="5.2581" fx="20.8916" fy="64.5674" gradientUnits="userSpaceOnUse">
				<stop  offset="0" style="stop-color:#F0F0F0"/>
				<stop  offset="1" style="stop-color:#474747"/>
			</radialGradient>
			<path style="fill:url(#aigrd3);stroke:none;" d="M23.428,63.07c0,1.973-1.6,3.573-3.573,3.573c-1.974,0-3.573-1.6-3.573-3.573c0-1.974,1.6-3.573,3.573-3.573c1.973,0,3.573,1.6,3.573,3.573z"/>
		</g>
		<path style="fill:#FFFFFF;stroke:none;" d="M31.679,163.711h-1.613V12.642h1.613v151.07z"/>
		<linearGradient id="aigrd4" gradientUnits="userSpaceOnUse" x1="30.1479" y1="16.8438" x2="28.364" y2="158.2265">
			<stop  offset="0" style="stop-color:#EDEDED"/>
			<stop  offset="1" style="stop-color:#CACACA"/>
		</linearGradient>
		<path style="fill:url(#aigrd4);stroke:none;" d="M30.054,163.711h-1.613V12.642h1.613v151.07z"/>
		<path style="fill:#FFFFFF;stroke:none;" d="M14.393,26.155l-2.618,133.309c-1.902-1.902-2.662-6.037-2.662-6.037L8.952,21.509c0,0-0.159-3.403,2.963-7.335c3.16-3.98,8.421-4.22,8.421-4.22l118.165,0.168l-113.615,5.54c-4.588,0-7.045,2.273-8.048,3.467
			c-0.812,0.967-2.392,4.104-2.445,7.026z"/>
		<path style="fill:#BEBEBE;stroke:none;" d="M143.944,147.665l2.617-133.308c1.902,1.9,2.662,6.035,2.662,6.035l0.162,131.917c0,0,0.158,3.402-2.963,7.336c-3.16,3.98-8.422,4.219-8.422,4.219l-118.166-0.168l113.617-5.539c4.588,0,7.045-2.273,8.047-3.467
			c0.813-0.967,2.393-4.105,2.445-7.025z"/>
		<path style="opacity:0.1;stroke:none;" d="M54.112,40.874c0,0,85.59-3.377,98.029-8.942v13.093l-98.029-4.151"/>
	</g>
	<g id="Layer_x0020_2" style="fill-rule:nonzero;clip-rule:nonzero;stroke:#000000;stroke-miterlimit:4;">
		<path style="stroke:none;" d="M57.413,40.548c-9.323,0-16.908,7.584-16.908,16.907v113.287c0,9.322,7.584,16.908,16.908,16.908h120.364c9.322,0,16.906-7.586,16.906-16.908V57.456c0-9.323-7.584-16.907-16.906-16.907H57.413z"/>
		<linearGradient id="aigrd5" gradientUnits="userSpaceOnUse" x1="81.9561" y1="52.189" x2="154.857" y2="178.83">
			<stop  offset="0" style="stop-color:#D2D2D2"/>
			<stop  offset="1" style="stop-color:#EDEDED"/>
		</linearGradient>
		<path style="fill:url(#aigrd5);stroke:none;" d="M186.226,168.004c0,6.273-5.086,11.357-11.358,11.357H60.321c-6.272,0-11.357-5.084-11.357-11.357V60.193c0-6.272,5.084-11.357,11.357-11.357h114.546c6.272,0,11.358,5.085,11.358,11.357v107.812z"/>
		<linearGradient id="aigrd6" gradientUnits="userSpaceOnUse" x1="118.7666" y1="156.3696" x2="118.9222" y2="126.0379">
			<stop  offset="0" style="stop-color:#163069"/>
			<stop  offset="1" style="stop-color:#83A1CB"/>
		</linearGradient>
		<path style="fill:url(#aigrd6);stroke:none;" d="M176.124,153.417H61.838V75.575h114.286v77.842z"/>
		<path style="fill:#FCFCFC;stroke:none;" d="M53.513,62.322l-2.208,112.452c-1.604-1.604-2.245-5.092-2.245-5.092L48.923,58.403c0,0-0.134-2.87,2.5-6.188c2.666-3.358,7.104-3.56,7.104-3.56l99.678,0.142l-95.84,4.673c-3.871,0-5.943,1.918-6.789,2.925
			c-0.685,0.815-2.018,3.462-2.063,5.926z"/>
		<path style="fill:#BEBEBE;stroke:none;" d="M181.55,165.29l2.4-111.911c1.593,1.592,2.189,5.431,2.189,5.431l-0.031,110.373c0,0,0.133,2.85-2.482,6.146c-2.647,3.336-7.484,3.963-7.484,3.963l-98.933,0.07l95.548-5.281c3.844,0,5.904-1.904,6.743-2.904
			c0.682-0.809,2.005-3.439,2.05-5.887z"/>
		<path style="fill:#BEBEBE;stroke:none;" d="M176.124,75.575l2.639-2.699L59.101,72.608l0.156,83.759l2.581-2.951V75.575h114.286z"/>
		<path style="fill:#FFFFFF;stroke:none;" d="M59.257,156.368l119.506-0.27V72.875l-2.639,2.699v77.842H61.838l-2.581,2.951z"/>
		<linearGradient id="aigrd7" gradientUnits="userSpaceOnUse" x1="118.9834" y1="134.0474" x2="118.9834" y2="65.607">
			<stop  offset="0" style="stop-color:#D0D6E5"/>
			<stop  offset="1" style="stop-color:#093A80"/>
		</linearGradient>
		<path style="fill:url(#aigrd7);stroke:none;" d="M62.836,76.573h112.295v47.339H62.836V76.573z"/>
		<g>
			<g>
				<path style="opacity:0.05;fill:#E8F52F;stroke:none;" d="M105.001,97.917c0,8.771-7.11,15.879-15.881,15.879c-8.769,0-15.879-7.108-15.879-15.879c0-8.769,7.11-15.878,15.879-15.878c8.771,0,15.881,7.109,15.881,15.878z"/>
				<path style="opacity:0.2083;fill:#ECF751;stroke:none;" d="M103.494,97.917c0,7.938-6.436,14.372-14.374,14.372c-7.937,0-14.372-6.434-14.372-14.372c0-7.937,6.435-14.372,14.372-14.372c7.938,0,14.374,6.435,14.374,14.372z"/>
				<path style="opacity:0.3667;fill:#F0F972;stroke:none;" d="M101.987,97.917c0,7.106-5.762,12.865-12.867,12.865c-7.104,0-12.864-5.759-12.864-12.865c0-7.104,5.76-12.864,12.864-12.864c7.105,0,12.867,5.76,12.867,12.864z"/>
				<path style="opacity:0.525;fill:#F4FA95;stroke:none;" d="M100.48,97.917c0,6.273-5.087,11.357-11.36,11.357c-6.272,0-11.357-5.084-11.357-11.357c0-6.272,5.085-11.357,11.357-11.357c6.273,0,11.36,5.085,11.36,11.357z"/>
				<path style="opacity:0.6833;fill:#F7FCB7;stroke:none;" d="M98.973,97.917c0,5.441-4.412,9.85-9.853,9.85c-5.44,0-9.85-4.409-9.85-9.85c0-5.44,4.41-9.851,9.85-9.851c5.44,0,9.853,4.411,9.853,9.851z"/>
				<path style="opacity:0.8417;fill:#FBFDDB;stroke:none;" d="M97.466,97.917c0,4.608-3.737,8.343-8.346,8.343c-4.607,0-8.342-3.734-8.342-8.343c0-4.608,3.735-8.343,8.342-8.343c4.608,0,8.346,3.735,8.346,8.343z"/>
				<path style="fill:#FFFFFF;stroke:none;" d="M95.959,97.917c0,3.776-3.063,6.835-6.839,6.835s-6.835-3.06-6.835-6.835c0-3.775,3.06-6.836,6.835-6.836s6.839,3.061,6.839,6.836z"/>
			</g>
		</g>
		<path style="opacity:0.3;stroke:none;" d="M127.087,130.352h28.599l5.443,1.67h-9.291c0,0,9.356,0.934,14.001,6.463c4.645,5.527-5.653,11.949-5.653,11.949s-0.012-0.049-0.032-0.137c-0.303-1.24-2.743-10.711-7.516-14.418c-3.353-3.232-7.357-3.857-7.357-3.857
			h-18.032l-0.161-1.67z"/>
		<path style="opacity:0.3;stroke:none;" d="M145.692,132.786h-16.506l30.416,17.004l-13.91-17.004z"/>
		<path style="fill:#515151;stroke:none;" d="M127.087,130.629h28.599l4.371-2.914h-9.29c0,0,8.756-1.635,9.848-11.287c1.093-9.655-13.329-20.867-13.329-20.867s0.019,0.082,0.054,0.236c0.494,2.167,4.14,18.704,1.748,25.177c-1.275,5.646-4.878,6.74-4.878,6.74
			h-18.033l0.911,2.914z"/>
		<path style="fill:#515151;stroke:none;" d="M144.129,126.377h-16.507l19.493-29.689l-2.986,29.689z"/>
		<path style="stroke:none;" d="M61.838,75.575v77.842h114.286V75.575H61.838z M173.754,151.002H64.208V77.989h109.546v73.013z"/>
	</g>
</svg>
