<?xml version="1.0" encoding="iso-8859-1"?>
<!-- Generator: Adobe Illustrator 9.0, SVG Export Plug-In  -->
<!DOCTYPE svg PUBLIC "-//W3C//DTD SVG 20000303 Stylable//EN"   "http://www.w3.org/TR/2000/03/WD-SVG-20000303/DTD/svg-20000303-stylable.dtd" [
	<!ENTITY st0 "fill:#B4BBD8;stroke:none;">
	<!ENTITY st1 "fill:url(#aigrd1);stroke:none;">
	<!ENTITY st2 "fill:#000000;stroke:none;">
	<!ENTITY st3 "opacity:0.35;fill:#000000;stroke:none;">
	<!ENTITY st4 "opacity:0.2;stroke:none;">
	<!ENTITY st5 "fill:url(#aigrd6);stroke:none;">
	<!ENTITY st6 "fill:url(#aigrd3);stroke:none;">
	<!ENTITY st7 "fill:#CDD4A9;stroke:none;">
	<!ENTITY st8 "fill-rule:nonzero;clip-rule:nonzero;fill:#FFFFFF;stroke:#000000;stroke-miterlimit:4;">
	<!ENTITY st9 "fill:#FFFFFF;stroke:none;">
	<!ENTITY st10 "fill:url(#aigrd5);stroke:none;">
	<!ENTITY st11 "fill:url(#aigrd2);stroke:none;">
	<!ENTITY st12 "fill:#BEBEBE;stroke:none;">
	<!ENTITY st13 "fill-rule:nonzero;clip-rule:nonzero;stroke:#000000;stroke-miterlimit:4;">
	<!ENTITY st14 "fill:url(#aigrd7);stroke:none;">
	<!ENTITY st15 "stroke:none;">
	<!ENTITY st16 "fill:url(#aigrd4);stroke:none;">
]>
<svg  width="207.901pt" height="179.887pt" viewBox="0 0 207.901 179.887" xml:space="preserve">
	<g id="Layer_x0020_2" style="&st8;">
		<path style="&st3;" d="M145.326,178.648c-14.998,2.891-125.286,0.938-133.223-7.219c-7.936-8.153,47.936-44.456,67.649-46.86c19.713-2.404,116.354,10.577,126.931,21.155s-46.359,30.034-61.356,32.924z"/>
		<path style="&st2;" d="M22,0C9.869,0,0,9.869,0,22v129.791c0,12.131,9.869,22,22,22h115.802c12.131,0,22-9.869,22-22V22c0-12.131-9.869-22-22-22H22z"/>
		<linearGradient id="aigrd1" gradientUnits="userSpaceOnUse" x1="38.9502" y1="17.4937" x2="120.6726" y2="159.459">
			<stop  offset="0" style="stop-color:#F0F0F0"/>
			<stop  offset="1" style="stop-color:#D6D6D6"/>
		</linearGradient>
		<path style="&st1;" d="M148.802,151.791c0,6.627-5.373,12-12,12H21c-6.627,0-12-5.373-12-12V22c0-6.627,5.373-12,12-12h115.802c6.627,0,12,5.373,12,12v129.791z"/>
		<g>
			<radialGradient id="aigrd2" cx="20.8921" cy="114.5684" r="5.256" fx="20.8921" fy="114.5684" gradientUnits="userSpaceOnUse">
				<stop  offset="0" style="stop-color:#F0F0F0"/>
				<stop  offset="1" style="stop-color:#474747"/>
			</radialGradient>
			<path style="&st11;" d="M23.428,113.07c0,1.973-1.6,3.572-3.573,3.572c-1.974,0-3.573-1.6-3.573-3.572c0-1.974,1.6-3.573,3.573-3.573c1.973,0,3.573,1.6,3.573,3.573z"/>
			<radialGradient id="aigrd3" cx="20.8921" cy="64.5679" r="5.257" fx="20.8921" fy="64.5679" gradientUnits="userSpaceOnUse">
				<stop  offset="0" style="stop-color:#F0F0F0"/>
				<stop  offset="1" style="stop-color:#474747"/>
			</radialGradient>
			<path style="&st6;" d="M23.428,63.07c0,1.973-1.6,3.573-3.573,3.573c-1.974,0-3.573-1.6-3.573-3.573c0-1.974,1.6-3.573,3.573-3.573c1.973,0,3.573,1.6,3.573,3.573z"/>
		</g>
		<path style="&st15;" d="M31.679,163.711h-1.613V12.642h1.613v151.069z"/>
		<linearGradient id="aigrd4" gradientUnits="userSpaceOnUse" x1="30.1484" y1="16.8438" x2="28.3645" y2="158.2265">
			<stop  offset="0" style="stop-color:#EDEDED"/>
			<stop  offset="1" style="stop-color:#CACACA"/>
		</linearGradient>
		<path style="&st16;" d="M30.054,163.711h-1.613V12.642h1.613v151.069z"/>
		<path style="&st15;" d="M14.393,26.155l-2.618,133.308c-1.902-1.901-2.662-6.036-2.662-6.036L8.952,21.509c0,0-0.159-3.403,2.963-7.335c3.16-3.98,8.421-4.22,8.421-4.22l118.165,0.168l-113.615,5.54c-4.588,0-7.045,2.273-8.048,3.467
			c-0.812,0.967-2.392,4.104-2.445,7.026z"/>
		<path style="&st12;" d="M143.945,147.664l2.617-133.308c1.902,1.9,2.662,6.035,2.662,6.035l0.161,131.918c0,0,0.159,3.402-2.963,7.335c-3.159,3.98-8.421,4.22-8.421,4.22l-118.166-0.168l113.616-5.54c4.588,0,7.045-2.273,8.048-3.467
			c0.812-0.967,2.392-4.104,2.445-7.025z"/>
	</g>
	<g id="Layer_x0020_3" style="&st13;">
		<path style="&st4;" d="M134.01,148.967H93.229V27.292h40.781v121.674z"/>
		<path style="&st4;" d="M84.011,148.967H43.229V27.292h40.781v121.674z"/>
	</g>
	<g id="Layer_x0020_1" style="&st13;">
		<path style="&st15;" d="M117.741,26.118c-23.982,0.801-35.357,48.698-38.954,67.912c-2.843,0.912-4.813,2.732-5.417,5.281c-0.021,0.087-0.014,0.174-0.031,0.263c-11.141,2.447-12.654,12.794-13.904,21.343c-0.947,6.476-1.925,13.173-6.314,17.861l-7.207,7.702
			c0,0,13.374,0,13.793,0c0.413,0.044,5.601,0.595,5.601,0.595l1.56-2.069c7.609-10.088,13.047-13.52,20.063-12.661l2.336,0.286l1.591-1.734c0.929-1.014,8.543-9.57,8.543-17.954c0-0.629-0.043-1.258-0.135-1.883c-0.248-1.682-0.861-3.207-1.741-4.585
			c0.206-0.428,0.426-0.85,0.537-1.322c0.124-0.519,0.184-1.04,0.184-1.557c0-0.974-0.279-1.923-0.698-2.846c3.227-4.568,10.393-14.956,17.17-26.44c11.809-20.012,14.905-30.67,14.905-36.836c0-2.776-0.628-4.642-1.37-6.042c-1.103-2.079-3.934-5.534-10.515-5.313z"
			/>
		<linearGradient id="aigrd5" gradientUnits="userSpaceOnUse" x1="94.8276" y1="61.6694" x2="111.8294" y2="70.3472">
			<stop  offset="0" style="stop-color:#214B98"/>
			<stop  offset="1" style="stop-color:#152A5C"/>
		</linearGradient>
		<path style="&st10;" d="M91.43,100.206c0,0,51.416-70.671,25.792-69.815c-24.836,0.83-35.407,68.709-35.407,68.709l9.615,1.105z"/>
		<linearGradient id="aigrd6" gradientUnits="userSpaceOnUse" x1="81.4556" y1="99.6016" x2="86.098" y2="102.6149">
			<stop  offset="0" style="stop-color:#FFFFFF"/>
			<stop  offset="1" style="stop-color:#ECF1C4"/>
		</linearGradient>
		<path style="&st5;" d="M92.939,103.8c-0.506,2.14-4.451,3.038-8.81,2.004c-4.361-1.03-7.484-3.601-6.978-5.739c0.506-2.141,4.451-3.037,8.811-2.005c4.36,1.032,7.484,3.603,6.978,5.74z"/>
		<radialGradient id="aigrd7" cx="72.7642" cy="77.5918" r="35.0688" fx="72.7642" fy="77.5918" gradientTransform="matrix(0.9456 0 0 0.6817 1.9949 58.3287)" gradientUnits="userSpaceOnUse">
			<stop  offset="0.4157" style="stop-color:#ECF1C4"/>
			<stop  offset="1" style="stop-color:#E1F269"/>
		</radialGradient>
		<path style="&st14;" d="M55.792,141.604h3.486l3.266,0.347c7.743-10.266,14.548-15.64,24.272-14.448c0,0,19.016-20.702-4.074-23.86c-27.251-3.729-13.259,23.329-26.95,37.962z"/>
		<path style="&st7;" d="M90.48,108.033c0.629,7.213-10.81,18.105-10.81,18.105l5.887-0.195c2.779-2.514,9.673-12.99,4.922-17.91z"/>
		<path style="&st9;" d="M57.866,140.605c8.11-10.736,4.373-32.444,14.885-35.771l4.094,0.393c-12.687,4.242-9.364,21.08-18.979,35.378z"/>
		<path d="M72.925,119.054l-13.668,22.419"/>
		<path style="&st9;" d="M73.088,121.385l-12.164,19.638l13.99-18.563c2.78-1.1,1.475-4.688,1.475-4.688s-0.811,3.614-3.301,3.614z"/>
		<path style="&st15;" d="M74.765,119.526c-0.489,0.987-1.708,1.573-2.724,1.312c-1.016-0.259-1.444-1.272-0.955-2.259c0.488-0.986,1.709-1.571,2.724-1.312c1.017,0.261,1.443,1.274,0.956,2.259z"/>
		<path style="&st0;" d="M117.44,32.296c-22.585,4.786-32.791,63.796-32.791,63.796h1.177c0,0,12.087-52.842,31.614-63.796z"/>
		<path style="&st7;" d="M90.026,101.481c1.091,2.055-1.059,2.606-1.059,2.606s1.833,0.122,2.281-0.733s-1.222-1.873-1.222-1.873z"/>
	</g>
</svg>
