<?xml version="1.0" encoding="iso-8859-1"?>
<!-- Generator: Adobe Illustrator 9.0, SVG Export Plug-In  -->
<!DOCTYPE svg PUBLIC "-//W3C//DTD SVG 20000303 Stylable//EN"   "http://www.w3.org/TR/2000/03/WD-SVG-20000303/DTD/svg-20000303-stylable.dtd" [
	<!ENTITY st0 "fill:url(#aigrd1);stroke:none;">
	<!ENTITY st1 "fill:#000000;stroke:none;">
	<!ENTITY st2 "opacity:0.35;fill:#000000;stroke:none;">
	<!ENTITY st3 "fill:url(#aigrd6);stroke:none;">
	<!ENTITY st4 "fill:url(#aigrd3);stroke:none;">
	<!ENTITY st5 "fill-rule:nonzero;clip-rule:nonzero;fill:#FFFFFF;stroke:#000000;stroke-miterlimit:4;">
	<!ENTITY st6 "fill:#FFFFFF;stroke:none;">
	<!ENTITY st7 "fill:url(#aigrd5);stroke:none;">
	<!ENTITY st8 "fill:url(#aigrd2);stroke:none;">
	<!ENTITY st9 "fill:#BEBEBE;stroke:none;">
	<!ENTITY st10 "fill-rule:nonzero;clip-rule:nonzero;stroke:#000000;stroke-miterlimit:4;">
	<!ENTITY st11 "stroke:none;">
	<!ENTITY st12 "fill:url(#aigrd4);stroke:none;">
]>
<svg  width="207.901pt" height="179.886pt" viewBox="0 0 207.901 179.886" xml:space="preserve">
	<g id="Layer_x0020_1" style="&st5;">
		<path style="&st2;" d="M145.325,178.648c-14.998,2.891-125.286,0.938-133.223-7.219c-7.936-8.152,47.936-44.455,67.649-46.859c19.713-2.404,116.353,10.576,126.931,21.154c10.576,10.578-46.359,30.035-61.357,32.924z"/>
		<path style="&st1;" d="M22,0C9.869,0,0,9.869,0,22v129.791c0,12.131,9.869,22,22,22h115.802c12.131,0,22-9.869,22-22V22c0-12.131-9.869-22-22-22H22z"/>
		<linearGradient id="aigrd1" gradientUnits="userSpaceOnUse" x1="38.9507" y1="17.4941" x2="120.6722" y2="159.458">
			<stop  offset="0" style="stop-color:#F0F0F0"/>
			<stop  offset="1" style="stop-color:#D6D6D6"/>
		</linearGradient>
		<path style="&st0;" d="M148.802,151.791c0,6.627-5.373,12-12,12H21c-6.627,0-12-5.373-12-12V22c0-6.627,5.373-12,12-12h115.802c6.627,0,12,5.373,12,12v129.791z"/>
		<g>
			<radialGradient id="aigrd2" cx="20.8916" cy="114.5669" r="5.2576" fx="20.8916" fy="114.5669" gradientUnits="userSpaceOnUse">
				<stop  offset="0" style="stop-color:#F0F0F0"/>
				<stop  offset="1" style="stop-color:#474747"/>
			</radialGradient>
			<path style="&st8;" d="M23.428,113.07c0,1.973-1.6,3.572-3.573,3.572c-1.974,0-3.573-1.6-3.573-3.572s1.6-3.572,3.573-3.572c1.973,0,3.573,1.6,3.573,3.572z"/>
			<radialGradient id="aigrd3" cx="20.8916" cy="64.5674" r="5.2581" fx="20.8916" fy="64.5674" gradientUnits="userSpaceOnUse">
				<stop  offset="0" style="stop-color:#F0F0F0"/>
				<stop  offset="1" style="stop-color:#474747"/>
			</radialGradient>
			<path style="&st4;" d="M23.428,63.07c0,1.973-1.6,3.573-3.573,3.573c-1.974,0-3.573-1.6-3.573-3.573c0-1.974,1.6-3.573,3.573-3.573c1.973,0,3.573,1.6,3.573,3.573z"/>
		</g>
		<path style="&st11;" d="M31.679,163.71h-1.613V12.642h1.613V163.71z"/>
		<linearGradient id="aigrd4" gradientUnits="userSpaceOnUse" x1="30.1479" y1="16.8438" x2="28.364" y2="158.2261">
			<stop  offset="0" style="stop-color:#EDEDED"/>
			<stop  offset="1" style="stop-color:#CACACA"/>
		</linearGradient>
		<path style="&st12;" d="M30.054,163.71h-1.613V12.642h1.613V163.71z"/>
		<path style="&st11;" d="M14.393,26.155l-2.618,133.308c-1.902-1.9-2.662-6.035-2.662-6.035L8.952,21.509c0,0-0.159-3.403,2.963-7.335c3.16-3.98,8.421-4.22,8.421-4.22l118.165,0.168l-113.615,5.54c-4.588,0-7.045,2.273-8.048,3.467
			c-0.812,0.967-2.392,4.104-2.445,7.026z"/>
		<path style="&st9;" d="M143.944,147.664l2.617-133.307c1.902,1.9,2.662,6.035,2.662,6.035l0.162,131.918c0,0,0.158,3.402-2.963,7.334c-3.16,3.98-8.422,4.221-8.422,4.221l-118.166-0.168l113.617-5.541c4.588,0,7.045-2.273,8.047-3.467
			c0.812-0.967,2.393-4.104,2.445-7.025z"/>
	</g>
	<g id="Layer_x0020_2" style="&st10;">
		<path style="&st11;" d="M102.464,74.748c0,0-0.239,0.589-0.361,0.889c-0.122-0.3-1.53-3.77-1.53-3.77l-3.08,0.421c-1.356,0.186-2.683,0.446-3.944,0.774l-3.015,0.785c0,0,0.028,3.754,0.03,4.083c-0.228-0.231-2.86-2.901-2.86-2.901l-2.686,1.575
			c-1.168,0.685-2.293,1.437-3.345,2.235l-2.476,1.88c0,0,1.458,3.449,1.585,3.748c-0.299-0.126-3.75-1.585-3.75-1.585l-1.879,2.477c-0.802,1.056-1.554,2.181-2.235,3.344l-1.574,2.687c0,0,2.67,2.631,2.901,2.859c-0.33-0.002-4.083-0.029-4.083-0.029l-0.786,3.012
			c-0.327,1.256-0.588,2.583-0.774,3.946l-0.421,3.08c0,0,3.469,1.407,3.77,1.529c-0.301,0.122-3.769,1.53-3.769,1.53l0.42,3.078c0.187,1.366,0.447,2.694,0.775,3.948l0.787,3.013c0,0,3.752-0.028,4.082-0.031c-0.232,0.229-2.903,2.862-2.903,2.862l1.577,2.687
			c0.683,1.164,1.434,2.288,2.232,3.34l1.88,2.479c0,0,3.451-1.459,3.75-1.586c-0.126,0.3-1.585,3.749-1.585,3.749l2.477,1.881c1.06,0.804,2.186,1.556,3.346,2.235l2.686,1.571c0,0,2.63-2.668,2.858-2.899c-0.002,0.329-0.03,4.082-0.03,4.082l3.013,0.786
			c1.25,0.326,2.577,0.587,3.944,0.774l3.081,0.423c0,0,1.408-3.471,1.529-3.771c0.122,0.3,1.529,3.77,1.529,3.77l3.081-0.422c1.368-0.188,2.695-0.448,3.946-0.774l3.012-0.786c0,0-0.026-3.753-0.028-4.083c0.228,0.231,2.863,2.905,2.863,2.905l2.688-1.58
			c1.172-0.689,2.295-1.44,3.338-2.231l2.477-1.88c0,0-1.458-3.45-1.584-3.75c0.299,0.127,3.748,1.586,3.748,1.586l1.881-2.477c0.789-1.041,1.54-2.164,2.23-3.338l1.582-2.688c0,0-2.675-2.636-2.906-2.864c0.329,0.003,4.079,0.031,4.079,0.031l0.788-3.01
			c0.331-1.261,0.592-2.592,0.776-3.956l0.416-3.075c0,0-3.465-1.406-3.766-1.528c0.301-0.122,3.767-1.528,3.767-1.528l-0.417-3.076c-0.185-1.361-0.445-2.692-0.776-3.953l-0.787-3.01c0,0-3.75,0.027-4.08,0.029c0.231-0.228,2.906-2.862,2.906-2.862l-1.581-2.688
			c-0.693-1.178-1.444-2.301-2.232-3.34l-1.88-2.475c0,0-3.449,1.458-3.748,1.584c0.126-0.3,1.584-3.75,1.584-3.75l-2.477-1.879c-1.054-0.8-2.178-1.552-3.342-2.234l-2.687-1.575c0,0-2.633,2.671-2.86,2.903c0.002-0.331,0.028-4.084,0.028-4.084l-3.014-0.785
			c-1.26-0.329-2.587-0.589-3.944-0.775l-3.08-0.421l-1.169,2.88z M87.648,105.788c0-7.97,6.484-14.454,14.455-14.454c7.971,0,14.454,6.484,14.454,14.454s-6.483,14.454-14.454,14.454c-7.97,0-14.455-6.484-14.455-14.454z"/>
		<linearGradient id="aigrd5" gradientUnits="userSpaceOnUse" x1="114.2773" y1="121.9634" x2="88.562" y2="87.7983">
			<stop  offset="0" style="stop-color:#8B8B8B"/>
			<stop  offset="1" style="stop-color:#E4E4E4"/>
		</linearGradient>
		<path style="&st7;" d="M127.622,105.788c0-0.807-0.043-1.604-0.117-2.391l4.133-1.677c-0.16-1.182-0.385-2.344-0.682-3.478l-4.461,0.032c-0.475-1.541-1.094-3.018-1.836-4.42l3.176-3.129c-0.602-1.022-1.256-2.008-1.97-2.948l-4.106,1.736
			c-1.02-1.23-2.152-2.362-3.382-3.382l1.735-4.107c-0.94-0.714-1.924-1.37-2.947-1.97l-3.129,3.175c-1.402-0.743-2.879-1.361-4.42-1.835l0.031-4.461c-1.133-0.295-2.295-0.521-3.477-0.682l-1.677,4.132c-0.788-0.073-1.585-0.115-2.391-0.115
			s-1.603,0.042-2.39,0.115l-1.677-4.132c-1.182,0.162-2.344,0.387-3.478,0.682l0.033,4.461c-1.541,0.474-3.018,1.093-4.419,1.835l-3.129-3.175c-1.023,0.6-2.008,1.256-2.948,1.97l1.736,4.106c-1.23,1.02-2.363,2.152-3.383,3.382l-4.106-1.736
			c-0.713,0.94-1.371,1.925-1.97,2.948l3.175,3.129c-0.743,1.402-1.361,2.879-1.835,4.42l-4.461-0.032c-0.296,1.134-0.52,2.296-0.682,3.478l4.132,1.677c-0.073,0.788-0.115,1.584-0.115,2.391c0,0.806,0.042,1.604,0.115,2.39l-4.132,1.678
			c0.162,1.184,0.386,2.346,0.682,3.479l4.461-0.033c0.474,1.542,1.093,3.019,1.836,4.42l-3.175,3.13c0.6,1.022,1.256,2.007,1.97,2.947l4.106-1.736c1.02,1.23,2.152,2.363,3.383,3.383l-1.736,4.106c0.94,0.714,1.925,1.371,2.948,1.97l3.129-3.175
			c1.401,0.742,2.878,1.361,4.419,1.835l-0.033,4.462c1.134,0.296,2.296,0.52,3.478,0.682l1.677-4.133c0.788,0.073,1.584,0.116,2.39,0.116s1.604-0.043,2.39-0.116l1.677,4.133c1.183-0.162,2.345-0.386,3.478-0.682l-0.031-4.462c1.541-0.474,3.018-1.093,4.42-1.835
			l3.129,3.175c1.021-0.601,2.007-1.256,2.947-1.97l-1.735-4.106c1.229-1.02,2.362-2.152,3.382-3.383l4.106,1.736c0.714-0.94,1.368-1.925,1.97-2.947l-3.176-3.13c0.742-1.401,1.361-2.878,1.836-4.42l4.461,0.033c0.297-1.133,0.521-2.295,0.682-3.479l-4.133-1.678
			c0.074-0.786,0.117-1.584,0.117-2.39z M102.103,124.242c-10.192,0-18.455-8.262-18.455-18.454s8.263-18.455,18.455-18.455c10.191,0,18.454,8.262,18.454,18.455s-8.263,18.454-18.454,18.454z"/>
		<path style="&st11;" d="M56.51,41.291c-1.086,0.221-2.176,0.536-3.24,0.938l-2.573,0.971c0,0-0.018,3.438-0.021,3.974c-0.498-0.196-3.692-1.451-3.692-1.451l-1.856,2.025c-0.748,0.816-1.443,1.71-2.068,2.659l-1.514,2.299c0,0,2.005,2.791,2.318,3.225
			c-0.518,0.134-4.003,1.038-4.003,1.038l-0.148,2.698l-0.135,2.367l0.098,3.809l2.668,0.795c0,0,0.65,0.215,1.156,0.382c-0.339,0.412-2.522,3.064-2.522,3.064l1.358,2.393c0.553,0.973,1.188,1.911,1.89,2.787l1.719,2.147c0,0,3.272-1.044,3.781-1.207
			c-0.032,0.535-0.24,3.966-0.24,3.966l2.506,1.137c1.031,0.468,2.098,0.853,3.171,1.145l2.649,0.721c0,0,2.031-2.766,2.348-3.198c0.29,0.455,2.138,3.351,2.138,3.351l2.693-0.549c1.085-0.222,2.173-0.537,3.234-0.938l2.574-0.971c0,0,0.017-3.438,0.02-3.973
			c0.497,0.195,3.694,1.452,3.694,1.452l1.856-2.028c0.747-0.817,1.442-1.711,2.066-2.658l1.514-2.299c0,0-2.006-2.791-2.318-3.225c0.517-0.134,4.002-1.038,4.002-1.038l0.148-2.698l0.135-2.367l-0.098-3.807l-2.667-0.795c0,0-0.65-0.215-1.157-0.383
			c0.339-0.412,2.523-3.064,2.523-3.064l-1.358-2.393c-0.555-0.977-1.191-1.916-1.892-2.79l-1.719-2.145c0,0-3.27,1.044-3.777,1.207c0.032-0.534,0.239-3.961,0.239-3.961l-2.501-1.139c-1.021-0.465-2.088-0.851-3.171-1.147l-2.652-0.725c0,0-2.033,2.769-2.35,3.2
			c-0.289-0.453-2.134-3.346-2.134-3.346l-2.691,0.545z"/>
		<linearGradient id="aigrd6" gradientUnits="userSpaceOnUse" x1="34.1958" y1="24.9307" x2="82.354" y2="92.2286">
			<stop  offset="0" style="stop-color:#8B8B8B"/>
			<stop  offset="1" style="stop-color:#E4E4E4"/>
		</linearGradient>
		<path style="&st3;" d="M69.914,72.241l3.503,1.377c0.615-0.672,1.174-1.395,1.677-2.158l-2.189-3.045c0.575-1.094,1.008-2.272,1.273-3.516l3.627-0.941c0.07-0.632,0.11-1.274,0.11-1.925c0-0.27-0.008-0.539-0.021-0.805l-3.573-1.182
			c-0.182-1.258-0.528-2.461-1.027-3.584l2.385-2.897c-0.452-0.796-0.965-1.553-1.534-2.262l-3.574,1.142c-0.87-0.892-1.864-1.658-2.948-2.288l0.227-3.753c-0.824-0.375-1.682-0.687-2.569-0.929l-2.228,3.033c-0.751-0.127-1.519-0.209-2.307-0.209
			c-0.481,0-0.957,0.026-1.425,0.075l-2.018-3.164c-0.903,0.183-1.778,0.44-2.623,0.759l-0.019,3.764c-1.125,0.557-2.158,1.262-3.083,2.092l-3.503-1.377c-0.615,0.671-1.174,1.394-1.676,2.157l2.19,3.047c-0.576,1.093-1.01,2.271-1.274,3.514l-3.628,0.941
			c-0.07,0.632-0.11,1.275-0.11,1.925c0,0.271,0.008,0.539,0.021,0.807l3.573,1.181c0.183,1.258,0.528,2.461,1.027,3.584l-2.385,2.897c0.452,0.796,0.965,1.552,1.534,2.262l3.575-1.141c0.87,0.891,1.863,1.659,2.948,2.288l-0.227,3.754
			c0.823,0.374,1.681,0.687,2.568,0.928l2.228-3.033c0.751,0.128,1.519,0.208,2.307,0.208c0.481,0,0.957-0.026,1.425-0.075l2.019,3.164c0.902-0.184,1.776-0.441,2.621-0.76l0.019-3.764c1.125-0.558,2.158-1.262,3.083-2.092z"/>
		<path style="&st6;" d="M122.151,105.978c0,13.721-9.902,19.237-19.168,19.237c11.67-1.202,17.328-8.628,19.168-19.237z"/>
		<path style="&st6;" d="M61.897,51.662c-6.241,1.212-11.007,5.877-11.007,12.902c-2.343-5.597,3.092-13.996,11.007-12.902z"/>
		<path style="&st11;" d="M64.33,61.514c0,1.922-1.559,3.481-3.481,3.481s-3.481-1.559-3.481-3.481s1.559-3.481,3.481-3.481s3.481,1.559,3.481,3.481z"/>
		<path style="&st6;" d="M65.025,61.598c0,2.766-1.892,4.042-4.042,4.042c0,0,2.179,0.688,3.698-0.831c1.29-1.29,0.344-3.211,0.344-3.211z"/>
	</g>
</svg>
