<?xml version="1.0" encoding="iso-8859-1"?>
<!-- Generator: Adobe Illustrator 9.0, SVG Export Plug-In  -->
<!DOCTYPE svg PUBLIC "-//W3C//DTD SVG 20000303 Stylable//EN"   "http://www.w3.org/TR/2000/03/WD-SVG-20000303/DTD/svg-20000303-stylable.dtd" [
	<!ENTITY st0 "fill:url(#aigrd1);stroke:none;">
	<!ENTITY st1 "fill:#000000;stroke:none;">
	<!ENTITY st2 "opacity:0.35;fill:#000000;stroke:none;">
	<!ENTITY st3 "fill:url(#aigrd5);stroke:#000000;stroke-width:4;">
	<!ENTITY st4 "fill:#CCCCCC;stroke:none;">
	<!ENTITY st5 "fill:#585858;stroke:none;">
	<!ENTITY st6 "fill:url(#aigrd3);stroke:none;">
	<!ENTITY st7 "fill:#3F3F3F;stroke:none;">
	<!ENTITY st8 "opacity:0.09;fill:url(#aigrd9);stroke:#000000;">
	<!ENTITY st9 "fill-rule:nonzero;clip-rule:nonzero;fill:#FFFFFF;stroke:#000000;stroke-miterlimit:4;">
	<!ENTITY st10 "opacity:0.09;fill:url(#aigrd8);stroke:#000000;">
	<!ENTITY st11 "opacity:0.09;fill:url(#aigrd11);stroke:#000000;">
	<!ENTITY st12 "opacity:0.09;fill:url(#aigrd7);stroke:#000000;">
	<!ENTITY st13 "opacity:0.09;fill:url(#aigrd10);stroke:#000000;">
	<!ENTITY st14 "opacity:0.09;fill:url(#aigrd6);stroke:#000000;">
	<!ENTITY st15 "fill:url(#aigrd2);stroke:none;">
	<!ENTITY st16 "fill:#BEBEBE;stroke:none;">
	<!ENTITY st17 "fill-rule:nonzero;clip-rule:nonzero;fill:none;stroke:#FFFFFF;stroke-miterlimit:4;">
	<!ENTITY st18 "fill-rule:nonzero;clip-rule:nonzero;stroke:#000000;stroke-miterlimit:4;">
	<!ENTITY st19 "stroke:none;">
	<!ENTITY st20 "fill:url(#aigrd4);stroke:none;">
	<!ENTITY st21 "fill:#888888;stroke:none;">
]>
<svg  width="207.901pt" height="179.886pt" viewBox="0 0 207.901 179.886" xml:space="preserve">
	<g id="Layer_x0020_1" style="&st9;">
		<path style="&st2;" d="M145.325,178.647c-14.998,2.891-125.286,0.938-133.223-7.219c-7.936-8.154,47.936-44.457,67.649-46.861c19.713-2.404,116.353,10.578,126.931,21.156c10.576,10.578-46.359,30.033-61.357,32.924z"/>
		<path style="&st1;" d="M22,0C9.869,0,0,9.869,0,22v129.79c0,12.131,9.869,22,22,22h115.802c12.131,0,22-9.869,22-22V22c0-12.131-9.869-22-22-22H22z"/>
		<linearGradient id="aigrd1" gradientUnits="userSpaceOnUse" x1="38.9507" y1="17.4937" x2="120.6722" y2="159.4575">
			<stop  offset="0" style="stop-color:#F0F0F0"/>
			<stop  offset="1" style="stop-color:#D6D6D6"/>
		</linearGradient>
		<path style="&st0;" d="M148.802,151.79c0,6.627-5.373,12-12,12H21c-6.627,0-12-5.373-12-12V22c0-6.627,5.373-12,12-12h115.802c6.627,0,12,5.373,12,12v129.79z"/>
		<g>
			<radialGradient id="aigrd2" cx="20.8916" cy="114.5664" r="5.2576" fx="20.8916" fy="114.5664" gradientUnits="userSpaceOnUse">
				<stop  offset="0" style="stop-color:#F0F0F0"/>
				<stop  offset="1" style="stop-color:#474747"/>
			</radialGradient>
			<path style="&st15;" d="M23.428,113.069c0,1.973-1.6,3.572-3.573,3.572c-1.974,0-3.573-1.6-3.573-3.572c0-1.975,1.6-3.574,3.573-3.574c1.973,0,3.573,1.6,3.573,3.574z"/>
			<radialGradient id="aigrd3" cx="20.8916" cy="64.5679" r="5.2576" fx="20.8916" fy="64.5679" gradientUnits="userSpaceOnUse">
				<stop  offset="0" style="stop-color:#F0F0F0"/>
				<stop  offset="1" style="stop-color:#474747"/>
			</radialGradient>
			<path style="&st6;" d="M23.428,63.07c0,1.973-1.6,3.573-3.573,3.573c-1.974,0-3.573-1.6-3.573-3.573c0-1.974,1.6-3.573,3.573-3.573c1.973,0,3.573,1.6,3.573,3.573z"/>
		</g>
		<path style="&st19;" d="M31.679,163.71h-1.613V12.642h1.613V163.71z"/>
		<linearGradient id="aigrd4" gradientUnits="userSpaceOnUse" x1="30.1479" y1="16.8433" x2="28.364" y2="158.2251">
			<stop  offset="0" style="stop-color:#EDEDED"/>
			<stop  offset="1" style="stop-color:#CACACA"/>
		</linearGradient>
		<path style="&st20;" d="M30.054,163.71h-1.613V12.642h1.613V163.71z"/>
		<path style="&st19;" d="M14.393,26.155l-2.618,133.307c-1.902-1.902-2.662-6.037-2.662-6.037L8.952,21.509c0,0-0.159-3.403,2.963-7.335c3.16-3.98,8.421-4.22,8.421-4.22l118.165,0.168l-113.615,5.54c-4.588,0-7.045,2.273-8.048,3.467
			c-0.812,0.967-2.392,4.104-2.445,7.026z"/>
		<path style="&st16;" d="M143.944,147.663l2.617-133.307c1.902,1.9,2.662,6.035,2.662,6.035l0.162,131.916c0,0,0.158,3.402-2.963,7.336c-3.16,3.98-8.422,4.219-8.422,4.219l-118.166-0.168l113.617-5.539c4.588,0,7.045-2.273,8.047-3.467
			c0.812-0.967,2.393-4.105,2.445-7.025z"/>
	</g>
	<g id="Layer_x0020_3" style="&st17;">
		<linearGradient id="aigrd5" gradientUnits="userSpaceOnUse" x1="47.6841" y1="23.9536" x2="126.6753" y2="145.29">
			<stop  offset="0" style="stop-color:#FFFFFF"/>
			<stop  offset="1" style="stop-color:#EFEFEF"/>
		</linearGradient>
		<path style="&st3;" d="M123.741,136.676h-71.75v-102h71.75v102z"/>
		<g>
			<path d="M121.395,65.034H52.448"/>
			<linearGradient id="aigrd6" gradientUnits="userSpaceOnUse" x1="75.3442" y1="44.9448" x2="99.774" y2="82.4708">
				<stop  offset="0" style="stop-color:#FFFFFF"/>
				<stop  offset="1" style="stop-color:#EFEFEF"/>
			</linearGradient>
			<path style="&st14;" d="M123.096,64.034H52.448"/>
			<path d="M121.395,122.034H54.039"/>
			<linearGradient id="aigrd7" gradientUnits="userSpaceOnUse" x1="75.3438" y1="101.9443" x2="99.7742" y2="139.4713">
				<stop  offset="0" style="stop-color:#FFFFFF"/>
				<stop  offset="1" style="stop-color:#EFEFEF"/>
			</linearGradient>
			<path style="&st12;" d="M123.096,121.034H52.448"/>
			<path d="M121.395,107.034H54.039"/>
			<linearGradient id="aigrd8" gradientUnits="userSpaceOnUse" x1="75.3442" y1="86.9448" x2="99.774" y2="124.4708">
				<stop  offset="0" style="stop-color:#FFFFFF"/>
				<stop  offset="1" style="stop-color:#EFEFEF"/>
			</linearGradient>
			<path style="&st10;" d="M123.096,106.034H52.448"/>
			<path d="M121.395,93.034H54.039"/>
			<linearGradient id="aigrd9" gradientUnits="userSpaceOnUse" x1="75.3442" y1="72.9448" x2="99.774" y2="110.4708">
				<stop  offset="0" style="stop-color:#FFFFFF"/>
				<stop  offset="1" style="stop-color:#EFEFEF"/>
			</linearGradient>
			<path style="&st8;" d="M123.096,92.034H52.448"/>
			<path d="M121.395,80.034H54.039"/>
			<linearGradient id="aigrd10" gradientUnits="userSpaceOnUse" x1="75.3438" y1="59.9443" x2="99.7742" y2="97.4713">
				<stop  offset="0" style="stop-color:#FFFFFF"/>
				<stop  offset="1" style="stop-color:#EFEFEF"/>
			</linearGradient>
			<path style="&st13;" d="M123.096,79.034H52.448"/>
			<path d="M121.395,51.034H54.039"/>
			<linearGradient id="aigrd11" gradientUnits="userSpaceOnUse" x1="75.3442" y1="30.9443" x2="99.7746" y2="68.4713">
				<stop  offset="0" style="stop-color:#FFFFFF"/>
				<stop  offset="1" style="stop-color:#EFEFEF"/>
			</linearGradient>
			<path style="&st11;" d="M123.096,50.034H52.448"/>
		</g>
		<path style="&st4;" d="M122.024,37.398v97.562H53.708l64.196-3.645l4.12-93.917z"/>
		<g>
			<path style="&st1;" d="M95.018,128.576h-42.57v-12.015h42.57v12.015z"/>
			<path style="&st5;" d="M95.018,116.608h-42.57v12.014l2.705-3.704v-5.111h36.659l3.207-3.198z"/>
			<path style="&st21;" d="M90.811,119.807l-36.082-0.423l0.423,4.534l0.63-3.596l35.028-0.516z"/>
			<path style="&st7;" d="M57.124,125.925h35.659v-4.111l-0.88,3.347l-34.779,0.765z"/>
		</g>
		<g>
			<path style="&st1;" d="M95.018,111.576h-42.57V99.562h42.57v12.015z"/>
			<path style="&st5;" d="M95.018,99.608h-42.57v12.014l2.705-3.704v-5.111h36.659l3.207-3.198z"/>
			<path style="&st21;" d="M90.811,102.807l-36.082-0.423l0.423,4.534l0.63-3.596l35.028-0.516z"/>
			<path style="&st7;" d="M57.124,108.925h35.659v-4.111l-0.88,3.347l-34.779,0.765z"/>
		</g>
		<g>
			<path style="&st1;" d="M95.018,84.576h-42.57V72.561h42.57v12.015z"/>
			<path style="&st5;" d="M95.018,72.608h-42.57v12.015l2.705-3.705v-5.111h36.659l3.207-3.199z"/>
			<path style="&st21;" d="M90.811,75.807l-36.082-0.423l0.423,4.534l0.63-3.596l35.028-0.516z"/>
			<path style="&st7;" d="M57.124,81.925h35.659v-4.111l-0.88,3.346l-34.779,0.765z"/>
		</g>
		<g>
			<path style="&st1;" d="M95.018,68.576h-42.57V56.561h42.57v12.015z"/>
			<path style="&st5;" d="M95.018,56.608h-42.57v12.015l2.705-3.705v-5.111h36.659l3.207-3.199z"/>
			<path style="&st21;" d="M90.811,59.807l-36.082-0.423l0.423,4.534l0.63-3.596l35.028-0.516z"/>
			<path style="&st7;" d="M57.124,65.925h35.659v-4.111l-0.88,3.346l-34.779,0.765z"/>
		</g>
		<g>
			<path style="&st1;" d="M95.018,52.576h-42.57V40.561h42.57v12.015z"/>
			<path style="&st5;" d="M95.018,40.608h-42.57v12.015l2.705-3.705v-5.111h36.659l3.207-3.199z"/>
			<path style="&st21;" d="M90.811,43.807l-36.082-0.423l0.423,4.534l0.63-3.596l35.028-0.516z"/>
			<path style="&st7;" d="M57.124,49.925h35.659v-4.111l-0.88,3.346l-34.779,0.765z"/>
		</g>
	</g>
	<g id="Layer_x0020_2" style="&st18;">
	</g>
</svg>
