<?xml version="1.0" encoding="iso-8859-1"?>
<!-- Generator: Adobe Illustrator 9.0, SVG Export Plug-In  -->
<!DOCTYPE svg PUBLIC "-//W3C//DTD SVG 20000303 Stylable//EN"   "http://www.w3.org/TR/2000/03/WD-SVG-20000303/DTD/svg-20000303-stylable.dtd" [
	<!ENTITY st0 "fill:url(#aigrd1);stroke:none;">
	<!ENTITY st1 "fill:#000000;stroke:none;">
	<!ENTITY st2 "opacity:0.35;fill:#000000;stroke:none;">
	<!ENTITY st3 "opacity:0.2;stroke:none;">
	<!ENTITY st4 "fill:#9C9C9C;stroke:none;">
	<!ENTITY st5 "fill:url(#aigrd3);stroke:none;">
	<!ENTITY st6 "fill:#99290B;stroke:none;">
	<!ENTITY st7 "fill-rule:nonzero;clip-rule:nonzero;fill:#FFFFFF;stroke:#000000;stroke-miterlimit:4;">
	<!ENTITY st8 "fill:url(#aigrd2);stroke:none;">
	<!ENTITY st9 "fill:#BEBEBE;stroke:none;">
	<!ENTITY st10 "fill:none;stroke:none;">
	<!ENTITY st11 "fill-rule:nonzero;clip-rule:nonzero;stroke:#000000;stroke-miterlimit:4;">
	<!ENTITY st12 "stroke:none;">
	<!ENTITY st13 "fill:url(#aigrd4);stroke:none;">
]>
<svg  width="207.901pt" height="179.887pt" viewBox="0 0 207.901 179.887" xml:space="preserve">
	<g id="Layer_x0020_1" style="&st7;">
		<path style="&st2;" d="M145.325,178.648c-14.998,2.891-125.286,0.938-133.223-7.219c-7.936-8.154,47.936-44.457,67.649-46.861c19.713-2.404,116.353,10.578,126.931,21.156c10.576,10.578-46.359,30.033-61.357,32.924z"/>
		<path style="&st1;" d="M22,0C9.869,0,0,9.869,0,22v129.791c0,12.131,9.869,22,22,22h115.802c12.131,0,22-9.869,22-22V22c0-12.131-9.869-22-22-22H22z"/>
		<linearGradient id="aigrd1" gradientUnits="userSpaceOnUse" x1="38.9507" y1="17.4946" x2="120.6722" y2="159.4585">
			<stop  offset="0" style="stop-color:#F0F0F0"/>
			<stop  offset="1" style="stop-color:#D6D6D6"/>
		</linearGradient>
		<path style="&st0;" d="M148.802,151.791c0,6.627-5.373,12-12,12H21c-6.627,0-12-5.373-12-12V22c0-6.627,5.373-12,12-12h115.802c6.627,0,12,5.373,12,12v129.791z"/>
		<g>
			<radialGradient id="aigrd2" cx="20.8916" cy="114.5674" r="5.2576" fx="20.8916" fy="114.5674" gradientUnits="userSpaceOnUse">
				<stop  offset="0" style="stop-color:#F0F0F0"/>
				<stop  offset="1" style="stop-color:#474747"/>
			</radialGradient>
			<path style="&st8;" d="M23.428,113.07c0,1.973-1.6,3.572-3.573,3.572c-1.974,0-3.573-1.6-3.573-3.572c0-1.975,1.6-3.574,3.573-3.574c1.973,0,3.573,1.6,3.573,3.574z"/>
			<radialGradient id="aigrd3" cx="20.8916" cy="64.5679" r="5.2576" fx="20.8916" fy="64.5679" gradientUnits="userSpaceOnUse">
				<stop  offset="0" style="stop-color:#F0F0F0"/>
				<stop  offset="1" style="stop-color:#474747"/>
			</radialGradient>
			<path style="&st5;" d="M23.428,63.07c0,1.973-1.6,3.573-3.573,3.573c-1.974,0-3.573-1.6-3.573-3.573c0-1.974,1.6-3.573,3.573-3.573c1.973,0,3.573,1.6,3.573,3.573z"/>
		</g>
		<path style="&st12;" d="M31.679,163.711h-1.613V12.642h1.613v151.069z"/>
		<linearGradient id="aigrd4" gradientUnits="userSpaceOnUse" x1="30.1479" y1="16.8438" x2="28.364" y2="158.2265">
			<stop  offset="0" style="stop-color:#EDEDED"/>
			<stop  offset="1" style="stop-color:#CACACA"/>
		</linearGradient>
		<path style="&st13;" d="M30.054,163.711h-1.613V12.642h1.613v151.069z"/>
		<path style="&st12;" d="M14.393,26.155l-2.618,133.308c-1.902-1.902-2.662-6.037-2.662-6.037L8.952,21.509c0,0-0.159-3.403,2.963-7.335c3.16-3.98,8.421-4.22,8.421-4.22l118.165,0.168l-113.615,5.54c-4.588,0-7.045,2.273-8.048,3.467
			c-0.812,0.967-2.392,4.104-2.445,7.026z"/>
		<path style="&st9;" d="M143.944,147.664l2.617-133.308c1.902,1.9,2.662,6.035,2.662,6.035l0.162,131.917c0,0,0.158,3.402-2.963,7.336c-3.16,3.98-8.422,4.219-8.422,4.219l-118.166-0.168l113.617-5.539c4.588,0,7.045-2.273,8.047-3.467
			c0.812-0.967,2.393-4.105,2.445-7.025z"/>
	</g>
	<g id="Layer_x0020_2" style="&st11;">
		<path style="&st3;" d="M133.292,147.607h-40.78V25.933h40.78v121.675z"/>
		<path style="&st3;" d="M82.904,147.607H42.123v-41.675h40.782v41.675z"/>
		<path style="&st3;" d="M82.904,53.718H42.123V25.933h40.782v27.786z"/>
		<g>
			<path style="&st10;" d="M73.978,74.895c-3.752-3.752-31.291,5.421-29.244,12.244s30.585,6.963,35.702,3.893s-2.706-12.385-6.458-16.137z"/>
			<path style="&st4;" d="M75.946,72.631c-2.511-2.028-7.375-0.54-10.147,0.092c-5.375,1.226-10.779,3.333-15.383,6.383c-2.84,1.881-5.319,4.623-7.126,7.494c-2.079,3.304,1.539,5.388,4.217,6.4c8.527,3.22,21.042,3.47,29.77,0.838
				c2.847-0.858,5.475-4.201,6.64-6.812c2.032-4.555-5.239-11.606-7.971-14.396c-0.208-0.212-4.358,4.098-3.937,4.528c2.87,2.931,5.51,6.11,7.31,9.819c0.436,0.898,0.648,1.836,0.81,2.812c-0.043,0.499-0.085,0.999-0.128,1.498c2.278-2.043,2.763-2.744,1.456-2.102
				c-1.415,0.61-3.024,0.796-4.534,1.011c-7.753,1.103-16.299,0.76-23.878-1.224c-2.342-0.613-5.378-1.648-6.342-4.099c-0.229-0.581-0.059-1.213,0.125-1.774c-0.372,0.419-0.744,0.837-1.116,1.256c0.555-0.453,1.136-0.87,1.742-1.251
				c1.584-1.049,3.32-1.869,5.044-2.654c4.236-1.929,15.129-6.834,19.513-3.292c0.404,0.327,4.234-4.288,3.937-4.528z"/>
		</g>
		<g>
			<path style="&st10;" d="M69.978,62.895c-3.752-3.752-27.291,13.421-25.244,20.244s25.585,12.963,30.702,9.893s-1.706-26.385-5.458-30.137z"/>
			<path style="&st6;" d="M71.946,60.631c-2.575-2.015-7.749,1.47-9.892,2.732c-4.667,2.751-9.001,6.345-12.661,10.335c-2.593,2.828-6.377,6.526-6.743,10.58c-0.407,4.515,7.404,7.295,10.542,8.519c5.366,2.093,11.5,3.571,17.29,3.261
				c3.639-0.195,5.949-3.118,7.785-6.006c2.464-3.877,0.53-10.621-0.393-14.638c-1.096-4.77-2.56-11.027-5.928-14.783c-0.142-0.158-4.393,4.02-3.937,4.528c4.8,5.35,6.486,15.254,7.181,22.12c0.19,1.879,0.171,3.785-0.255,5.628c-0.562,2.43,3.521-2.467,1.353-1.692
				c-0.826,0.295-1.79,0.31-2.657,0.356c-4.441,0.238-9.062-0.958-13.279-2.205c-5.806-1.716-18.755-6.626-11.388-14.262c2.669-2.767,14.522-13.484,19.044-9.945c0.433,0.338,4.214-4.311,3.937-4.528z"/>
		</g>
	</g>
</svg>
