<?xml version="1.0" encoding="iso-8859-1"?>
<!DOCTYPE svg PUBLIC "-//W3C//DTD SVG 20000303 Stylable//EN"   "http://www.w3.org/TR/2000/03/WD-SVG-20000303/DTD/svg-20000303-stylable.dtd">
<!-- Generator: Adobe Illustrator 9.0, SVG Export Plug-In  -->
<svg  width="221.555pt" height="202.496pt" viewBox="0 0 221.555 202.496" xml:space="preserve">
	<g id="Layer_x0020_1" style="fill-rule:nonzero;clip-rule:nonzero;fill:#FFFFFF;stroke:#000000;stroke-miterlimit:4;">
		<path style="opacity:0.35;fill-rule:evenodd;clip-rule:evenodd;fill:#000000;stroke:none;" d="M221.555,162.561c-0.855-5.025-6.074-8.944-14.314-11.553c1.088-1.903,1.031-3.694-0.558-5.283c-10.578-10.578-107.218-23.561-126.931-21.156
			c-19.713,2.404-75.585,38.707-67.649,46.861c4.089,4.201,35.338,6.757,66.731,7.853c-1.732,2.685-2.459,5.35-2.023,7.911c2.316,13.617,36.6,19.145,76.568,12.344c39.971-6.803,70.494-23.357,68.176-36.977z"/>
		<path style="fill:#000000;stroke:none;" d="M22,0C9.869,0,0,9.869,0,22v129.792c0,12.131,9.869,22,22,22h115.802c12.131,0,22-9.869,22-22V22c0-12.131-9.869-22-22-22H22z"/>
		<linearGradient id="aigrd1" gradientUnits="userSpaceOnUse" x1="38.9497" y1="17.4937" x2="120.6725" y2="159.4597">
			<stop  offset="0" style="stop-color:#F0F0F0"/>
			<stop  offset="1" style="stop-color:#D6D6D6"/>
		</linearGradient>
		<path style="fill:url(#aigrd1);stroke:none;" d="M148.802,151.792c0,6.627-5.373,12-12,12H21c-6.627,0-12-5.373-12-12V22c0-6.627,5.373-12,12-12h115.802c6.627,0,12,5.373,12,12v129.792z"/>
		<g>
			<radialGradient id="aigrd2" cx="20.8916" cy="114.5679" r="5.2576" fx="20.8916" fy="114.5679" gradientUnits="userSpaceOnUse">
				<stop  offset="0" style="stop-color:#F0F0F0"/>
				<stop  offset="1" style="stop-color:#474747"/>
			</radialGradient>
			<path style="fill:url(#aigrd2);stroke:none;" d="M23.428,113.071c0,1.973-1.6,3.572-3.573,3.572c-1.974,0-3.573-1.6-3.573-3.572c0-1.975,1.6-3.574,3.573-3.574c1.973,0,3.573,1.6,3.573,3.574z"/>
			<radialGradient id="aigrd3" cx="20.8916" cy="64.5674" r="5.2581" fx="20.8916" fy="64.5674" gradientUnits="userSpaceOnUse">
				<stop  offset="0" style="stop-color:#F0F0F0"/>
				<stop  offset="1" style="stop-color:#474747"/>
			</radialGradient>
			<path style="fill:url(#aigrd3);stroke:none;" d="M23.428,63.07c0,1.973-1.6,3.573-3.573,3.573c-1.974,0-3.573-1.6-3.573-3.573c0-1.974,1.6-3.573,3.573-3.573c1.973,0,3.573,1.6,3.573,3.573z"/>
		</g>
		<path style="stroke:none;" d="M31.679,163.711h-1.613V12.642h1.613v151.07z"/>
		<linearGradient id="aigrd4" gradientUnits="userSpaceOnUse" x1="30.1479" y1="16.8438" x2="28.364" y2="158.2265">
			<stop  offset="0" style="stop-color:#EDEDED"/>
			<stop  offset="1" style="stop-color:#CACACA"/>
		</linearGradient>
		<path style="fill:url(#aigrd4);stroke:none;" d="M30.054,163.711h-1.613V12.642h1.613v151.07z"/>
		<path style="stroke:none;" d="M14.393,26.155l-2.618,133.309c-1.902-1.902-2.662-6.037-2.662-6.037L8.952,21.509c0,0-0.159-3.403,2.963-7.335c3.16-3.98,8.421-4.22,8.421-4.22l118.165,0.168l-113.615,5.54c-4.588,0-7.045,2.273-8.048,3.467
			c-0.812,0.967-2.392,4.104-2.445,7.026z"/>
		<path style="fill:#BEBEBE;stroke:none;" d="M143.944,147.665l2.617-133.308c1.902,1.9,2.662,6.035,2.662,6.035l0.162,131.917c0,0,0.158,3.402-2.963,7.336c-3.16,3.98-8.422,4.219-8.422,4.219l-118.166-0.168l113.617-5.539c4.588,0,7.045-2.273,8.047-3.467
			c0.813-0.967,2.393-4.105,2.445-7.025z"/>
	</g>
	<g id="Layer_x0020_2" style="fill-rule:nonzero;clip-rule:nonzero;stroke:#000000;stroke-miterlimit:4;">
		<path style="stroke:none;" d="M35.381,121.444c0,44.69,36.36,81.052,81.053,81.052s81.052-36.361,81.052-81.052c0-44.693-36.359-81.053-81.052-81.053s-81.053,36.36-81.053,81.053z"/>
		<path style="fill:#7CA0C2;stroke:none;" d="M183.22,119.999c0,37.682-30.548,68.231-68.231,68.231s-68.231-30.55-68.231-68.231c0-37.683,30.548-68.232,68.231-68.232s68.231,30.549,68.231,68.232z"/>
		<path style="fill:#122640;stroke:none;" d="M186.109,122.889c0,37.682-30.549,68.23-68.23,68.23c-37.684,0-68.233-30.549-68.233-68.23c0-37.684,30.55-68.233,68.233-68.233c37.682,0,68.23,30.549,68.23,68.233z"/>
		<linearGradient id="aigrd5" gradientUnits="userSpaceOnUse" x1="153.9307" y1="171.7192" x2="27.0342" y2="1.5791">
			<stop  offset="0" style="stop-color:#065590"/>
			<stop  offset="1" style="stop-color:#88AFCE"/>
		</linearGradient>
		<path style="fill:url(#aigrd5);stroke:none;" d="M184.665,121.444c0,37.682-30.548,68.231-68.231,68.231s-68.232-30.55-68.232-68.231c0-37.683,30.549-68.232,68.232-68.232s68.231,30.549,68.231,68.232z"/>
		<path style="fill:#FFFFFF;stroke:none;" d="M104.972,82.42v41.066c0,5.986,4.852,10.838,10.839,10.838c5.984,0,10.836-4.852,10.836-10.838V82.42c0-5.986-4.852-10.836-10.836-10.836c-5.987,0-10.839,4.851-10.839,10.836z"/>
		<path style="fill:#FFFFFF;stroke:none;" d="M126.602,152.385c0,5.96-4.833,10.791-10.791,10.791c-5.961,0-10.792-4.831-10.792-10.791s4.831-10.792,10.792-10.792c5.958,0,10.791,4.832,10.791,10.792z"/>
	</g>
</svg>
