<?xml version="1.0" encoding="iso-8859-1"?>
<!DOCTYPE svg PUBLIC "-//W3C//DTD SVG 20000303 Stylable//EN"   "http://www.w3.org/TR/2000/03/WD-SVG-20000303/DTD/svg-20000303-stylable.dtd">
<!-- Generator: Adobe Illustrator 9.0, SVG Export Plug-In  -->
<svg  width="323.837pt" height="277.808pt" viewBox="0 0 323.837 277.808" xml:space="preserve">
	<g id="Layer_x0020_2" style="fill-rule:nonzero;clip-rule:nonzero;stroke:#000000;stroke-miterlimit:4;">
		<g id="Layer_x0020_3">
			<path style="opacity:0.35;stroke:none;" d="M314.55,175.135c-28.795-16.74-152.242-34.918-152.242-34.918S30.291,186.929,20.083,191.011c-10.208,4.08-12.835,15.637-1.805,18.787l83.271,33.451c-0.111,0.742-0.188,1.488-0.188,2.244
				c0,17.295,29.751,31.314,66.452,31.314c36.701,0,66.451-14.02,66.451-31.314c0-6.074-3.682-11.74-10.033-16.541c38.299-11.152,79.287-24.088,93.865-33.26c10.514-6.615,5.98-15.021-3.545-20.558z"/>
		</g>
		<path style="stroke:none;" d="M175.472,2.247l-0.148,0.074c-0.045,0.023-25.724,13.835-29.229,15.721c-0.92,0.025-30.122,0.825-30.122,0.825L10.52,62.288l0.007,0.019C7.197,63.679,0,68.092,0,80.611l0.053,1.907c0.001,0.021,6.882,106.25,6.906,106.612
			c0.03,2.896,0.608,8.348,4.079,13.039c3.597,4.865,8.57,7.104,10.542,7.84c38.205,15.059,96.108,37.906,98.901,39.082c4.941,2.146,10.464,2.328,12.039,2.332l0.195,0.002l0.302-0.008c1.509-0.047,6.886-0.443,12.165-3.584l85.204-50.326
			c3.082-1.611,8.787-5.328,11.371-11.57c1.877-4.535,2.15-8.968,2.186-10.554h0.002l3.143-105.329l0.002-0.239c0-8.074-3.225-12.99-5.928-15.691c0.072,0.076-3.143-3.515-3.143-3.515l-0.023,0.02c-0.104-0.101-0.236-0.231-0.434-0.426l0.014-0.015L197.341,5.994
			C194.214,2.211,189.589,0,184.72,0c-4.314,0-7.904,1.571-9.248,2.247z"/>
		<linearGradient id="aigrd1" gradientUnits="userSpaceOnUse" x1="120.7769" y1="100.8989" x2="120.7769" y2="56.9436">
			<stop  offset="0" style="stop-color:#989C80"/>
			<stop  offset="1" style="stop-color:#000000"/>
		</linearGradient>
		<path style="fill:url(#aigrd1);stroke:none;" d="M13.154,73.618l116.717,39.412l98.528-50.78l-1.723-0.478L116.229,31.176L13.154,73.618z"/>
		<linearGradient id="aigrd2" gradientUnits="userSpaceOnUse" x1="75.3101" y1="154.1064" x2="105.3459" y2="231.1075">
			<stop  offset="0" style="stop-color:#DEDFCE"/>
			<stop  offset="1" style="stop-color:#C2C4B5"/>
		</linearGradient>
		<path style="fill:url(#aigrd2);stroke:none;" d="M23.943,195.343c0,0,96.605,38.07,99.347,39.262s6.581,1.205,6.581,1.205V113.03L13.154,73.618c0,0-2.148,0.461-1.818,6.526l6.923,106.861c0,0-0.094,3.289,1.338,5.225c1.628,2.201,4.347,3.113,4.347,3.113z"/>
		<linearGradient id="aigrd3" gradientUnits="userSpaceOnUse" x1="238.668" y1="208.563" x2="79.0277" y2="48.9221">
			<stop  offset="0" style="stop-color:#989C80"/>
			<stop  offset="0.1478" style="stop-color:#8F9378"/>
			<stop  offset="0.3674" style="stop-color:#787A64"/>
			<stop  offset="0.6317" style="stop-color:#575847"/>
			<stop  offset="0.9284" style="stop-color:#32332A"/>
			<stop  offset="1" style="stop-color:#2A2B23"/>
		</linearGradient>
		<path style="fill:url(#aigrd3);stroke:none;" d="M228.399,62.25c0,0,1.992,1.382,1.992,5.951l-3.137,105.149c0,0-0.031,2.967-1.129,5.617c-1.098,2.652-5.344,4.746-5.344,4.746l-85.453,50.474c-2.578,1.533-5.458,1.623-5.458,1.623V113.03l98.528-50.78z"/>
		<linearGradient id="aigrd4" gradientUnits="userSpaceOnUse" x1="93.0571" y1="54.1309" x2="97.3675" y2="69.4402">
			<stop  offset="0" style="stop-color:#EFEFE0"/>
			<stop  offset="1" style="stop-color:#FFFFFF"/>
		</linearGradient>
		<path style="fill:url(#aigrd4);stroke:none;" d="M13.154,73.618l64.422,5.306l93.979-49.264l-55.326,1.516L13.154,73.618z"/>
		<linearGradient id="aigrd5" gradientUnits="userSpaceOnUse" x1="227.9971" y1="64.4282" x2="221.2299" y2="57.661">
			<stop  offset="0" style="stop-color:#989C80"/>
			<stop  offset="1" style="stop-color:#000000"/>
		</linearGradient>
		<path style="fill:url(#aigrd5);stroke:none;" d="M225.146,58.617l-0.42,5.499l3.674-1.866l-3.254-3.633z"/>
		<linearGradient id="aigrd6" gradientUnits="userSpaceOnUse" x1="191.4756" y1="94.1899" x2="1.7221" y2="-78.5821">
			<stop  offset="0" style="stop-color:#989C80"/>
			<stop  offset="1" style="stop-color:#000000"/>
		</linearGradient>
		<path style="fill:url(#aigrd6);stroke:none;" d="M224.528,64.245l-87.771,45.235c0,0-3.895,1.627-6.215,1.397c-2.462-0.245-4.208-2.121-4.208-2.121L84.553,67.711c0,0-0.738-0.845-0.491-2.43c0.237-1.522,2.425-2.347,2.425-2.347l92.579-49.796
			c0,0,1.498-0.753,2.957-0.753c1.361,0,2.102,1.234,2.102,1.234l40.404,44.378c0,0,1.967,1.623,1.967,3.725c0,1.336-1.967,2.522-1.967,2.522z"/>
		<linearGradient id="aigrd7" gradientUnits="userSpaceOnUse" x1="166.0225" y1="78.7637" x2="124.266" y2="32.7604">
			<stop  offset="0" style="stop-color:#F2F2E1"/>
			<stop  offset="1" style="stop-color:#FFFFFF"/>
		</linearGradient>
		<path style="fill:url(#aigrd7);stroke:none;" d="M138.446,108.144c0,0-3.68,3.052-6.687,0.051L91.168,67.679c-1.092-1.093-1.082-2.379,0.42-3.233l86.878-50.985c0,0-91.041,48.472-92.45,49.279c-2.254,1.291-2.875,3.652-1.028,5.759
			c0.978,1.116,31.47,30.688,41.951,40.849c2.183,2.116-2.376,2.099-2.376,2.099s11.617,3.345,13.884-3.303z"/>
		<path style="fill:none;stroke:none;" d="M132.616,228.873c0.991-28.967,0.878-99.174,0.878-101.547c0-3.089-0.778-12.398,7.418-17.201l85.583-46.894l-92.507,47.187c-6.525,2.959-11.758-0.335-23.465-3.921c0.564,0.385-94.452-32.819-94.452-32.819
			s-5.279-2.134-4.764,4.801l6.998,109.679c0.205,3.301,2.124,6.004,5.638,7.186c-2.709-1.535-3.866-4.707-4.061-6.557L12.83,79.574c-0.157-1.449,0.504-1.984,1.702-1.718c0,0,101.682,34.757,104.689,35.828c6.445,2.294,5.726,11.131,5.771,13.2
			s3.082,103.125,3.082,103.125s4.243,7.611,4.543-1.137z"/>
		<g>
		</g>
		<path style="fill:#FFFFFF;stroke:none;" d="M27.532,71.216l88.697-40.04L13.447,73.62l7.64,0.544l56.489,4.76l-50.044-7.708z"/>
		<path style="fill:#A6A698;stroke:none;" d="M227.255,173.35l2.658-89.088l-6.082,89.898c0,1.738-0.863,3.25-1.613,3.83l-26.381,20.457c0,0,25.566-15.013,27.379-16.179c2.098-1.348,4.039-3.813,4.039-8.918z"/>
		<linearGradient id="aigrd8" gradientUnits="userSpaceOnUse" x1="132.3228" y1="236.0063" x2="128.1544" y2="229.1215">
			<stop  offset="0" style="stop-color:#63635C"/>
			<stop  offset="1" style="stop-color:#F3F4E4"/>
		</linearGradient>
		<path style="fill:url(#aigrd8);stroke:none;" d="M121.607,233.921c6.791,3.338,11.146,2.041,17.658-2.061c0,0-6.515-0.527-6.515-7.432c-0.359-0.592-4.759,0.549-4.849-0.098c0.171,5.961-3.141,9.59-6.295,9.59z"/>
		<linearGradient id="aigrd9" gradientUnits="userSpaceOnUse" x1="191.7832" y1="94.4448" x2="136.065" y2="121.7236">
			<stop  offset="0" style="stop-color:#919186"/>
			<stop  offset="1" style="stop-color:#F3F4E4"/>
		</linearGradient>
		<path style="fill:url(#aigrd9);stroke:none;" d="M132.176,228.756c0.99-28.968,0.877-99.175,0.877-101.548c0-3.089-0.777-12.398,7.418-17.201l85.584-46.894L133.547,110.3c-6.525,2.959-11.758-0.335-23.465-3.921c0.565,0.385-94.451-32.819-94.451-32.819
			s-5.279-2.134-4.764,4.801l6.998,109.68c0.205,3.3,2.124,6.003,5.638,7.185c-2.709-1.534-3.866-4.707-4.061-6.556L12.389,79.457c-0.157-1.449,0.504-1.984,1.702-1.718c0,0,101.682,34.757,104.689,35.828c6.445,2.294,5.727,11.131,5.771,13.2
			s3.082,103.125,3.082,103.125s4.242,7.611,4.543-1.136z"/>
	</g>
	<g id="Layer_x0020_1" style="fill-rule:nonzero;clip-rule:nonzero;fill:#FFFFFF;stroke:#000000;stroke-miterlimit:4;">
		<path style="fill:#000000;stroke:none;" d="M84.893,210.513c0,37.105,30.188,67.295,67.295,67.295c37.106,0,67.295-30.189,67.295-67.295c0-37.107-30.189-67.295-67.295-67.295c-37.106,0-67.295,30.188-67.295,67.295z"/>
		<radialGradient id="aigrd10" cx="131.6973" cy="184.936" r="83.7891" fx="131.6973" fy="184.936" gradientUnits="userSpaceOnUse">
			<stop  offset="0" style="stop-color:#FED182"/>
			<stop  offset="0.2809" style="stop-color:#FFB310"/>
			<stop  offset="1" style="stop-color:#996E04"/>
		</radialGradient>
		<path style="fill-rule:evenodd;clip-rule:evenodd;fill:url(#aigrd10);stroke:none;" d="M208.257,209.173c0,31.705-25.703,57.408-57.408,57.408c-31.706,0-57.408-25.703-57.408-57.408c0-31.706,25.702-57.408,57.408-57.408c31.705,0,57.408,25.702,57.408,57.408z"
			/>
		<g style="opacity:0.7;stroke:none;">
			<path d="M106.785,200.693c0-2.839,0.126-3.596,0.883-4.604c0.82-1.199,2.334-1.956,3.911-1.956c2.523,0,4.037,1.388,4.668,4.101c1.703-3.028,3.154-4.101,5.614-4.101c2.649,0,4.479,1.767,4.479,4.227c0,2.586-1.956,4.416-4.668,4.416h-0.568
				c-0.694-0.063-1.198-0.063-1.388-0.063c-2.208,0-3.028,1.262-3.028,4.604v10.472c0,4.731-0.063,5.173-1.009,6.308c-1.009,1.262-2.397,1.956-3.911,1.956c-1.766,0-3.469-0.946-4.353-2.46c-0.567-1.01-0.63-1.515-0.63-5.804v-17.095z"/>
			<path d="M139.586,228.132c0,4.731-0.063,5.173-1.009,6.309c-1.009,1.262-2.397,1.955-3.911,1.955c-1.766,0-3.469-0.946-4.353-2.46c-0.568-1.01-0.631-1.514-0.631-5.804v-28.196c0-3.785,1.703-5.804,4.92-5.804c2.649,0,3.911,1.136,4.983,4.227
				c1.766-2.901,4.163-4.353,7.191-4.353c2.586,0,5.425,1.514,6.623,3.659c1.262,2.081,1.515,4.289,1.515,13.057c0,8.074-0.189,9.589-1.577,12.111c-1.136,2.082-3.533,3.344-6.561,3.344c-2.965,0-4.29-0.631-7.191-3.658v5.613z M139.712,209.965l-0.063,3.911
				c0,2.713,0.883,4.037,2.775,4.037c1.766,0,2.334-1.072,2.46-4.353c0.063-0.946,0.126-4.479,0.126-5.299c0-3.027-0.126-4.289-0.505-5.172c-0.378-0.757-1.198-1.262-2.145-1.262c-1.956,0-2.712,1.135-2.649,4.1v4.037z"/>
			<path d="M158.951,200.567c0-2.397,0.253-3.532,1.01-4.604c0.82-1.136,2.46-1.893,4.1-1.893c2.587,0,3.911,1.198,4.795,4.353c2.207-3.218,4.226-4.416,7.38-4.416c3.344,0,5.299,1.262,6.876,4.416c2.019-3.218,4.037-4.416,7.443-4.416
				c4.668,0,6.938,2.713,6.938,8.264v15.518c0,4.731-0.063,5.109-1.009,6.308c-1.01,1.262-2.397,1.956-3.911,1.956c-1.767,0-3.47-0.946-4.353-2.46c-0.567-1.01-0.631-1.515-0.631-5.804v-11.165c0-1.893,0-2.208-0.189-2.775c-0.252-0.884-1.009-1.451-1.955-1.451
				c-1.01,0-1.893,0.694-2.145,1.703c-0.127,0.694-0.127,0.694-0.127,2.901v10.787c0,4.731-0.063,5.109-1.009,6.308c-1.01,1.262-2.397,1.956-3.911,1.956c-1.767,0-3.47-0.946-4.353-2.46c-0.567-1.01-0.631-1.515-0.631-5.804v-11.229c0-2.46,0-2.46-0.189-2.965
				c-0.188-0.757-0.946-1.261-1.829-1.261c-1.009,0-1.893,0.63-2.208,1.576c-0.126,0.568-0.188,1.01-0.188,2.334v11.544c0,4.731-0.063,5.173-1.01,6.308c-1.009,1.262-2.396,1.956-3.911,1.956c-1.766,0-3.469-0.946-4.353-2.46c-0.567-1.01-0.631-1.515-0.631-5.804
				v-17.221z"/>
		</g>
	</g>
</svg>
