<?xml version="1.0" encoding="iso-8859-1"?>
<!DOCTYPE svg PUBLIC "-//W3C//DTD SVG 20000303 Stylable//EN"   "http://www.w3.org/TR/2000/03/WD-SVG-20000303/DTD/svg-20000303-stylable.dtd">
<!-- Generator: Adobe Illustrator 9.0, SVG Export Plug-In  -->
<svg  width="232.91pt" height="198.018pt" viewBox="0 0 232.91 198.018" xml:space="preserve">
	<g id="Layer_x0020_1" style="fill-rule:nonzero;clip-rule:nonzero;fill:#FFFFFF;stroke:#000000;stroke-miterlimit:4;">
		<path style="opacity:0.35;fill:#000000;stroke:none;" d="M232.91,164.665l-25.15-14.805c0.479-1.476,0.188-2.869-1.076-4.134c-2.379-2.378-9.117-4.878-18.345-7.298l-25.341-14.917l-20.319,6.176c-26.687-3.915-53.536-6.263-62.927-5.118
			c-19.713,2.404-75.585,38.707-67.648,46.861c4.855,4.99,48.016,7.657,84.231,8.315l24.312,17.972l112.264-33.053z"/>
		<path style="fill:#000000;stroke:none;" d="M22,0C9.869,0,0,9.869,0,22v129.792c0,12.13,9.869,22,22,22h115.803c12.131,0,22-9.869,22-22V22c0-12.131-9.869-22-22-22H22z"/>
		<linearGradient id="aigrd1" gradientUnits="userSpaceOnUse" x1="38.9502" y1="17.4937" x2="120.673" y2="159.4597">
			<stop  offset="0" style="stop-color:#F0F0F0"/>
			<stop  offset="1" style="stop-color:#D6D6D6"/>
		</linearGradient>
		<path style="fill:url(#aigrd1);stroke:none;" d="M148.803,151.792c0,6.627-5.373,12-12,12H21c-6.627,0-12-5.373-12-12V22c0-6.627,5.373-12,12-12h115.803c6.627,0,12,5.373,12,12v129.792z"/>
		<g>
			<radialGradient id="aigrd2" cx="20.8916" cy="114.5684" r="5.2576" fx="20.8916" fy="114.5684" gradientUnits="userSpaceOnUse">
				<stop  offset="0" style="stop-color:#F0F0F0"/>
				<stop  offset="1" style="stop-color:#474747"/>
			</radialGradient>
			<path style="fill:url(#aigrd2);stroke:none;" d="M23.428,113.071c0,1.973-1.6,3.572-3.572,3.572c-1.974,0-3.573-1.6-3.573-3.572c0-1.975,1.6-3.574,3.573-3.574c1.973,0,3.572,1.6,3.572,3.574z"/>
			<radialGradient id="aigrd3" cx="20.8916" cy="64.5674" r="5.2581" fx="20.8916" fy="64.5674" gradientUnits="userSpaceOnUse">
				<stop  offset="0" style="stop-color:#F0F0F0"/>
				<stop  offset="1" style="stop-color:#474747"/>
			</radialGradient>
			<path style="fill:url(#aigrd3);stroke:none;" d="M23.428,63.07c0,1.973-1.6,3.573-3.572,3.573c-1.974,0-3.573-1.6-3.573-3.573c0-1.974,1.6-3.573,3.573-3.573c1.973,0,3.572,1.6,3.572,3.573z"/>
		</g>
		<path style="stroke:none;" d="M31.68,163.711h-1.613V12.642h1.613v151.07z"/>
		<linearGradient id="aigrd4" gradientUnits="userSpaceOnUse" x1="30.1479" y1="16.8438" x2="28.364" y2="158.2265">
			<stop  offset="0" style="stop-color:#EDEDED"/>
			<stop  offset="1" style="stop-color:#CACACA"/>
		</linearGradient>
		<path style="fill:url(#aigrd4);stroke:none;" d="M30.055,163.711h-1.613V12.642h1.613v151.07z"/>
		<path style="stroke:none;" d="M14.394,26.155l-2.618,133.309c-1.901-1.902-2.661-6.037-2.661-6.037L8.953,21.509c0,0-0.159-3.403,2.963-7.335c3.159-3.98,8.421-4.22,8.421-4.22l118.165,0.168l-113.615,5.54c-4.588,0-7.045,2.273-8.048,3.467
			c-0.812,0.967-2.392,4.104-2.445,7.026z"/>
		<path style="fill:#BEBEBE;stroke:none;" d="M143.945,147.665l2.617-133.309c1.902,1.9,2.662,6.035,2.662,6.035l0.162,131.918c0,0,0.158,3.402-2.963,7.335c-3.16,3.98-8.422,4.219-8.422,4.219l-118.166-0.168l113.617-5.539c4.588,0,7.045-2.273,8.047-3.467
			c0.813-0.967,2.393-4.105,2.445-7.025z"/>
	</g>
	<g id="Layer_x0020_2" style="fill-rule:nonzero;clip-rule:nonzero;fill:#FFFFFF;stroke:#000000;stroke-miterlimit:4;">
		<g style="stroke:none;">
			<path style="fill:#000000;" d="M120.436,198.018l-81.622-81.623l81.622-81.623l81.624,81.623l-81.624,81.623z"/>
			<linearGradient id="aigrd5" gradientUnits="userSpaceOnUse" x1="101.7881" y1="39.4346" x2="139.7811" y2="205.9083">
				<stop  offset="0" style="stop-color:#184375"/>
				<stop  offset="1" style="stop-color:#C8BDDC"/>
			</linearGradient>
			<path style="fill:url(#aigrd5);stroke:#000000;" d="M119.032,185.813l-70.824-70.822l70.824-70.824l70.822,70.824l-70.822,70.822z"/>
			<g>
				<g>
					<linearGradient id="aigrd6" gradientUnits="userSpaceOnUse" x1="104.8623" y1="97.4639" x2="121.5172" y2="134.5723">
						<stop  offset="0" style="stop-color:#184375"/>
						<stop  offset="1" style="stop-color:#C8BDDC"/>
					</linearGradient>
					<path style="opacity:0;fill:url(#aigrd6);" d="M121.868,47.206L51.044,118.03l41.224,40.328c52.948,0,9.062-68.542,72.209-68.542l-42.609-42.61z"/>
					<linearGradient id="aigrd7" gradientUnits="userSpaceOnUse" x1="104.001" y1="96.748" x2="120.5026" y2="133.5148">
						<stop  offset="0" style="stop-color:#184375"/>
						<stop  offset="1" style="stop-color:#C8BDDC"/>
					</linearGradient>
					<path style="opacity:0.1667;fill:url(#aigrd7);" d="M121.379,46.716L50.555,117.54l40.511,39.73c52.947,0,8.797-68.922,71.943-68.922l-41.63-41.632z"/>
					<linearGradient id="aigrd8" gradientUnits="userSpaceOnUse" x1="103.1406" y1="96.0317" x2="119.4885" y2="132.4561">
						<stop  offset="0" style="stop-color:#184375"/>
						<stop  offset="1" style="stop-color:#C8BDDC"/>
					</linearGradient>
					<path style="opacity:0.3333;fill:url(#aigrd8);" d="M120.889,46.226L50.065,117.05l39.796,39.131c52.948,0,8.532-69.302,71.68-69.302l-40.652-40.653z"/>
					<linearGradient id="aigrd9" gradientUnits="userSpaceOnUse" x1="102.2793" y1="95.3159" x2="118.4735" y2="131.3979">
						<stop  offset="0" style="stop-color:#184375"/>
						<stop  offset="1" style="stop-color:#C8BDDC"/>
					</linearGradient>
					<path style="opacity:0.5;fill:url(#aigrd9);" d="M120.399,45.737l-70.824,70.824l39.083,38.533c52.947,0,8.268-69.683,71.414-69.683l-39.673-39.674z"/>
					<linearGradient id="aigrd10" gradientUnits="userSpaceOnUse" x1="101.418" y1="94.5996" x2="117.4587" y2="130.3396">
						<stop  offset="0" style="stop-color:#184375"/>
						<stop  offset="1" style="stop-color:#C8BDDC"/>
					</linearGradient>
					<path style="opacity:0.6667;fill:url(#aigrd10);" d="M119.91,45.247l-70.824,70.824l38.368,37.935c52.947,0,8.003-70.063,71.149-70.063L119.91,45.247z"/>
					<linearGradient id="aigrd11" gradientUnits="userSpaceOnUse" x1="100.5576" y1="93.8833" x2="116.4449" y2="129.2813">
						<stop  offset="0" style="stop-color:#184375"/>
						<stop  offset="1" style="stop-color:#C8BDDC"/>
					</linearGradient>
					<path style="opacity:0.8333;fill:url(#aigrd11);" d="M119.42,44.757l-70.823,70.824l37.654,37.336c52.948,0,7.739-70.443,70.885-70.443L119.42,44.757z"/>
					<linearGradient id="aigrd12" gradientUnits="userSpaceOnUse" x1="99.6963" y1="93.1685" x2="115.4299" y2="128.2241">
						<stop  offset="0" style="stop-color:#184375"/>
						<stop  offset="1" style="stop-color:#C8BDDC"/>
					</linearGradient>
					<path style="fill:url(#aigrd12);" d="M118.931,44.268l-70.824,70.824l36.94,36.738c52.947,0,7.474-70.824,70.62-70.824l-36.736-36.738z"/>
				</g>
			</g>
			<path style="opacity:0.72;" d="M189.854,114.991l-70.822-70.824l-70.824,70.824l2.878,2.303l68.577-60.999l70.191,58.696z"/>
			<path style="opacity:0.5;" d="M62.431,129.212l2.72-3.774c2.346,0.99,4.793,1.788,7.319,2.377l-0.021,5.811c1.576,0.326,3.18,0.576,4.806,0.754l1.775-5.537c1.268,0.106,2.549,0.163,3.845,0.163c1.294,0,2.577-0.057,3.845-0.163l1.775,5.537
				c1.626-0.178,3.229-0.428,4.806-0.754l-0.021-5.811c2.526-0.59,4.973-1.387,7.319-2.377l3.398,4.717c1.482-0.671,2.927-1.411,4.331-2.212l-1.817-5.522c2.201-1.334,4.281-2.85,6.219-4.524l4.688,3.432c1.2-1.093,2.349-2.242,3.441-3.44l-3.434-4.688
				c1.676-1.937,3.19-4.017,4.524-6.219l5.521,1.817c0.803-1.403,1.542-2.848,2.211-4.331l-4.713-3.398c0.989-2.347,1.786-4.792,2.376-7.32l5.811,0.021c0.326-1.576,0.575-3.18,0.752-4.806l-5.532-1.775c0.105-1.267,0.161-2.549,0.161-3.844
				c0-1.295-0.057-2.576-0.161-3.844l5.532-1.775c-0.177-1.626-0.426-3.23-0.752-4.806l-5.811,0.022c-0.59-2.527-1.387-4.974-2.376-7.32l4.713-3.398c-0.669-1.483-1.408-2.927-2.211-4.331l-5.521,1.816c-1.334-2.201-2.849-4.281-4.524-6.218l3.434-4.688
				c-1.025-1.127-2.106-2.204-3.227-3.236l-69.422,69.423l3.711,3.711l1.101-0.806c1.937,1.674,4.017,3.189,6.218,4.524l-0.891,2.71l4.083,4.082z"/>
			<path style="opacity:0.5;" d="M134.373,147.807c0-23.896,15.602-44.144,37.173-51.125l-8.208-8.208c-0.061,0.025-0.124,0.048-0.185,0.074l-0.669-0.927l-5.204-5.204c-1.706,0.807-3.377,1.675-5.009,2.608l2.559,7.772c-3.1,1.878-6.028,4.011-8.755,6.37
				l-6.6-4.833c-1.691,1.538-3.308,3.155-4.844,4.844l4.832,6.6c-2.358,2.728-4.492,5.655-6.371,8.754l-7.772-2.558c-1.13,1.976-2.17,4.01-3.114,6.098l6.639,4.784c-1.393,3.303-2.518,6.747-3.346,10.305l-8.181-0.031c-0.458,2.219-0.81,4.477-1.061,6.766
				l7.792,2.499c-0.148,1.785-0.229,3.589-0.229,5.412s0.08,3.627,0.229,5.413l-7.792,2.497c0.251,2.291,0.603,4.548,1.061,6.769l8.181-0.031c0.828,3.557,1.953,7.003,3.346,10.306l-6.639,4.783c0.525,1.161,1.084,2.305,1.666,3.43l14.019-14.017
				c-2.27-5.949-3.518-12.404-3.518-19.149z"/>
			<path style="opacity:0.35;fill:#000000;" d="M48.719,115.501l70.313,70.312l70.822-70.822l-3.556-2.974l-68.098,61.496l-69.482-58.011z"/>
		</g>
	</g>
</svg>
