<?xml version="1.0" encoding="iso-8859-1"?>
<!-- Generator: Adobe Illustrator 9.0, SVG Export Plug-In  -->
<!DOCTYPE svg PUBLIC "-//W3C//DTD SVG 20000303 Stylable//EN"   "http://www.w3.org/TR/2000/03/WD-SVG-20000303/DTD/svg-20000303-stylable.dtd" [
	<!ENTITY st0 "fill:url(#aigrd1);stroke:none;">
	<!ENTITY st1 "fill:#000000;stroke:none;">
	<!ENTITY st2 "opacity:0.35;fill:#000000;stroke:none;">
	<!ENTITY st3 "fill:#6B6B6B;stroke:#6B6B6B;stroke-width:4;stroke-linecap:round;stroke-linejoin:round;">
	<!ENTITY st4 "fill:url(#aigrd3);stroke:none;">
	<!ENTITY st5 "fill-rule:nonzero;clip-rule:nonzero;fill:#FFFFFF;stroke:#000000;stroke-miterlimit:4;">
	<!ENTITY st6 "fill:url(#aigrd2);stroke:none;">
	<!ENTITY st7 "fill:#BEBEBE;stroke:none;">
	<!ENTITY st8 "fill-rule:nonzero;clip-rule:nonzero;stroke:#000000;stroke-miterlimit:4;">
	<!ENTITY st9 "stroke:none;">
	<!ENTITY st10 "fill:url(#aigrd4);stroke:none;">
]>
<svg  width="207.901pt" height="179.886pt" viewBox="0 0 207.901 179.886" xml:space="preserve">
	<g id="Layer_x0020_1" style="&st5;">
		<path style="&st2;" d="M145.325,178.647c-14.998,2.891-125.286,0.938-133.223-7.219c-7.936-8.154,47.936-44.457,67.649-46.861c19.713-2.404,116.353,10.578,126.931,21.156c10.576,10.578-46.359,30.033-61.357,32.924z"/>
		<path style="&st1;" d="M22,0C9.869,0,0,9.869,0,22v129.79c0,12.131,9.869,22,22,22h115.802c12.131,0,22-9.869,22-22V22c0-12.131-9.869-22-22-22H22z"/>
		<linearGradient id="aigrd1" gradientUnits="userSpaceOnUse" x1="38.9507" y1="17.4937" x2="120.6722" y2="159.4575">
			<stop  offset="0" style="stop-color:#F0F0F0"/>
			<stop  offset="1" style="stop-color:#D6D6D6"/>
		</linearGradient>
		<path style="&st0;" d="M148.802,151.79c0,6.627-5.373,12-12,12H21c-6.627,0-12-5.373-12-12V22c0-6.627,5.373-12,12-12h115.802c6.627,0,12,5.373,12,12v129.79z"/>
		<g>
			<radialGradient id="aigrd2" cx="20.8916" cy="114.5664" r="5.2576" fx="20.8916" fy="114.5664" gradientUnits="userSpaceOnUse">
				<stop  offset="0" style="stop-color:#F0F0F0"/>
				<stop  offset="1" style="stop-color:#474747"/>
			</radialGradient>
			<path style="&st6;" d="M23.428,113.069c0,1.973-1.6,3.572-3.573,3.572c-1.974,0-3.573-1.6-3.573-3.572c0-1.975,1.6-3.574,3.573-3.574c1.973,0,3.573,1.6,3.573,3.574z"/>
			<radialGradient id="aigrd3" cx="20.8916" cy="64.5679" r="5.2576" fx="20.8916" fy="64.5679" gradientUnits="userSpaceOnUse">
				<stop  offset="0" style="stop-color:#F0F0F0"/>
				<stop  offset="1" style="stop-color:#474747"/>
			</radialGradient>
			<path style="&st4;" d="M23.428,63.07c0,1.973-1.6,3.573-3.573,3.573c-1.974,0-3.573-1.6-3.573-3.573c0-1.974,1.6-3.573,3.573-3.573c1.973,0,3.573,1.6,3.573,3.573z"/>
		</g>
		<path style="&st9;" d="M31.679,163.71h-1.613V12.642h1.613V163.71z"/>
		<linearGradient id="aigrd4" gradientUnits="userSpaceOnUse" x1="30.1479" y1="16.8433" x2="28.364" y2="158.2251">
			<stop  offset="0" style="stop-color:#EDEDED"/>
			<stop  offset="1" style="stop-color:#CACACA"/>
		</linearGradient>
		<path style="&st10;" d="M30.054,163.71h-1.613V12.642h1.613V163.71z"/>
		<path style="&st9;" d="M14.393,26.155l-2.618,133.307c-1.902-1.902-2.662-6.037-2.662-6.037L8.952,21.509c0,0-0.159-3.403,2.963-7.335c3.16-3.98,8.421-4.22,8.421-4.22l118.165,0.168l-113.615,5.54c-4.588,0-7.045,2.273-8.048,3.467
			c-0.812,0.967-2.392,4.104-2.445,7.026z"/>
		<path style="&st7;" d="M143.944,147.663l2.617-133.307c1.902,1.9,2.662,6.035,2.662,6.035l0.162,131.916c0,0,0.158,3.402-2.963,7.336c-3.16,3.98-8.422,4.219-8.422,4.219l-118.166-0.168l113.617-5.539c4.588,0,7.045-2.273,8.047-3.467
			c0.812-0.967,2.393-4.105,2.445-7.025z"/>
	</g>
	<g id="Layer_x0020_2" style="&st8;">
		<path style="&st3;" d="M49.355,93.567h6.9l2.858-9.393l3.675,20.419l7.351-33.486l3.267,46.554l4.9-34.303l2.45,13.885L82.799,80.5l3.267,34.711l4.083-60.438l3.267,37.162l3.675-12.251l3.675,45.737l4.084-35.119l6.125,9.801l1.634-12.251l3.267,5.717h7.351"/>
		<g style="&st9;">
			<path d="M73.844,51.253l-0.018-23.275l-1.262-0.245l0.051,21.324c-1.51-1.167-4.184-1.472-6.924-0.606c-3.709,1.172-6.125,4.037-5.395,6.4c0.729,2.365,4.328,3.33,8.039,2.159c3.379-1.067,5.674-3.538,5.508-5.757z"/>
			<path d="M53.83,33.796l-0.004-5.819l-1.262-0.245l0.051,21.324c-1.51-1.167-4.185-1.472-6.924-0.606c-3.709,1.172-6.125,4.037-5.396,6.4c0.729,2.365,4.329,3.33,8.039,2.159c3.38-1.067,5.675-3.538,5.509-5.757L53.83,34.021h18.734v-6.289H53.83v6.064z"/>
		</g>
	</g>
</svg>
