<?xml version="1.0" encoding="iso-8859-1"?>
<!-- Generator: Adobe Illustrator 9.0, SVG Export Plug-In  -->
<!DOCTYPE svg PUBLIC "-//W3C//DTD SVG 20000303 Stylable//EN"   "http://www.w3.org/TR/2000/03/WD-SVG-20000303/DTD/svg-20000303-stylable.dtd" [
	<!ENTITY st0 "fill:url(#aigrd1);stroke:none;">
	<!ENTITY st1 "fill:url(#aigrd3);stroke:none;">
	<!ENTITY st2 "opacity:0.35;stroke:none;">
	<!ENTITY st3 "fill:#FFFFFF;stroke:none;">
	<!ENTITY st4 "fill:url(#aigrd2);stroke:none;">
	<!ENTITY st5 "fill:#BEBEBE;stroke:none;">
	<!ENTITY st6 "fill-rule:nonzero;clip-rule:nonzero;stroke:#000000;stroke-miterlimit:4;">
	<!ENTITY st7 "stroke:none;">
	<!ENTITY st8 "fill:url(#aigrd4);stroke:none;">
]>
<svg  width="207.901pt" height="179.886pt" viewBox="0 0 207.901 179.886" xml:space="preserve">
	<g id="Layer_x0020_1" style="&st6;">
		<path style="&st2;" d="M145.326,178.648c-14.998,2.891-125.286,0.938-133.223-7.219c-7.936-8.152,47.936-44.455,67.649-46.859c19.713-2.404,116.354,10.576,126.931,21.154s-46.359,30.035-61.356,32.924z"/>
		<path style="&st7;" d="M22,0C9.869,0,0,9.869,0,22v129.791c0,12.131,9.869,22,22,22h115.802c12.131,0,22-9.869,22-22V22c0-12.131-9.869-22-22-22H22z"/>
		<linearGradient id="aigrd1" gradientUnits="userSpaceOnUse" x1="38.9507" y1="17.4941" x2="120.6726" y2="159.4587">
			<stop  offset="0" style="stop-color:#F0F0F0"/>
			<stop  offset="1" style="stop-color:#D6D6D6"/>
		</linearGradient>
		<path style="&st0;" d="M148.802,151.791c0,6.627-5.373,12-12,12H21c-6.627,0-12-5.373-12-12V22c0-6.627,5.373-12,12-12h115.802c6.627,0,12,5.373,12,12v129.791z"/>
		<g>
			<radialGradient id="aigrd2" cx="20.8921" cy="114.5669" r="5.257" fx="20.8921" fy="114.5669" gradientUnits="userSpaceOnUse">
				<stop  offset="0" style="stop-color:#F0F0F0"/>
				<stop  offset="1" style="stop-color:#474747"/>
			</radialGradient>
			<path style="&st4;" d="M23.428,113.07c0,1.973-1.6,3.572-3.573,3.572c-1.974,0-3.573-1.6-3.573-3.572s1.6-3.572,3.573-3.572c1.973,0,3.573,1.6,3.573,3.572z"/>
			<radialGradient id="aigrd3" cx="20.8921" cy="64.5674" r="5.2575" fx="20.8921" fy="64.5674" gradientUnits="userSpaceOnUse">
				<stop  offset="0" style="stop-color:#F0F0F0"/>
				<stop  offset="1" style="stop-color:#474747"/>
			</radialGradient>
			<path style="&st1;" d="M23.428,63.07c0,1.973-1.6,3.573-3.573,3.573c-1.974,0-3.573-1.6-3.573-3.573c0-1.974,1.6-3.573,3.573-3.573c1.973,0,3.573,1.6,3.573,3.573z"/>
		</g>
		<path style="&st3;" d="M31.679,163.71h-1.613V12.642h1.613V163.71z"/>
		<linearGradient id="aigrd4" gradientUnits="userSpaceOnUse" x1="30.1475" y1="16.8433" x2="28.3635" y2="158.2251">
			<stop  offset="0" style="stop-color:#EDEDED"/>
			<stop  offset="1" style="stop-color:#CACACA"/>
		</linearGradient>
		<path style="&st8;" d="M30.054,163.71h-1.613V12.642h1.613V163.71z"/>
		<path style="&st3;" d="M14.393,26.155l-2.618,133.308c-1.902-1.9-2.662-6.035-2.662-6.035L8.952,21.509c0,0-0.159-3.403,2.963-7.335c3.16-3.98,8.421-4.22,8.421-4.22l118.165,0.168l-113.615,5.54c-4.588,0-7.045,2.273-8.048,3.467
			c-0.812,0.967-2.392,4.104-2.445,7.026z"/>
		<path style="&st5;" d="M143.945,147.664l2.617-133.307c1.902,1.9,2.662,6.035,2.662,6.035l0.161,131.918c0,0,0.159,3.402-2.963,7.334c-3.159,3.98-8.421,4.221-8.421,4.221l-118.166-0.168l113.616-5.541c4.588,0,7.045-2.273,8.048-3.467
			c0.812-0.967,2.392-4.104,2.445-7.025z"/>
		<g style="&st7;">
			<path d="M92.8,141.898c-2.04,0-3.48-1.62-3.48-3.78s1.5-3.78,3.6-3.78c2.1,0,3.54,1.561,3.54,3.78c0,2.16-1.44,3.78-3.6,3.78H92.8z"/>
			<path d="M102.999,98.638h5.28v18.12h0.12c0.84-1.5,2.16-2.88,3.779-3.721c1.561-0.96,3.421-1.5,5.4-1.5c3.9,0,10.14,2.4,10.14,12.42v17.28h-5.279v-16.68c0-4.74-1.74-8.64-6.721-8.64c-3.42,0-6.06,2.399-7.08,5.279c-0.3,0.72-0.36,1.5-0.36,2.521v17.52h-5.28
				v-42.6z"/>
		</g>
	</g>
</svg>
