<?xml version="1.0" encoding="iso-8859-1"?>
<!-- Generator: Adobe Illustrator 9.0, SVG Export Plug-In  -->
<!DOCTYPE svg PUBLIC "-//W3C//DTD SVG 20000303 Stylable//EN"   "http://www.w3.org/TR/2000/03/WD-SVG-20000303/DTD/svg-20000303-stylable.dtd" [
	<!ENTITY st0 "fill:url(#aigrd1);stroke:none;">
	<!ENTITY st1 "fill:#000000;stroke:none;">
	<!ENTITY st2 "opacity:0.35;fill:#000000;stroke:none;">
	<!ENTITY st3 "fill:url(#aigrd3);stroke:none;">
	<!ENTITY st4 "fill-rule:nonzero;clip-rule:nonzero;fill:#FFFFFF;stroke:#000000;stroke-miterlimit:4;">
	<!ENTITY st5 "opacity:0.2;">
	<!ENTITY st6 "fill:url(#aigrd2);stroke:none;">
	<!ENTITY st7 "fill:#BEBEBE;stroke:none;">
	<!ENTITY st8 "fill-rule:nonzero;clip-rule:nonzero;stroke:#000000;stroke-miterlimit:4;">
	<!ENTITY st9 "stroke:none;">
	<!ENTITY st10 "fill:url(#aigrd4);stroke:none;">
]>
<svg  width="207.901pt" height="179.886pt" viewBox="0 0 207.901 179.886" xml:space="preserve">
	<g id="Layer_x0020_1" style="&st4;">
		<path style="&st2;" d="M145.326,178.648c-14.998,2.891-125.286,0.938-133.223-7.219c-7.936-8.152,47.936-44.455,67.649-46.859c19.713-2.404,116.354,10.576,126.931,21.154s-46.359,30.035-61.356,32.924z"/>
		<path style="&st1;" d="M22,0C9.869,0,0,9.869,0,22v129.791c0,12.131,9.869,22,22,22h115.802c12.131,0,22-9.869,22-22V22c0-12.131-9.869-22-22-22H22z"/>
		<linearGradient id="aigrd1" gradientUnits="userSpaceOnUse" x1="38.9507" y1="17.4941" x2="120.6731" y2="159.4595">
			<stop  offset="0" style="stop-color:#F0F0F0"/>
			<stop  offset="1" style="stop-color:#D6D6D6"/>
		</linearGradient>
		<path style="&st0;" d="M148.802,151.791c0,6.627-5.373,12-12,12H21c-6.627,0-12-5.373-12-12V22c0-6.627,5.373-12,12-12h115.802c6.627,0,12,5.373,12,12v129.791z"/>
		<g>
			<radialGradient id="aigrd2" cx="20.8921" cy="114.5669" r="5.257" fx="20.8921" fy="114.5669" gradientUnits="userSpaceOnUse">
				<stop  offset="0" style="stop-color:#F0F0F0"/>
				<stop  offset="1" style="stop-color:#474747"/>
			</radialGradient>
			<path style="&st6;" d="M23.428,113.07c0,1.973-1.6,3.572-3.573,3.572c-1.974,0-3.573-1.6-3.573-3.572s1.6-3.572,3.573-3.572c1.973,0,3.573,1.6,3.573,3.572z"/>
			<radialGradient id="aigrd3" cx="20.8921" cy="64.5674" r="5.2575" fx="20.8921" fy="64.5674" gradientUnits="userSpaceOnUse">
				<stop  offset="0" style="stop-color:#F0F0F0"/>
				<stop  offset="1" style="stop-color:#474747"/>
			</radialGradient>
			<path style="&st3;" d="M23.428,63.07c0,1.973-1.6,3.573-3.573,3.573c-1.974,0-3.573-1.6-3.573-3.573c0-1.974,1.6-3.573,3.573-3.573c1.973,0,3.573,1.6,3.573,3.573z"/>
		</g>
		<path style="&st9;" d="M31.679,163.71h-1.613V12.642h1.613V163.71z"/>
		<linearGradient id="aigrd4" gradientUnits="userSpaceOnUse" x1="30.1479" y1="16.8433" x2="28.364" y2="158.2251">
			<stop  offset="0" style="stop-color:#EDEDED"/>
			<stop  offset="1" style="stop-color:#CACACA"/>
		</linearGradient>
		<path style="&st10;" d="M30.054,163.71h-1.613V12.642h1.613V163.71z"/>
		<path style="&st9;" d="M14.393,26.155l-2.618,133.308c-1.902-1.9-2.662-6.035-2.662-6.035L8.952,21.509c0,0-0.159-3.403,2.963-7.335c3.16-3.98,8.421-4.22,8.421-4.22l118.165,0.168l-113.615,5.54c-4.588,0-7.045,2.273-8.048,3.467
			c-0.812,0.967-2.392,4.104-2.445,7.026z"/>
		<path style="&st7;" d="M143.945,147.664l2.617-133.307c1.902,1.9,2.662,6.035,2.662,6.035l0.161,131.918c0,0,0.159,3.402-2.963,7.334c-3.159,3.98-8.421,4.221-8.421,4.221l-118.166-0.168l113.616-5.541c4.588,0,7.045-2.273,8.048-3.467
			c0.812-0.967,2.392-4.104,2.445-7.025z"/>
	</g>
	<g id="Layer_x0020_3" style="&st8;">
		<g style="&st9;">
			<path style="&st5;" d="M121.098,144.091H43.752v-13.613h77.346v13.613z"/>
			<path style="&st5;" d="M101.897,124.091H63.752v-13.613h38.145v13.613z"/>
			<path style="&st5;" d="M59.748,124.091H43.752v-13.613h15.996v13.613z"/>
			<path style="&st5;" d="M118.288,104.091H43.752V90.478h74.536v13.613z"/>
			<path style="&st5;" d="M130.932,84.092h-47.18V70.478h47.18v13.614z"/>
			<path style="&st5;" d="M78.013,84.092H43.752V70.478h34.261v13.614z"/>
			<path style="&st5;" d="M90.657,64.092H43.752V50.478h46.905v13.614z"/>
			<path style="&st5;" d="M124.376,44.092H43.752V30.478h80.625v13.614z"/>
		</g>
	</g>
	<g id="Layer_x0020_2" style="&st8;">
		<g style="&st9;">
			<g>
				<path d="M62.679,143.123c-2.04,0-3.48-1.62-3.48-3.78s1.5-3.78,3.6-3.78c2.1,0,3.54,1.561,3.54,3.78c0,2.16-1.44,3.78-3.6,3.78h-0.06z"/>
				<path d="M93.579,141.443c-1.38,0.659-4.44,1.68-8.34,1.68c-8.76,0-14.46-5.94-14.46-14.88c0-8.94,6.12-15.48,15.6-15.48c3.12,0,5.88,0.78,7.32,1.56l-1.2,4.021c-1.26-0.66-3.24-1.38-6.12-1.38c-6.66,0-10.26,4.979-10.26,11.04c0,6.72,4.32,10.86,10.08,10.86
					c3,0,4.98-0.721,6.48-1.381l0.9,3.961z"/>
			</g>
			<g>
				<path d="M108.233,118.16v8.46h8.136v2.16h-8.136v8.532h-2.304v-8.532h-8.136v-2.16h8.136v-8.46h2.304z"/>
				<path d="M129.689,118.16v8.46h8.137v2.16h-8.137v8.532h-2.304v-8.532h-8.136v-2.16h8.136v-8.46h2.304z"/>
			</g>
		</g>
	</g>
</svg>
