<?xml version="1.0" encoding="iso-8859-1"?>
<!DOCTYPE svg PUBLIC "-//W3C//DTD SVG 20000303 Stylable//EN"   "http://www.w3.org/TR/2000/03/WD-SVG-20000303/DTD/svg-20000303-stylable.dtd">
<!-- Generator: Adobe Illustrator 9.0, SVG Export Plug-In  -->
<svg  width="207.901pt" height="179.887pt" viewBox="0 0 207.901 179.887" xml:space="preserve">
	<g id="Layer_x0020_1" style="fill-rule:nonzero;clip-rule:nonzero;fill:#FFFFFF;stroke:#000000;stroke-miterlimit:4;">
		<path style="opacity:0.35;fill:#000000;stroke:none;" d="M145.325,178.649c-14.998,2.891-125.286,0.938-133.223-7.219c-7.936-8.154,47.936-44.457,67.649-46.861c19.713-2.404,116.353,10.578,126.931,21.156c10.576,10.578-46.359,30.033-61.357,32.924z"/>
		<path style="fill:#000000;stroke:none;" d="M22,0C9.869,0,0,9.869,0,22v129.792c0,12.131,9.869,22,22,22h115.802c12.131,0,22-9.869,22-22V22c0-12.131-9.869-22-22-22H22z"/>
		<linearGradient id="aigrd1" gradientUnits="userSpaceOnUse" x1="38.9497" y1="17.4937" x2="120.6725" y2="159.4597">
			<stop  offset="0" style="stop-color:#F0F0F0"/>
			<stop  offset="1" style="stop-color:#D6D6D6"/>
		</linearGradient>
		<path style="fill:url(#aigrd1);stroke:none;" d="M148.802,151.792c0,6.627-5.373,12-12,12H21c-6.627,0-12-5.373-12-12V22c0-6.627,5.373-12,12-12h115.802c6.627,0,12,5.373,12,12v129.792z"/>
		<g>
			<radialGradient id="aigrd2" cx="20.8916" cy="114.5679" r="5.2576" fx="20.8916" fy="114.5679" gradientUnits="userSpaceOnUse">
				<stop  offset="0" style="stop-color:#F0F0F0"/>
				<stop  offset="1" style="stop-color:#474747"/>
			</radialGradient>
			<path style="fill:url(#aigrd2);stroke:none;" d="M23.428,113.071c0,1.973-1.6,3.572-3.573,3.572c-1.974,0-3.573-1.6-3.573-3.572c0-1.975,1.6-3.574,3.573-3.574c1.973,0,3.573,1.6,3.573,3.574z"/>
			<radialGradient id="aigrd3" cx="20.8916" cy="64.5674" r="5.2581" fx="20.8916" fy="64.5674" gradientUnits="userSpaceOnUse">
				<stop  offset="0" style="stop-color:#F0F0F0"/>
				<stop  offset="1" style="stop-color:#474747"/>
			</radialGradient>
			<path style="fill:url(#aigrd3);stroke:none;" d="M23.428,63.07c0,1.973-1.6,3.573-3.573,3.573c-1.974,0-3.573-1.6-3.573-3.573c0-1.974,1.6-3.573,3.573-3.573c1.973,0,3.573,1.6,3.573,3.573z"/>
		</g>
		<path style="stroke:none;" d="M31.679,163.711h-1.613V12.642h1.613v151.07z"/>
		<linearGradient id="aigrd4" gradientUnits="userSpaceOnUse" x1="30.1479" y1="16.8438" x2="28.364" y2="158.2265">
			<stop  offset="0" style="stop-color:#EDEDED"/>
			<stop  offset="1" style="stop-color:#CACACA"/>
		</linearGradient>
		<path style="fill:url(#aigrd4);stroke:none;" d="M30.054,163.711h-1.613V12.642h1.613v151.07z"/>
		<path style="stroke:none;" d="M14.393,26.155l-2.618,133.309c-1.902-1.902-2.662-6.037-2.662-6.037L8.952,21.509c0,0-0.159-3.403,2.963-7.335c3.16-3.98,8.421-4.22,8.421-4.22l118.165,0.168l-113.615,5.54c-4.588,0-7.045,2.273-8.048,3.467
			c-0.812,0.967-2.392,4.104-2.445,7.026z"/>
		<path style="fill:#BEBEBE;stroke:none;" d="M143.944,147.665l2.617-133.308c1.902,1.9,2.662,6.035,2.662,6.035l0.162,131.917c0,0,0.158,3.402-2.963,7.336c-3.16,3.98-8.422,4.219-8.422,4.219l-118.166-0.168l113.617-5.539c4.588,0,7.045-2.273,8.047-3.467
			c0.813-0.967,2.393-4.105,2.445-7.025z"/>
	</g>
	<g id="Layer_x0020_2" style="fill-rule:nonzero;clip-rule:nonzero;stroke:#000000;stroke-miterlimit:4;">
		<path style="opacity:0.3;stroke:none;" d="M114.954,52.049c-9.814-9.813-73.096-26.746-49.459,13.753c11.964,20.501-20.458,41.189-2.764,68.003c21.33,32.324,81.136-1.23,48.1-31.513c-23.221-21.287,13.94-40.43,4.124-50.243z"/>
		<radialGradient id="aigrd5" cx="67.2651" cy="44.7104" r="114.5988" fx="67.2651" fy="44.7104" gradientUnits="userSpaceOnUse">
			<stop  offset="0" style="stop-color:#F1A988"/>
			<stop  offset="1" style="stop-color:#E13718"/>
		</radialGradient>
		<path style="fill:url(#aigrd5);stroke-width:2;" d="M111.287,46.852c-9.814-9.813-74.32-23.908-50.684,16.591c11.964,20.5-20.457,41.19-2.764,68.003c21.33,32.323,81.134-1.231,48.1-31.514c-23.221-21.286,15.161-43.267,5.348-53.081z"/>
		<path style="stroke:none;" d="M136.924,67.146h-5.46l-18.611-18.611c0.262-0.395,0.416-0.867,0.416-1.376c0-1.38-1.119-2.499-2.498-2.499c-0.51,0-0.982,0.154-1.377,0.416l-19.129-19.13v-5.96h-0.5h-6.167v6.667h5.96l19.13,19.13
			c-0.261,0.395-0.416,0.867-0.416,1.376c0,1.38,1.118,2.499,2.499,2.499c0.509,0,0.98-0.154,1.376-0.416l18.611,18.612v5.96h6.666v-6.668h-0.5z M89.264,25.652c-0.751,0-3.916,0-4.667,0c0-0.751,0-3.917,0-4.667c0.751,0,3.916,0,4.667,0c0,0.751,0,3.917,0,4.667z
			 M136.424,72.814c-0.751,0-3.915,0-4.666,0c0-0.751,0-3.917,0-4.668c0.751,0,3.915,0,4.666,0c0,0.751,0,3.917,0,4.668z"/>
		<path style="fill:#F5C0A6;stroke:none;" d="M97.347,41.424C58.461,30.875,53.305,43,57.506,54.262c2.659,7.129,8.55,14.642,6.691,22.059c-4.298,17.154-25.417,47.025,5.52,64.259c-26.909-19.859-4.088-50.807-2.084-62.853c2.004-12.046-30.449-46.59,29.715-36.303
			z"/>
		<path style="stroke:none;" d="M71.033,32.893v-6.666h-0.5h-6.168v5.959l-6.175,6.174c-0.395-0.261-0.867-0.415-1.376-0.415c-1.38,0-2.499,1.119-2.499,2.498c0,0.509,0.154,0.981,0.416,1.376l-6.53,6.53H42.24v6.668h6.667v-5.96l6.531-6.531
			c0.395,0.262,0.867,0.416,1.376,0.416c1.38,0,2.499-1.119,2.499-2.499c0-0.509-0.154-0.981-0.416-1.376l6.175-6.175h5.96z M65.365,27.227c0.751,0,3.917,0,4.668,0c0,0.751,0,3.915,0,4.666c-0.751,0-3.917,0-4.668,0c0-0.751,0-3.915,0-4.666z M43.24,54.019
			c0-0.751,0-3.917,0-4.668c0.725,0,3.683,0,4.562,0l0.105,0.105c0,0.879,0,3.837,0,4.563c-0.751,0-3.917,0-4.667,0z"/>
	</g>
</svg>
