<?xml version="1.0" encoding="iso-8859-1"?>
<!DOCTYPE svg PUBLIC "-//W3C//DTD SVG 20000303 Stylable//EN"   "http://www.w3.org/TR/2000/03/WD-SVG-20000303/DTD/svg-20000303-stylable.dtd">
<!-- Generator: Adobe Illustrator 9.0, SVG Export Plug-In  -->
<svg  width="461.732pt" height="266.121pt" viewBox="0 0 461.732 266.121" xml:space="preserve">
	<g id="Layer_x0020_1" style="fill-rule:nonzero;clip-rule:nonzero;stroke:#000000;stroke-miterlimit:4;">
		<path style="opacity:0.25;stroke:none;" d="M444.299,101.125c14.467,3.437,27.146,25.008,6.923,38.7L245.168,263.232l-78.9-235.186l278.031,73.078z"/>
		<path style="stroke:none;" d="M167.64,3.462h0c0,0-0.306,0.117-0.589,0.225C166.35,4.141,20.313,88.154,20.313,88.154l-0.288,0.127c-10.234,6.46-18.832,16.035-19.91,29.947c-0.139,1.789-0.177,3.643-0.116,5.511l0.008,0.246l2.351,40.476
			c0.66,13.996,9.189,19.916,14.215,22.203c0,0,0.293,0.133,0.436,0.199c0.234,0.09,201.064,77.021,201.064,77.021c12.897,4.792,27.698,2.232,36.791-6.381l143.324-109.816c8.973-8.105,9.601-16.203,9.807-18.864l0.114-1.709l2.497-32.213
			c0.332-4.289,0.951-12.272-1.36-19.892c-3.056-10.072-9.97-16.525-20.549-19.18L198.887,2.212c-8.264-2.077-16.864-4.238-31.247,1.25z"/>
		<linearGradient id="aigrd1" gradientUnits="userSpaceOnUse" x1="17.3804" y1="98.9634" x2="381.8809" y2="98.9634" gradientTransform="matrix(0.997 0.0773 -0.0773 0.997 11.0501 -17.1284)">
			<stop  offset="0" style="stop-color:#CFCFCF"/>
			<stop  offset="1" style="stop-color:#EAEAEA"/>
		</linearGradient>
		<path style="fill:url(#aigrd1);stroke:none;" d="M196.228,16.758c-8.222-2.576-18.403-3.245-22.79-1.767C169.053,16.47,32.226,94.979,24.711,99.819c-7.215,4.647-8.896,12.866,0.644,16.23c9.54,3.364,187.61,60.835,195.429,63.007
			c7.818,2.173,19.88,2.239,24.112-1.14c4.233-3.378,136.664-96.024,140.891-99.642c4.226-3.617-3.487-9.909-10.072-11.766c-6.587-1.857-171.266-47.175-179.487-49.751z"/>
		<linearGradient id="aigrd2" gradientUnits="userSpaceOnUse" x1="31.9307" y1="181.9858" x2="221.5508" y2="195.6431" gradientTransform="matrix(0.997 0.0773 -0.0773 0.997 11.0501 -17.1284)">
			<stop  offset="0" style="stop-color:#F8F8F8"/>
			<stop  offset="1" style="stop-color:#B5B5B5"/>
		</linearGradient>
		<path style="fill:url(#aigrd2);stroke:none;" d="M12.635,123.535c-0.438-6.61,4.473-10.365,9.148-8.939s195.686,64.652,202.997,68.868c7.313,4.217,11.276,6.728,10.839,12.379c-0.438,5.651-2.902,37.44-3.276,42.255c-0.373,4.814-4.504,10.448-11.894,8.63
			c-21.086-5.188-198.052-75.644-198.052-75.644c-5.778-2.232-7.371-5.488-7.438-12.207l-2.324-35.342z"/>
		<linearGradient id="aigrd3" gradientUnits="userSpaceOnUse" x1="257.3447" y1="217.2134" x2="377.7112" y2="75.5098" gradientTransform="matrix(0.997 0.0773 -0.0773 0.997 11.0501 -17.1284)">
			<stop  offset="0" style="stop-color:#9F9F9F"/>
			<stop  offset="1" style="stop-color:#828282"/>
		</linearGradient>
		<path style="fill:url(#aigrd3);stroke:none;" d="M240.609,243.707c-3.481,2.98-9.979-0.67-9.456-7.419c0.523-6.748,2.817-36.343,3.275-42.255c0.459-5.912,3.094-10.871,7.313-14.239c4.22-3.367,137.534-96.071,142.689-100.484s7.644,3.484,7.279,8.186
			s-2.498,32.217-2.809,36.225s-0.867,6.688-4.971,10.171c-4.104,3.483-139.842,106.836-143.322,109.815z"/>
		<g style="fill:#FFFFFF;stroke:none;">
			<path d="M229.358,178.023c-12.009-0.931-207.474-66.385-209.127-66.926s-0.079-7.375,4.48-11.278c-12.576,8.144-12.1,22.682-12.1,22.682s1.586-6.46,7.576-7.44c24.102,8.35,193.115,66.897,199.66,69.074c7.048,2.344,9.638,10.496,9.502,17.271l2.473,39.192
				l4.213-38.922c0.482-6.216,3.284-18.215,10.603-23.038c3.634-2.395,90.606-65.217,122.718-88.419c-33.055,23.741-125.313,88.943-139.997,87.805z"/>
			<path d="M369.355,90.218c7.341-5.273,11.776-8.511,11.776-8.511s-4.473,3.233-11.776,8.511z"/>
		</g>
		<path style="fill:#848484;stroke:none;" d="M239.182,244.521c-4.347,3.721-7.196,4.467-16.393,2.542c6.189-1.906,9.033-6.466,9.033-6.466s1.755,3.947,7.359,3.924z"/>
		<g>
			<g>
				<path style="stroke:none;" d="M59.1,140.576l-0.721,13.979l-34.263-13.396l0.252-12.733l34.732,12.15z"/>
				<path style="fill:#2A2A26;stroke:none;" d="M58.34,140.368l-0.643,12.518l-30.796-12.009l0.221-11.403l31.217,10.895z"/>
				<path style="fill:#535445;stroke:none;" d="M57.581,140.159l-0.564,11.057l-27.329-10.623l0.191-10.072l27.702,9.639z"/>
				<path style="fill:#7B7D5B;stroke:none;" d="M56.822,139.95l-0.486,9.596l-23.862-9.237l0.161-8.742l24.188,8.383z"/>
				<path style="fill:#A3A76A;stroke:none;" d="M56.063,139.742l-0.408,8.135l-20.396-7.851l0.13-7.411l20.673,7.127z"/>
				<path style="fill:#CAD071;stroke:none;" d="M55.304,139.533l-0.33,6.674l-16.928-6.464l0.1-6.081l17.158,5.871z"/>
				<path style="fill:#F0F970;stroke:none;" d="M54.544,139.324l-0.251,5.212l-13.461-5.078l0.069-4.75l13.643,4.615z"/>
			</g>
		</g>
		<path style="fill:#545454;stroke:none;" d="M377.207,66.999c7.932,3.354,10.917,8.619,7.225,12.311c4.288-2.713,7.317,7.225,7.317,7.225c0.599-5.807,0.492-15.615-14.542-19.536z"/>
	</g>
</svg>
