<?xml version="1.0" encoding="iso-8859-1"?>
<!DOCTYPE svg PUBLIC "-//W3C//DTD SVG 20000303 Stylable//EN"   "http://www.w3.org/TR/2000/03/WD-SVG-20000303/DTD/svg-20000303-stylable.dtd">
<!-- Generator: Adobe Illustrator 9.0, SVG Export Plug-In  -->
<svg  width="506.571pt" height="281.998pt" viewBox="0 0 506.571 281.998" xml:space="preserve">
	<g id="Layer_x0020_1" style="fill-rule:nonzero;clip-rule:nonzero;fill:#FFFFFF;stroke:#000000;stroke-miterlimit:4;">
		<path style="fill:#000000;stroke:none;" d="M171.65,1.12l-0.001,0C164.273,3.607,21.843,86.283,20.702,87.018c0,0-0.869,0.594-1.102,0.753C7.254,96.409,4.01,110.256,4.01,117.663c0,0.264,0.004,0.519,0.012,0.766l0.002-0.555l0.038,1.932l2.324,35.333
			l-0.021-0.557c0.007,0.683,0.058,1.287,0.092,1.921C6.285,156.6,0,160.133,0,160.133l4.35,49.883l184.229,71.982c0,0-0.975-29.289-1.367-41.064c25.487,9.439,30.469,10.671,32.254,11.109c1.424,0.351,2.894,0.557,4.368,0.613l-1.688-0.199
			c9.845,2.061,16.392,2.006,23.809-3.827c0.906-0.486,1.773-1.044,2.565-1.723c1.753-1.445,24.458-18.809,36.891-28.312c2.188,0.634,2.83,0.82,5.504,1.596c-0.232,10.822-1.315,61.13-1.315,61.13l135.383-105.129l1.532-55.809c0,0-18.015-5.307-25.672-7.563
			c0.82-10.575,2.244-28.946,2.244-28.946c0-0.007,0.031-0.854,0.05-1.374c0.096-1.111,0.172-2.207,0.172-3.239c0-17.637-13.435-24.009-21.972-26.278c-0.681-0.224-1.505-0.495-1.505-0.495l-32.732-9.041C297.962,29.894,206.502,4.663,200.624,2.821
			c-8.761-2.745-21.526-4.21-28.974-1.701z M388.36,85.442l0.007-0.005l-0.063,0.046c0,0,0.029-0.021,0.03-0.022l0.026-0.019z M241.825,231.144l0.497,0.9c0,0-3.408,1.521-6.178,2.755c2.543-1.636,5.681-3.655,5.681-3.655z"/>
		<path style="opacity:0.25;fill:#000000;stroke:none;" d="M499.239,167.359l-46.79-20.266l48.631-24.315c3.669-1.834,5.846-5.723,5.491-9.809c-0.355-4.086-3.169-7.542-7.099-8.716L371.429,68.375c-3.984-1.191-33.597,20.141-36.12,23.446l-91.577,127.115h-58.841
			c-2.893,0-5.644,1.253-7.542,3.435c-1.899,2.182-2.761,5.079-2.362,7.943l13.592,51.684l92.189-18.806c3.206-0.906,5.75-3.35,6.785-6.517s0.425-6.641-1.627-9.266l-9.587-12.262l97.185-48.592l-83.925,94.765l97.045-13.028c1.429-0.292,2.777-0.894,3.949-1.762
			l110.624-81.96c2.872-2.128,4.39-5.627,3.981-9.178s-2.681-6.613-5.96-8.034z"/>
		<linearGradient id="aigrd1" gradientUnits="userSpaceOnUse" x1="16.5977" y1="95.8203" x2="381.1011" y2="95.8203" gradientTransform="matrix(0.997 0.0773 -0.0773 0.997 9.8797 -18.8972)">
			<stop  offset="0" style="stop-color:#676767"/>
			<stop  offset="1" style="stop-color:#7F7F7F"/>
		</linearGradient>
		<path style="fill:url(#aigrd1);stroke:none;" d="M194.519,11.796c-8.222-2.576-18.403-3.245-22.79-1.767c-4.385,1.479-141.212,79.988-148.727,84.828c-7.215,4.647-8.896,12.866,0.644,16.23c9.54,3.364,187.61,60.835,195.429,63.007
			c7.818,2.173,19.88,2.239,24.113-1.14c4.232-3.378,136.664-96.024,140.891-99.642c4.225-3.617-3.488-9.909-10.072-11.766c-6.588-1.857-171.266-47.175-179.487-49.751z"/>
		<linearGradient id="aigrd2" gradientUnits="userSpaceOnUse" x1="31.1411" y1="178.8447" x2="220.7523" y2="192.5014" gradientTransform="matrix(0.997 0.0773 -0.0773 0.997 9.8797 -18.8972)">
			<stop  offset="0" style="stop-color:#B3B3B3"/>
			<stop  offset="1" style="stop-color:#797979"/>
		</linearGradient>
		<path style="fill:url(#aigrd2);stroke:none;" d="M10.926,118.573c-0.438-6.61,4.473-10.365,9.148-8.939s195.686,64.652,202.997,68.868c7.313,4.217,11.276,6.728,10.839,12.379c-0.438,5.651-2.902,37.44-3.276,42.255c-0.373,4.814-4.504,10.448-11.894,8.63
			c-21.086-5.188-198.052-75.644-198.052-75.644c-5.778-2.232-7.371-5.488-7.438-12.207l-2.324-35.342z"/>
		<linearGradient id="aigrd3" gradientUnits="userSpaceOnUse" x1="256.5581" y1="214.0771" x2="376.9268" y2="72.371" gradientTransform="matrix(0.997 0.0773 -0.0773 0.997 9.8797 -18.8972)">
			<stop  offset="0" style="stop-color:#5F5F5F"/>
			<stop  offset="1" style="stop-color:#363636"/>
		</linearGradient>
		<path style="fill:url(#aigrd3);stroke:none;" d="M238.901,238.745c-3.482,2.98-9.98-0.67-9.457-7.419c0.523-6.748,2.817-36.343,3.275-42.255c0.459-5.912,3.093-10.871,7.314-14.239c4.219-3.367,137.533-96.071,142.689-100.484c5.154-4.413,7.643,3.484,7.279,8.186
			c-0.365,4.701-2.498,32.217-2.809,36.225s-0.867,6.688-4.971,10.171c-4.104,3.483-139.842,106.836-143.322,109.815z"/>
		<g style="stroke:none;">
			<path d="M227.649,173.062c-12.009-0.931-207.474-66.385-209.127-66.926s-0.079-7.375,4.48-11.278c-12.576,8.144-12.1,22.682-12.1,22.682s1.586-6.46,7.576-7.44c24.102,8.35,193.115,66.897,199.66,69.074c7.048,2.344,9.638,10.496,9.502,17.271l2.473,39.192
				l4.213-38.922c0.483-6.216,3.284-18.215,10.602-23.038c3.635-2.395,90.607-65.217,122.719-88.419c-33.055,23.741-125.314,88.943-139.998,87.805z"/>
			<path d="M367.647,85.256c7.34-5.273,11.775-8.511,11.775-8.511s-4.473,3.233-11.775,8.511z"/>
		</g>
		<path style="fill:#848484;stroke:none;" d="M237.473,239.56c-4.347,3.721-7.197,4.467-16.393,2.542c6.189-1.906,9.033-6.466,9.033-6.466s1.755,3.947,7.36,3.924z"/>
		<path style="fill:#545454;stroke:none;" d="M375.499,62.038c7.932,3.354,10.916,8.619,7.225,12.311c4.287-2.713,7.316,7.225,7.316,7.225c0.6-5.807,0.492-15.615-14.541-19.536z"/>
		<path style="fill:#CCDC96;stroke:none;" d="M199.159,206.985L35.982,149.063L7.408,165.122l3.25,37.271l164.306,64.198l-1.326-39.811l25.52-19.796z"/>
		<path style="fill:#CCDC96;stroke:none;" d="M254.872,199.66l121.296-83.333l37.025,10.907l-1.191,43.392l-115.067,89.353l1.029-47.818l-43.092-12.5z"/>
		<path style="fill:#ACBB80;stroke:none;" d="M413.193,127.234L297.963,212.16l-1.029,47.818l115.067-89.353l1.191-43.392z"/>
		<path style="fill:#F0F6D4;stroke:none;" d="M199.257,206.571l-25.618,20.21L7.506,164.708l28.574-16.059l163.177,57.922z"/>
	</g>
	<g id="Layer_x0020_2" style="fill-rule:nonzero;clip-rule:nonzero;fill:#FFFFFF;stroke:#000000;stroke-miterlimit:4;">
		<g style="stroke:none;">
			<path style="opacity:0.4;" d="M169.718,38.539c0.929-0.42,2.393-0.462,3.447,0.413c1.079,0.896-1.12,3.186-3,2.938c-2.281-0.3-1.406-2.917-0.447-3.351z"/>
			<path style="opacity:0.4;" d="M179.82,37.58c-1.241-0.482-3.68,0.277-4.24,1.121c-0.467,0.704-0.38,1.643,1.033,1.842c1.395,0.197,2.649-0.243,3.004-0.749c0.346-0.491,1.446-1.73,0.202-2.214z"/>
			<path style="opacity:0.4;" d="M186.454,37.94c-2.024-0.575-4.551,1.004-4.223,2.057c0.166,0.535,1.963,1.65,3.207,1.318c2.917-0.78,3.028-2.804,1.017-3.375z"/>
			<path style="opacity:0.4;" d="M193.648,40.903c-2.148-1.254-5.035,0.033-5.703,0.432c-0.688,0.411-1.907,1.744,0.762,3.293c1.947,1.13,3.852,0.596,4.809-0.081c0.915-0.647,2.338-2.357,0.133-3.644z"/>
			<path style="opacity:0.4;" d="M177.916,42.16c-2.604-0.1-4.907,0.161-7.478,1.005c-3.336,1.095-10.467,5.474-12.896,7.975c-2.72,2.801-7.01,10.716-0.694,15.47c6.76,5.087,23.917-0.806,27.414-3.885c2.25-1.981,0.34-5.527-0.928-6.687
				c-1.709-1.563-5.707-2.487-6.923-1.262c-1.289,1.297,0.165,3.704-1.657,4.187c-3.91,1.036-7.362-4.29-6.163-6.349c0.59-1.013,4.017-3.546,7.229-3.221c3.123,0.317,4.981,1.857,6.611,2.012c1.831,0.174,5.689-0.328,6.578-2.661
				c1.134-2.974-5.839-6.384-11.093-6.585z"/>
		</g>
		<g style="opacity:0.4;stroke:none;">
			<path d="M211.802,63.262l-46.409,29.599c-3.073,1.959-6.345,3.277-9.819,3.956c-3.471,0.676-6.541,0.621-9.204-0.166c-1.077-0.319-1.926-0.716-2.545-1.192c-0.621-0.477-1.261-1.236-1.923-2.274l8.241-3.288c0.608,1.016,1.44,1.679,2.499,1.992
				c1.01,0.299,2.051,0.353,3.123,0.164c1.069-0.19,2.06-0.574,2.974-1.156l1.996-1.273c-2.668,0.67-4.636,0.819-5.903,0.444c-1.504-0.443-1.812-1.42-0.919-2.931c1.511-2.587,6.756-6.74,15.73-12.464c6.524-4.161,12.104-7.213,16.741-9.157
				c4.636-1.942,8.822-3.161,12.558-3.656c3.735-0.495,7.004-0.328,9.81,0.501l3.051,0.901z M196.684,66.694c-1.618,0.129-3.426,0.578-5.422,1.344c-1.997,0.766-4.746,2.268-8.251,4.503l-10.481,6.685c-4.735,3.019-7.421,4.996-8.057,5.93
				c-0.347,0.53-0.248,0.875,0.295,1.035c0.447,0.132,0.867,0.151,1.26,0.056l30.657-19.553z"/>
			<path d="M218.37,65.202c0.898,0.715,0.91,1.757,0.035,3.124c2.435-0.576,4.195-0.9,5.277-0.969c1.083-0.068,2.077,0.029,2.982,0.297c1.521,0.449,2.132,1.265,1.831,2.446c-0.304,1.181-1.84,2.656-4.611,4.424l-39.258,25.038l-6.655-1.966l38.505-24.558
				c0.573-0.365,0.87-0.708,0.892-1.026c0.023-0.319-0.191-0.546-0.643-0.679c-0.277-0.082-0.653-0.099-1.128-0.054c-0.477,0.045-1.05,0.166-1.726,0.361l-39.178,24.987l-6.655-1.966l38.488-24.548c1.819-1.159,2.645-2.089,2.484-2.788l9.359-2.122z"/>
			<path d="M243.404,72.599c1.943,0.574,2.396,1.827,1.363,3.754c-1.716,3.171-7.4,7.835-17.05,13.989c-9.604,6.125-17.523,10.126-23.762,12.007c-3.706,1.117-6.53,1.387-8.473,0.813c-1.946-0.574-2.4-1.825-1.364-3.754c1.688-3.154,7.359-7.81,17.012-13.967
				c9.627-6.139,17.545-10.141,23.761-12.006c3.731-1.131,6.57-1.412,8.513-0.837z M235.154,77.861c-0.873,0.208-1.822,0.542-2.852,1.003c-0.76,0.333-2.912,1.566-6.458,3.698c-5.658,3.412-9.342,5.665-11.059,6.759c-7.064,4.506-10.782,7.387-11.158,8.646
				c0.77-0.167,1.622-0.449,2.552-0.847c0.638-0.276,2.891-1.572,6.759-3.888c5.779-3.468,9.513-5.741,11.206-6.821c7.139-4.552,10.807-7.402,11.01-8.55z"/>
			<path d="M257.209,79.932c2.236-0.597,3.965-0.945,5.179-1.042c1.213-0.096,2.299-0.003,3.26,0.281c1.989,0.588,2.408,1.797,1.255,3.626c2.843-0.629,4.675-0.964,5.492-1.004c1.129-0.085,2.129,0,2.999,0.257c1.502,0.444,2.1,1.191,1.791,2.242
				c-0.398,1.351-2.06,2.958-4.982,4.822l-38.921,24.823l-6.654-1.966l38.052-24.27c0.824-0.526,1.279-0.949,1.368-1.273c0.091-0.323-0.068-0.545-0.472-0.664c-0.264-0.078-0.662-0.079-1.197-0.003c-0.535,0.075-1.209,0.224-2.015,0.452l-38.915,24.818l-6.655-1.966
				l38.054-24.269c0.822-0.525,1.289-0.968,1.406-1.331c0.087-0.276-0.06-0.473-0.44-0.585c-0.287-0.084-0.705-0.091-1.251-0.02c-0.549,0.071-1.225,0.22-2.032,0.447l-38.915,24.818l-6.655-1.966l39.629-25.274c1.223-0.78,1.807-1.493,1.754-2.138l8.948-2.046
				c1.015,0.908,0.987,1.984-0.083,3.23z"/>
			<path d="M252.762,119.419c-1.529-0.008-2.975-0.211-4.334-0.612c-3.371-0.996-4.564-2.978-3.577-5.944c0.985-2.966,5.919-7.282,14.8-12.944l5.387-3.436c7.183-4.581,13.365-7.583,18.554-9.008c3.507-0.965,6.362-1.122,8.571-0.47
				c2.721,0.804,3.491,2.224,2.312,4.259c-1.18,2.034-3.576,4.204-7.188,6.507c-4.334,2.764-8.612,4.722-12.825,5.871c-4.216,1.15-8.318,1.601-12.305,1.352c-3.862,2.506-6.121,4.674-6.773,6.502c-0.452,1.307,0.069,2.18,1.561,2.621
				c0.674,0.198,1.926,0.279,3.759,0.238l-7.94,5.065z M284.9,91.77c-1.587,0.46-2.843,0.9-3.771,1.322c-1.76,0.804-3.583,1.807-5.472,3.011l-6.076,3.876c1.451-0.012,3.03-0.311,4.735-0.897c1.703-0.587,3.748-1.64,6.135-3.163c2.61-1.664,4.092-3.048,4.448-4.149z
				"/>
		</g>
	</g>
</svg>
