<?xml version="1.0" encoding="iso-8859-1"?>
<!DOCTYPE svg PUBLIC "-//W3C//DTD SVG 20000303 Stylable//EN"   "http://www.w3.org/TR/2000/03/WD-SVG-20000303/DTD/svg-20000303-stylable.dtd">
<!-- Generator: Adobe Illustrator 9.0, SVG Export Plug-In  -->
<svg  width="282.773pt" height="196.098pt" viewBox="0 0 282.773 196.098" xml:space="preserve">
	<g id="Layer_x0020_1" style="fill-rule:nonzero;clip-rule:nonzero;stroke:#000000;stroke-miterlimit:4;">
		<path style="stroke:none;" d="M190.663,5.936c-5.061,1.446-9.362,4.091-12.819,6.217c-3.429,2.109-6.391,3.93-8.675,3.93c-1.638-0.008-8.992-1.666-13.857-2.762C136.747,9.138,111.326,3.41,96.89,8.948c-6.075,2.331-12.5,9.554-19.573,21.903
			c-2.881-0.516-6.252-1.12-6.252-1.12c-26.821-4.575-31.491-3.485-35.162-1.446c-4.056,2.253-6.548,6.506-7.408,12.641c-2.447,17.475,9.083,74.244,21.4,86.563c8.377,8.377,57.812,25.158,78.677,31.986c18.515,6.059,35.952,11.252,49.101,14.621
			c22.379,5.734,28.731,5.469,33.181,2.881c3.813-2.221,27.168-19.574,43.785-72.777c2.662-8.523,9.468-33.643,9.468-47.995c0-3.091-0.322-5.685-1.082-7.509c-3.955-9.504-12.159-11.312-17.062-12.392c-1.08-0.238-2.589-0.58-3.278-0.888
			c-0.104-0.673-0.185-1.879-0.218-2.406c-0.27-4.253-0.722-11.372-7.094-17.743C224.877,4.772,201.883,2.73,190.663,5.936z"/>
		<path style="opacity:0.35;stroke:none;" d="M197.302,189.345c-19.362,3.051-140.636-33.053-150.459-43.861c-9.823-10.803,43.331-26.141,68.718-28.363c25.388-2.225,148.77,18.648,161.874,32.678c13.104,14.027-60.771,36.494-80.133,39.547z"/>
		<path style="stroke:none;" d="M190.372,11.021c-4.399,1.257-8.212,3.601-11.574,5.668c-4.076,2.506-7.597,4.67-11.294,4.67c-2.158,0-8.665-1.466-14.957-2.884c-17.939-4.042-42.507-9.578-55.531-4.582C82.821,19.339,65.881,62.867,62.63,71.537
			c-6.489,17.302-13.376,39.529-9.338,47.158c0.962,1.816,3.891,7.35,44.509,21.131c24.85,8.43,52.596,15.986,74.221,20.211c35.505,6.938,44.89,3.311,48.861-0.021c12.253-10.279,22.358-40.088,27.291-56.941c0.511-1.744,12.46-42.827,8.568-52.179
			c-2.955-7.102-9.063-8.447-13.521-9.43c-2.514-0.554-4.686-1.033-5.954-2.301c-1.077-1.077-1.255-2.38-1.456-5.56c-0.254-4.004-0.602-9.487-5.639-14.523c-8.767-8.767-29.858-10.9-39.8-8.06z"/>
		<linearGradient id="aigrd1" gradientUnits="userSpaceOnUse" x1="174.9414" y1="27.7485" x2="138.2552" y2="126.016">
			<stop  offset="0" style="stop-color:#989C80"/>
			<stop  offset="1" style="stop-color:#000000"/>
		</linearGradient>
		<path style="fill:url(#aigrd1);stroke:none;" d="M95.807,18.563c-15.583,5.978-46.786,87.044-41.096,97.792c5.69,10.748,143.11,53.965,159.958,39.83c19.087-16.012,37.979-94.906,34.457-103.37c-3.42-8.219-13.021-4.742-18.395-10.116s-0.14-13.128-7.095-20.083
			c-6.954-6.955-26.04-9.317-34.891-6.788c-8.852,2.529-15.391,10.531-24.242,10.531s-51.952-14.222-68.697-7.797z"/>
		<path style="fill:#C1C2B4;stroke:none;" d="M55.438,114.148c1.641-26.712,25.165-88.315,39.225-95.585c14.06-7.271,62.063,7.797,69.841,7.797s13.814-7.634,24.242-10.531c10.428-2.896,28.362,0.259,34.891,6.788c5.519,5.519,3.408,16.134,5.966,18.692
			c2.559,2.559,15.222,6.177,17.887,8.842c0,0-14.935-4.061-18.801-7.927c-3.867-3.867-3.152-12.537-6.316-15.701c-3.163-3.164-28.523-8.669-35.267-5.74c-6.742,2.928-12.301,10.193-21.675,11.833s-53.662-14.06-67.253-6.092s-42.739,87.625-42.739,87.625z"/>
		<path style="fill:#808078;stroke:none;" d="M245.103,48.082c6.801,5.716-7.498,71.236-27.091,104.672c21.467-29.688,31.854-88.37,31.854-96.065c0-1.796-1.207-6.708-4.764-8.606z"/>
		<path style="stroke:none;" d="M36.666,32.934c-3.936,2.186-4.65,7.289-4.885,8.965c-2.438,17.411,9.695,72.044,19.984,82.333c8.191,8.191,69.708,28.482,76.696,30.77c18.416,6.027,35.742,11.188,48.787,14.529c22.597,5.791,26.926,4.857,29.424,3.402
			c2.534-1.475,4.231-4.34,5.504-9.295c5.176-20.146,2.734-78.631-3.732-89.397c-1.593-2.652-5.365-6.112-30.122-13.66c-14.372-4.381-33.79-9.466-54.678-14.317c-20.166-4.684-39.729-8.706-55.084-11.325c-27.161-4.633-30.008-3.051-31.893-2.004z"/>
		<linearGradient id="aigrd2" gradientUnits="userSpaceOnUse" x1="127.7227" y1="99.6226" x2="156.0195" y2="172.1655">
			<stop  offset="0" style="stop-color:#DEDFCE"/>
			<stop  offset="1" style="stop-color:#C2C4B5"/>
		</linearGradient>
		<path style="fill:url(#aigrd2);stroke:none;" d="M202.157,167.613c8.948-5.207,6.525-80.933,0-91.798C195.631,64.95,45.984,31.366,37.094,36.305s6.493,73.677,16.207,83.392c9.714,9.713,139.908,53.123,148.856,47.916z"/>
		<linearGradient id="aigrd3" gradientUnits="userSpaceOnUse" x1="92.187" y1="73.4141" x2="105.9913" y2="122.4428">
			<stop  offset="0" style="stop-color:#DEDFCE"/>
			<stop  offset="1" style="stop-color:#FFFFFF"/>
		</linearGradient>
		<path style="fill:url(#aigrd3);stroke:none;" d="M95.29,137.982c-27.779-61.166,67.208-16.268,47.188-82.525c0,0-100.067-24.468-105.383-19.152c-8.519,8.519,5.125,68.162,15.566,82.501c4.316,5.93,42.629,19.176,42.629,19.176z"/>
		<path style="fill:#F1F2E1;stroke:none;" d="M55.084,120.908c-8.353-13.078-22.936-68.863-12.097-75.533c16.17-9.951,140.406,21.704,140.406,21.704C171.717,63.116,51.427,29.409,37.094,36.305c-8.69,4.181,5.846,77.529,17.99,84.603z"/>
		<path style="fill:#919187;stroke:none;" d="M202.497,76.345c5.351,6.962,9.147,85.676-0.379,91.074S95.854,137.908,95.854,137.908s95.646,33.172,104.095,26.135c8.448-7.039,7.604-51.521,2.549-87.697z"/>
		<path style="fill:none;stroke:none;" d="M0,196.098h282.773V0H0v196.098z"/>
	</g>
	<g id="Layer_x0020_2" style="fill-rule:nonzero;clip-rule:nonzero;fill:#FFFFFF;stroke:#000000;stroke-miterlimit:4;">
		<path style="fill:#000000;stroke:none;" d="M2.289,125.727c0,36.463,29.666,66.129,66.128,66.129c36.463,0,66.128-29.666,66.128-66.129c0-36.464-29.666-66.128-66.128-66.128c-36.462,0-66.128,29.664-66.128,66.128z"/>
		<radialGradient id="aigrd4" cx="83.8965" cy="147.3999" r="87.2501" fx="83.8965" fy="147.3999" gradientUnits="userSpaceOnUse">
			<stop  offset="0" style="stop-color:#90B2D4"/>
			<stop  offset="0.0273" style="stop-color:#86A7CF"/>
			<stop  offset="0.3146" style="stop-color:#28459C"/>
			<stop  offset="0.3576" style="stop-color:#243B8F"/>
			<stop  offset="0.4842" style="stop-color:#1D2570"/>
			<stop  offset="0.5562" style="stop-color:#1A1E66"/>
			<stop  offset="0.7238" style="stop-color:#1B1F65"/>
			<stop  offset="0.7842" style="stop-color:#1E2265"/>
			<stop  offset="0.8272" style="stop-color:#262663"/>
			<stop  offset="0.8621" style="stop-color:#2E2D61"/>
			<stop  offset="0.8919" style="stop-color:#36335D"/>
			<stop  offset="0.9183" style="stop-color:#3C3856"/>
			<stop  offset="0.9422" style="stop-color:#3D394C"/>
			<stop  offset="0.9641" style="stop-color:#35323B"/>
			<stop  offset="0.9837" style="stop-color:#201F21"/>
			<stop  offset="1" style="stop-color:#000000"/>
		</radialGradient>
		<path style="fill:url(#aigrd4);stroke:none;" d="M126.913,125.727c0,32.307-26.19,58.495-58.496,58.495c-32.306,0-58.496-26.188-58.496-58.495c0-32.306,26.19-58.496,58.496-58.496c32.306,0,58.496,26.189,58.496,58.496z"/>
		<linearGradient id="aigrd5" gradientUnits="userSpaceOnUse" x1="36.8228" y1="70.3218" x2="56.1129" y2="104.7313">
			<stop  offset="0" style="stop-color:#FFFFFF"/>
			<stop  offset="0.1302" style="stop-color:#F9F8F9"/>
			<stop  offset="0.2762" style="stop-color:#EAE6EB"/>
			<stop  offset="0.4299" style="stop-color:#CFC8D3"/>
			<stop  offset="0.5889" style="stop-color:#ADA4B6"/>
			<stop  offset="0.752" style="stop-color:#857997"/>
			<stop  offset="0.9162" style="stop-color:#574D78"/>
			<stop  offset="1" style="stop-color:#3F3869"/>
		</linearGradient>
		<path style="opacity:0.71;fill:url(#aigrd5);stroke:none;" d="M13.022,124.833c0,0.189,0.013,0.376,0.014,0.565c10.218-0.648,21.357-2.96,32.599-7.055C70.463,109.3,89.301,93.921,96.27,78.856c-8.378-5.28-18.289-8.348-28.923-8.348
			c-30.001,0-54.324,24.322-54.324,54.325z"/>
		<g style="opacity:0.76;stroke:none;">
			<path style="fill:none;" d="M117.374,96.538c10.037,15.128-2.938,41.395-28.974,58.669c-26.039,17.275-55.284,19.016-65.319,3.887c-10.036-15.126,2.937-41.393,28.975-58.669c26.039-17.274,55.285-19.015,65.318-3.887z"/>
			<g>
				<path d="M97.099,86.077c-0.958-0.056-1.919-0.204-2.875-0.15c0.485,0.003,0.961,0.022,1.441,0.117c0.622,0.074,0.953,0.045,1.434,0.033z"/>
				<path d="M91.555,85.959l-0.509,0.006l-0.433,0.036l0.941-0.042z"/>
				<path d="M86.579,86.448l2.539-0.265c-0.723,0.054-1.563,0.138-2.539,0.265z"/>
				<path d="M90.546,86.109c-0.31-0.005-0.453-0.028,0.049-0.105l0.019-0.002l-1.496,0.182c0.536-0.04,1.012-0.063,1.428-0.074z"/>
				<path d="M90.546,86.109c0.302,0.003,0.772,0.046,0.938,0.058c-0.273-0.021-0.585-0.064-0.938-0.058z"/>
				<path d="M89.361,87.08c-0.481,0.075-0.389-0.175-1.364-0.024c-2.308,0.22-4.21,0.846-6.337,1.17c-0.944,0.292-2.515,0.414-3.454,0.705c-2.248,0.604-7.73,2.856-4.43,1.73c4.938-1.73,8.289-2.43,12.903-3.224c3.762-0.495,7.441-0.921,11.333-0.557
					c1.098,0.023,2.096,0.278,3.107,0.466c-1.305-0.32-2.667-0.532-4.195-0.634c-1.998-0.266-4.451,0.069-7.563,0.368z"/>
				<path d="M115.984,94.492c-0.3-0.411-1.04-1.079-1.067-1.052c-1.479-1.691-3.473-3.032-5.586-4.033c0.3,0.178,0.596,0.34,0.864,0.582c1.134,0.708,1.304,0.737,0.323,0.049c2.241,1.543,4.312,3.128,5.874,5.244c-0.05-0.167,0.032-0.185-0.407-0.79z"/>
				<path d="M117.37,96.479l-0.979-1.197l0.021,0.06l0.984,1.181l-0.027-0.043z"/>
				<path d="M76.286,88.883c-6.358,1.86-12.091,4.421-17.423,7.342c-0.388,0.264-0.654,0.47-1.216,0.743l-1.284,0.644l-2.261,1.392l-0.792,0.514l-0.015,0.011c-0.41,0.287-0.269,0.243,0.011,0.111l0.838-0.419c-0.156,0.073-0.562,0.287-0.838,0.419
					c-0.366,0.191-0.782,0.422-1.25,0.697c-0.66,0.478-1.336,0.971-2.068,1.469c0.787-0.588,1.47-1.076,2.068-1.469l1.255-0.819l0.361-0.25c-1.761,1.021-3.375,2.234-5.05,3.384c-0.373,0.271-0.734,0.532-1.022,0.745c-1.153,0.897-2.253,1.865-3.042,2.332
					l-0.853,0.672l0.175-0.112l-0.327,0.232c-1.214,0.925-2.306,2.009-3.472,3.012c-0.712,0.702-1.44,1.414-2.116,2.188c0-0.001-0.541,0.438-0.81,0.654c-0.248,0.339-0.639,0.794-1.108,1.302c0.625-0.535,1.213-1.022,1.736-1.485c0.788-0.668,1.453-1.799,2.53-2.436
					c-1.077,0.637-1.742,1.768-2.53,2.436c-0.522,0.463-1.11,0.95-1.736,1.485c-1.025,1.033-2.229,2.472-3.316,3.525c1.156-1.478,2.23-2.652,3.316-3.525c0.469-0.508,0.86-0.963,1.108-1.302c0.269-0.217,0.81-0.655,0.81-0.654c0.675-0.774,1.403-1.486,2.116-2.188
					c-2.234,1.999-4.393,4.156-6.432,6.483c-6.556,7.442-11.902,15.881-13.818,25.518c-2.321,9.423,1.649,21.098,11.79,25.346c10.548,4.752,22.078,3.354,32.252,0.771c20.324-6.076,36.982-17.897,49.849-35.2c5.272-6.365,10.895-21.993,7.684-30.455
					c-4.743-10.188-3.502-4.08-3.15-3.836c1.875,5.896,3.684,11.503-1.337,23.522c3.357-8.254-1.245,6.745-7.514,12.777c-7.784,9.186-20.896,20.907-34.741,26.8c-3.398,1.53-7.098,2.921-11.352,4.218c-10.947,2.836-22.852,3.926-32.482-1.259
					c-10.076-5.147-12.008-18.569-7.14-29.421c2.4-5.864,5.3-10.767,8.583-15.081c2.445-3.12,5.457-6.129,7.792-8.343c3.732-3.424,7.046-6.301,10.468-8.734c-3.839,2.697-6.43,4.947-10.256,8.48c-2.558,2.358,1.567-1.861,3.27-3.438
					c0.741-0.661,2.124-1.425,2.856-2.08c1.647-1.391,3.259-2.532,5.093-3.946c0.778-0.608,0.807-0.358,1.208-0.643c2.65-1.692,4.52-3.309,6.357-4.159c1.378-0.685,2.578-1.366,3.815-1.897l2.352-1.083l1.529-0.782c-0.441,0.125-0.627,0.113-0.808,0.098
					c0.752-0.365,1.863-0.753,2.654-1.042c-0.792,0.288-1.902,0.677-2.654,1.042c0.18,0.016,0.367,0.028,0.808-0.098c3.765-1.729,8.224-3.569,12.556-4.675l-0.068-0.005c-2.543,0.592-4.953,1.438-7.575,2.136c1.131-0.322,1.002-0.241-0.248,0.241l-0.999,0.266
					c2.133-0.961,4.377-1.629,6.519-2.159c0,0,0.954-0.295,1.429-0.443c0.725-0.148,0.708-0.066,0.874-0.042l1.496-0.396c-1.081,0.163-4.471,0.813-4.456,0.87z"/>
				<path d="M52,100.363c0.304-0.199,0.672-0.434,1.065-0.686c-1.475,0.849-2.809,1.909-4.22,2.852c0.799-0.422,1.971-1.289,3.155-2.166z"/>
			</g>
		</g>
		<g style="opacity:0.76;stroke:none;">
			<path style="fill:none;" d="M84.378,126.537c0,30.642-4.624,55.481-10.327,55.481c-5.704,0-10.328-24.84-10.328-55.481s4.624-55.482,10.328-55.482c5.703,0,10.327,24.841,10.327,55.482z"/>
			<g>
				<path d="M84.071,107.464l-0.146-2.317l-0.006,1.169c0.007,0.505,0.079,0.767,0.152,1.148z"/>
				<path d="M83.751,103.001l-0.034-0.409l-0.053-0.347l0.087,0.756z"/>
				<path d="M83.304,98.988l0.219,2.05c-0.03-0.585-0.095-1.263-0.219-2.05z"/>
				<path d="M83.558,102.195c0.013-0.252,0.04-0.369,0.104,0.036l0.002,0.015l-0.141-1.208c0.025,0.434,0.036,0.819,0.035,1.157z"/>
				<path d="M83.558,102.195c-0.012,0.246-0.011,0.625-0.019,0.76l0.019-0.76z"/>
				<path d="M82.623,101.259c-0.063-0.393,0.185-0.323,0.06-1.117c-0.287-1.869-0.55-3.46-0.782-5.202c-0.164-0.79-0.075-2.08-0.238-2.863c-0.338-1.861-1.489-6.541-0.992-3.749c0.778,4.184,1.169,6.939,1.642,10.739c0.421,3.085,0.794,6.062,1.081,9.237
					l0.135,2.571c-0.004-1.1-0.068-2.225-0.11-3.472c-0.03-1.642-0.503-3.597-0.796-6.146z"/>
				<path d="M84.546,124.542c-0.031-0.405-0.092-1.209-0.092-1.209c0.169-1.802,0.054-3.697-0.074-5.584l-0.096,0.843c0.044,1.084,0.115,1.208,0.14,0.243c-0.064,2.204-0.096,4.284-0.045,6.409c0.064-0.132,0.139-0.102,0.167-0.702z"/>
				<path d="M84.411,126.496l-0.032-1.252l-0.021,0.049l0.046,1.244l0.006-0.041z"/>
				<path d="M81.974,90.521c-0.874-5.287-1.88-10.277-3.708-14.881c-0.166-0.343-0.37-0.545-0.564-1.014l-0.454-1.081c-0.443-0.574-0.762-1.252-1.341-1.712l-0.621-0.483l-0.013-0.009c-0.37-0.179-0.278-0.089-0.083,0.06l0.528,0.545
					c-0.091-0.101-0.354-0.359-0.528-0.545c-0.267-0.19-0.669-0.265-1.1-0.411c-0.683,0.105-1.331,0.35-1.852,0.887c0.548-0.627,1.261-0.817,1.852-0.887c0.4,0.125,0.854,0.139,1.195,0.36l0.296,0.213c-1.437-1.327-3.495-0.152-4.268,1.246
					c-0.205,0.32-0.46,0.596-0.563,0.873c-0.539,1.07-1.011,2.156-1.35,2.818l-0.325,0.822l0.081-0.15l-0.138,0.296c-0.391,1.176-0.787,2.361-1.11,3.566l-0.464,2.428c-0.006-0.001-0.204,0.529-0.295,0.794c-0.009,0.343-0.067,0.827-0.16,1.379
					c0.204-0.636,0.405-1.223,0.566-1.766c0.308-0.786,0.213-1.863,0.669-2.769c-0.456,0.906-0.361,1.983-0.669,2.769c-0.161,0.543-0.362,1.129-0.566,1.766c-0.213,1.161-0.516,2.649-0.826,3.836c0.142-1.516,0.469-2.766,0.826-3.836
					c0.093-0.553,0.151-1.037,0.16-1.379c0.091-0.265,0.29-0.796,0.295-0.794l0.464-2.428c-0.635,2.352-1.169,4.761-1.624,7.228c-2.813,15.938-3.221,30.916-2.939,47.661c0.205,9.078,0.808,17.801,1.946,26.322c0.603,4.24,1.384,8.376,2.615,12.399
					c0.62,2.009,1.36,3.997,2.575,5.879c0.646,0.877,1.362,1.974,2.858,2.335c1.545,0.463,2.893-0.588,3.632-1.415c4.913-7.517,5.433-15.862,7.119-24.366c1.085-6.578,1.72-18.912,1.724-25.311c-0.318-8.577-1.39-4.132-1.452-3.734
					c-0.927,5.23-0.451,9.346-1.695,19.943c0.781-7.23,0.308,5.425-1.358,12.108c-1.211,4.777-2.122,10.788-4.305,16.426c-1.212,2.845-2.769,5.559-4.215,3.257c-1.653-2.163-2.608-5.315-3.344-8.165c-0.718-2.915-1.357-6.067-1.926-9.655
					c-2.362-18.678-3.019-36.393-1.643-56.215c0.411-5.246,0.698-9.869,1.23-14.268c0.48-3.193,1.202-6.582,1.868-9.093c1.023-3.874,2.002-7.543,3.914-9.742c-2.119,2.517-2.826,5.509-3.896,9.473c-0.657,2.735,0.128-1.987,0.688-3.767
					c0.188-0.782,0.917-1.824,1.136-2.575c0.749-1.427,1.337-3.098,2.616-3.841c0.536-0.139,0.49-0.037,0.724,0.021c1.639,0.342,2.901,2.542,3.479,3.859c0.405,1.166,0.801,2.189,1.051,3.25l0.579,2.005l0.394,1.332c-0.018-0.375,0.037-0.527,0.094-0.674
					c0.147,0.661,0.335,1.594,0.474,2.262c-0.139-0.668-0.327-1.601-0.474-2.262c-0.057,0.147-0.111,0.299-0.094,0.674c0.956,3.222,1.77,7.047,2.366,10.625l0.014-0.055c-0.297-2.098-0.646-4.141-0.899-6.327c0.139,0.943,0.049,0.837-0.183-0.225l-0.05-0.841
					c0.476,1.836,0.816,3.699,0.953,5.49c0.007-0.001,0.172,0.793,0.254,1.189c0.05,0.599-0.029,0.58-0.075,0.714l0.192,1.242c-0.003-0.895-0.233-3.681-0.258-3.678z"/>
				<path d="M74.042,70.975c0.295,0.06,0.653,0.156,1.037,0.256c-1.414-0.852-2.896,0.371-3.619,1.427c0.476-0.529,1.321-1.489,2.582-1.683z"/>
			</g>
		</g>
		<g style="opacity:0.76;stroke:none;">
			<path style="fill:none;" d="M67.369,124.641c16.639,24.869,28.936,45.826,27.464,46.812c-1.47,0.983-16.15-18.38-32.79-43.248c-16.639-24.868-28.936-45.826-27.466-46.81c1.471-0.984,16.151,18.378,32.791,43.247z"/>
			<g>
				<path d="M57.518,109.651l-1.243-1.793l0.559,0.946c0.25,0.403,0.437,0.578,0.684,0.847z"/>
				<path d="M55.12,106.199l-0.221-0.315l-0.208-0.256l0.43,0.571z"/>
				<path d="M52.87,103.142l1.131,1.572c-0.305-0.458-0.674-0.98-1.131-1.572z"/>
				<path d="M54.575,105.639c-0.107-0.212-0.139-0.321,0.106-0.023l0.009,0.012l-0.688-0.913l0.574,0.925z"/>
				<path d="M54.575,105.639c0.104,0.207,0.284,0.515,0.341,0.629l-0.341-0.629z"/>
				<path d="M53.329,105.349c-0.239-0.289,0.007-0.356-0.474-0.942c-1.086-1.41-2.07-2.571-3.038-3.917c-0.487-0.584-0.983-1.699-1.471-2.274c-1.097-1.403-4.095-4.832-2.472-2.701c2.44,3.196,4.025,5.286,6.174,8.188c1.783,2.332,3.51,4.568,5.298,6.98
					c0.494,0.681,0.927,1.341,1.365,2.003c-0.555-0.872-1.133-1.764-1.779-2.744c-0.83-1.302-2.154-2.656-3.604-4.593z"/>
				<path d="M66.477,122.981c-0.235-0.301-0.703-0.898-0.703-0.898c-0.799-1.502-1.855-2.938-2.916-4.367l0.346,0.72c0.586,0.835,0.708,0.895,0.241,0.116c1.051,1.79,2.116,3.431,3.255,5.073c-0.015-0.139,0.063-0.157-0.224-0.644z"/>
				<path d="M67.375,124.59l-0.674-0.966l0.008,0.05l0.683,0.951l-0.017-0.035z"/>
				<path d="M47.951,96.761c-3.021-4.04-5.874-7.847-8.865-11.397c-0.269-0.24-0.475-0.396-0.765-0.775l-0.668-0.871l-1.413-1.459l-0.555-0.47l-0.013-0.007c-0.337-0.203-0.263-0.105-0.093,0.057c0.21,0.16,0.341,0.376,0.477,0.531
					c-0.088-0.095-0.296-0.387-0.477-0.531c-0.261-0.174-0.458-0.536-1.001-0.505c-0.416,0.641,0.085,1.276,0.223,1.904c-0.233-0.672-0.639-1.357-0.223-1.904c0.517-0.059,0.77,0.268,1.107,0.456l0.274,0.202c-0.297-0.599-1.966-1.15-1.56,0.206
					c0.149,0.796,0.48,1.493,0.774,2.215c0.152,0.318,0.299,0.626,0.42,0.872c0.504,0.997,1.051,1.969,1.261,2.641l0.385,0.732l-0.056-0.149l0.125,0.279l1.66,3.084l1.265,1.947c0,0,0.195,0.496,0.292,0.742c0.21,0.244,0.473,0.619,0.754,1.064
					c-0.25-0.577-0.472-1.118-0.696-1.603c-0.292-0.741-1.087-1.396-1.341-2.322c0.254,0.927,1.049,1.582,1.341,2.322c0.224,0.485,0.446,1.026,0.696,1.603c0.597,0.935,1.295,2.183,1.779,3.231c-0.814-1.175-1.351-2.262-1.779-3.231
					c-0.281-0.446-0.543-0.821-0.754-1.064c-0.096-0.246-0.292-0.743-0.292-0.742l-1.265-1.947c1.101,2.003,2.249,4.013,3.438,6.046c7.676,13.104,15.374,24.804,24.136,37.892c4.752,7.083,9.39,13.846,14.057,20.41c2.334,3.265,4.673,6.419,7.106,9.466
					c1.232,1.518,2.446,3.023,3.805,4.464c0.702,0.728,1.301,1.425,2.414,2.123c1.983,0.933,2.284-2.018,1.89-1.97c-0.12-0.649-0.342-1.008-0.51-1.525c-3.244-7.188-7.264-13.704-11.223-20.819c-3.067-5.423-9.415-15.081-12.763-20.058
					c-4.782-6.474-3.333-2.433-3.171-2.085c2,4.596,4.55,7.532,9.521,16.272c-3.438-5.922,3.233,3.936,6.046,9.782c2.024,4.225,4.909,9.103,7.671,14.283c0.664,1.289,1.368,2.629,1.862,3.904c0.768,0.757-0.727,1.35,1.543,0.042c0.19,0.052-0.696-0.566-1.097-1.014
					c-2.021-2.06-3.906-4.413-5.628-6.692c-1.729-2.287-3.6-4.694-5.634-7.473c-10.29-14.561-19.917-28.096-29.975-43.942c-2.665-4.196-5.171-7.785-7.435-11.307c-1.621-2.59-3.172-5.473-4.4-7.622c-1.9-3.379-3.653-6.315-4.879-9.13
					c1.333,3.177,2.75,5.472,4.715,8.933c1.334,2.315-1.197-1.458-2.084-2.989c-0.407-0.642-0.737-1.812-1.111-2.457c-0.729-1.439-1.539-2.813-2.034-4.286c-0.153-0.757,0.092,0.103-0.321,0.119c0.681,0.701,2.917,2.414,3.624,3.471
					c0.746,0.901,1.364,1.761,1.993,2.572l1.221,1.561l0.861,0.993c-0.158-0.318-0.166-0.473-0.169-0.624c0.389,0.506,0.89,1.254,1.273,1.773c-0.383-0.519-0.884-1.267-1.273-1.773c0.003,0.15,0.011,0.305,0.169,0.624c2.055,2.428,4.374,5.283,6.469,7.983
					l-0.012-0.053c-1.195-1.596-2.345-3.174-3.471-4.913c0.495,0.749,0.374,0.699-0.251-0.112l-0.38-0.698c1.128,1.382,2.254,2.76,3.113,4.222c0,0,0.495,0.582,0.742,0.872c0.307,0.474,0.229,0.496,0.248,0.629l0.716,0.942c-0.399-0.744-1.828-2.949-1.829-2.949z"/>
				<path d="M34.529,81.336c0.346-0.078,0.704,0.093,0.965,0.327c-0.512-0.854-1.598-0.063-1.025,0.712c0.147,0.65,0.415,1.241,0.651,1.848c-0.064-0.7-0.848-1.631-0.591-2.887z"/>
			</g>
		</g>
		<g style="stroke:none;">
			<g>
				<path style="opacity:0;" d="M84.468,89.262c0,1.959-1.588,3.547-3.548,3.547c-1.961,0-3.548-1.588-3.548-3.547c0-1.96,1.587-3.55,3.548-3.55c1.96,0,3.548,1.59,3.548,3.55z"/>
				<path style="opacity:0.1667;" d="M84.105,89.262c0,1.759-1.426,3.185-3.186,3.185c-1.761,0-3.186-1.426-3.186-3.185c0-1.76,1.425-3.188,3.186-3.188c1.76,0,3.186,1.428,3.186,3.188z"/>
				<path style="opacity:0.3333;" d="M83.743,89.261c0,1.559-1.264,2.823-2.824,2.823s-2.823-1.264-2.823-2.823c0-1.56,1.263-2.825,2.823-2.825s2.824,1.266,2.824,2.825z"/>
				<path style="opacity:0.5;" d="M83.381,89.261c0,1.359-1.101,2.461-2.461,2.461c-1.36,0-2.461-1.102-2.461-2.461c0-1.359,1.101-2.463,2.461-2.463c1.36,0,2.461,1.104,2.461,2.463z"/>
				<path style="opacity:0.6667;" d="M83.019,89.261c0,1.159-0.939,2.099-2.099,2.099c-1.159,0-2.099-0.94-2.099-2.099s0.939-2.1,2.099-2.1c1.16,0,2.099,0.941,2.099,2.1z"/>
				<path style="opacity:0.8333;" d="M82.656,89.261c0,0.958-0.777,1.736-1.737,1.736c-0.959,0-1.736-0.778-1.736-1.736c0-0.959,0.777-1.737,1.736-1.737c0.96,0,1.737,0.778,1.737,1.737z"/>
				<path d="M82.294,89.26c0,0.759-0.615,1.375-1.375,1.375c-0.758,0-1.374-0.616-1.374-1.375c0-0.758,0.616-1.375,1.374-1.375c0.76,0,1.375,0.616,1.375,1.375z"/>
			</g>
		</g>
		<g style="stroke:none;">
			<g>
				<path style="opacity:0;" d="M70.814,93.17c0,2.562-2.076,4.636-4.636,4.636c-2.56,0-4.635-2.074-4.635-4.636c0-2.559,2.075-4.633,4.635-4.633c2.56,0,4.636,2.075,4.636,4.633z"/>
				<path style="opacity:0.1667;" d="M70.332,93.17c0,2.294-1.859,4.153-4.153,4.153c-2.293,0-4.151-1.858-4.151-4.153c0-2.292,1.858-4.15,4.151-4.15c2.293,0,4.153,1.858,4.153,4.15z"/>
				<path style="opacity:0.3333;" d="M69.848,93.171c0,2.027-1.643,3.669-3.669,3.669c-2.026,0-3.668-1.642-3.668-3.669c0-2.025,1.643-3.667,3.668-3.667c2.026,0,3.669,1.642,3.669,3.667z"/>
				<path style="opacity:0.5;" d="M69.365,93.171c0,1.76-1.427,3.186-3.187,3.186c-1.759,0-3.185-1.426-3.185-3.186c0-1.759,1.426-3.185,3.185-3.185c1.76,0,3.187,1.426,3.187,3.185z"/>
				<path style="opacity:0.6667;" d="M68.882,93.171c0,1.493-1.21,2.703-2.703,2.703c-1.493,0-2.702-1.209-2.702-2.703c0-1.492,1.209-2.702,2.702-2.702c1.492,0,2.703,1.209,2.703,2.702z"/>
				<path style="opacity:0.8333;" d="M68.399,93.171c0,1.226-0.994,2.219-2.22,2.219c-1.226,0-2.219-0.993-2.219-2.219c0-1.226,0.993-2.219,2.219-2.219c1.226,0,2.22,0.993,2.22,2.219z"/>
				<path d="M67.916,93.171c0,0.959-0.778,1.736-1.736,1.736c-0.959,0-1.736-0.777-1.736-1.736s0.777-1.736,1.736-1.736c0.958,0,1.736,0.777,1.736,1.736z"/>
			</g>
		</g>
		<g style="stroke:none;">
			<g>
				<path style="opacity:0;" d="M53.318,104.302c0,3.698-2.996,6.694-6.693,6.694s-6.694-2.996-6.694-6.694c0-3.696,2.997-6.693,6.694-6.693s6.693,2.997,6.693,6.693z"/>
				<path style="opacity:0.1667;" d="M52.577,104.302c0,3.289-2.664,5.953-5.952,5.953s-5.953-2.664-5.953-5.953c0-3.287,2.665-5.952,5.953-5.952s5.952,2.665,5.952,5.952z"/>
				<path style="opacity:0.3333;" d="M51.836,104.302c0,2.88-2.333,5.212-5.211,5.212c-2.878,0-5.211-2.332-5.211-5.212c0-2.878,2.333-5.211,5.211-5.211c2.878,0,5.211,2.333,5.211,5.211z"/>
				<path style="opacity:0.5;" d="M51.095,104.302c0,2.471-2.001,4.471-4.47,4.471c-2.469,0-4.471-2-4.471-4.471c0-2.469,2.001-4.471,4.471-4.471c2.469,0,4.47,2.002,4.47,4.471z"/>
				<path style="opacity:0.6667;" d="M50.354,104.302c0,2.061-1.669,3.729-3.729,3.729s-3.729-1.668-3.729-3.729c0-2.06,1.67-3.729,3.729-3.729s3.729,1.67,3.729,3.729z"/>
				<path style="opacity:0.8333;" d="M49.613,104.302c0,1.651-1.338,2.987-2.988,2.987c-1.65,0-2.988-1.336-2.988-2.987c0-1.65,1.338-2.988,2.988-2.988c1.65,0,2.988,1.338,2.988,2.988z"/>
				<path d="M48.872,104.302c0,1.242-1.006,2.246-2.247,2.246c-1.241,0-2.247-1.004-2.247-2.246c0-1.241,1.006-2.247,2.247-2.247c1.241,0,2.247,1.006,2.247,2.247z"/>
			</g>
		</g>
		<path style="opacity:0;stroke:none;" d="M72.225,165.673c0,3.34-2.707,6.046-6.046,6.046c-3.339,0-6.046-2.706-6.046-6.046s2.708-6.046,6.046-6.046c3.339,0,6.046,2.706,6.046,6.046z"/>
		<g style="stroke:none;">
			<g>
				<path style="opacity:0;" d="M96.047,155.444c0,5.698-4.618,10.317-10.315,10.317c-5.695,0-10.314-4.619-10.314-10.317c0-5.696,4.619-10.315,10.314-10.315c5.698,0,10.315,4.619,10.315,10.315z"/>
				<path style="opacity:0.1667;" d="M94.767,155.444c0,4.991-4.044,9.036-9.035,9.036c-4.988,0-9.034-4.045-9.034-9.036c0-4.989,4.046-9.035,9.034-9.035c4.991,0,9.035,4.046,9.035,9.035z"/>
				<path style="opacity:0.3333;" d="M93.486,155.444c0,4.283-3.471,7.756-7.754,7.756c-4.281,0-7.753-3.473-7.753-7.756c0-4.281,3.472-7.754,7.753-7.754c4.283,0,7.754,3.473,7.754,7.754z"/>
				<path style="opacity:0.5;" d="M92.206,155.444c0,3.576-2.898,6.475-6.474,6.475c-3.573,0-6.473-2.898-6.473-6.475c0-3.574,2.899-6.474,6.473-6.474c3.576,0,6.474,2.899,6.474,6.474z"/>
				<path style="opacity:0.6667;" d="M90.925,155.444c0,2.869-2.325,5.193-5.193,5.193c-2.866,0-5.192-2.324-5.192-5.193c0-2.867,2.326-5.192,5.192-5.192c2.869,0,5.193,2.325,5.193,5.192z"/>
				<path style="opacity:0.8333;" d="M89.645,155.444c0,2.161-1.751,3.913-3.913,3.913c-2.159,0-3.911-1.752-3.911-3.913c0-2.159,1.752-3.912,3.911-3.912c2.162,0,3.913,1.753,3.913,3.912z"/>
				<path d="M88.364,155.444c0,1.454-1.178,2.632-2.632,2.632c-1.451,0-2.63-1.178-2.63-2.632c0-1.452,1.179-2.631,2.63-2.631c1.454,0,2.632,1.179,2.632,2.631z"/>
			</g>
		</g>
		<g style="stroke:none;">
			<g>
				<path style="opacity:0;" d="M70.432,131.565c0,3.697-2.998,6.694-6.694,6.694s-6.694-2.997-6.694-6.694c0-3.696,2.997-6.693,6.694-6.693s6.694,2.997,6.694,6.693z"/>
				<path style="opacity:0.1667;" d="M69.819,131.565c0,3.359-2.724,6.082-6.082,6.082s-6.082-2.723-6.082-6.082c0-3.358,2.723-6.081,6.082-6.081s6.082,2.723,6.082,6.081z"/>
				<path style="opacity:0.3333;" d="M69.207,131.565c0,3.021-2.449,5.47-5.469,5.47c-3.02,0-5.469-2.449-5.469-5.47s2.449-5.469,5.469-5.469c3.021,0,5.469,2.448,5.469,5.469z"/>
				<path style="opacity:0.5;" d="M68.594,131.565c0,2.683-2.175,4.857-4.857,4.857s-4.856-2.175-4.856-4.857s2.174-4.856,4.856-4.856s4.857,2.174,4.857,4.856z"/>
				<path style="opacity:0.6667;" d="M67.981,131.565c0,2.344-1.9,4.244-4.244,4.244s-4.244-1.9-4.244-4.244s1.9-4.244,4.244-4.244s4.244,1.9,4.244,4.244z"/>
				<path style="opacity:0.8333;" d="M67.369,131.565c0,2.006-1.626,3.632-3.632,3.632c-2.005,0-3.631-1.626-3.631-3.632s1.626-3.632,3.631-3.632c2.006,0,3.632,1.626,3.632,3.632z"/>
				<path d="M66.756,131.565c0,1.667-1.352,3.02-3.019,3.02c-1.667,0-3.019-1.353-3.019-3.02c0-1.668,1.352-3.02,3.019-3.02c1.667,0,3.019,1.352,3.019,3.02z"/>
			</g>
		</g>
	</g>
</svg>
