<?xml version="1.0" encoding="iso-8859-1"?>
<!-- Generator: Adobe Illustrator 9.0, SVG Export Plug-In  -->
<!DOCTYPE svg PUBLIC "-//W3C//DTD SVG 20000303 Stylable//EN"   "http://www.w3.org/TR/2000/03/WD-SVG-20000303/DTD/svg-20000303-stylable.dtd" [
	<!ENTITY st0 "fill:url(#aigrd1);stroke:none;">
	<!ENTITY st1 "fill:url(#aigrd3);stroke:none;">
	<!ENTITY st2 "opacity:0.35;stroke:none;">
	<!ENTITY st3 "fill:#808078;stroke:none;">
	<!ENTITY st4 "fill:#C1C2B4;stroke:none;">
	<!ENTITY st5 "fill:#F1F2E1;stroke:none;">
	<!ENTITY st6 "fill:url(#aigrd2);stroke:none;">
	<!ENTITY st7 "fill:none;stroke:none;">
	<!ENTITY st8 "fill-rule:nonzero;clip-rule:nonzero;stroke:#000000;stroke-miterlimit:4;">
	<!ENTITY st9 "stroke:none;">
]>
<svg  width="283.259pt" height="191.899pt" viewBox="0 0 283.259 191.899" xml:space="preserve">
	<g id="Layer_x0020_1" style="&st8;">
		<path style="&st9;" d="M189.531,9.853c-5.304,1.514-9.735,4.239-13.296,6.427c-3.115,1.916-6.045,3.718-7.876,3.718c-1.61-0.039-9.104-1.728-13.581-2.738c-18.888-4.255-44.743-10.081-59.732-4.329c-6.581,2.524-13.452,10.243-20.929,23.406
			c-1.118-0.289-2.358-0.609-2.358-0.609c-16.408-4.206-29.443-7.309-38.745-9.221c-16.825-3.461-23.274-3.762-28.31,1.275c-1.773,1.774-3.885,4.932-3.885,9.909c0,2.808,0.001,11.349,20.031,48.897c8.712,16.332,21.124,37.641,27.427,43.945
			c1.533,1.532,3.875,3.083,7.34,4.871c7.492,4.598,20.722,10.091,40.467,16.789c25.278,8.575,53.519,16.264,75.542,20.564c37.877,7.401,48.922,3.415,54.731-1.458c12.99-10.899,23.252-38.934,29.576-60.533c3.216-11,9.573-34.531,9.573-48.717
			c0-3.363-0.357-6.202-1.198-8.223c-4.307-10.354-13.432-12.363-18.333-13.443c-0.681-0.15-1.483-0.331-2.13-0.505c-0.03-0.37-0.063-0.762-0.096-1.303c-0.286-4.512-0.766-12.061-7.616-18.913c-10.98-10.979-34.934-13.143-46.602-9.809z"/>
		<path style="&st2;" d="M202.954,191.572c-19.247,3.709-141.68-28.245-151.865-38.712c-10.185-10.464,42.416-27.603,67.713-30.688c25.298-3.086,149.318,13.574,162.893,27.148c13.573,13.575-59.494,38.544-78.74,42.252z"/>
		<path style="&st9;" d="M188.509,15.703c-4.646,1.327-8.583,3.748-12.056,5.883c-3.89,2.391-7.246,4.456-10.5,4.456c-1.989,0-8.735-1.52-14.688-2.861c-18.254-4.113-43.253-9.747-56.823-4.541c-14.567,5.588-30.895,46.543-35.553,58.963
			c-3.928,10.474-6.979,20.204-8.822,28.138c-3.069,13.206-1.967,17.85-0.483,20.651c1.263,2.388,4.221,7.975,45.709,22.052c25.069,8.503,53.065,16.128,74.89,20.393c36.006,7.033,45.92,3.493,50.533-0.378c12.661-10.622,22.966-40.955,27.98-58.09
			c1.304-4.457,12.627-43.823,8.561-53.596c-3.302-7.937-10.204-9.458-14.771-10.464c-2.276-0.501-4.242-0.935-5.178-1.871c-0.648-0.648-0.801-1.599-0.986-4.533c-0.257-4.048-0.645-10.166-6.152-15.673c-9.22-9.219-31.285-11.494-41.662-8.529z"/>
		<linearGradient id="aigrd1" gradientUnits="userSpaceOnUse" x1="175.1182" y1="31.4458" x2="138.2075" y2="130.3147">
			<stop  offset="0" style="stop-color:#989C80"/>
			<stop  offset="1" style="stop-color:#000000"/>
		</linearGradient>
		<path style="&st0;" d="M95.5,22.203c-15.679,6.015-47.072,87.578-41.347,98.391c5.725,10.814,143.986,54.295,160.937,40.075c19.204-16.11,38.211-95.488,34.669-104.004c-3.441-8.27-13.101-4.771-18.508-10.177c-5.407-5.407-0.141-13.208-7.138-20.206
			c-6.997-6.997-26.199-9.374-35.105-6.829c-8.904,2.544-15.483,10.596-24.389,10.596c-8.906,0-52.27-14.309-69.118-7.846z"/>
		<path style="&st4;" d="M54.269,120.039c1.651-26.876,25.935-90.521,40.08-97.835c14.146-7.314,62.444,7.846,70.269,7.846c7.825,0,13.899-7.681,24.389-10.596c10.492-2.914,28.538,0.261,35.105,6.829c5.552,5.552,3.428,16.233,6.003,18.806
			c2.573,2.575,15.313,6.215,17.995,8.896c0,0-15.026-4.085-18.916-7.975c-3.891-3.891-3.172-12.613-6.355-15.797c-3.182-3.183-28.697-8.723-35.481-5.776c-6.784,2.946-12.377,10.255-21.808,11.906c-9.431,1.65-53.99-14.146-67.665-6.13
			c-13.674,8.016-43.617,89.826-43.617,89.826z"/>
		<path style="&st9;" d="M5.855,32.351c-1.099,1.1-2.411,3.095-2.411,6.353c0,8.341,10.571,29.907,19.439,46.529c9.228,17.297,21.015,37.226,26.546,42.756c8.817,8.818,69.375,26.377,76.25,28.35c25.715,7.379,70.923,19.248,84.788,15.829
			c2.402-0.592,7.987-3.03,7.986-12.871c-0.002-12.175-8.165-34.021-15.802-50.409c-4.414-9.473-8.96-17.863-13.145-24.263c-7.183-10.981-11.517-13.229-14.487-13.961c-2.421-0.595-10.268-2.781-21.13-5.806c-22.427-6.248-56.322-15.689-85.787-23.245
			c-16.303-4.18-29.258-7.265-38.507-9.166c-16.912-3.479-20.761-3.075-23.74-0.095z"/>
		<linearGradient id="aigrd2" gradientUnits="userSpaceOnUse" x1="105.9473" y1="88.8154" x2="127.5123" y2="165.4083">
			<stop  offset="0" style="stop-color:#DEDFCE"/>
			<stop  offset="1" style="stop-color:#C2C4B5"/>
		</linearGradient>
		<path style="&st6;" d="M205.529,163.01c13.337-3.287-22.87-85.438-35.445-88.533C157.507,71.382,12.329,29.313,7.239,34.403c-5.088,5.088,34.032,76.649,43.574,86.191c9.542,9.541,134.537,47.392,154.716,42.416z"/>
		<linearGradient id="aigrd3" gradientUnits="userSpaceOnUse" x1="75.6172" y1="70.0488" x2="89.9944" y2="121.1125">
			<stop  offset="0" style="stop-color:#DEDFCE"/>
			<stop  offset="1" style="stop-color:#FFFFFF"/>
		</linearGradient>
		<path style="&st1;" d="M85.621,135.39c-27.949-61.541,68.622-5.048,48.477-71.711c0,0-123.752-37.59-127.376-28.415c-3.73,9.446,37.258,78.498,44.091,85.33c6.722,6.723,34.808,14.796,34.808,14.796z"/>
		<path style="&st5;" d="M50.813,120.594c0,0-36.56-67.874-31.908-75.056c4.651-7.183,152.792,29.678,152.792,29.678C165.785,72.18,12.968,28.166,7.239,34.403c-5.729,6.235,35.758,78.375,43.574,86.191z"/>
		<path style="&st3;" d="M245.71,51.903c6.842,5.751-7.546,71.671-27.257,105.314c21.598-29.87,32.048-88.912,32.048-96.655c0-1.807-1.214-6.749-4.791-8.659z"/>
		<path style="&st7;" d="M0,191.899h282.773V0H0v191.899z"/>
	</g>
</svg>
