<?xml version="1.0" encoding="utf-8"?>
<!-- Generator: Adobe Illustrator 10.0, SVG Export Plug-In . SVG Version: 3.0.0 Build 76)  -->
<!DOCTYPE svg PUBLIC "-//W3C//DTD SVG 1.0//EN"    "http://www.w3.org/TR/2001/REC-SVG-20010904/DTD/svg10.dtd" [
	<!ENTITY ns_flows "http://ns.adobe.com/Flows/1.0/">
	<!ENTITY ns_extend "http://ns.adobe.com/Extensibility/1.0/">
	<!ENTITY ns_ai "http://ns.adobe.com/AdobeIllustrator/10.0/">
	<!ENTITY ns_graphs "http://ns.adobe.com/Graphs/1.0/">
	<!ENTITY ns_vars "http://ns.adobe.com/Variables/1.0/">
	<!ENTITY ns_imrep "http://ns.adobe.com/ImageReplacement/1.0/">
	<!ENTITY ns_sfw "http://ns.adobe.com/SaveForWeb/1.0/">
	<!ENTITY ns_custom "http://ns.adobe.com/GenericCustomNamespace/1.0/">
	<!ENTITY ns_adobe_xpath "http://ns.adobe.com/XPath/1.0/">
	<!ENTITY ns_svg "http://www.w3.org/2000/svg">
	<!ENTITY ns_xlink "http://www.w3.org/1999/xlink">
]>
<svg 
	 xmlns:x="&ns_extend;" xmlns:i="&ns_ai;" xmlns:graph="&ns_graphs;" i:viewOrigin="244.2715 468.2754" i:rulerOrigin="0 0" i:pageBounds="0 841.8896 595.4453 0"
	 xmlns="&ns_svg;" xmlns:xlink="&ns_xlink;" xmlns:a="http://ns.adobe.com/AdobeSVGViewerExtensions/3.0/"
	 width="108.642" height="97.297" viewBox="0 0 108.642 97.297" overflow="visible" enable-background="new 0 0 108.642 97.297"
	 xml:space="preserve">
	<metadata>
		<variableSets  xmlns="&ns_vars;">
			<variableSet  varSetName="binding1" locked="none">
				<variables></variables>
				<v:sampleDataSets  xmlns="&ns_custom;" xmlns:v="&ns_vars;"></v:sampleDataSets>
			</variableSet>
		</variableSets>
		<sfw  xmlns="&ns_sfw;">
			<slices></slices>
			<sliceSourceBounds  x="244.271" y="370.979" width="108.642" height="97.297" bottomLeftOrigin="true"></sliceSourceBounds>
		</sfw>
	</metadata>
	<g id="Layer_1" i:layer="yes" i:dimmedPercent="50" i:rgbTrio="#4F008000FFFF">
		<g>
			<g>
				<linearGradient id="XMLID_1_" gradientUnits="userSpaceOnUse" x1="16.627" y1="61.2822" x2="87.1301" y2="65.4093">
					<stop  offset="0" style="stop-color:#FFFFFF"/>
					<stop  offset="1" style="stop-color:#C0E1FF"/>
					<a:midPointStop  offset="0" style="stop-color:#FFFFFF"/>
					<a:midPointStop  offset="0.5" style="stop-color:#FFFFFF"/>
					<a:midPointStop  offset="1" style="stop-color:#C0E1FF"/>
				</linearGradient>
				<path i:knockout="Off" fill="url(#XMLID_1_)" d="M46.591,96.442L10.544,63.972L10.4,63.114L71.195,31.07l36.477,32.469
					L46.591,96.442z"/>
				<linearGradient id="XMLID_2_" gradientUnits="userSpaceOnUse" x1="18.7661" y1="61.4893" x2="89.8092" y2="65.5489">
					<stop  offset="0" style="stop-color:#FFFFFF"/>
					<stop  offset="1" style="stop-color:#00A2FF"/>
					<a:midPointStop  offset="0" style="stop-color:#FFFFFF"/>
					<a:midPointStop  offset="0.5" style="stop-color:#FFFFFF"/>
					<a:midPointStop  offset="1" style="stop-color:#00A2FF"/>
				</linearGradient>
				<path i:knockout="Off" fill="url(#XMLID_2_)" d="M49.787,94.114L15.624,64.128l-0.136-0.792l57.613-29.595l34.57,29.986
					L49.787,94.114z"/>
				<linearGradient id="XMLID_3_" gradientUnits="userSpaceOnUse" x1="-18.8286" y1="63.7529" x2="91.9918" y2="63.7529">
					<stop  offset="0" style="stop-color:#FFFFFF"/>
					<stop  offset="1" style="stop-color:#0035B8"/>
					<a:midPointStop  offset="0" style="stop-color:#FFFFFF"/>
					<a:midPointStop  offset="0.5" style="stop-color:#FFFFFF"/>
					<a:midPointStop  offset="1" style="stop-color:#0035B8"/>
				</linearGradient>
				<path i:knockout="Off" fill="url(#XMLID_3_)" d="M70.742,30.21L9.947,62.255c-0.37,0.194-0.574,0.606-0.505,1.019l0.143,0.858
					c0.037,0.218,0.145,0.415,0.308,0.562l36.048,32.471c0.305,0.273,0.75,0.328,1.111,0.133l61.081-32.901
					c0.279-0.15,0.468-0.428,0.504-0.742c0.037-0.315-0.082-0.629-0.318-0.84l-36.477-32.47C71.539,30.074,71.1,30.021,70.742,30.21
					z M71.053,32.244c0.949,0.846,33.007,29.382,34.937,31.099c-2.324,1.251-58.098,31.296-59.256,31.918
					c-0.979-0.88-34.423-31.005-35.159-31.667C12.97,62.858,69.896,32.853,71.053,32.244z"/>
			</g>
			<g>
				<linearGradient id="XMLID_4_" gradientUnits="userSpaceOnUse" x1="44.6816" y1="44.8711" x2="85.759" y2="155.3549">
					<stop  offset="0" style="stop-color:#FFFFFF"/>
					<stop  offset="1" style="stop-color:#003D8B"/>
					<a:midPointStop  offset="0" style="stop-color:#FFFFFF"/>
					<a:midPointStop  offset="0.5" style="stop-color:#FFFFFF"/>
					<a:midPointStop  offset="1" style="stop-color:#003D8B"/>
				</linearGradient>
				
					<path i:isolated="yes" i:knockout="Off" opacity="0.6" fill="url(#XMLID_4_)"  a:adobe-blending-mode="multiply" enable-background="new    " d="
					M42.471,21.798L84.17,38.413L52.432,76.934L7.53,57.615L42.471,21.798z"/>
				<path i:knockout="Off" fill="#FFFFFF" d="M38.892,10.629L84.07,28.732L49.401,70.806L0.357,49.704L38.892,10.629z"/>
				<linearGradient id="XMLID_5_" gradientUnits="userSpaceOnUse" x1="20.1348" y1="39.438" x2="113.182" y2="39.438">
					<stop  offset="0" style="stop-color:#FFFFFF"/>
					<stop  offset="1" style="stop-color:#CDCDCD"/>
					<a:midPointStop  offset="0" style="stop-color:#FFFFFF"/>
					<a:midPointStop  offset="0.5" style="stop-color:#FFFFFF"/>
					<a:midPointStop  offset="1" style="stop-color:#CDCDCD"/>
				</linearGradient>
				<path i:knockout="Off" fill="url(#XMLID_5_)" d="M39.746,12.801l40.291,16.056L49.37,66.075L5.983,47.409L39.746,12.801z"/>
				<path i:knockout="Off" fill="#CCCCCC" d="M84.891,28.035c-0.044-0.184-0.174-0.336-0.348-0.41L39.365,9.52
					c-0.216-0.092-0.468-0.051-0.644,0.107L0.189,48.703C0.038,48.842-0.035,49.047,0,49.249c0.033,0.202,0.168,0.374,0.357,0.455
					l49.043,21.102c0.247,0.104,0.533,0.035,0.704-0.171l34.667-42.073C84.893,28.414,84.938,28.221,84.891,28.035z M49.462,69.519
					C48.66,69.173,3.344,49.677,1.694,48.967c1.335-1.211,36.999-37.683,37.553-38.186c0.687,0.294,42.663,17.031,44.083,17.636
					C82.345,29.613,50.021,68.844,49.462,69.519z"/>
			</g>
			<g>
				<linearGradient id="XMLID_6_" gradientUnits="userSpaceOnUse" x1="26.6748" y1="42.769" x2="93.5027" y2="52.7309">
					<stop  offset="0" style="stop-color:#FFFFFF"/>
					<stop  offset="1" style="stop-color:#00A2FF"/>
					<a:midPointStop  offset="0" style="stop-color:#FFFFFF"/>
					<a:midPointStop  offset="0.5" style="stop-color:#FFFFFF"/>
					<a:midPointStop  offset="1" style="stop-color:#00A2FF"/>
				</linearGradient>
				
					<path i:isolated="yes" i:knockout="Off" fill="url(#XMLID_6_)"  a:adobe-blending-mode="multiply" enable-background="new    " d="
					M58.537,21.356l-0.285-10.299L81.568,0.901l26.178,62.371L47.237,95.886L22.633,38.236L58.537,21.356z"/>
				<linearGradient id="XMLID_7_" gradientUnits="userSpaceOnUse" x1="16.8364" y1="41.0605" x2="99.99" y2="54.662">
					<stop  offset="0" style="stop-color:#FFFFFF"/>
					<stop  offset="1" style="stop-color:#00A2FF"/>
					<a:midPointStop  offset="0" style="stop-color:#FFFFFF"/>
					<a:midPointStop  offset="0.5" style="stop-color:#FFFFFF"/>
					<a:midPointStop  offset="1" style="stop-color:#00A2FF"/>
				</linearGradient>
				
					<path i:isolated="yes" i:knockout="Off" fill="url(#XMLID_7_)"  a:adobe-blending-mode="multiply" enable-background="new    " d="
					M83.394,3.944L82.93,4.146l24.816,59.126L50.444,94.156l0.186,0.435l57.746-31.126L83.394,3.944z"/>
				<linearGradient id="XMLID_8_" gradientUnits="userSpaceOnUse" x1="53.0518" y1="74.8115" x2="90.216" y2="67.5245">
					<stop  offset="0" style="stop-color:#FFFFFF"/>
					<stop  offset="1" style="stop-color:#B8B8B8"/>
					<a:midPointStop  offset="0" style="stop-color:#FFFFFF"/>
					<a:midPointStop  offset="0.5" style="stop-color:#FFFFFF"/>
					<a:midPointStop  offset="1" style="stop-color:#B8B8B8"/>
				</linearGradient>
				<path i:knockout="Off" fill="url(#XMLID_8_)" d="M100.442,45.614L39.074,75.94l8.021,19.945l60.795-32.33L100.442,45.614z"/>
				<path i:knockout="Off" opacity="0.5" fill="#FFFFFF"  a:adobe-blending-mode="hardLight" d="M61.413,23.464l-0.272-9.827
					l21.789-9.49l-1.361-3.245L58.252,11.058l0.285,10.299l-35.904,16.88l24.604,57.649l3.207-1.729L27.148,39.573L61.413,23.464z"
					/>
				<linearGradient id="XMLID_9_" gradientUnits="userSpaceOnUse" x1="57.0947" y1="81.8076" x2="92.5809" y2="74.8496">
					<stop  offset="0" style="stop-color:#FFFFFF"/>
					<stop  offset="1" style="stop-color:#B8B8B8"/>
					<a:midPointStop  offset="0" style="stop-color:#FFFFFF"/>
					<a:midPointStop  offset="0.5" style="stop-color:#FFFFFF"/>
					<a:midPointStop  offset="1" style="stop-color:#B8B8B8"/>
				</linearGradient>
				<path i:knockout="Off" opacity="0.46" fill="url(#XMLID_9_)"  a:adobe-blending-mode="multiply" d="M106.432,60.502
					L45.603,92.348l1.492,3.053l60.795-32.33L106.432,60.502z"/>
				<linearGradient id="XMLID_10_" gradientUnits="userSpaceOnUse" x1="-13.6611" y1="48.4014" x2="98.6735" y2="48.4014">
					<stop  offset="0" style="stop-color:#FFFFFF"/>
					<stop  offset="1" style="stop-color:#0035B8"/>
					<a:midPointStop  offset="0" style="stop-color:#FFFFFF"/>
					<a:midPointStop  offset="0.5" style="stop-color:#FFFFFF"/>
					<a:midPointStop  offset="1" style="stop-color:#0035B8"/>
				</linearGradient>
				<path i:knockout="Off" fill="url(#XMLID_10_)" d="M81.18,0.011L57.863,10.167c-0.355,0.154-0.584,0.504-0.584,0.891
					c0,0.008,0.238,8.571,0.27,9.689C56.435,21.273,22.22,37.358,22.22,37.358c-0.352,0.165-0.559,0.514-0.559,0.879
					c0,0.127,0.025,0.257,0.078,0.381l24.603,57.648c0.108,0.251,0.315,0.446,0.574,0.535c0.258,0.091,0.542,0.069,0.782-0.062
					l60.509-32.612c0.44-0.239,0.629-0.771,0.435-1.232L82.464,0.526C82.363,0.286,82.172,0.097,81.93,0
					C81.688-0.097,81.42-0.093,81.18,0.011z M81.054,2.187c0.729,1.74,24.8,59.088,25.455,60.647
					c-1.489,0.803-57.003,30.725-58.796,31.69c-0.795-1.861-23.117-54.163-23.818-55.807c1.617-0.762,35.056-16.482,35.056-16.482
					c0.342-0.16,0.559-0.504,0.559-0.879c0-0.009-0.236-8.521-0.269-9.669C60.338,11.209,79.43,2.893,81.054,2.187z"/>
				<g i:isolated="yes" i:knockout="Off"  a:adobe-blending-mode="multiply" enable-background="new    ">
					<g  a:adobe-blending-mode="normal">
						<linearGradient id="XMLID_11_" gradientUnits="userSpaceOnUse" x1="62.3301" y1="38.2617" x2="299.6469" y2="38.2617">
							<stop  offset="0" style="stop-color:#FFFFFF"/>
							<stop  offset="1" style="stop-color:#003D8B"/>
							<a:midPointStop  offset="0" style="stop-color:#FFFFFF"/>
							<a:midPointStop  offset="0.5" style="stop-color:#FFFFFF"/>
							<a:midPointStop  offset="1" style="stop-color:#003D8B"/>
						</linearGradient>
						<path i:knockout="Off" fill="url(#XMLID_11_)" d="M41.962,74.337c0,0-1.643-20.675,22.432-34.433
							C88.418,26.176,81.054,2.187,81.054,2.187l18.33,43.599L41.962,74.337z"/>
					</g>
					<g  a:adobe-blending-mode="normal">
						<linearGradient id="XMLID_12_" gradientUnits="userSpaceOnUse" x1="46.1895" y1="36.7764" x2="99.7533" y2="41.9689">
							<stop  offset="0" style="stop-color:#FFFFFF"/>
							<stop  offset="1" style="stop-color:#003D8B"/>
							<a:midPointStop  offset="0" style="stop-color:#FFFFFF"/>
							<a:midPointStop  offset="0.5" style="stop-color:#FFFFFF"/>
							<a:midPointStop  offset="1" style="stop-color:#003D8B"/>
						</linearGradient>
						
							<path i:isolated="yes" i:knockout="Off" fill="url(#XMLID_12_)"  a:adobe-blending-mode="multiply" enable-background="new    " d="
							M41.962,74.337c0,0-1.643-20.675,22.432-34.433C88.418,26.176,81.054,2.187,81.054,2.187l18.33,43.599L41.962,74.337z"/>
					</g>
				</g>
			</g>
		</g>
	</g>
</svg>
